<?xml version="1.0" standalone="no"?>
<svg width="567.429" height="385.492" viewBox="0 0 567.429 385.492" xmlns="http://www.w3.org/2000/svg" shape-rendering="crispEdges">
<title>
/afs/ihep.ac.cn/users/z/zhangzihao/AsymmErrors.svg
</title>
<desc>
Creator: ROOT Version 6.14/00
CreationDate: Wed Oct 12 21:14:55 2022</desc>
<defs>
</defs>
<rect x="0.5" y="0" width="566.929" height="384.992" fill="white"/>
<rect x="57.1929" y="38.4992" width="453.543" height="307.994" fill="white"/>
<rect x="57.1929" y="38.4992" width="453.543" height="307.994" fill="none" stroke="black"/>
<rect x="57.1929" y="38.4992" width="453.543" height="307.994" fill="white"/>
<rect x="57.1929" y="38.4992" width="453.543" height="307.994" fill="none" stroke="black"/>
<path d="M57.1929,346.493h 453.543" fill="none" stroke="black"/>
<path d="M74.7922,38.4992v 307.994" fill="none" stroke="black" stroke-dasharray=" 1, 2"/>
<path d="M132.495,38.4992v 307.994" fill="none" stroke="black" stroke-dasharray=" 1, 2"/>
<path d="M190.198,38.4992v 307.994" fill="none" stroke="black" stroke-dasharray=" 1, 2"/>
<path d="M247.9,38.4992v 307.994" fill="none" stroke="black" stroke-dasharray=" 1, 2"/>
<path d="M305.603,38.4992v 307.994" fill="none" stroke="black" stroke-dasharray=" 1, 2"/>
<path d="M363.306,38.4992v 307.994" fill="none" stroke="black" stroke-dasharray=" 1, 2"/>
<path d="M421.009,38.4992v 307.994" fill="none" stroke="black" stroke-dasharray=" 1, 2"/>
<path d="M478.711,38.4992v 307.994" fill="none" stroke="black" stroke-dasharray=" 1, 2"/>
<path d="M74.7922,38.4992v 307.994" fill="none" stroke="black" stroke-dasharray=" 1, 2"/>
<path d="M478.711,38.4992v 307.994" fill="none" stroke="black" stroke-dasharray=" 1, 2"/>
<path d="M57.1929,346.493v -307.994" fill="none" stroke="black"/>
<path d="M510.736,293.511h -453.543" fill="none" stroke="black" stroke-dasharray=" 1, 2"/>
<path d="M510.736,235.289h -453.543" fill="none" stroke="black" stroke-dasharray=" 1, 2"/>
<path d="M510.736,177.067h -453.543" fill="none" stroke="black" stroke-dasharray=" 1, 2"/>
<path d="M510.736,118.845h -453.543" fill="none" stroke="black" stroke-dasharray=" 1, 2"/>
<path d="M510.736,60.6235h -453.543" fill="none" stroke="black" stroke-dasharray=" 1, 2"/>
<path d="M510.736,293.511h -453.543" fill="none" stroke="black" stroke-dasharray=" 1, 2"/>
<path d="M510.736,60.6235h -453.543" fill="none" stroke="black" stroke-dasharray=" 1, 2"/>
<path d="M57.1929,346.493h 453.543" fill="none" stroke="black"/>
<path d="M74.7922,337.253v 9.23981" fill="none" stroke="black"/>
<path d="M89.2179,341.873v 4.6199" fill="none" stroke="black"/>
<path d="M103.644,341.873v 4.6199" fill="none" stroke="black"/>
<path d="M118.069,341.873v 4.6199" fill="none" stroke="black"/>
<path d="M132.495,337.253v 9.23981" fill="none" stroke="black"/>
<path d="M146.921,341.873v 4.6199" fill="none" stroke="black"/>
<path d="M161.346,341.873v 4.6199" fill="none" stroke="black"/>
<path d="M175.772,341.873v 4.6199" fill="none" stroke="black"/>
<path d="M190.198,337.253v 9.23981" fill="none" stroke="black"/>
<path d="M204.623,341.873v 4.6199" fill="none" stroke="black"/>
<path d="M219.049,341.873v 4.6199" fill="none" stroke="black"/>
<path d="M233.475,341.873v 4.6199" fill="none" stroke="black"/>
<path d="M247.9,337.253v 9.23981" fill="none" stroke="black"/>
<path d="M262.326,341.873v 4.6199" fill="none" stroke="black"/>
<path d="M276.752,341.873v 4.6199" fill="none" stroke="black"/>
<path d="M291.177,341.873v 4.6199" fill="none" stroke="black"/>
<path d="M305.603,337.253v 9.23981" fill="none" stroke="black"/>
<path d="M320.029,341.873v 4.6199" fill="none" stroke="black"/>
<path d="M334.454,341.873v 4.6199" fill="none" stroke="black"/>
<path d="M348.88,341.873v 4.6199" fill="none" stroke="black"/>
<path d="M363.306,337.253v 9.23981" fill="none" stroke="black"/>
<path d="M377.731,341.873v 4.6199" fill="none" stroke="black"/>
<path d="M392.157,341.873v 4.6199" fill="none" stroke="black"/>
<path d="M406.583,341.873v 4.6199" fill="none" stroke="black"/>
<path d="M421.009,337.253v 9.23981" fill="none" stroke="black"/>
<path d="M435.434,341.873v 4.6199" fill="none" stroke="black"/>
<path d="M449.86,341.873v 4.6199" fill="none" stroke="black"/>
<path d="M464.286,341.873v 4.6199" fill="none" stroke="black"/>
<path d="M478.711,337.253v 9.23981" fill="none" stroke="black"/>
<path d="M74.7922,337.253v 9.23981" fill="none" stroke="black"/>
<path d="M60.3666,341.873v 4.6199" fill="none" stroke="black"/>
<path d="M478.711,337.253v 9.23981" fill="none" stroke="black"/>
<path d="M493.137,341.873v 4.6199" fill="none" stroke="black"/>
<path d="M507.563,341.873v 4.6199" fill="none" stroke="black"/>
<text xml:space="preserve" x="68.7264" y="359.001" fill="black" font-size="12.8621" font-family="Helvetica">0.4</text>
<text xml:space="preserve" x="62.2287" y="359.001" fill="black" font-size="12.8621" font-family="Times">&#8722;</text>
<text xml:space="preserve" x="126.394" y="359.001" fill="black" font-size="12.8621" font-family="Helvetica">0.2</text>
<text xml:space="preserve" x="119.896" y="359.001" fill="black" font-size="12.8621" font-family="Times">&#8722;</text>
<text xml:space="preserve" x="186.498" y="359.001" fill="black" font-size="12.8621" font-family="Helvetica">0</text>
<text xml:space="preserve" x="238.48" y="359.001" fill="black" font-size="12.8621" font-family="Helvetica">0.2</text>
<text xml:space="preserve" x="296.148" y="359.001" fill="black" font-size="12.8621" font-family="Helvetica">0.4</text>
<text xml:space="preserve" x="353.815" y="359.001" fill="black" font-size="12.8621" font-family="Helvetica">0.6</text>
<text xml:space="preserve" x="411.483" y="359.001" fill="black" font-size="12.8621" font-family="Helvetica">0.8</text>
<text xml:space="preserve" x="475.648" y="359.001" fill="black" font-size="12.8621" font-family="Helvetica">1</text>
<path d="M57.1929,346.493v -307.994" fill="none" stroke="black"/>
<path d="M70.7992,293.511h -13.6063" fill="none" stroke="black"/>
<path d="M63.9961,278.955h -6.80315" fill="none" stroke="black"/>
<path d="M63.9961,264.4h -6.80315" fill="none" stroke="black"/>
<path d="M63.9961,249.845h -6.80315" fill="none" stroke="black"/>
<path d="M70.7992,235.289h -13.6063" fill="none" stroke="black"/>
<path d="M63.9961,220.734h -6.80315" fill="none" stroke="black"/>
<path d="M63.9961,206.178h -6.80315" fill="none" stroke="black"/>
<path d="M63.9961,191.623h -6.80315" fill="none" stroke="black"/>
<path d="M70.7992,177.067h -13.6063" fill="none" stroke="black"/>
<path d="M63.9961,162.512h -6.80315" fill="none" stroke="black"/>
<path d="M63.9961,147.956h -6.80315" fill="none" stroke="black"/>
<path d="M63.9961,133.401h -6.80315" fill="none" stroke="black"/>
<path d="M70.7992,118.845h -13.6063" fill="none" stroke="black"/>
<path d="M63.9961,104.29h -6.80315" fill="none" stroke="black"/>
<path d="M63.9961,89.7344h -6.80315" fill="none" stroke="black"/>
<path d="M63.9961,75.179h -6.80315" fill="none" stroke="black"/>
<path d="M70.7992,60.6235h -13.6063" fill="none" stroke="black"/>
<path d="M70.7992,293.511h -13.6063" fill="none" stroke="black"/>
<path d="M63.9961,308.066h -6.80315" fill="none" stroke="black"/>
<path d="M63.9961,322.622h -6.80315" fill="none" stroke="black"/>
<path d="M63.9961,337.177h -6.80315" fill="none" stroke="black"/>
<path d="M70.7992,60.6235h -13.6063" fill="none" stroke="black"/>
<path d="M63.9961,46.068h -6.80315" fill="none" stroke="black"/>
<text xml:space="preserve" x="47.6087" y="298.085" fill="black" font-size="12.8621" font-family="Helvetica">2</text>
<text xml:space="preserve" x="47.6087" y="239.605" fill="black" font-size="12.8621" font-family="Helvetica">4</text>
<text xml:space="preserve" x="47.6087" y="181.937" fill="black" font-size="12.8621" font-family="Helvetica">6</text>
<text xml:space="preserve" x="47.6087" y="123.457" fill="black" font-size="12.8621" font-family="Helvetica">8</text>
<text xml:space="preserve" x="41.111" y="64.9776" fill="black" font-size="12.8621" font-family="Helvetica">10</text>
<path d="M126.725,322.622l 77.8987, -55.3108l 57.7027, -78.5995l 28.8514, -52.3997l 43.277, -46.5775l 31.7365, -17.4666l 25.9662, 26.1998l 43.277, 69.8662l 11.5405, 52.3997l 17.3108, 101.888" fill="none" stroke="black"/>
<g stroke="#0000ff" stroke-width="1" fill="#0000ff">
<rect x="123.476" y="319.373" width="6.49776" height="6.49776"/>
<rect x="201.374" y="264.062" width="6.49776" height="6.49776"/>
<rect x="259.077" y="185.463" width="6.49776" height="6.49776"/>
<rect x="287.929" y="133.063" width="6.49776" height="6.49776"/>
<rect x="331.206" y="86.4855" width="6.49776" height="6.49776"/>
<rect x="362.942" y="69.019" width="6.49776" height="6.49776"/>
<rect x="388.908" y="95.2188" width="6.49776" height="6.49776"/>
<rect x="432.185" y="165.085" width="6.49776" height="6.49776"/>
<rect x="443.726" y="217.485" width="6.49776" height="6.49776"/>
<rect x="461.037" y="319.373" width="6.49776" height="6.49776"/>
</g>
<path d="M123.476,322.622h -28.4876" fill="none" stroke="black"/>
<path d="M94.9882,324.246v -3.24888" fill="none" stroke="black"/>
<path d="M129.974,322.622h 2.52139" fill="none" stroke="black"/>
<path d="M132.495,324.246v -3.24888" fill="none" stroke="black"/>
<path d="M126.725,319.373v -14.2177" fill="none" stroke="black"/>
<path d="M125.1,305.155h 3.24888" fill="none" stroke="black"/>
<path d="M126.725,325.871v 20.0399" fill="none" stroke="black"/>
<path d="M125.1,345.911h 3.24888" fill="none" stroke="black"/>
<path d="M201.374,267.311h -25.6025" fill="none" stroke="black"/>
<path d="M175.772,268.936v -3.24888" fill="none" stroke="black"/>
<path d="M207.872,267.311h 19.8322" fill="none" stroke="black"/>
<path d="M227.704,268.936v -3.24888" fill="none" stroke="black"/>
<path d="M204.623,264.062v -11.3066" fill="none" stroke="black"/>
<path d="M202.999,252.756h 3.24888" fill="none" stroke="black"/>
<path d="M204.623,270.56v 5.4844" fill="none" stroke="black"/>
<path d="M202.999,276.044h 3.24888" fill="none" stroke="black"/>
<path d="M259.077,188.712h -16.9471" fill="none" stroke="black"/>
<path d="M242.13,190.336v -3.24888" fill="none" stroke="black"/>
<path d="M265.575,188.712h 8.29166" fill="none" stroke="black"/>
<path d="M273.867,190.336v -3.24888" fill="none" stroke="black"/>
<path d="M262.326,185.463v -8.39549" fill="none" stroke="black"/>
<path d="M260.702,177.067h 3.24888" fill="none" stroke="black"/>
<path d="M262.326,191.96v 14.2177" fill="none" stroke="black"/>
<path d="M260.702,206.178h 3.24888" fill="none" stroke="black"/>
<path d="M287.929,136.312h -16.9471" fill="none" stroke="black"/>
<path d="M270.981,137.936v -3.24888" fill="none" stroke="black"/>
<path d="M294.426,136.312h 11.1768" fill="none" stroke="black"/>
<path d="M305.603,137.936v -3.24888" fill="none" stroke="black"/>
<path d="M291.177,139.561v 11.3066" fill="none" stroke="black"/>
<path d="M289.553,150.867h 3.24888" fill="none" stroke="black"/>
<path d="M331.206,89.7344h -8.29166" fill="none" stroke="black"/>
<path d="M322.914,91.3589v -3.24888" fill="none" stroke="black"/>
<path d="M337.703,89.7344h 5.40653" fill="none" stroke="black"/>
<path d="M343.11,91.3589v -3.24888" fill="none" stroke="black"/>
<path d="M334.454,86.4856v -5.4844" fill="none" stroke="black"/>
<path d="M332.83,81.0012h 3.24888" fill="none" stroke="black"/>
<path d="M334.454,92.9833v 8.39549" fill="none" stroke="black"/>
<path d="M332.83,101.379h 3.24888" fill="none" stroke="black"/>
<path d="M362.942,72.2679h -11.1768" fill="none" stroke="black"/>
<path d="M351.765,73.8923v -3.24888" fill="none" stroke="black"/>
<path d="M369.44,72.2679h 5.40653" fill="none" stroke="black"/>
<path d="M374.846,73.8923v -3.24888" fill="none" stroke="black"/>
<path d="M366.191,69.019v -2.57331" fill="none" stroke="black"/>
<path d="M364.566,66.4457h 3.24888" fill="none" stroke="black"/>
<path d="M366.191,75.5168v 8.39549" fill="none" stroke="black"/>
<path d="M364.566,83.9122h 3.24888" fill="none" stroke="black"/>
<path d="M388.908,98.4677h -14.0619" fill="none" stroke="black"/>
<path d="M374.846,100.092v -3.24888" fill="none" stroke="black"/>
<path d="M395.406,98.4677h 8.29166" fill="none" stroke="black"/>
<path d="M403.698,100.092v -3.24888" fill="none" stroke="black"/>
<path d="M392.157,95.2188v -5.4844" fill="none" stroke="black"/>
<path d="M390.533,89.7344h 3.24888" fill="none" stroke="black"/>
<path d="M392.157,101.717v 11.3066" fill="none" stroke="black"/>
<path d="M390.533,113.023h 3.24888" fill="none" stroke="black"/>
<path d="M432.185,168.334h -16.9471" fill="none" stroke="black"/>
<path d="M415.238,169.958v -3.24888" fill="none" stroke="black"/>
<path d="M438.683,168.334h 11.1768" fill="none" stroke="black"/>
<path d="M449.86,169.958v -3.24888" fill="none" stroke="black"/>
<path d="M435.434,165.085v -8.39549" fill="none" stroke="black"/>
<path d="M433.81,156.69h 3.24888" fill="none" stroke="black"/>
<path d="M435.434,171.583v 14.2177" fill="none" stroke="black"/>
<path d="M433.81,185.8h 3.24888" fill="none" stroke="black"/>
<path d="M443.726,220.734h -19.8322" fill="none" stroke="black"/>
<path d="M423.894,222.358v -3.24888" fill="none" stroke="black"/>
<path d="M450.224,220.734h 14.0619" fill="none" stroke="black"/>
<path d="M464.286,222.358v -3.24888" fill="none" stroke="black"/>
<path d="M446.975,217.485v -11.3066" fill="none" stroke="black"/>
<path d="M445.35,206.178h 3.24888" fill="none" stroke="black"/>
<path d="M446.975,223.982v 17.1288" fill="none" stroke="black"/>
<path d="M445.35,241.111h 3.24888" fill="none" stroke="black"/>
<path d="M461.037,322.622h -11.1768" fill="none" stroke="black"/>
<path d="M449.86,324.246v -3.24888" fill="none" stroke="black"/>
<path d="M467.534,322.622h 5.40653" fill="none" stroke="black"/>
<path d="M472.941,324.246v -3.24888" fill="none" stroke="black"/>
<path d="M464.286,319.373v -14.2177" fill="none" stroke="black"/>
<path d="M462.661,305.155h 3.24888" fill="none" stroke="black"/>
<path d="M464.286,325.871v 20.0399" fill="none" stroke="black"/>
<path d="M462.661,345.911h 3.24888" fill="none" stroke="black"/>
<text xml:space="preserve" x="156.446" y="18.681" fill="black" font-size="18.7414" font-family="Helvetica">TGraphAsymmErrors Example</text></svg>
