<?xml version="1.0" standalone="no"?>
<svg width="567.429" height="387.116" viewBox="0 0 567.429 387.116" xmlns="http://www.w3.org/2000/svg" shape-rendering="crispEdges">
<title>
/home/users/z/zhangzh/guide/root/example_cernstaff/tree/chain.svg
</title>
<desc>
Creator: ROOT Version 6.22/02
CreationDate: Fri Oct 28 14:36:31 2022</desc>
<defs>
</defs>
<rect x="0.5" y="0" width="566.929" height="386.616" fill="white"/>
<rect x="57.1929" y="38.6616" width="453.543" height="309.293" fill="white"/>
<rect x="57.1929" y="38.6616" width="453.543" height="309.293" fill="none" stroke="black"/>
<rect x="57.1929" y="38.6616" width="453.543" height="309.293" fill="white"/>
<rect x="57.1929" y="38.6616" width="453.543" height="309.293" fill="none" stroke="black"/>
<path d="M57.1929,347.955h 31.748v -0.791841h 4.53543v 0.791841h 18.1417v -0.791841h 4.53543v 0.791841h 4.53543v -3.16736h 4.53543v -0.791841h 4.53543v -4.75105h 4.53543v 3.16736h 4.53543v -4.75105h 4.53543v -3.16736h 4.53543v -7.12657h 9.07087v
 -6.33473h 4.53543v -2.37552h 4.53543v -16.6287h 4.53543v 7.91841h 4.53543v -16.6287h 4.53543v -3.16736h 4.53543v -8.71025h 4.53543v 12.6695h 4.53543v 4.75105h 4.53543v 3.16736h 4.53543v 13.4613h 4.53543v -9.50209h 4.53543v 4.75105h 4.53543v 4.75105h
 4.53543v 3.95921h 4.53543v 17.4205h 4.53543v -5.54289h 4.53543v 2.37552h 4.53543v 3.95921h 4.53543v -1.58368h 4.53543v -3.16736h 4.53543v -2.37552h 4.53543v -3.95921h 4.53543v -25.3389h 4.53543v 0.791841h 4.53543v -33.2573h 4.53543v -22.1716h
 4.53543v -0.791841h 4.53543v -35.6329h 4.53543v -44.3431h 4.53543v -43.5513h 9.07087v -51.4697h 4.53543v 15.8368h 4.53543v -21.3797h 4.53543v -11.8776h 4.53543v 12.6695h 4.53543v 24.5471h 4.53543v 11.0858h 4.53543v 16.6287h 4.53543v 42.7594h
 4.53543v 36.4247h 4.53543v 11.8776h 4.53543v 7.91841h 4.53543v 26.9226h 4.53543v -4.75105h 4.53543v 0.791841h 4.53543v -13.4613h 4.53543v 6.33473h 4.53543v -3.16736h 4.53543v 2.37552h 4.53543v -3.16736h 4.53543v 18.2123h 4.53543v -5.54289h 4.53543v
 7.12657h 4.53543v 18.2123h 4.53543v 0.791841h 4.53543v 16.6287h 4.53543v 13.4613h 4.53543v 15.8368h 4.53543v 8.71025h 4.53543v 11.0858h 4.53543v -1.58368h 4.53543v 5.54289h 4.53543v 3.16736h 4.53543v 3.16736h 4.53543v 2.37552h 4.53543v -0.791841h
 4.53543v 1.58368h 9.07087v 0.791841h 36.2835" fill="none" stroke="#000099"/>
<rect x="442.705" y="25.1301" width="113.386" height="61.8586" fill="white"/>
<path d="M442.705,86.9887h 113.386" fill="none" stroke="black"/>
<path d="M556.091,86.9887v -61.8586" fill="none" stroke="black"/>
<path d="M556.091,25.1301h -113.386" fill="none" stroke="black"/>
<path d="M442.705,25.1301v 61.8586" fill="none" stroke="black"/>
<text xml:space="preserve" x="480.522" y="36.5499" fill="black" font-size="13.5527" font-family="Helvetica">htemp</text>
<path d="M442.705,40.5947h 113.386" fill="none" stroke="black"/>
<text xml:space="preserve" x="448.033" y="52.7943" fill="black" font-size="13.1683" font-family="Helvetica">Entries </text>
<text xml:space="preserve" x="517.884" y="52.7943" fill="black" font-size="13.1683" font-family="Helvetica"> 8000</text>
<text xml:space="preserve" x="448.033" y="68.2264" fill="black" font-size="13.1683" font-family="Helvetica">Mean  </text>
<text xml:space="preserve" x="510.574" y="68.2264" fill="black" font-size="13.1683" font-family="Helvetica">  6.135</text>
<text xml:space="preserve" x="448.033" y="83.6586" fill="black" font-size="13.1683" font-family="Helvetica">Std Dev   </text>
<text xml:space="preserve" x="510.574" y="83.6586" fill="black" font-size="13.1683" font-family="Helvetica">  2.503</text>
<path d="M57.1929,347.955h 453.543" fill="none" stroke="black"/>
<path d="M62.2323,338.676v 9.27879" fill="none" stroke="black"/>
<path d="M74.8307,343.315v 4.6394" fill="none" stroke="black"/>
<path d="M87.4291,343.315v 4.6394" fill="none" stroke="black"/>
<path d="M100.028,343.315v 4.6394" fill="none" stroke="black"/>
<path d="M112.626,338.676v 9.27879" fill="none" stroke="black"/>
<path d="M125.224,343.315v 4.6394" fill="none" stroke="black"/>
<path d="M137.823,343.315v 4.6394" fill="none" stroke="black"/>
<path d="M150.421,343.315v 4.6394" fill="none" stroke="black"/>
<path d="M163.02,338.676v 9.27879" fill="none" stroke="black"/>
<path d="M175.618,343.315v 4.6394" fill="none" stroke="black"/>
<path d="M188.217,343.315v 4.6394" fill="none" stroke="black"/>
<path d="M200.815,343.315v 4.6394" fill="none" stroke="black"/>
<path d="M213.413,338.676v 9.27879" fill="none" stroke="black"/>
<path d="M226.012,343.315v 4.6394" fill="none" stroke="black"/>
<path d="M238.61,343.315v 4.6394" fill="none" stroke="black"/>
<path d="M251.209,343.315v 4.6394" fill="none" stroke="black"/>
<path d="M263.807,338.676v 9.27879" fill="none" stroke="black"/>
<path d="M276.406,343.315v 4.6394" fill="none" stroke="black"/>
<path d="M289.004,343.315v 4.6394" fill="none" stroke="black"/>
<path d="M301.602,343.315v 4.6394" fill="none" stroke="black"/>
<path d="M314.201,338.676v 9.27879" fill="none" stroke="black"/>
<path d="M326.799,343.315v 4.6394" fill="none" stroke="black"/>
<path d="M339.398,343.315v 4.6394" fill="none" stroke="black"/>
<path d="M351.996,343.315v 4.6394" fill="none" stroke="black"/>
<path d="M364.594,338.676v 9.27879" fill="none" stroke="black"/>
<path d="M377.193,343.315v 4.6394" fill="none" stroke="black"/>
<path d="M389.791,343.315v 4.6394" fill="none" stroke="black"/>
<path d="M402.39,343.315v 4.6394" fill="none" stroke="black"/>
<path d="M414.988,338.676v 9.27879" fill="none" stroke="black"/>
<path d="M427.587,343.315v 4.6394" fill="none" stroke="black"/>
<path d="M440.185,343.315v 4.6394" fill="none" stroke="black"/>
<path d="M452.783,343.315v 4.6394" fill="none" stroke="black"/>
<path d="M465.382,338.676v 9.27879" fill="none" stroke="black"/>
<path d="M62.2323,338.676v 9.27879" fill="none" stroke="black"/>
<path d="M465.382,338.676v 9.27879" fill="none" stroke="black"/>
<path d="M477.98,343.315v 4.6394" fill="none" stroke="black"/>
<path d="M490.579,343.315v 4.6394" fill="none" stroke="black"/>
<path d="M503.177,343.315v 4.6394" fill="none" stroke="black"/>
<text xml:space="preserve" x="61.4165" y="360.625" fill="black" font-size="12.9143" font-family="Helvetica">4</text>
<text xml:space="preserve" x="54.9187" y="360.625" fill="black" font-size="12.9143" font-family="Times">&#8722;</text>
<text xml:space="preserve" x="111.774" y="360.625" fill="black" font-size="12.9143" font-family="Helvetica">2</text>
<text xml:space="preserve" x="105.276" y="360.625" fill="black" font-size="12.9143" font-family="Times">&#8722;</text>
<text xml:space="preserve" x="158.883" y="360.625" fill="black" font-size="12.9143" font-family="Helvetica">0</text>
<text xml:space="preserve" x="209.24" y="360.625" fill="black" font-size="12.9143" font-family="Helvetica">2</text>
<text xml:space="preserve" x="259.598" y="360.625" fill="black" font-size="12.9143" font-family="Helvetica">4</text>
<text xml:space="preserve" x="309.956" y="360.625" fill="black" font-size="12.9143" font-family="Helvetica">6</text>
<text xml:space="preserve" x="360.313" y="360.625" fill="black" font-size="12.9143" font-family="Helvetica">8</text>
<text xml:space="preserve" x="407.422" y="360.625" fill="black" font-size="12.9143" font-family="Helvetica">10</text>
<text xml:space="preserve" x="457.78" y="360.625" fill="black" font-size="12.9143" font-family="Helvetica">12</text>
<text xml:space="preserve" x="485.395" y="374.433" fill="black" font-size="12.9143" font-family="Helvetica">data</text>
<path d="M57.1929,347.955v -309.293" fill="none" stroke="black"/>
<path d="M70.7992,347.955h -13.6063" fill="none" stroke="black"/>
<path d="M63.9961,340.036h -6.80315" fill="none" stroke="black"/>
<path d="M63.9961,332.118h -6.80315" fill="none" stroke="black"/>
<path d="M63.9961,324.2h -6.80315" fill="none" stroke="black"/>
<path d="M63.9961,316.281h -6.80315" fill="none" stroke="black"/>
<path d="M70.7992,308.363h -13.6063" fill="none" stroke="black"/>
<path d="M63.9961,300.444h -6.80315" fill="none" stroke="black"/>
<path d="M63.9961,292.526h -6.80315" fill="none" stroke="black"/>
<path d="M63.9961,284.607h -6.80315" fill="none" stroke="black"/>
<path d="M63.9961,276.689h -6.80315" fill="none" stroke="black"/>
<path d="M70.7992,268.771h -13.6063" fill="none" stroke="black"/>
<path d="M63.9961,260.852h -6.80315" fill="none" stroke="black"/>
<path d="M63.9961,252.934h -6.80315" fill="none" stroke="black"/>
<path d="M63.9961,245.015h -6.80315" fill="none" stroke="black"/>
<path d="M63.9961,237.097h -6.80315" fill="none" stroke="black"/>
<path d="M70.7992,229.179h -13.6063" fill="none" stroke="black"/>
<path d="M63.9961,221.26h -6.80315" fill="none" stroke="black"/>
<path d="M63.9961,213.342h -6.80315" fill="none" stroke="black"/>
<path d="M63.9961,205.423h -6.80315" fill="none" stroke="black"/>
<path d="M63.9961,197.505h -6.80315" fill="none" stroke="black"/>
<path d="M70.7992,189.587h -13.6063" fill="none" stroke="black"/>
<path d="M63.9961,181.668h -6.80315" fill="none" stroke="black"/>
<path d="M63.9961,173.75h -6.80315" fill="none" stroke="black"/>
<path d="M63.9961,165.831h -6.80315" fill="none" stroke="black"/>
<path d="M63.9961,157.913h -6.80315" fill="none" stroke="black"/>
<path d="M70.7992,149.995h -13.6063" fill="none" stroke="black"/>
<path d="M63.9961,142.076h -6.80315" fill="none" stroke="black"/>
<path d="M63.9961,134.158h -6.80315" fill="none" stroke="black"/>
<path d="M63.9961,126.239h -6.80315" fill="none" stroke="black"/>
<path d="M63.9961,118.321h -6.80315" fill="none" stroke="black"/>
<path d="M70.7992,110.402h -13.6063" fill="none" stroke="black"/>
<path d="M63.9961,102.484h -6.80315" fill="none" stroke="black"/>
<path d="M63.9961,94.5656h -6.80315" fill="none" stroke="black"/>
<path d="M63.9961,86.6472h -6.80315" fill="none" stroke="black"/>
<path d="M63.9961,78.7288h -6.80315" fill="none" stroke="black"/>
<path d="M70.7992,70.8104h -13.6063" fill="none" stroke="black"/>
<path d="M70.7992,70.8104h -13.6063" fill="none" stroke="black"/>
<path d="M63.9961,62.892h -6.80315" fill="none" stroke="black"/>
<path d="M63.9961,54.9736h -6.80315" fill="none" stroke="black"/>
<path d="M63.9961,47.0552h -6.80315" fill="none" stroke="black"/>
<path d="M63.9961,39.1367h -6.80315" fill="none" stroke="black"/>
<text xml:space="preserve" x="46.7965" y="352.503" fill="black" font-size="12.9143" font-family="Helvetica">0</text>
<text xml:space="preserve" x="39.4865" y="312.704" fill="black" font-size="12.9143" font-family="Helvetica">50</text>
<text xml:space="preserve" x="32.9888" y="272.906" fill="black" font-size="12.9143" font-family="Helvetica">100</text>
<text xml:space="preserve" x="32.9888" y="233.919" fill="black" font-size="12.9143" font-family="Helvetica">150</text>
<text xml:space="preserve" x="32.9888" y="194.12" fill="black" font-size="12.9143" font-family="Helvetica">200</text>
<text xml:space="preserve" x="32.9888" y="154.322" fill="black" font-size="12.9143" font-family="Helvetica">250</text>
<text xml:space="preserve" x="32.9888" y="114.523" fill="black" font-size="12.9143" font-family="Helvetica">300</text>
<text xml:space="preserve" x="32.9888" y="75.5364" fill="black" font-size="12.9143" font-family="Helvetica">350</text>
<rect x="442.705" y="25.1301" width="113.386" height="61.8586" fill="white"/>
<path d="M442.705,86.9887h 113.386" fill="none" stroke="black"/>
<path d="M556.091,86.9887v -61.8586" fill="none" stroke="black"/>
<path d="M556.091,25.1301h -113.386" fill="none" stroke="black"/>
<path d="M442.705,25.1301v 61.8586" fill="none" stroke="black"/>
<text xml:space="preserve" x="480.522" y="36.5499" fill="black" font-size="13.5527" font-family="Helvetica">htemp</text>
<path d="M442.705,40.5947h 113.386" fill="none" stroke="black"/>
<text xml:space="preserve" x="448.033" y="52.7943" fill="black" font-size="13.1683" font-family="Helvetica">Entries </text>
<text xml:space="preserve" x="517.884" y="52.7943" fill="black" font-size="13.1683" font-family="Helvetica"> 8000</text>
<text xml:space="preserve" x="448.033" y="68.2264" fill="black" font-size="13.1683" font-family="Helvetica">Mean  </text>
<text xml:space="preserve" x="510.574" y="68.2264" fill="black" font-size="13.1683" font-family="Helvetica">  6.135</text>
<text xml:space="preserve" x="448.033" y="83.6586" fill="black" font-size="13.1683" font-family="Helvetica">Std Dev   </text>
<text xml:space="preserve" x="510.574" y="83.6586" fill="black" font-size="13.1683" font-family="Helvetica">  2.503</text>
<text xml:space="preserve" x="266.908" y="18.681" fill="black" font-size="17.0819" font-family="Helvetica">data</text></svg>
