<?xml version="1.0" standalone="no"?>
<svg width="567.429" height="261.212" viewBox="0 0 567.429 261.212" xmlns="http://www.w3.org/2000/svg" shape-rendering="crispEdges">
<title>
/Users/zhangzh/Downloads/LC的副本/plot/errorBand.svg
</title>
<desc>
Creator: ROOT Version 6.28/04
CreationDate: Tue Nov  7 22:12:59 2023</desc>
<defs>
</defs>
<rect x="0.5" y="0" width="566.929" height="260.712" fill="white"/>
<rect x="6.16929" y="2.60712" width="272.126" height="255.497" fill="white"/>
<rect x="33.3819" y="28.1569" width="217.701" height="204.398" fill="white"/>
<rect x="33.3819" y="28.1569" width="217.701" height="204.398" fill="none" stroke="black"/>
<rect x="33.3819" y="28.1569" width="217.701" height="204.398" fill="white"/>
<rect x="33.3819" y="28.1569" width="217.701" height="204.398" fill="none" stroke="black"/>
<path d="M33.3819,232.555h 217.701" fill="none" stroke="black"/>
<path d="M55.4675,226.423v 6.13194" fill="none" stroke="black"/>
<path d="M63.3552,229.489v 3.06597" fill="none" stroke="black"/>
<path d="M71.2429,229.489v 3.06597" fill="none" stroke="black"/>
<path d="M79.1306,229.489v 3.06597" fill="none" stroke="black"/>
<path d="M87.0183,229.489v 3.06597" fill="none" stroke="black"/>
<path d="M94.906,226.423v 6.13194" fill="none" stroke="black"/>
<path d="M102.794,229.489v 3.06597" fill="none" stroke="black"/>
<path d="M110.681,229.489v 3.06597" fill="none" stroke="black"/>
<path d="M118.569,229.489v 3.06597" fill="none" stroke="black"/>
<path d="M126.457,229.489v 3.06597" fill="none" stroke="black"/>
<path d="M134.345,226.423v 6.13194" fill="none" stroke="black"/>
<path d="M142.232,229.489v 3.06597" fill="none" stroke="black"/>
<path d="M150.12,229.489v 3.06597" fill="none" stroke="black"/>
<path d="M158.008,229.489v 3.06597" fill="none" stroke="black"/>
<path d="M165.895,229.489v 3.06597" fill="none" stroke="black"/>
<path d="M173.783,226.423v 6.13194" fill="none" stroke="black"/>
<path d="M181.671,229.489v 3.06597" fill="none" stroke="black"/>
<path d="M189.559,229.489v 3.06597" fill="none" stroke="black"/>
<path d="M197.446,229.489v 3.06597" fill="none" stroke="black"/>
<path d="M205.334,229.489v 3.06597" fill="none" stroke="black"/>
<path d="M213.222,226.423v 6.13194" fill="none" stroke="black"/>
<path d="M55.4675,226.423v 6.13194" fill="none" stroke="black"/>
<path d="M47.5798,229.489v 3.06597" fill="none" stroke="black"/>
<path d="M39.6921,229.489v 3.06597" fill="none" stroke="black"/>
<path d="M213.222,226.423v 6.13194" fill="none" stroke="black"/>
<path d="M221.109,229.489v 3.06597" fill="none" stroke="black"/>
<path d="M228.997,229.489v 3.06597" fill="none" stroke="black"/>
<path d="M236.885,229.489v 3.06597" fill="none" stroke="black"/>
<path d="M244.773,229.489v 3.06597" fill="none" stroke="black"/>
<text xml:space="preserve" x="51.6943" y="240.803" fill="black" font-size="8.70404" font-family="Helvetica">0</text>
<text xml:space="preserve" x="92.4601" y="240.803" fill="black" font-size="8.70404" font-family="Helvetica">1</text>
<text xml:space="preserve" x="131.33" y="240.803" fill="black" font-size="8.70404" font-family="Helvetica">2</text>
<text xml:space="preserve" x="170.2" y="240.803" fill="black" font-size="8.70404" font-family="Helvetica">3</text>
<text xml:space="preserve" x="210.017" y="240.803" fill="black" font-size="8.70404" font-family="Helvetica">4</text>
<path d="M33.3819,232.555v -204.398" fill="none" stroke="black"/>
<path d="M39.9129,215.522h -6.53102" fill="none" stroke="black"/>
<path d="M36.6474,209.844h -3.26551" fill="none" stroke="black"/>
<path d="M36.6474,204.166h -3.26551" fill="none" stroke="black"/>
<path d="M36.6474,198.488h -3.26551" fill="none" stroke="black"/>
<path d="M36.6474,192.811h -3.26551" fill="none" stroke="black"/>
<path d="M39.9129,187.133h -6.53102" fill="none" stroke="black"/>
<path d="M36.6474,181.455h -3.26551" fill="none" stroke="black"/>
<path d="M36.6474,175.778h -3.26551" fill="none" stroke="black"/>
<path d="M36.6474,170.1h -3.26551" fill="none" stroke="black"/>
<path d="M36.6474,164.422h -3.26551" fill="none" stroke="black"/>
<path d="M39.9129,158.744h -6.53102" fill="none" stroke="black"/>
<path d="M36.6474,153.067h -3.26551" fill="none" stroke="black"/>
<path d="M36.6474,147.389h -3.26551" fill="none" stroke="black"/>
<path d="M36.6474,141.711h -3.26551" fill="none" stroke="black"/>
<path d="M36.6474,136.034h -3.26551" fill="none" stroke="black"/>
<path d="M39.9129,130.356h -6.53102" fill="none" stroke="black"/>
<path d="M36.6474,124.678h -3.26551" fill="none" stroke="black"/>
<path d="M36.6474,119h -3.26551" fill="none" stroke="black"/>
<path d="M36.6474,113.323h -3.26551" fill="none" stroke="black"/>
<path d="M36.6474,107.645h -3.26551" fill="none" stroke="black"/>
<path d="M39.9129,101.967h -6.53102" fill="none" stroke="black"/>
<path d="M36.6474,96.2895h -3.26551" fill="none" stroke="black"/>
<path d="M36.6474,90.6118h -3.26551" fill="none" stroke="black"/>
<path d="M36.6474,84.934h -3.26551" fill="none" stroke="black"/>
<path d="M36.6474,79.2563h -3.26551" fill="none" stroke="black"/>
<path d="M39.9129,73.5786h -6.53102" fill="none" stroke="black"/>
<path d="M36.6474,67.9009h -3.26551" fill="none" stroke="black"/>
<path d="M36.6474,62.2232h -3.26551" fill="none" stroke="black"/>
<path d="M36.6474,56.5454h -3.26551" fill="none" stroke="black"/>
<path d="M36.6474,50.8677h -3.26551" fill="none" stroke="black"/>
<path d="M39.9129,45.19h -6.53102" fill="none" stroke="black"/>
<path d="M39.9129,215.522h -6.53102" fill="none" stroke="black"/>
<path d="M36.6474,221.199h -3.26551" fill="none" stroke="black"/>
<path d="M36.6474,226.877h -3.26551" fill="none" stroke="black"/>
<path d="M36.6474,232.555h -3.26551" fill="none" stroke="black"/>
<path d="M39.9129,45.19h -6.53102" fill="none" stroke="black"/>
<path d="M36.6474,39.5123h -3.26551" fill="none" stroke="black"/>
<path d="M36.6474,33.8346h -3.26551" fill="none" stroke="black"/>
<text xml:space="preserve" x="27.9932" y="218.998" fill="black" font-size="8.70404" font-family="Helvetica">1</text>
<text xml:space="preserve" x="23.253" y="218.998" fill="black" font-size="8.70404" font-family="Times">&#8722;</text>
<text xml:space="preserve" x="27.0452" y="190.556" fill="black" font-size="8.70404" font-family="Helvetica">0</text>
<text xml:space="preserve" x="27.9932" y="162.115" fill="black" font-size="8.70404" font-family="Helvetica">1</text>
<text xml:space="preserve" x="27.0452" y="133.674" fill="black" font-size="8.70404" font-family="Helvetica">2</text>
<text xml:space="preserve" x="27.0452" y="105.233" fill="black" font-size="8.70404" font-family="Helvetica">3</text>
<text xml:space="preserve" x="27.0452" y="76.7914" fill="black" font-size="8.70404" font-family="Helvetica">4</text>
<text xml:space="preserve" x="27.0452" y="48.3501" fill="black" font-size="8.70404" font-family="Helvetica">5</text>
<path d="M55.4675,158.744l 39.4385, -42.5829l 39.4385, -70.9715l 39.4385, 99.3601l 39.4385, -70.9715v 56.7772l -39.4385, 42.5829l -39.4385, -70.9715l -39.4385, 42.5829l -39.4385, 70.9715z" fill="#ff00ff"/>
<text xml:space="preserve" x="100.044" y="15.1687" fill="black" font-size="11.4583" font-family="Helvetica">Errors as a band</text>
<rect x="289.634" y="2.60712" width="272.126" height="255.497" fill="white"/>
<rect x="316.846" y="28.1569" width="217.701" height="204.398" fill="white"/>
<rect x="316.846" y="28.1569" width="217.701" height="204.398" fill="none" stroke="black"/>
<rect x="316.846" y="28.1569" width="217.701" height="204.398" fill="white"/>
<rect x="316.846" y="28.1569" width="217.701" height="204.398" fill="none" stroke="black"/>
<path d="M316.846,232.555h 217.701" fill="none" stroke="black"/>
<path d="M338.932,226.423v 6.13194" fill="none" stroke="black"/>
<path d="M346.82,229.489v 3.06597" fill="none" stroke="black"/>
<path d="M354.707,229.489v 3.06597" fill="none" stroke="black"/>
<path d="M362.595,229.489v 3.06597" fill="none" stroke="black"/>
<path d="M370.483,229.489v 3.06597" fill="none" stroke="black"/>
<path d="M378.371,226.423v 6.13194" fill="none" stroke="black"/>
<path d="M386.258,229.489v 3.06597" fill="none" stroke="black"/>
<path d="M394.146,229.489v 3.06597" fill="none" stroke="black"/>
<path d="M402.034,229.489v 3.06597" fill="none" stroke="black"/>
<path d="M409.921,229.489v 3.06597" fill="none" stroke="black"/>
<path d="M417.809,226.423v 6.13194" fill="none" stroke="black"/>
<path d="M425.697,229.489v 3.06597" fill="none" stroke="black"/>
<path d="M433.585,229.489v 3.06597" fill="none" stroke="black"/>
<path d="M441.472,229.489v 3.06597" fill="none" stroke="black"/>
<path d="M449.36,229.489v 3.06597" fill="none" stroke="black"/>
<path d="M457.248,226.423v 6.13194" fill="none" stroke="black"/>
<path d="M465.135,229.489v 3.06597" fill="none" stroke="black"/>
<path d="M473.023,229.489v 3.06597" fill="none" stroke="black"/>
<path d="M480.911,229.489v 3.06597" fill="none" stroke="black"/>
<path d="M488.799,229.489v 3.06597" fill="none" stroke="black"/>
<path d="M496.686,226.423v 6.13194" fill="none" stroke="black"/>
<path d="M338.932,226.423v 6.13194" fill="none" stroke="black"/>
<path d="M331.044,229.489v 3.06597" fill="none" stroke="black"/>
<path d="M323.157,229.489v 3.06597" fill="none" stroke="black"/>
<path d="M496.686,226.423v 6.13194" fill="none" stroke="black"/>
<path d="M504.574,229.489v 3.06597" fill="none" stroke="black"/>
<path d="M512.462,229.489v 3.06597" fill="none" stroke="black"/>
<path d="M520.349,229.489v 3.06597" fill="none" stroke="black"/>
<path d="M528.237,229.489v 3.06597" fill="none" stroke="black"/>
<text xml:space="preserve" x="335.159" y="240.803" fill="black" font-size="8.70404" font-family="Helvetica">0</text>
<text xml:space="preserve" x="375.925" y="240.803" fill="black" font-size="8.70404" font-family="Helvetica">1</text>
<text xml:space="preserve" x="414.794" y="240.803" fill="black" font-size="8.70404" font-family="Helvetica">2</text>
<text xml:space="preserve" x="453.664" y="240.803" fill="black" font-size="8.70404" font-family="Helvetica">3</text>
<text xml:space="preserve" x="493.482" y="240.803" fill="black" font-size="8.70404" font-family="Helvetica">4</text>
<path d="M316.846,232.555v -204.398" fill="none" stroke="black"/>
<path d="M323.377,215.522h -6.53102" fill="none" stroke="black"/>
<path d="M320.112,209.844h -3.26551" fill="none" stroke="black"/>
<path d="M320.112,204.166h -3.26551" fill="none" stroke="black"/>
<path d="M320.112,198.488h -3.26551" fill="none" stroke="black"/>
<path d="M320.112,192.811h -3.26551" fill="none" stroke="black"/>
<path d="M323.377,187.133h -6.53102" fill="none" stroke="black"/>
<path d="M320.112,181.455h -3.26551" fill="none" stroke="black"/>
<path d="M320.112,175.778h -3.26551" fill="none" stroke="black"/>
<path d="M320.112,170.1h -3.26551" fill="none" stroke="black"/>
<path d="M320.112,164.422h -3.26551" fill="none" stroke="black"/>
<path d="M323.377,158.744h -6.53102" fill="none" stroke="black"/>
<path d="M320.112,153.067h -3.26551" fill="none" stroke="black"/>
<path d="M320.112,147.389h -3.26551" fill="none" stroke="black"/>
<path d="M320.112,141.711h -3.26551" fill="none" stroke="black"/>
<path d="M320.112,136.034h -3.26551" fill="none" stroke="black"/>
<path d="M323.377,130.356h -6.53102" fill="none" stroke="black"/>
<path d="M320.112,124.678h -3.26551" fill="none" stroke="black"/>
<path d="M320.112,119h -3.26551" fill="none" stroke="black"/>
<path d="M320.112,113.323h -3.26551" fill="none" stroke="black"/>
<path d="M320.112,107.645h -3.26551" fill="none" stroke="black"/>
<path d="M323.377,101.967h -6.53102" fill="none" stroke="black"/>
<path d="M320.112,96.2895h -3.26551" fill="none" stroke="black"/>
<path d="M320.112,90.6118h -3.26551" fill="none" stroke="black"/>
<path d="M320.112,84.934h -3.26551" fill="none" stroke="black"/>
<path d="M320.112,79.2563h -3.26551" fill="none" stroke="black"/>
<path d="M323.377,73.5786h -6.53102" fill="none" stroke="black"/>
<path d="M320.112,67.9009h -3.26551" fill="none" stroke="black"/>
<path d="M320.112,62.2232h -3.26551" fill="none" stroke="black"/>
<path d="M320.112,56.5454h -3.26551" fill="none" stroke="black"/>
<path d="M320.112,50.8677h -3.26551" fill="none" stroke="black"/>
<path d="M323.377,45.19h -6.53102" fill="none" stroke="black"/>
<path d="M323.377,215.522h -6.53102" fill="none" stroke="black"/>
<path d="M320.112,221.199h -3.26551" fill="none" stroke="black"/>
<path d="M320.112,226.877h -3.26551" fill="none" stroke="black"/>
<path d="M320.112,232.555h -3.26551" fill="none" stroke="black"/>
<path d="M323.377,45.19h -6.53102" fill="none" stroke="black"/>
<path d="M320.112,39.5123h -3.26551" fill="none" stroke="black"/>
<path d="M320.112,33.8346h -3.26551" fill="none" stroke="black"/>
<text xml:space="preserve" x="311.458" y="218.998" fill="black" font-size="8.70404" font-family="Helvetica">1</text>
<text xml:space="preserve" x="306.718" y="218.998" fill="black" font-size="8.70404" font-family="Times">&#8722;</text>
<text xml:space="preserve" x="310.51" y="190.556" fill="black" font-size="8.70404" font-family="Helvetica">0</text>
<text xml:space="preserve" x="311.458" y="162.115" fill="black" font-size="8.70404" font-family="Helvetica">1</text>
<text xml:space="preserve" x="310.51" y="133.674" fill="black" font-size="8.70404" font-family="Helvetica">2</text>
<text xml:space="preserve" x="310.51" y="105.233" fill="black" font-size="8.70404" font-family="Helvetica">3</text>
<text xml:space="preserve" x="310.51" y="76.7914" fill="black" font-size="8.70404" font-family="Helvetica">4</text>
<text xml:space="preserve" x="310.51" y="48.3501" fill="black" font-size="8.70404" font-family="Helvetica">5</text>
<path d="M338.932,158.744l 6.0425, -4.68944l 5.13524, -4.50671l 5.35069, -5.20567l 5.32534, -5.69797l 5.87617, -6.88627l 5.04593, -6.41517l 5.32645, -7.27533l 1.33623, -1.90634l 2.13879, -3.3946l 2.21675, -4.12117l 2.4393, -5.12086l 2.96428,
 -6.85298l 3.41134, -8.43146l 6.00249, -15.112l 3.08724, -7.3367l 2.61829, -5.70495l 2.22159, -4.3298l 1.88625, -3.22394l 1.88732, -2.74143l 1.98656, -2.29148l 1.6806, -1.40852l 1.66536, -0.869789l 1.45129, -0.297194l 1.50785, 0.177705l 0.273235,
 0.087679l 1.28309, 0.713791l 1.3322, 1.27077l 1.38566, 1.85576l 1.44588, 2.4726l 1.52461, 3.14825l 1.76918, 4.2753l 1.82462, 5.01781l 1.99884, 6.0881l 2.40798, 7.97016l 7.44282, 26.563l 2.58724, 8.99391l 2.19539, 7.16866l 1.86392, 5.61064l 1.58365,
 4.33766l 1.62165, 3.96028l 1.49191, 3.15372l 1.43962, 2.54659l 1.43275, 2.00264l 1.23635, 1.26634l 1.2861, 0.830426l 0.28512, 0.113684l 0.69193, -0.00990671l 0.720153, -0.525973l 0.750071, -1.06994l 0.781527, -1.64308l 0.814338, -2.24569l 0.848345,
 -2.87713l 0.883519, -3.53643l 0.920117, -4.22348l 1.07076, -5.55122l 1.05268, -6.06484l 1.03475, -6.49245l 1.01769, -6.84889l 1.21104, -8.68475l 1.32337, -10.0718l 1.4679, -11.772l 1.68243, -14.1133l 2.25048, -19.6007l 1.24783, -11.0617h 19.3713l
 0.0286239, 2.5223l 0.0987923, 10.9474l 0.0805191, 11.6502l 0.0631574, 12.6878l 0.0271793, 7.61406l 0.0336738, 14.8117l 0.00980946, 15.0101l -0.013321, 14.313l -0.0301622, 12.6424l -0.048583, 12.3307l -0.0670754, 11.6137l -0.0846151, 10.9386l
 -0.101317, 10.3036l -0.117302, 9.70683l -0.132696, 9.14624l -0.147632, 8.61987l -0.162251, 8.12564l -0.176697, 7.66139l -0.191127, 7.22481l -0.197065, 6.52744h -18.8268l -19.1854, -59.616l -1.57949, -0.827889l -1.64409, -1.39326l -1.9353, -2.27093l
 -1.85347, -2.74565l -2.03991, -3.58306l -2.24864, -4.52233l -2.68894, -6.02474l -2.90486, -7.02597l -8.0484, -20.0182l -2.66228, -6.07111l -2.27663, -4.70145l -1.9802, -3.61364l -1.86591, -2.91924l -1.88294, -2.39419l -1.54441, -1.49935l -1.57734,
 -1.05514l -0.705743, -0.30532l -2.14621, -0.479555l -2.14655, 0.0655902l -2.18268, 0.583924l -2.26586, 1.11231l -2.40862, 1.69466l -2.61746, 2.37404l -2.87869, 3.16497l -3.17828, 4.05287l -3.79516, 5.42656l -4.49183, 6.95208l -8.57258, 13.5476l
 -2.75462, 4.0878l -6.04513, 9.03152l -5.13654, 8.1986l -5.33872, 9.03256l -5.31306, 9.50703l -5.87679, 11.1182l -5.03433, 10.0282l -5.31293, 11.0881l -1.38105, 2.96724z" fill="#ff00ff"/>
<text xml:space="preserve" x="383.509" y="15.1687" fill="black" font-size="11.4583" font-family="Helvetica">Errors as a band</text></svg>
