<?xml version="1.0" standalone="no"?>
<svg width="567.429" height="387.116" viewBox="0 0 567.429 387.116" xmlns="http://www.w3.org/2000/svg" shape-rendering="crispEdges">
<title>
/home/users/z/zhangzh/guide/root/example_cernstaff/graph/exclusion.svg
</title>
<desc>
Creator: ROOT Version 6.22/02
CreationDate: Fri Oct 28 14:45:11 2022</desc>
<defs>
</defs>
<rect x="0.5" y="0" width="566.929" height="386.616" fill="white"/>
<rect x="57.1929" y="38.6616" width="453.543" height="309.293" fill="white"/>
<rect x="57.1929" y="38.6616" width="453.543" height="309.293" fill="none" stroke="black"/>
<rect x="57.1929" y="38.6616" width="453.543" height="309.293" fill="white"/>
<rect x="57.1929" y="38.6616" width="453.543" height="309.293" fill="none" stroke="black"/>
<path d="M57.1929,347.955h 453.543" fill="none" stroke="black"/>
<path d="M57.1929,38.6616v 309.293" fill="none" stroke="black" stroke-dasharray=" 1, 2"/>
<path d="M117.827,38.6616v 309.293" fill="none" stroke="black" stroke-dasharray=" 1, 2"/>
<path d="M178.461,38.6616v 309.293" fill="none" stroke="black" stroke-dasharray=" 1, 2"/>
<path d="M239.095,38.6616v 309.293" fill="none" stroke="black" stroke-dasharray=" 1, 2"/>
<path d="M299.729,38.6616v 309.293" fill="none" stroke="black" stroke-dasharray=" 1, 2"/>
<path d="M360.364,38.6616v 309.293" fill="none" stroke="black" stroke-dasharray=" 1, 2"/>
<path d="M420.998,38.6616v 309.293" fill="none" stroke="black" stroke-dasharray=" 1, 2"/>
<path d="M481.632,38.6616v 309.293" fill="none" stroke="black" stroke-dasharray=" 1, 2"/>
<path d="M481.632,38.6616v 309.293" fill="none" stroke="black" stroke-dasharray=" 1, 2"/>
<path d="M57.1929,347.955v -309.293" fill="none" stroke="black"/>
<path d="M510.736,310.775h -453.543" fill="none" stroke="black" stroke-dasharray=" 1, 2"/>
<path d="M510.736,269.704h -453.543" fill="none" stroke="black" stroke-dasharray=" 1, 2"/>
<path d="M510.736,228.633h -453.543" fill="none" stroke="black" stroke-dasharray=" 1, 2"/>
<path d="M510.736,187.562h -453.543" fill="none" stroke="black" stroke-dasharray=" 1, 2"/>
<path d="M510.736,146.491h -453.543" fill="none" stroke="black" stroke-dasharray=" 1, 2"/>
<path d="M510.736,105.42h -453.543" fill="none" stroke="black" stroke-dasharray=" 1, 2"/>
<path d="M510.736,64.3485h -453.543" fill="none" stroke="black" stroke-dasharray=" 1, 2"/>
<path d="M510.736,310.775h -453.543" fill="none" stroke="black" stroke-dasharray=" 1, 2"/>
<path d="M510.736,64.3485h -453.543" fill="none" stroke="black" stroke-dasharray=" 1, 2"/>
<path d="M57.1929,347.955h 453.543" fill="none" stroke="black"/>
<path d="M57.1929,338.676v 9.27879" fill="none" stroke="black"/>
<path d="M69.3197,343.315v 4.6394" fill="none" stroke="black"/>
<path d="M81.4466,343.315v 4.6394" fill="none" stroke="black"/>
<path d="M93.5734,343.315v 4.6394" fill="none" stroke="black"/>
<path d="M105.7,343.315v 4.6394" fill="none" stroke="black"/>
<path d="M117.827,338.676v 9.27879" fill="none" stroke="black"/>
<path d="M129.954,343.315v 4.6394" fill="none" stroke="black"/>
<path d="M142.081,343.315v 4.6394" fill="none" stroke="black"/>
<path d="M154.208,343.315v 4.6394" fill="none" stroke="black"/>
<path d="M166.334,343.315v 4.6394" fill="none" stroke="black"/>
<path d="M178.461,338.676v 9.27879" fill="none" stroke="black"/>
<path d="M190.588,343.315v 4.6394" fill="none" stroke="black"/>
<path d="M202.715,343.315v 4.6394" fill="none" stroke="black"/>
<path d="M214.842,343.315v 4.6394" fill="none" stroke="black"/>
<path d="M226.968,343.315v 4.6394" fill="none" stroke="black"/>
<path d="M239.095,338.676v 9.27879" fill="none" stroke="black"/>
<path d="M251.222,343.315v 4.6394" fill="none" stroke="black"/>
<path d="M263.349,343.315v 4.6394" fill="none" stroke="black"/>
<path d="M275.476,343.315v 4.6394" fill="none" stroke="black"/>
<path d="M287.603,343.315v 4.6394" fill="none" stroke="black"/>
<path d="M299.729,338.676v 9.27879" fill="none" stroke="black"/>
<path d="M311.856,343.315v 4.6394" fill="none" stroke="black"/>
<path d="M323.983,343.315v 4.6394" fill="none" stroke="black"/>
<path d="M336.11,343.315v 4.6394" fill="none" stroke="black"/>
<path d="M348.237,343.315v 4.6394" fill="none" stroke="black"/>
<path d="M360.364,338.676v 9.27879" fill="none" stroke="black"/>
<path d="M372.49,343.315v 4.6394" fill="none" stroke="black"/>
<path d="M384.617,343.315v 4.6394" fill="none" stroke="black"/>
<path d="M396.744,343.315v 4.6394" fill="none" stroke="black"/>
<path d="M408.871,343.315v 4.6394" fill="none" stroke="black"/>
<path d="M420.998,338.676v 9.27879" fill="none" stroke="black"/>
<path d="M433.125,343.315v 4.6394" fill="none" stroke="black"/>
<path d="M445.251,343.315v 4.6394" fill="none" stroke="black"/>
<path d="M457.378,343.315v 4.6394" fill="none" stroke="black"/>
<path d="M469.505,343.315v 4.6394" fill="none" stroke="black"/>
<path d="M481.632,338.676v 9.27879" fill="none" stroke="black"/>
<path d="M481.632,338.676v 9.27879" fill="none" stroke="black"/>
<path d="M493.759,343.315v 4.6394" fill="none" stroke="black"/>
<path d="M505.885,343.315v 4.6394" fill="none" stroke="black"/>
<text xml:space="preserve" x="52.482" y="360.625" fill="black" font-size="12.9143" font-family="Helvetica">0</text>
<text xml:space="preserve" x="108.525" y="360.625" fill="black" font-size="12.9143" font-family="Helvetica">0.5</text>
<text xml:space="preserve" x="175.939" y="360.625" fill="black" font-size="12.9143" font-family="Helvetica">1</text>
<text xml:space="preserve" x="229.546" y="360.625" fill="black" font-size="12.9143" font-family="Helvetica">1.5</text>
<text xml:space="preserve" x="295.336" y="360.625" fill="black" font-size="12.9143" font-family="Helvetica">2</text>
<text xml:space="preserve" x="351.379" y="360.625" fill="black" font-size="12.9143" font-family="Helvetica">2.5</text>
<text xml:space="preserve" x="416.356" y="360.625" fill="black" font-size="12.9143" font-family="Helvetica">3</text>
<text xml:space="preserve" x="472.399" y="360.625" fill="black" font-size="12.9143" font-family="Helvetica">3.5</text>
<path d="M57.1929,347.955v -309.293" fill="none" stroke="black"/>
<path d="M70.7992,310.775h -13.6063" fill="none" stroke="black"/>
<path d="M63.9961,300.507h -6.80315" fill="none" stroke="black"/>
<path d="M63.9961,290.239h -6.80315" fill="none" stroke="black"/>
<path d="M63.9961,279.971h -6.80315" fill="none" stroke="black"/>
<path d="M70.7992,269.704h -13.6063" fill="none" stroke="black"/>
<path d="M63.9961,259.436h -6.80315" fill="none" stroke="black"/>
<path d="M63.9961,249.168h -6.80315" fill="none" stroke="black"/>
<path d="M63.9961,238.9h -6.80315" fill="none" stroke="black"/>
<path d="M70.7992,228.633h -13.6063" fill="none" stroke="black"/>
<path d="M63.9961,218.365h -6.80315" fill="none" stroke="black"/>
<path d="M63.9961,208.097h -6.80315" fill="none" stroke="black"/>
<path d="M63.9961,197.829h -6.80315" fill="none" stroke="black"/>
<path d="M70.7992,187.562h -13.6063" fill="none" stroke="black"/>
<path d="M63.9961,177.294h -6.80315" fill="none" stroke="black"/>
<path d="M63.9961,167.026h -6.80315" fill="none" stroke="black"/>
<path d="M63.9961,156.758h -6.80315" fill="none" stroke="black"/>
<path d="M70.7992,146.491h -13.6063" fill="none" stroke="black"/>
<path d="M63.9961,136.223h -6.80315" fill="none" stroke="black"/>
<path d="M63.9961,125.955h -6.80315" fill="none" stroke="black"/>
<path d="M63.9961,115.687h -6.80315" fill="none" stroke="black"/>
<path d="M70.7992,105.42h -13.6063" fill="none" stroke="black"/>
<path d="M63.9961,95.1518h -6.80315" fill="none" stroke="black"/>
<path d="M63.9961,84.884h -6.80315" fill="none" stroke="black"/>
<path d="M63.9961,74.6163h -6.80315" fill="none" stroke="black"/>
<path d="M70.7992,64.3485h -13.6063" fill="none" stroke="black"/>
<path d="M70.7992,310.775h -13.6063" fill="none" stroke="black"/>
<path d="M63.9961,321.042h -6.80315" fill="none" stroke="black"/>
<path d="M63.9961,331.31h -6.80315" fill="none" stroke="black"/>
<path d="M63.9961,341.578h -6.80315" fill="none" stroke="black"/>
<path d="M70.7992,64.3485h -13.6063" fill="none" stroke="black"/>
<path d="M63.9961,54.0808h -6.80315" fill="none" stroke="black"/>
<path d="M63.9961,43.813h -6.80315" fill="none" stroke="black"/>
<text xml:space="preserve" x="46.7965" y="315.953" fill="black" font-size="12.9143" font-family="Helvetica">2</text>
<text xml:space="preserve" x="39.4865" y="315.953" fill="black" font-size="12.9143" font-family="Times">&#8722;</text>
<text xml:space="preserve" x="46.7965" y="274.53" fill="black" font-size="12.9143" font-family="Helvetica">0</text>
<text xml:space="preserve" x="46.7965" y="233.919" fill="black" font-size="12.9143" font-family="Helvetica">2</text>
<text xml:space="preserve" x="46.7965" y="192.496" fill="black" font-size="12.9143" font-family="Helvetica">4</text>
<text xml:space="preserve" x="46.7965" y="151.073" fill="black" font-size="12.9143" font-family="Helvetica">6</text>
<text xml:space="preserve" x="46.7965" y="109.65" fill="black" font-size="12.9143" font-family="Helvetica">8</text>
<text xml:space="preserve" x="39.4865" y="69.0387" fill="black" font-size="12.9143" font-family="Helvetica">10</text>
<path d="M57.1929,269.704l 12.1268, -20.5013l 12.1268, -20.2965l 12.1268, -19.8888l 12.1268, -19.2825l 12.1268, -18.4834l 10.3554, -15.0142l 1.77138, -2.4855l 9.64782, -13.1055l 2.47901, -3.23568l 9.08364, -11.3852l 3.04319, -3.63419l 8.62731,
 -9.79902l 3.49952, -3.74843l 8.25877, -8.31512l 3.86805, -3.62507l 7.96454, -6.91021l 4.16228, -3.30341l 7.73463, -5.56547l 4.39219, -2.81953l 7.56144, -4.26507l 4.56539, -2.20754l 7.43928, -2.99549l 4.68755, -1.50005l 7.36414, -1.74499l 4.76269,
 -0.72857l 7.33356, -0.503031l 4.79327, 0.0761764l 7.34663, 0.740232l 4.7802, 0.88388l 7.40401, 1.99469l 4.72282, 1.66416l 7.50756, 3.27076l 4.61926, 2.38627l 7.66071, 4.57998l 4.46612, 3.01871l 7.86852, 5.9355l 4.25831, 3.52892l 8.13794, 7.35274l
 3.98889, 3.88284l 8.47818, 8.84993l 3.64864, 4.04456l 8.90159, 10.4492l 3.22524, 3.97532l 9.42584, 12.1798l 2.70099, 3.63075l 10.0804, 14.087l 2.04647, 2.9515l 12.1268, 18.0962l 12.1268, 18.9731l 12.1268, 19.6605l 12.1268, 20.1514l 12.1268, 20.4409l
 12.1268, 20.5262l 12.1268, 20.4065l 12.1268, 20.0828l 36.3985, -21.9789l -12.0495, -19.9542l -12.0222, -20.2309l -12.1188, -20.5127l -12.2149, -20.5891l -12.3162, -20.4652l -12.4286, -20.1483l -12.5595, -19.648l -12.5702, -18.7599l -2.41833,
 -3.48811l -10.4934, -14.663l -3.17707, -4.27055l -9.97305, -12.8854l -3.85457, -4.75062l -9.6246, -11.2961l -4.48003, -4.96544l -9.43369, -9.84488l -5.08773, -4.95128l -9.40018, -8.49002l -5.70749, -4.72807l -9.52726, -7.18277l -6.35931, -4.29585l
 -9.0723, -5.41956h -122.525l -5.71327, 3.22l -6.36405, 4.08249l -9.46489, 6.80659l -5.67702, 4.5035l -9.28475, 8.0525l -5.0191, 4.70243l -9.25993, 9.32064l -4.3719, 4.68202l -9.38614, 10.659l -3.70492, 4.42399l -9.65934, 12.1052l -2.98127, 3.89107l
 -10.084, 13.6969l -2.15145, 3.01878l -10.8194, 15.6897l -12.6218, 19.2363l -12.5023, 19.8777l -0.231314, 0.37935z" fill="black"/>
<path d="M57.1929,269.704l 12.1268, -20.5013l 12.1268, -20.2965l 12.1268, -19.8888l 12.1268, -19.2825l 12.1268, -18.4834l 10.3554, -15.0142l 1.77138, -2.4855l 9.64782, -13.1055l 2.47901, -3.23568l 9.08364, -11.3852l 3.04319, -3.63419l 8.62731,
 -9.79902l 3.49952, -3.74843l 8.25877, -8.31512l 3.86805, -3.62507l 7.96454, -6.91021l 4.16228, -3.30341l 7.73463, -5.56547l 4.39219, -2.81953l 7.56144, -4.26507l 4.56539, -2.20754l 7.43928, -2.99549l 4.68755, -1.50005l 7.36414, -1.74499l 4.76269,
 -0.72857l 7.33356, -0.503031l 4.79327, 0.0761764l 7.34663, 0.740232l 4.7802, 0.88388l 7.40401, 1.99469l 4.72282, 1.66416l 7.50756, 3.27076l 4.61926, 2.38627l 7.66071, 4.57998l 4.46612, 3.01871l 7.86852, 5.9355l 4.25831, 3.52892l 8.13794, 7.35274l
 3.98889, 3.88284l 8.47818, 8.84993l 3.64864, 4.04456l 8.90159, 10.4492l 3.22524, 3.97532l 9.42584, 12.1798l 2.70099, 3.63075l 10.0804, 14.087l 2.04647, 2.9515l 12.1268, 18.0962l 12.1268, 18.9731l 12.1268, 19.6605l 12.1268, 20.1514l 12.1268, 20.4409l
 12.1268, 20.5262l 12.1268, 20.4065l 12.1268, 20.0828" fill="none" stroke="#00ffff" stroke-width="4"/>
<path d="M57.1929,64.3485l 7.877, 0.434034l 4.24983, 0.591886l 7.91116, 1.77193l 4.21567, 1.29559l 8.00338, 3.12978l 4.12345, 1.94868l 8.14502, 4.51661l 3.98181, 2.52204l 8.34025, 5.94429l 3.78658, 2.98423l 8.59494, 7.42636l 3.53189, 3.30282l
 8.91711, 8.97873l 3.20971, 3.4439l 9.31798, 10.621l 2.80885, 3.37093l 9.81451, 12.3803l 2.31231, 3.0412l 10.4363, 14.3015l 1.69052, 2.39549l 12.1268, 17.8056l 12.1268, 18.7363l 12.1268, 19.4798l 12.1268, 20.0286l 12.1268, 20.3774l 12.1268, 20.5225l
 12.1268, 20.4626l 12.1268, 20.1982l 12.1268, 19.7321l 7.54364, 11.8619h -66.7962l -1.32801, -2.16068l -12.3619, -20.5888l -12.2282, -20.6333l -12.1004, -20.4778l -11.971, -20.1162l -11.8325, -19.5439l -11.6765, -18.7585l -11.4926, -17.7596l
 -11.4883, -16.8646l -1.15951, -1.64272l -9.84182, -13.4884l -1.62766, -2.14098l -9.02789, -11.3901l -1.90433, -2.28598l -8.27869, -9.43916l -2.01454, -2.16258l -7.5434, -7.59911l -1.95236, -1.82746l -6.78149, -5.86407l -1.70668, -1.34763l -5.96399,
 -4.25635l -1.27688, -0.812242l -5.09021, -2.82913l -0.700164, -0.334907l -4.21866, -1.65615l -0.0854125, -0.0298525l -3.49158, -0.786805l 0.389821, 0.0526919l -2.40217, -0.110914z" fill="#5954d8"/>
<path d="M57.1929,64.3485l 7.877, 0.434034l 4.24983, 0.591886l 7.91116, 1.77193l 4.21567, 1.29559l 8.00338, 3.12978l 4.12345, 1.94868l 8.14502, 4.51661l 3.98181, 2.52204l 8.34025, 5.94429l 3.78658, 2.98423l 8.59494, 7.42636l 3.53189, 3.30282l
 8.91711, 8.97873l 3.20971, 3.4439l 9.31798, 10.621l 2.80885, 3.37093l 9.81451, 12.3803l 2.31231, 3.0412l 10.4363, 14.3015l 1.69052, 2.39549l 12.1268, 17.8056l 12.1268, 18.7363l 12.1268, 19.4798l 12.1268, 20.0286l 12.1268, 20.3774l 12.1268, 20.5225l
 12.1268, 20.4626l 12.1268, 20.1982l 12.1268, 19.7321l 7.54364, 11.8619" fill="none" stroke="#0000ff" stroke-width="2"/>
<g stroke="black" stroke-width="1" fill="none">
<line x1="56.1929" y1="64.3485" x2="57.1929" y2="64.3485"/>
<line x1="68.3197" y1="65.3744" x2="69.3197" y2="65.3744"/>
<line x1="80.4466" y1="68.4419" x2="81.4466" y2="68.4419"/>
<line x1="92.5734" y1="73.5204" x2="93.5734" y2="73.5204"/>
<line x1="104.7" y1="80.559" x2="105.7" y2="80.559"/>
<line x1="116.827" y1="89.4876" x2="117.827" y2="89.4876"/>
<line x1="128.954" y1="100.217" x2="129.954" y2="100.217"/>
<line x1="141.081" y1="112.639" x2="142.081" y2="112.639"/>
<line x1="153.208" y1="126.631" x2="154.208" y2="126.631"/>
<line x1="165.334" y1="142.053" x2="166.334" y2="142.053"/>
<line x1="177.461" y1="158.75" x2="178.461" y2="158.75"/>
<line x1="189.588" y1="176.555" x2="190.588" y2="176.555"/>
<line x1="201.715" y1="195.292" x2="202.715" y2="195.292"/>
<line x1="213.842" y1="214.771" x2="214.842" y2="214.771"/>
<line x1="225.968" y1="234.8" x2="226.968" y2="234.8"/>
<line x1="238.095" y1="255.177" x2="239.095" y2="255.177"/>
<line x1="250.222" y1="275.7" x2="251.222" y2="275.7"/>
<line x1="262.349" y1="296.163" x2="263.349" y2="296.163"/>
<line x1="274.476" y1="316.361" x2="275.476" y2="316.361"/>
<line x1="286.603" y1="336.093" x2="287.603" y2="336.093"/>
</g>
<path d="M117.827,310.775l 12.1268, -20.5013l 12.1268, -20.2965l 12.1268, -19.8888l 12.1268, -19.2825l 12.1268, -18.4834l 10.3554, -15.0142l 1.77138, -2.4855l 9.64782, -13.1055l 2.47901, -3.23568l 9.08364, -11.3852l 3.04319, -3.63419l 8.62731,
 -9.79902l 3.49952, -3.74843l 8.25877, -8.31512l 3.86805, -3.62507l 7.96454, -6.91021l 4.16228, -3.30341l 7.73463, -5.56547l 4.39219, -2.81953l 7.56144, -4.26507l 4.56539, -2.20754l 7.43928, -2.99549l 4.68755, -1.50005l 7.36414, -1.74499l 4.76269,
 -0.72857l 7.33356, -0.503031l 4.79327, 0.0761764l 7.34663, 0.740232l 4.7802, 0.88388l 7.40401, 1.99469l 4.72282, 1.66416l 7.50756, 3.27076l 4.61926, 2.38627l 7.66071, 4.57998l 4.46612, 3.01871l 7.86852, 5.9355l 4.25831, 3.52892l 8.13794, 7.35274l
 3.98889, 3.88284l 8.47818, 8.84993l 3.64864, 4.04456l 8.90159, 10.4492l 3.22524, 3.97532l 9.42584, 12.1798l 2.70099, 3.63075l 10.0804, 14.087l 2.04647, 2.9515l 12.1268, 18.0962l 12.1268, 18.9731l 12.1268, 19.6605l 12.1268, 20.1514l 12.1268, 20.4409l
 12.1268, 20.5262l 4.85073, 8.16258v 17.0301h -16.2587l -8.10159, -13.6328l -12.1311, -20.5335l -12.0798, -20.3619l -12.0258, -19.984l -11.9659, -19.4003l -11.8961, -18.6132l -11.8904, -17.7422l -1.84814, -2.66531l -9.86009, -13.7797l -2.44708,
 -3.28952l -9.13399, -11.8034l -2.8896, -3.56183l -8.51598, -9.9976l -3.20524, -3.55343l -7.96858, -8.31929l -3.40284, -3.31301l -7.46474, -6.74619l -3.48541, -2.88937l -6.98386, -5.2703l -3.45641, -2.33757l -6.51583, -3.898l -3.32966, -1.72168l
 -6.07187, -2.64789l -3.14308, -1.10908l -5.69661, -1.53684l -2.96605, -0.549409l -5.46366, -0.551497l -2.87894, -0.0456687l -5.43718, 0.373472l -2.92287, 0.448286l -5.62195, 1.33393l -3.06613, 0.982962l -5.95907, 2.40185l -3.22999, 1.56365l
 -6.37255, 3.59685l -3.34054, 2.14596l -6.81183, 4.90354l -3.35442, 2.66336l -7.26043, 6.30099l -3.25416, 3.05047l -7.72482, 7.77884l -3.03425, 3.25052l -8.22259, 9.34036l -2.69027, 3.21296l -8.7766, 11.0011l -2.21114, 2.88614l -9.41517, 12.7901l
 -1.56868, 2.20109l -10.108, 14.654l -11.8628, 18.0819l -11.9266, 18.965l -11.9918, 19.6679l -12.0488, 20.1663l -12.1012, 20.4582z" fill="#ff0000"/>
<path d="M117.827,310.775l 12.1268, -20.5013l 12.1268, -20.2965l 12.1268, -19.8888l 12.1268, -19.2825l 12.1268, -18.4834l 10.3554, -15.0142l 1.77138, -2.4855l 9.64782, -13.1055l 2.47901, -3.23568l 9.08364, -11.3852l 3.04319, -3.63419l 8.62731,
 -9.79902l 3.49952, -3.74843l 8.25877, -8.31512l 3.86805, -3.62507l 7.96454, -6.91021l 4.16228, -3.30341l 7.73463, -5.56547l 4.39219, -2.81953l 7.56144, -4.26507l 4.56539, -2.20754l 7.43928, -2.99549l 4.68755, -1.50005l 7.36414, -1.74499l 4.76269,
 -0.72857l 7.33356, -0.503031l 4.79327, 0.0761764l 7.34663, 0.740232l 4.7802, 0.88388l 7.40401, 1.99469l 4.72282, 1.66416l 7.50756, 3.27076l 4.61926, 2.38627l 7.66071, 4.57998l 4.46612, 3.01871l 7.86852, 5.9355l 4.25831, 3.52892l 8.13794, 7.35274l
 3.98889, 3.88284l 8.47818, 8.84993l 3.64864, 4.04456l 8.90159, 10.4492l 3.22524, 3.97532l 9.42584, 12.1798l 2.70099, 3.63075l 10.0804, 14.087l 2.04647, 2.9515l 12.1268, 18.0962l 12.1268, 18.9731l 12.1268, 19.6605l 12.1268, 20.1514l 12.1268, 20.4409l
 12.1268, 20.5262l 4.85073, 8.16258" fill="none" stroke="#ffff00" stroke-width="2"/>
<g stroke="black" stroke-width="1" fill="none">
<line x1="116.827" y1="310.775" x2="117.827" y2="310.775"/>
<line x1="128.954" y1="290.273" x2="129.954" y2="290.273"/>
<line x1="141.081" y1="269.977" x2="142.081" y2="269.977"/>
<line x1="153.208" y1="250.088" x2="154.208" y2="250.088"/>
<line x1="165.334" y1="230.806" x2="166.334" y2="230.806"/>
<line x1="177.461" y1="212.322" x2="178.461" y2="212.322"/>
<line x1="189.588" y1="194.822" x2="190.588" y2="194.822"/>
<line x1="201.715" y1="178.481" x2="202.715" y2="178.481"/>
<line x1="213.842" y1="163.462" x2="214.842" y2="163.462"/>
<line x1="225.968" y1="149.914" x2="226.968" y2="149.914"/>
<line x1="238.095" y1="137.974" x2="239.095" y2="137.974"/>
<line x1="250.222" y1="127.761" x2="251.222" y2="127.761"/>
<line x1="262.349" y1="119.376" x2="263.349" y2="119.376"/>
<line x1="274.476" y1="112.903" x2="275.476" y2="112.903"/>
<line x1="286.603" y1="108.408" x2="287.603" y2="108.408"/>
<line x1="298.729" y1="105.934" x2="299.729" y2="105.934"/>
<line x1="310.856" y1="105.507" x2="311.856" y2="105.507"/>
<line x1="322.983" y1="107.131" x2="323.983" y2="107.131"/>
<line x1="335.11" y1="110.79" x2="336.11" y2="110.79"/>
<line x1="347.237" y1="116.447" x2="348.237" y2="116.447"/>
<line x1="359.364" y1="124.046" x2="360.364" y2="124.046"/>
<line x1="371.49" y1="133.51" x2="372.49" y2="133.51"/>
<line x1="383.617" y1="144.746" x2="384.617" y2="144.746"/>
<line x1="395.744" y1="157.64" x2="396.744" y2="157.64"/>
<line x1="407.871" y1="172.065" x2="408.871" y2="172.065"/>
<line x1="419.998" y1="187.875" x2="420.998" y2="187.875"/>
<line x1="432.125" y1="204.914" x2="433.125" y2="204.914"/>
<line x1="444.251" y1="223.01" x2="445.251" y2="223.01"/>
<line x1="456.378" y1="241.983" x2="457.378" y2="241.983"/>
<line x1="468.505" y1="261.644" x2="469.505" y2="261.644"/>
<line x1="480.632" y1="281.795" x2="481.632" y2="281.795"/>
<line x1="492.759" y1="302.236" x2="493.759" y2="302.236"/>
<line x1="504.885" y1="322.762" x2="505.885" y2="322.762"/>
</g>
<text xml:space="preserve" x="257.974" y="18.681" fill="black" font-size="18.7414" font-family="Helvetica">Graph</text></svg>
