<?xml version="1.0" standalone="no"?>
<svg width="567.429" height="387.116" viewBox="0 0 567.429 387.116" xmlns="http://www.w3.org/2000/svg" shape-rendering="crispEdges">
<title>
/home/users/z/zhangzh/practice/root/example_cernstaff/graph/fit.svg
</title>
<desc>
Creator: ROOT Version 6.22/02
CreationDate: Thu Jul 13 10:30:54 2023</desc>
<defs>
</defs>
<rect x="0.5" y="0" width="566.929" height="386.616" fill="white"/>
<rect x="57.1929" y="38.6616" width="453.543" height="309.293" fill="white"/>
<rect x="57.1929" y="38.6616" width="453.543" height="309.293" fill="none" stroke="black"/>
<rect x="57.1929" y="38.6616" width="453.543" height="309.293" fill="white"/>
<rect x="57.1929" y="38.6616" width="453.543" height="309.293" fill="none" stroke="black"/>
<path d="M57.1929,347.955h 453.543" fill="none" stroke="black"/>
<path d="M57.1929,338.676v 9.27879" fill="none" stroke="black"/>
<path d="M78.0168,343.315v 4.6394" fill="none" stroke="black"/>
<path d="M98.8406,343.315v 4.6394" fill="none" stroke="black"/>
<path d="M119.664,343.315v 4.6394" fill="none" stroke="black"/>
<path d="M140.488,338.676v 9.27879" fill="none" stroke="black"/>
<path d="M161.312,343.315v 4.6394" fill="none" stroke="black"/>
<path d="M182.136,343.315v 4.6394" fill="none" stroke="black"/>
<path d="M202.96,343.315v 4.6394" fill="none" stroke="black"/>
<path d="M223.784,338.676v 9.27879" fill="none" stroke="black"/>
<path d="M244.607,343.315v 4.6394" fill="none" stroke="black"/>
<path d="M265.431,343.315v 4.6394" fill="none" stroke="black"/>
<path d="M286.255,343.315v 4.6394" fill="none" stroke="black"/>
<path d="M307.079,338.676v 9.27879" fill="none" stroke="black"/>
<path d="M327.903,343.315v 4.6394" fill="none" stroke="black"/>
<path d="M348.727,343.315v 4.6394" fill="none" stroke="black"/>
<path d="M369.551,343.315v 4.6394" fill="none" stroke="black"/>
<path d="M390.374,338.676v 9.27879" fill="none" stroke="black"/>
<path d="M411.198,343.315v 4.6394" fill="none" stroke="black"/>
<path d="M432.022,343.315v 4.6394" fill="none" stroke="black"/>
<path d="M452.846,343.315v 4.6394" fill="none" stroke="black"/>
<path d="M473.67,338.676v 9.27879" fill="none" stroke="black"/>
<path d="M473.67,338.676v 9.27879" fill="none" stroke="black"/>
<path d="M494.494,343.315v 4.6394" fill="none" stroke="black"/>
<text xml:space="preserve" x="52.482" y="360.625" fill="black" font-size="12.9143" font-family="Helvetica">0</text>
<text xml:space="preserve" x="136.141" y="360.625" fill="black" font-size="12.9143" font-family="Helvetica">2</text>
<text xml:space="preserve" x="218.987" y="360.625" fill="black" font-size="12.9143" font-family="Helvetica">4</text>
<text xml:space="preserve" x="302.646" y="360.625" fill="black" font-size="12.9143" font-family="Helvetica">6</text>
<text xml:space="preserve" x="386.304" y="360.625" fill="black" font-size="12.9143" font-family="Helvetica">8</text>
<text xml:space="preserve" x="465.902" y="360.625" fill="black" font-size="12.9143" font-family="Helvetica">10</text>
<path d="M57.1929,347.955v -309.293" fill="none" stroke="black"/>
<path d="M70.7992,339.488h -13.6063" fill="none" stroke="black"/>
<path d="M63.9961,330.616h -6.80315" fill="none" stroke="black"/>
<path d="M63.9961,321.744h -6.80315" fill="none" stroke="black"/>
<path d="M63.9961,312.872h -6.80315" fill="none" stroke="black"/>
<path d="M70.7992,304h -13.6063" fill="none" stroke="black"/>
<path d="M63.9961,295.128h -6.80315" fill="none" stroke="black"/>
<path d="M63.9961,286.256h -6.80315" fill="none" stroke="black"/>
<path d="M63.9961,277.383h -6.80315" fill="none" stroke="black"/>
<path d="M70.7992,268.511h -13.6063" fill="none" stroke="black"/>
<path d="M63.9961,259.639h -6.80315" fill="none" stroke="black"/>
<path d="M63.9961,250.767h -6.80315" fill="none" stroke="black"/>
<path d="M63.9961,241.895h -6.80315" fill="none" stroke="black"/>
<path d="M70.7992,233.023h -13.6063" fill="none" stroke="black"/>
<path d="M63.9961,224.151h -6.80315" fill="none" stroke="black"/>
<path d="M63.9961,215.278h -6.80315" fill="none" stroke="black"/>
<path d="M63.9961,206.406h -6.80315" fill="none" stroke="black"/>
<path d="M70.7992,197.534h -13.6063" fill="none" stroke="black"/>
<path d="M63.9961,188.662h -6.80315" fill="none" stroke="black"/>
<path d="M63.9961,179.79h -6.80315" fill="none" stroke="black"/>
<path d="M63.9961,170.918h -6.80315" fill="none" stroke="black"/>
<path d="M70.7992,162.046h -13.6063" fill="none" stroke="black"/>
<path d="M63.9961,153.173h -6.80315" fill="none" stroke="black"/>
<path d="M63.9961,144.301h -6.80315" fill="none" stroke="black"/>
<path d="M63.9961,135.429h -6.80315" fill="none" stroke="black"/>
<path d="M70.7992,126.557h -13.6063" fill="none" stroke="black"/>
<path d="M63.9961,117.685h -6.80315" fill="none" stroke="black"/>
<path d="M63.9961,108.813h -6.80315" fill="none" stroke="black"/>
<path d="M63.9961,99.9406h -6.80315" fill="none" stroke="black"/>
<path d="M70.7992,91.0685h -13.6063" fill="none" stroke="black"/>
<path d="M63.9961,82.1963h -6.80315" fill="none" stroke="black"/>
<path d="M63.9961,73.3242h -6.80315" fill="none" stroke="black"/>
<path d="M63.9961,64.452h -6.80315" fill="none" stroke="black"/>
<path d="M70.7992,55.5799h -13.6063" fill="none" stroke="black"/>
<path d="M70.7992,339.488h -13.6063" fill="none" stroke="black"/>
<path d="M70.7992,55.5799h -13.6063" fill="none" stroke="black"/>
<path d="M63.9961,46.7078h -6.80315" fill="none" stroke="black"/>
<text xml:space="preserve" x="36.2377" y="343.569" fill="black" font-size="12.9143" font-family="Helvetica">0.2</text>
<text xml:space="preserve" x="28.9277" y="343.569" fill="black" font-size="12.9143" font-family="Times">&#8722;</text>
<text xml:space="preserve" x="46.7965" y="308.643" fill="black" font-size="12.9143" font-family="Helvetica">0</text>
<text xml:space="preserve" x="36.2377" y="272.906" fill="black" font-size="12.9143" font-family="Helvetica">0.2</text>
<text xml:space="preserve" x="36.2377" y="237.168" fill="black" font-size="12.9143" font-family="Helvetica">0.4</text>
<text xml:space="preserve" x="36.2377" y="202.243" fill="black" font-size="12.9143" font-family="Helvetica">0.6</text>
<text xml:space="preserve" x="36.2377" y="166.505" fill="black" font-size="12.9143" font-family="Helvetica">0.8</text>
<text xml:space="preserve" x="49.2332" y="131.58" fill="black" font-size="12.9143" font-family="Helvetica">1</text>
<text xml:space="preserve" x="36.2377" y="96.6541" fill="black" font-size="12.9143" font-family="Helvetica">1.2</text>
<text xml:space="preserve" x="36.2377" y="60.9165" fill="black" font-size="12.9143" font-family="Helvetica">1.4</text>
<path d="M57.1929,208.188l 4.16477, -56.8582l 4.16477, -58.6417l 4.16477, -20.8939l 4.16477, -7.35856l 4.16477, 28.114l 4.16477, 45.3313l 4.16477, 43.0416l 4.16477, 49.2069l 4.16477, 45.6584l 4.16477, 16.686l 4.16477, 29.7061l 4.16477, -10.8967l
 4.16477, -9.14558l 4.16477, -32.1165l 4.16477, -31.7774l 4.16477, -48.2405l 4.16477, -15.9849l 4.16477, -26.0743l 4.16477, 1.72652l 4.16477, -11.1028l 4.16477, 38.8974l 4.16477, 4.39278l 4.16477, 34.8791l 4.16477, 19.172l 4.16477, 18.8634l 4.16477,
 6.76341l 4.16477, -13.3705l 4.16477, 8.42889l 4.16477, -27.9636l 4.16477, -1.15178l 4.16477, -12.7486l 4.16477, -27.6454l 4.16477, 0.593901l 4.16477, -14.6201l 4.16477, 3.12779l 4.16477, 15.294l 4.16477, 9.52904l 4.16477, 11.3805l 4.16477, 9.23519l
 4.16477, 16.0036l 4.16477, -2.77645l 4.16477, 1.82677l 4.16477, -1.04674l 4.16477, 4.17541l 4.16477, -28.4198l 4.16477, 7.36619l 4.16477, -7.45331l 4.16477, 1.33473l 4.16477, -2.96099l 4.16477, 5.3027l 4.16477, -21.9142l 4.16477, 9.72813l 4.16477,
 6.13668l 4.16477, 5.36765l 4.16477, 13.8854l 4.16477, -0.336609l 4.16477, 2.88274l 4.16477, 12.5505l 4.16477, -11.3714l 4.16477, -2.61107l 4.16477, -10.4956l 4.16477, -17.7982l 4.16477, 13.3308l 4.16477, 10.7135l 4.16477, -14.4437l 4.16477, -14.304l
 4.16477, 20.3497l 4.16477, -6.04228l 4.16477, 6.75827l 4.16477, 4.649l 4.16477, -0.618211l 4.16477, 0.407231l 4.16477, -1.01018l 4.16477, -7.48951l 4.16477, 1.69635l 4.16477, 1.96199l 4.16477, -10.3112l 4.16477, 4.54981l 4.16477, 5.48086l 4.16477,
 -11.1108l 4.16477, -3.23815l 4.16477, 3.42376l 4.16477, 14.1591l 4.16477, -7.26966l 4.16477, 8.37211l 4.16477, -0.0699125l 4.16477, 5.44271l 4.16477, -15.9725l 4.16477, 4.73293l 4.16477, 12.265l 4.16477, -20.7223l 4.16477, 7.24535l 4.16477, 2.1334l
 4.16477, 0.534458l 4.16477, -5.30838l 4.16477, 5.71455l 4.16477, -13.7389l 4.16477, 11.3377l 4.16477, -0.413442" fill="none" stroke="black"/>
<g stroke="black" stroke-width="1" fill="none">
<line x1="56.1929" y1="208.188" x2="57.1929" y2="208.188"/>
<line x1="60.3577" y1="151.33" x2="61.3577" y2="151.33"/>
<line x1="64.5225" y1="92.6885" x2="65.5225" y2="92.6885"/>
<line x1="68.6872" y1="71.7946" x2="69.6872" y2="71.7946"/>
<line x1="72.852" y1="64.4361" x2="73.852" y2="64.4361"/>
<line x1="77.0168" y1="92.5501" x2="78.0168" y2="92.5501"/>
<line x1="81.1815" y1="137.881" x2="82.1815" y2="137.881"/>
<line x1="85.3463" y1="180.923" x2="86.3463" y2="180.923"/>
<line x1="89.5111" y1="230.13" x2="90.5111" y2="230.13"/>
<line x1="93.6758" y1="275.788" x2="94.6758" y2="275.788"/>
<line x1="97.8406" y1="292.474" x2="98.8406" y2="292.474"/>
<line x1="102.005" y1="322.18" x2="103.005" y2="322.18"/>
<line x1="106.17" y1="311.284" x2="107.17" y2="311.284"/>
<line x1="110.335" y1="302.138" x2="111.335" y2="302.138"/>
<line x1="114.5" y1="270.022" x2="115.5" y2="270.022"/>
<line x1="118.664" y1="238.244" x2="119.664" y2="238.244"/>
<line x1="122.829" y1="190.004" x2="123.829" y2="190.004"/>
<line x1="126.994" y1="174.019" x2="127.994" y2="174.019"/>
<line x1="131.159" y1="147.944" x2="132.159" y2="147.944"/>
<line x1="135.324" y1="149.671" x2="136.324" y2="149.671"/>
<line x1="139.488" y1="138.568" x2="140.488" y2="138.568"/>
<line x1="143.653" y1="177.466" x2="144.653" y2="177.466"/>
<line x1="147.818" y1="181.858" x2="148.818" y2="181.858"/>
<line x1="151.983" y1="216.737" x2="152.983" y2="216.737"/>
<line x1="156.147" y1="235.909" x2="157.147" y2="235.909"/>
<line x1="160.312" y1="254.773" x2="161.312" y2="254.773"/>
<line x1="164.477" y1="261.536" x2="165.477" y2="261.536"/>
<line x1="168.642" y1="248.166" x2="169.642" y2="248.166"/>
<line x1="172.806" y1="256.595" x2="173.806" y2="256.595"/>
<line x1="176.971" y1="228.631" x2="177.971" y2="228.631"/>
<line x1="181.136" y1="227.479" x2="182.136" y2="227.479"/>
<line x1="185.301" y1="214.731" x2="186.301" y2="214.731"/>
<line x1="189.466" y1="187.085" x2="190.466" y2="187.085"/>
<line x1="193.63" y1="187.679" x2="194.63" y2="187.679"/>
<line x1="197.795" y1="173.059" x2="198.795" y2="173.059"/>
<line x1="201.96" y1="176.187" x2="202.96" y2="176.187"/>
<line x1="206.125" y1="191.481" x2="207.125" y2="191.481"/>
<line x1="210.289" y1="201.01" x2="211.289" y2="201.01"/>
<line x1="214.454" y1="212.39" x2="215.454" y2="212.39"/>
<line x1="218.619" y1="221.626" x2="219.619" y2="221.626"/>
<line x1="222.784" y1="237.629" x2="223.784" y2="237.629"/>
<line x1="226.948" y1="234.853" x2="227.948" y2="234.853"/>
<line x1="231.113" y1="236.68" x2="232.113" y2="236.68"/>
<line x1="235.278" y1="235.633" x2="236.278" y2="235.633"/>
<line x1="239.443" y1="239.808" x2="240.443" y2="239.808"/>
<line x1="243.607" y1="211.388" x2="244.607" y2="211.388"/>
<line x1="247.772" y1="218.755" x2="248.772" y2="218.755"/>
<line x1="251.937" y1="211.301" x2="252.937" y2="211.301"/>
<line x1="256.102" y1="212.636" x2="257.102" y2="212.636"/>
<line x1="260.267" y1="209.675" x2="261.267" y2="209.675"/>
<line x1="264.431" y1="214.978" x2="265.431" y2="214.978"/>
<line x1="268.596" y1="193.064" x2="269.596" y2="193.064"/>
<line x1="272.761" y1="202.792" x2="273.761" y2="202.792"/>
<line x1="276.926" y1="208.928" x2="277.926" y2="208.928"/>
<line x1="281.09" y1="214.296" x2="282.09" y2="214.296"/>
<line x1="285.255" y1="228.181" x2="286.255" y2="228.181"/>
<line x1="289.42" y1="227.845" x2="290.42" y2="227.845"/>
<line x1="293.585" y1="230.728" x2="294.585" y2="230.728"/>
<line x1="297.749" y1="243.278" x2="298.749" y2="243.278"/>
<line x1="301.914" y1="231.907" x2="302.914" y2="231.907"/>
<line x1="306.079" y1="229.296" x2="307.079" y2="229.296"/>
<line x1="310.244" y1="218.8" x2="311.244" y2="218.8"/>
<line x1="314.409" y1="201.002" x2="315.409" y2="201.002"/>
<line x1="318.573" y1="214.333" x2="319.573" y2="214.333"/>
<line x1="322.738" y1="225.046" x2="323.738" y2="225.046"/>
<line x1="326.903" y1="210.602" x2="327.903" y2="210.602"/>
<line x1="331.068" y1="196.298" x2="332.068" y2="196.298"/>
<line x1="335.232" y1="216.648" x2="336.232" y2="216.648"/>
<line x1="339.397" y1="210.606" x2="340.397" y2="210.606"/>
<line x1="343.562" y1="217.364" x2="344.562" y2="217.364"/>
<line x1="347.727" y1="222.013" x2="348.727" y2="222.013"/>
<line x1="351.891" y1="221.395" x2="352.891" y2="221.395"/>
<line x1="356.056" y1="221.802" x2="357.056" y2="221.802"/>
<line x1="360.221" y1="220.792" x2="361.221" y2="220.792"/>
<line x1="364.386" y1="213.302" x2="365.386" y2="213.302"/>
<line x1="368.551" y1="214.999" x2="369.551" y2="214.999"/>
<line x1="372.715" y1="216.961" x2="373.715" y2="216.961"/>
<line x1="376.88" y1="206.649" x2="377.88" y2="206.649"/>
<line x1="381.045" y1="211.199" x2="382.045" y2="211.199"/>
<line x1="385.21" y1="216.68" x2="386.21" y2="216.68"/>
<line x1="389.374" y1="205.569" x2="390.374" y2="205.569"/>
<line x1="393.539" y1="202.331" x2="394.539" y2="202.331"/>
<line x1="397.704" y1="205.755" x2="398.704" y2="205.755"/>
<line x1="401.869" y1="219.914" x2="402.869" y2="219.914"/>
<line x1="406.033" y1="212.644" x2="407.033" y2="212.644"/>
<line x1="410.198" y1="221.016" x2="411.198" y2="221.016"/>
<line x1="414.363" y1="220.947" x2="415.363" y2="220.947"/>
<line x1="418.528" y1="226.389" x2="419.528" y2="226.389"/>
<line x1="422.693" y1="210.417" x2="423.693" y2="210.417"/>
<line x1="426.857" y1="215.15" x2="427.857" y2="215.15"/>
<line x1="431.022" y1="227.415" x2="432.022" y2="227.415"/>
<line x1="435.187" y1="206.692" x2="436.187" y2="206.692"/>
<line x1="439.352" y1="213.938" x2="440.352" y2="213.938"/>
<line x1="443.516" y1="216.071" x2="444.516" y2="216.071"/>
<line x1="447.681" y1="216.606" x2="448.681" y2="216.606"/>
<line x1="451.846" y1="211.297" x2="452.846" y2="211.297"/>
<line x1="456.011" y1="217.012" x2="457.011" y2="217.012"/>
<line x1="460.175" y1="203.273" x2="461.175" y2="203.273"/>
<line x1="464.34" y1="214.611" x2="465.34" y2="214.611"/>
<line x1="468.505" y1="214.197" x2="469.505" y2="214.197"/>
</g>
<path d="M59.4606,177.325l 4.53543, -63.4993l 4.53543, -38.0897l 4.53543, -8.07436l 4.53543, 20.4592l 4.53543, 42.3089l 4.53543, 54.045l 4.53543, 54.4764l 4.53543, 44.6504l 4.53543, 27.4332l 4.53543, 6.79072l 4.53543, -13.0648l 4.53543, -28.489l
 4.53543, -37.0321l 4.53543, -37.779l 4.53543, -31.3679l 4.53543, -19.7152l 4.53543, -5.52894l 4.53543, 8.27813l 4.53543, 19.155l 4.53543, 25.3548l 4.53543, 26.1818l 4.53543, 22.0172l 4.53543, 14.14l 4.53543, 4.39783l 4.53543, -5.19664l 4.53543,
 -12.8592l 4.53543, -17.3458l 4.53543, -18.1324l 4.53543, -15.4406l 4.53543, -10.1224l 4.53543, -3.43706l 4.53543, 3.22551l 4.53543, 8.61833l 4.53543, 11.857l 4.53543, 12.5492l 4.53543, 10.8194l 4.53543, 7.23363l 4.53543, 2.64941l 4.53543, -1.97403l
 4.53543, -5.7659l 4.53543, -8.09822l 4.53543, -8.67935l 4.53543, -7.57511l 4.53543, -5.16075l 4.53543, -2.01973l 4.53543, 1.1865l 4.53543, 3.85026l 4.53543, 5.52624l 4.53543, 5.99878" fill="none" stroke="#ff0000" stroke-width="2"/>
<path d="M281.697,216.081l 4.53543, 5.2994l 4.53543, 3.67618l 4.53543, 1.52569l 4.53543, -0.696229l 4.53543, -2.56585l 4.53543, -3.76778l 4.53543, -4.14329l 4.53543, -3.70446l 4.53543, -2.61485l 4.53543, -1.1437l 4.53543, 0.395056l 4.53543, 1.70616l
 4.53543, 2.56651l 4.53543, 2.85977l 4.53543, 2.58756l 4.53543, 1.85735l 4.53543, 0.85177l 4.53543, -0.213155l 4.53543, -1.13183l 4.53543, -1.7466l 4.53543, -1.97252l 4.53543, -1.80605l 4.53543, -1.31756l 4.53543, -0.630788l 4.53543, 0.105715l
 4.53543, 0.748889l 4.53543, 1.18746l 4.53543, 1.3596l 4.53543, 1.25964l 4.53543, 0.933481l 4.53543, 0.464843l 4.53543, -0.0441789l 4.53543, -0.494114l 4.53543, -0.806497l 4.53543, -0.936485l 4.53543, -0.87791l 4.53543, -0.660573l 4.53543, -0.341071l
 4.53543, 0.0104933l 4.53543, 0.325002l 4.53543, 0.547183l 4.53543, 0.644593l 4.53543, 0.61142l 4.53543, 0.466918l 4.53543, 0.249291l 4.53543, 0.00664236l 4.53543, -0.213034l 4.53543, -0.370841l 4.53543, -0.443366" fill="none" stroke="#ff0000"
 stroke-width="2"/>
<path d="M503.933,215.685l 4.53543, -0.425522" fill="none" stroke="#ff0000" stroke-width="2"/>
<text xml:space="preserve" x="250.664" y="18.681" fill="black" font-size="17.0819" font-family="Helvetica">data1.txt</text></svg>
