<?xml version="1.0" encoding="utf-8" standalone="no"?>
<!DOCTYPE svg PUBLIC "-//W3C//DTD SVG 1.1//EN"
  "http://www.w3.org/Graphics/SVG/1.1/DTD/svg11.dtd">
<svg xmlns:xlink="http://www.w3.org/1999/xlink" width="460.8pt" height="345.6pt" viewBox="0 0 460.8 345.6" xmlns="http://www.w3.org/2000/svg" version="1.1">
 <metadata>
  <rdf:RDF xmlns:dc="http://purl.org/dc/elements/1.1/" xmlns:cc="http://creativecommons.org/ns#" xmlns:rdf="http://www.w3.org/1999/02/22-rdf-syntax-ns#">
   <cc:Work>
    <dc:type rdf:resource="http://purl.org/dc/dcmitype/StillImage"/>
    <dc:date>2026-05-27T20:49:13.374823</dc:date>
    <dc:format>image/svg+xml</dc:format>
    <dc:creator>
     <cc:Agent>
      <dc:title>Matplotlib v3.10.3, https://matplotlib.org/</dc:title>
     </cc:Agent>
    </dc:creator>
   </cc:Work>
  </rdf:RDF>
 </metadata>
 <defs>
  <style type="text/css">*{stroke-linejoin: round; stroke-linecap: butt}</style>
 </defs>
 <g id="figure_1">
  <g id="patch_1">
   <path d="M 0 345.6 
L 460.8 345.6 
L 460.8 0 
L 0 0 
z
" style="fill: #ffffff"/>
  </g>
  <g id="text_1">
   <!-- family -->
   <g transform="translate(27.561563 34.56) scale(0.12 -0.12)">
    <defs>
     <path id="DejaVuSans-66" d="M 2375 4863 
L 2375 4384 
L 1825 4384 
Q 1516 4384 1395 4259 
Q 1275 4134 1275 3809 
L 1275 3500 
L 2222 3500 
L 2222 3053 
L 1275 3053 
L 1275 0 
L 697 0 
L 697 3053 
L 147 3053 
L 147 3500 
L 697 3500 
L 697 3744 
Q 697 4328 969 4595 
Q 1241 4863 1831 4863 
L 2375 4863 
z
" transform="scale(0.015625)"/>
     <path id="DejaVuSans-61" d="M 2194 1759 
Q 1497 1759 1228 1600 
Q 959 1441 959 1056 
Q 959 750 1161 570 
Q 1363 391 1709 391 
Q 2188 391 2477 730 
Q 2766 1069 2766 1631 
L 2766 1759 
L 2194 1759 
z
M 3341 1997 
L 3341 0 
L 2766 0 
L 2766 531 
Q 2569 213 2275 61 
Q 1981 -91 1556 -91 
Q 1019 -91 701 211 
Q 384 513 384 1019 
Q 384 1609 779 1909 
Q 1175 2209 1959 2209 
L 2766 2209 
L 2766 2266 
Q 2766 2663 2505 2880 
Q 2244 3097 1772 3097 
Q 1472 3097 1187 3025 
Q 903 2953 641 2809 
L 641 3341 
Q 956 3463 1253 3523 
Q 1550 3584 1831 3584 
Q 2591 3584 2966 3190 
Q 3341 2797 3341 1997 
z
" transform="scale(0.015625)"/>
     <path id="DejaVuSans-6d" d="M 3328 2828 
Q 3544 3216 3844 3400 
Q 4144 3584 4550 3584 
Q 5097 3584 5394 3201 
Q 5691 2819 5691 2113 
L 5691 0 
L 5113 0 
L 5113 2094 
Q 5113 2597 4934 2840 
Q 4756 3084 4391 3084 
Q 3944 3084 3684 2787 
Q 3425 2491 3425 1978 
L 3425 0 
L 2847 0 
L 2847 2094 
Q 2847 2600 2669 2842 
Q 2491 3084 2119 3084 
Q 1678 3084 1418 2786 
Q 1159 2488 1159 1978 
L 1159 0 
L 581 0 
L 581 3500 
L 1159 3500 
L 1159 2956 
Q 1356 3278 1631 3431 
Q 1906 3584 2284 3584 
Q 2666 3584 2933 3390 
Q 3200 3197 3328 2828 
z
" transform="scale(0.015625)"/>
     <path id="DejaVuSans-69" d="M 603 3500 
L 1178 3500 
L 1178 0 
L 603 0 
L 603 3500 
z
M 603 4863 
L 1178 4863 
L 1178 4134 
L 603 4134 
L 603 4863 
z
" transform="scale(0.015625)"/>
     <path id="DejaVuSans-6c" d="M 603 4863 
L 1178 4863 
L 1178 0 
L 603 0 
L 603 4863 
z
" transform="scale(0.015625)"/>
     <path id="DejaVuSans-79" d="M 2059 -325 
Q 1816 -950 1584 -1140 
Q 1353 -1331 966 -1331 
L 506 -1331 
L 506 -850 
L 844 -850 
Q 1081 -850 1212 -737 
Q 1344 -625 1503 -206 
L 1606 56 
L 191 3500 
L 800 3500 
L 1894 763 
L 2988 3500 
L 3597 3500 
L 2059 -325 
z
" transform="scale(0.015625)"/>
    </defs>
    <use xlink:href="#DejaVuSans-66"/>
    <use xlink:href="#DejaVuSans-61" transform="translate(35.205078 0)"/>
    <use xlink:href="#DejaVuSans-6d" transform="translate(96.484375 0)"/>
    <use xlink:href="#DejaVuSans-69" transform="translate(193.896484 0)"/>
    <use xlink:href="#DejaVuSans-6c" transform="translate(221.679688 0)"/>
    <use xlink:href="#DejaVuSans-79" transform="translate(249.462891 0)"/>
   </g>
  </g>
  <g id="text_2">
   <!-- serif -->
   <g transform="translate(34.715156 69.12) scale(0.1 -0.1)">
    <defs>
     <path id="DejaVuSerif-73" d="M 359 184 
L 359 959 
L 691 959 
Q 703 588 923 403 
Q 1144 219 1575 219 
Q 1963 219 2166 364 
Q 2369 509 2369 788 
Q 2369 1006 2220 1140 
Q 2072 1275 1594 1428 
L 1178 1569 
Q 750 1706 558 1912 
Q 366 2119 366 2438 
Q 366 2894 700 3153 
Q 1034 3413 1625 3413 
Q 1888 3413 2178 3344 
Q 2469 3275 2778 3144 
L 2778 2419 
L 2447 2419 
Q 2434 2741 2221 2922 
Q 2009 3103 1644 3103 
Q 1281 3103 1095 2975 
Q 909 2847 909 2591 
Q 909 2381 1050 2254 
Q 1191 2128 1613 1997 
L 2069 1856 
Q 2541 1709 2748 1489 
Q 2956 1269 2956 922 
Q 2956 450 2595 179 
Q 2234 -91 1600 -91 
Q 1278 -91 972 -22 
Q 666 47 359 184 
z
" transform="scale(0.015625)"/>
     <path id="DejaVuSerif-65" d="M 3469 1600 
L 991 1600 
L 991 1575 
Q 991 903 1244 561 
Q 1497 219 1991 219 
Q 2369 219 2611 417 
Q 2853 616 2950 1006 
L 3413 1006 
Q 3275 459 2904 184 
Q 2534 -91 1931 -91 
Q 1203 -91 761 389 
Q 319 869 319 1663 
Q 319 2450 753 2931 
Q 1188 3413 1894 3413 
Q 2647 3413 3050 2948 
Q 3453 2484 3469 1600 
z
M 2791 1931 
Q 2772 2513 2545 2808 
Q 2319 3103 1894 3103 
Q 1497 3103 1269 2806 
Q 1041 2509 991 1931 
L 2791 1931 
z
" transform="scale(0.015625)"/>
     <path id="DejaVuSerif-72" d="M 3059 3328 
L 3059 2497 
L 2728 2497 
Q 2713 2744 2591 2866 
Q 2469 2988 2234 2988 
Q 1809 2988 1582 2694 
Q 1356 2400 1356 1850 
L 1356 331 
L 2022 331 
L 2022 0 
L 263 0 
L 263 331 
L 781 331 
L 781 2994 
L 231 2994 
L 231 3322 
L 1356 3322 
L 1356 2731 
Q 1525 3078 1790 3245 
Q 2056 3413 2438 3413 
Q 2578 3413 2733 3391 
Q 2888 3369 3059 3328 
z
" transform="scale(0.015625)"/>
     <path id="DejaVuSerif-69" d="M 622 4353 
Q 622 4497 726 4603 
Q 831 4709 978 4709 
Q 1122 4709 1226 4603 
Q 1331 4497 1331 4353 
Q 1331 4206 1228 4103 
Q 1125 4000 978 4000 
Q 831 4000 726 4103 
Q 622 4206 622 4353 
z
M 1356 331 
L 1900 331 
L 1900 0 
L 231 0 
L 231 331 
L 781 331 
L 781 2988 
L 231 2988 
L 231 3322 
L 1356 3322 
L 1356 331 
z
" transform="scale(0.015625)"/>
     <path id="DejaVuSerif-66" d="M 2753 4078 
L 2450 4078 
Q 2447 4313 2317 4434 
Q 2188 4556 1941 4556 
Q 1619 4556 1487 4379 
Q 1356 4203 1356 3750 
L 1356 3322 
L 2284 3322 
L 2284 2988 
L 1356 2988 
L 1356 331 
L 2094 331 
L 2094 0 
L 231 0 
L 231 331 
L 781 331 
L 781 2988 
L 231 2988 
L 231 3322 
L 781 3322 
L 781 3738 
Q 781 4294 1070 4578 
Q 1359 4863 1919 4863 
Q 2128 4863 2337 4825 
Q 2547 4788 2753 4709 
L 2753 4078 
z
" transform="scale(0.015625)"/>
    </defs>
    <use xlink:href="#DejaVuSerif-73"/>
    <use xlink:href="#DejaVuSerif-65" transform="translate(51.318359 0)"/>
    <use xlink:href="#DejaVuSerif-72" transform="translate(110.498047 0)"/>
    <use xlink:href="#DejaVuSerif-69" transform="translate(158.300781 0)"/>
    <use xlink:href="#DejaVuSerif-66" transform="translate(190.283203 0)"/>
   </g>
  </g>
  <g id="text_3">
   <!-- sans-serif -->
   <g transform="translate(21.947969 103.68) scale(0.1 -0.1)">
    <defs>
     <path id="DejaVuSans-73" d="M 2834 3397 
L 2834 2853 
Q 2591 2978 2328 3040 
Q 2066 3103 1784 3103 
Q 1356 3103 1142 2972 
Q 928 2841 928 2578 
Q 928 2378 1081 2264 
Q 1234 2150 1697 2047 
L 1894 2003 
Q 2506 1872 2764 1633 
Q 3022 1394 3022 966 
Q 3022 478 2636 193 
Q 2250 -91 1575 -91 
Q 1294 -91 989 -36 
Q 684 19 347 128 
L 347 722 
Q 666 556 975 473 
Q 1284 391 1588 391 
Q 1994 391 2212 530 
Q 2431 669 2431 922 
Q 2431 1156 2273 1281 
Q 2116 1406 1581 1522 
L 1381 1569 
Q 847 1681 609 1914 
Q 372 2147 372 2553 
Q 372 3047 722 3315 
Q 1072 3584 1716 3584 
Q 2034 3584 2315 3537 
Q 2597 3491 2834 3397 
z
" transform="scale(0.015625)"/>
     <path id="DejaVuSans-6e" d="M 3513 2113 
L 3513 0 
L 2938 0 
L 2938 2094 
Q 2938 2591 2744 2837 
Q 2550 3084 2163 3084 
Q 1697 3084 1428 2787 
Q 1159 2491 1159 1978 
L 1159 0 
L 581 0 
L 581 3500 
L 1159 3500 
L 1159 2956 
Q 1366 3272 1645 3428 
Q 1925 3584 2291 3584 
Q 2894 3584 3203 3211 
Q 3513 2838 3513 2113 
z
" transform="scale(0.015625)"/>
     <path id="DejaVuSans-2d" d="M 313 2009 
L 1997 2009 
L 1997 1497 
L 313 1497 
L 313 2009 
z
" transform="scale(0.015625)"/>
     <path id="DejaVuSans-65" d="M 3597 1894 
L 3597 1613 
L 953 1613 
Q 991 1019 1311 708 
Q 1631 397 2203 397 
Q 2534 397 2845 478 
Q 3156 559 3463 722 
L 3463 178 
Q 3153 47 2828 -22 
Q 2503 -91 2169 -91 
Q 1331 -91 842 396 
Q 353 884 353 1716 
Q 353 2575 817 3079 
Q 1281 3584 2069 3584 
Q 2775 3584 3186 3129 
Q 3597 2675 3597 1894 
z
M 3022 2063 
Q 3016 2534 2758 2815 
Q 2500 3097 2075 3097 
Q 1594 3097 1305 2825 
Q 1016 2553 972 2059 
L 3022 2063 
z
" transform="scale(0.015625)"/>
     <path id="DejaVuSans-72" d="M 2631 2963 
Q 2534 3019 2420 3045 
Q 2306 3072 2169 3072 
Q 1681 3072 1420 2755 
Q 1159 2438 1159 1844 
L 1159 0 
L 581 0 
L 581 3500 
L 1159 3500 
L 1159 2956 
Q 1341 3275 1631 3429 
Q 1922 3584 2338 3584 
Q 2397 3584 2469 3576 
Q 2541 3569 2628 3553 
L 2631 2963 
z
" transform="scale(0.015625)"/>
    </defs>
    <use xlink:href="#DejaVuSans-73"/>
    <use xlink:href="#DejaVuSans-61" transform="translate(52.099609 0)"/>
    <use xlink:href="#DejaVuSans-6e" transform="translate(113.378906 0)"/>
    <use xlink:href="#DejaVuSans-73" transform="translate(176.757812 0)"/>
    <use xlink:href="#DejaVuSans-2d" transform="translate(228.857422 0)"/>
    <use xlink:href="#DejaVuSans-73" transform="translate(264.941406 0)"/>
    <use xlink:href="#DejaVuSans-65" transform="translate(317.041016 0)"/>
    <use xlink:href="#DejaVuSans-72" transform="translate(378.564453 0)"/>
    <use xlink:href="#DejaVuSans-69" transform="translate(419.677734 0)"/>
    <use xlink:href="#DejaVuSans-66" transform="translate(447.460938 0)"/>
   </g>
  </g>
  <g id="text_4">
   <!-- cursive -->
   <g transform="translate(31.912031 138.24) scale(0.1 -0.1)">
    <defs>
     <path id="Apple-Chancery-63" d="M 2509 2909 
L 2153 2481 
Q 1903 2584 1675 2584 
Q 1266 2584 1030 2237 
Q 794 1891 794 1288 
Q 794 863 964 603 
Q 1134 344 1409 344 
Q 1875 344 2141 953 
Q 2209 878 2209 813 
Q 2209 553 1804 236 
Q 1400 -81 1063 -81 
Q 738 -81 530 180 
Q 322 441 322 856 
Q 322 1666 872 2328 
Q 1422 2991 2094 2991 
Q 2338 2991 2509 2909 
z
" transform="scale(0.015625)"/>
     <path id="Apple-Chancery-75" d="M 2594 1228 
Q 2238 681 1791 300 
Q 1344 -81 1063 -81 
Q 753 -81 753 331 
Q 753 484 794 834 
L 906 1859 
Q 909 1881 922 2041 
L 941 2244 
Q 950 2334 950 2406 
Q 950 2588 847 2588 
Q 609 2588 334 2053 
Q 275 2100 275 2153 
Q 275 2347 620 2669 
Q 966 2991 1169 2991 
Q 1428 2991 1428 2634 
Q 1428 2550 1416 2438 
L 1388 2197 
L 1359 1934 
L 1259 1041 
Q 1234 813 1234 578 
Q 1234 363 1394 363 
Q 1747 363 2192 944 
Q 2638 1525 2719 2094 
L 2825 2834 
L 3331 3006 
Q 3244 2644 3200 2359 
L 3013 1053 
Q 2997 934 2988 853 
L 2966 681 
Q 2947 522 2947 456 
Q 2947 322 3022 322 
Q 3288 322 3563 909 
Q 3647 859 3647 809 
Q 3647 700 3375 369 
Q 3009 -81 2697 -81 
Q 2469 -81 2469 225 
Q 2469 322 2491 484 
L 2525 734 
Q 2553 938 2563 1009 
L 2594 1228 
z
" transform="scale(0.015625)"/>
     <path id="Apple-Chancery-72" d="M 1353 1675 
Q 2047 2991 2719 2991 
Q 2894 2991 3069 2909 
L 2628 2428 
Q 2528 2484 2372 2484 
Q 2047 2484 1686 1957 
Q 1325 1431 1263 863 
L 1178 100 
L 716 -56 
L 725 38 
L 747 241 
L 772 444 
L 934 1931 
L 953 2094 
Q 975 2278 975 2394 
Q 975 2584 869 2584 
Q 619 2584 372 2050 
Q 294 2109 297 2172 
Q 306 2363 645 2677 
Q 984 2991 1181 2991 
Q 1447 2991 1447 2641 
Q 1447 2556 1431 2413 
L 1409 2194 
L 1381 1931 
L 1353 1675 
z
" transform="scale(0.015625)"/>
     <path id="Apple-Chancery-73" d="M 134 88 
L 566 441 
Q 809 181 1178 181 
Q 1628 181 1628 616 
Q 1628 856 1216 1288 
L 1038 1472 
Q 647 1881 647 2134 
Q 647 2497 961 2744 
Q 1275 2991 1734 2991 
Q 1984 2991 2281 2897 
L 1906 2550 
Q 1669 2728 1378 2728 
Q 1038 2728 1038 2444 
Q 1038 2241 1416 1847 
L 1609 1641 
Q 2041 1191 2041 916 
Q 2041 522 1662 220 
Q 1284 -81 791 -81 
Q 441 -81 134 88 
z
" transform="scale(0.015625)"/>
     <path id="Apple-Chancery-69" d="M 1847 909 
Q 1931 859 1931 813 
Q 1931 700 1659 369 
Q 1294 -81 981 -81 
Q 753 -81 753 222 
Q 753 350 847 1009 
L 969 1859 
L 1000 2075 
L 1025 2247 
Q 1041 2356 1041 2431 
Q 1041 2588 953 2588 
Q 709 2588 428 2050 
Q 369 2103 369 2156 
Q 369 2347 720 2669 
Q 1072 2991 1281 2991 
Q 1516 2991 1516 2666 
Q 1516 2603 1491 2409 
L 1463 2200 
Q 1459 2175 1428 1947 
L 1300 1053 
L 1269 853 
Q 1228 556 1228 456 
Q 1228 322 1306 322 
Q 1569 322 1847 909 
z
M 1219 3394 
L 1481 4041 
Q 1831 4184 2056 4438 
Q 2088 4394 2088 4347 
Q 2088 3928 1219 3394 
z
" transform="scale(0.015625)"/>
     <path id="Apple-Chancery-76" d="M 1747 613 
Q 2619 1831 2619 2309 
Q 2619 2488 2438 2591 
L 2828 2991 
Q 3056 2875 3056 2622 
Q 3056 2309 2459 1406 
Q 2328 1213 2275 1125 
L 2197 991 
L 2053 763 
Q 1934 575 1803 341 
L 1369 -81 
Q 1250 925 981 1744 
Q 713 2563 500 2563 
Q 263 2563 169 2091 
Q 78 2122 78 2194 
Q 78 2431 283 2706 
Q 488 2981 669 2991 
Q 1347 3025 1747 613 
z
" transform="scale(0.015625)"/>
     <path id="Apple-Chancery-65" d="M 2231 994 
Q 2309 941 2309 869 
Q 2309 772 2109 538 
Q 1575 -81 1053 -81 
Q 734 -81 528 172 
Q 322 425 322 819 
Q 322 1531 861 2261 
Q 1400 2991 1928 2991 
Q 2309 2991 2309 2581 
Q 2309 2122 1864 1684 
Q 1419 1247 778 1075 
Q 841 322 1372 322 
Q 1897 322 2231 994 
z
M 791 1456 
Q 881 1425 956 1425 
Q 1344 1425 1634 1662 
Q 1925 1900 1925 2219 
Q 1925 2584 1553 2584 
Q 1284 2584 1067 2264 
Q 850 1944 791 1456 
z
" transform="scale(0.015625)"/>
    </defs>
    <use xlink:href="#Apple-Chancery-63"/>
    <use xlink:href="#Apple-Chancery-75" transform="translate(38.28125 0)"/>
    <use xlink:href="#Apple-Chancery-72" transform="translate(94.335938 0)"/>
    <use xlink:href="#Apple-Chancery-73" transform="translate(135.986328 0)"/>
    <use xlink:href="#Apple-Chancery-69" transform="translate(171.533203 0)"/>
    <use xlink:href="#Apple-Chancery-76" transform="translate(201.123047 0)"/>
    <use xlink:href="#Apple-Chancery-65" transform="translate(246.191406 0)"/>
   </g>
  </g>
  <g id="text_5">
   <!-- fantasy -->
   <g transform="translate(30.862031 172.8) scale(0.1 -0.1)">
    <defs>
     <path id="Impact-66" d="M 1834 5059 
L 1834 4419 
Q 1444 4419 1373 4383 
Q 1303 4347 1303 4178 
L 1303 4047 
L 1834 4047 
L 1834 3391 
L 1534 3391 
L 1534 0 
L 272 0 
L 272 3391 
L 13 3391 
L 13 4047 
L 272 4047 
Q 272 4456 300 4593 
Q 328 4731 439 4839 
Q 550 4947 750 5003 
Q 950 5059 1372 5059 
L 1834 5059 
z
" transform="scale(0.015625)"/>
     <path id="Impact-61" d="M 1353 2541 
L 169 2541 
L 169 2819 
Q 169 3300 280 3561 
Q 391 3822 725 4022 
Q 1059 4222 1594 4222 
Q 2234 4222 2559 3995 
Q 2884 3769 2950 3439 
Q 3016 3109 3016 2081 
L 3016 0 
L 1788 0 
L 1788 369 
Q 1672 147 1489 36 
Q 1306 -75 1053 -75 
Q 722 -75 445 111 
Q 169 297 169 925 
L 169 1266 
Q 169 1731 316 1900 
Q 463 2069 1044 2294 
Q 1666 2538 1709 2622 
Q 1753 2706 1753 2966 
Q 1753 3291 1704 3389 
Q 1656 3488 1544 3488 
Q 1416 3488 1384 3405 
Q 1353 3322 1353 2975 
L 1353 2541 
z
M 1753 1972 
Q 1450 1750 1401 1600 
Q 1353 1450 1353 1169 
Q 1353 847 1395 753 
Q 1438 659 1563 659 
Q 1681 659 1717 732 
Q 1753 806 1753 1119 
L 1753 1972 
z
" transform="scale(0.015625)"/>
     <path id="Impact-6e" d="M 1509 4147 
L 1488 3766 
Q 1625 3994 1823 4108 
Q 2022 4222 2281 4222 
Q 2606 4222 2812 4069 
Q 3019 3916 3078 3683 
Q 3138 3450 3138 2906 
L 3138 0 
L 1875 0 
L 1875 2872 
Q 1875 3300 1847 3394 
Q 1819 3488 1691 3488 
Q 1556 3488 1522 3380 
Q 1488 3272 1488 2803 
L 1488 0 
L 225 0 
L 225 4147 
L 1509 4147 
z
" transform="scale(0.015625)"/>
     <path id="Impact-74" d="M 1556 4700 
L 1556 4047 
L 1897 4047 
L 1897 3391 
L 1556 3391 
L 1556 1172 
Q 1556 763 1598 716 
Q 1641 669 1950 669 
L 1950 0 
L 1441 0 
Q 1009 0 825 36 
Q 641 72 500 201 
Q 359 331 325 498 
Q 291 666 291 1284 
L 291 3391 
L 19 3391 
L 19 4047 
L 291 4047 
L 291 4700 
L 1556 4700 
z
" transform="scale(0.015625)"/>
     <path id="Impact-73" d="M 2803 2822 
L 1684 2822 
L 1684 3047 
Q 1684 3334 1651 3411 
Q 1619 3488 1488 3488 
Q 1381 3488 1328 3417 
Q 1275 3347 1275 3206 
Q 1275 3016 1301 2927 
Q 1328 2838 1461 2731 
Q 1594 2625 2006 2422 
Q 2556 2153 2728 1916 
Q 2900 1678 2900 1225 
Q 2900 719 2769 461 
Q 2638 203 2330 64 
Q 2022 -75 1588 -75 
Q 1106 -75 764 75 
Q 422 225 294 481 
Q 166 738 166 1256 
L 166 1456 
L 1284 1456 
L 1284 1194 
Q 1284 859 1326 759 
Q 1369 659 1494 659 
Q 1628 659 1681 726 
Q 1734 794 1734 1009 
Q 1734 1306 1666 1381 
Q 1594 1456 931 1825 
Q 375 2138 253 2392 
Q 131 2647 131 2997 
Q 131 3494 262 3730 
Q 394 3966 708 4094 
Q 1022 4222 1438 4222 
Q 1850 4222 2139 4117 
Q 2428 4013 2583 3841 
Q 2738 3669 2770 3522 
Q 2803 3375 2803 3063 
L 2803 2822 
z
" transform="scale(0.015625)"/>
     <path id="Impact-79" d="M 2869 4147 
L 2506 1147 
Q 2422 434 2364 175 
Q 2306 -84 2172 -253 
Q 2038 -422 1798 -501 
Q 1559 -581 1034 -581 
L 269 -581 
L 269 81 
Q 563 81 647 111 
Q 731 141 731 244 
Q 731 294 653 678 
L -38 4147 
L 1109 4147 
L 1522 1350 
L 1722 4147 
L 2869 4147 
z
" transform="scale(0.015625)"/>
    </defs>
    <use xlink:href="#Impact-66"/>
    <use xlink:href="#Impact-61" transform="translate(28.90625 0)"/>
    <use xlink:href="#Impact-6e" transform="translate(79.296875 0)"/>
    <use xlink:href="#Impact-74" transform="translate(131.591797 0)"/>
    <use xlink:href="#Impact-61" transform="translate(162.060547 0)"/>
    <use xlink:href="#Impact-73" transform="translate(212.451172 0)"/>
    <use xlink:href="#Impact-79" transform="translate(259.521484 0)"/>
   </g>
  </g>
  <g id="text_6">
   <!-- monospace -->
   <g transform="translate(18.988594 207.36) scale(0.1 -0.1)">
    <defs>
     <path id="DejaVuSansMono-6d" d="M 2113 3144 
Q 2219 3369 2383 3476 
Q 2547 3584 2778 3584 
Q 3200 3584 3373 3257 
Q 3547 2931 3547 2028 
L 3547 0 
L 3022 0 
L 3022 2003 
Q 3022 2744 2939 2923 
Q 2856 3103 2638 3103 
Q 2388 3103 2295 2911 
Q 2203 2719 2203 2003 
L 2203 0 
L 1678 0 
L 1678 2003 
Q 1678 2753 1589 2928 
Q 1500 3103 1269 3103 
Q 1041 3103 952 2911 
Q 863 2719 863 2003 
L 863 0 
L 341 0 
L 341 3500 
L 863 3500 
L 863 3200 
Q 966 3388 1120 3486 
Q 1275 3584 1472 3584 
Q 1709 3584 1867 3475 
Q 2025 3366 2113 3144 
z
" transform="scale(0.015625)"/>
     <path id="DejaVuSansMono-6f" d="M 1925 3097 
Q 1488 3097 1263 2756 
Q 1038 2416 1038 1747 
Q 1038 1081 1263 739 
Q 1488 397 1925 397 
Q 2366 397 2591 739 
Q 2816 1081 2816 1747 
Q 2816 2416 2591 2756 
Q 2366 3097 1925 3097 
z
M 1925 3584 
Q 2653 3584 3039 3112 
Q 3425 2641 3425 1747 
Q 3425 850 3040 379 
Q 2656 -91 1925 -91 
Q 1197 -91 812 379 
Q 428 850 428 1747 
Q 428 2641 812 3112 
Q 1197 3584 1925 3584 
z
" transform="scale(0.015625)"/>
     <path id="DejaVuSansMono-6e" d="M 3284 2169 
L 3284 0 
L 2706 0 
L 2706 2169 
Q 2706 2641 2540 2862 
Q 2375 3084 2022 3084 
Q 1619 3084 1401 2798 
Q 1184 2513 1184 1978 
L 1184 0 
L 609 0 
L 609 3500 
L 1184 3500 
L 1184 2975 
Q 1338 3275 1600 3429 
Q 1863 3584 2222 3584 
Q 2756 3584 3020 3232 
Q 3284 2881 3284 2169 
z
" transform="scale(0.015625)"/>
     <path id="DejaVuSansMono-73" d="M 3041 3378 
L 3041 2816 
Q 2794 2959 2544 3031 
Q 2294 3103 2034 3103 
Q 1644 3103 1451 2976 
Q 1259 2850 1259 2591 
Q 1259 2356 1403 2240 
Q 1547 2125 2119 2016 
L 2350 1972 
Q 2778 1891 2998 1647 
Q 3219 1403 3219 1013 
Q 3219 494 2850 201 
Q 2481 -91 1825 -91 
Q 1566 -91 1281 -36 
Q 997 19 666 128 
L 666 722 
Q 988 556 1281 473 
Q 1575 391 1838 391 
Q 2219 391 2428 545 
Q 2638 700 2638 978 
Q 2638 1378 1872 1531 
L 1847 1538 
L 1631 1581 
Q 1134 1678 906 1908 
Q 678 2138 678 2534 
Q 678 3038 1018 3311 
Q 1359 3584 1991 3584 
Q 2272 3584 2531 3532 
Q 2791 3481 3041 3378 
z
" transform="scale(0.015625)"/>
     <path id="DejaVuSansMono-70" d="M 1172 441 
L 1172 -1331 
L 594 -1331 
L 594 3500 
L 1172 3500 
L 1172 3053 
Q 1316 3313 1555 3448 
Q 1794 3584 2106 3584 
Q 2741 3584 3102 3093 
Q 3463 2603 3463 1734 
Q 3463 881 3100 395 
Q 2738 -91 2106 -91 
Q 1788 -91 1548 45 
Q 1309 181 1172 441 
z
M 2859 1747 
Q 2859 2416 2648 2756 
Q 2438 3097 2022 3097 
Q 1603 3097 1387 2755 
Q 1172 2413 1172 1747 
Q 1172 1084 1387 740 
Q 1603 397 2022 397 
Q 2438 397 2648 737 
Q 2859 1078 2859 1747 
z
" transform="scale(0.015625)"/>
     <path id="DejaVuSansMono-61" d="M 2194 1759 
L 2003 1759 
Q 1500 1759 1245 1582 
Q 991 1406 991 1056 
Q 991 741 1181 566 
Q 1372 391 1709 391 
Q 2184 391 2456 720 
Q 2728 1050 2731 1631 
L 2731 1759 
L 2194 1759 
z
M 3309 1997 
L 3309 0 
L 2731 0 
L 2731 519 
Q 2547 206 2267 57 
Q 1988 -91 1588 -91 
Q 1053 -91 734 211 
Q 416 513 416 1019 
Q 416 1603 808 1906 
Q 1200 2209 1959 2209 
L 2731 2209 
L 2731 2300 
Q 2728 2719 2518 2908 
Q 2309 3097 1850 3097 
Q 1556 3097 1256 3012 
Q 956 2928 672 2766 
L 672 3341 
Q 991 3463 1283 3523 
Q 1575 3584 1850 3584 
Q 2284 3584 2592 3456 
Q 2900 3328 3091 3072 
Q 3209 2916 3259 2686 
Q 3309 2456 3309 1997 
z
" transform="scale(0.015625)"/>
     <path id="DejaVuSansMono-63" d="M 3316 178 
Q 3084 44 2839 -23 
Q 2594 -91 2338 -91 
Q 1525 -91 1067 396 
Q 609 884 609 1747 
Q 609 2609 1067 3096 
Q 1525 3584 2338 3584 
Q 2591 3584 2831 3518 
Q 3072 3453 3316 3316 
L 3316 2713 
Q 3088 2916 2858 3006 
Q 2628 3097 2338 3097 
Q 1797 3097 1506 2747 
Q 1216 2397 1216 1747 
Q 1216 1100 1508 748 
Q 1800 397 2338 397 
Q 2638 397 2875 489 
Q 3113 581 3316 775 
L 3316 178 
z
" transform="scale(0.015625)"/>
     <path id="DejaVuSansMono-65" d="M 3475 1894 
L 3475 1613 
L 984 1613 
L 984 1594 
Q 984 1022 1282 709 
Q 1581 397 2125 397 
Q 2400 397 2700 484 
Q 3000 572 3341 750 
L 3341 178 
Q 3013 44 2708 -23 
Q 2403 -91 2119 -91 
Q 1303 -91 843 398 
Q 384 888 384 1747 
Q 384 2584 834 3084 
Q 1284 3584 2034 3584 
Q 2703 3584 3089 3131 
Q 3475 2678 3475 1894 
z
M 2900 2063 
Q 2888 2569 2661 2833 
Q 2434 3097 2009 3097 
Q 1594 3097 1325 2822 
Q 1056 2547 1006 2059 
L 2900 2063 
z
" transform="scale(0.015625)"/>
    </defs>
    <use xlink:href="#DejaVuSansMono-6d"/>
    <use xlink:href="#DejaVuSansMono-6f" transform="translate(60.205078 0)"/>
    <use xlink:href="#DejaVuSansMono-6e" transform="translate(120.410156 0)"/>
    <use xlink:href="#DejaVuSansMono-6f" transform="translate(180.615234 0)"/>
    <use xlink:href="#DejaVuSansMono-73" transform="translate(240.820312 0)"/>
    <use xlink:href="#DejaVuSansMono-70" transform="translate(301.025391 0)"/>
    <use xlink:href="#DejaVuSansMono-61" transform="translate(361.230469 0)"/>
    <use xlink:href="#DejaVuSansMono-63" transform="translate(421.435547 0)"/>
    <use xlink:href="#DejaVuSansMono-65" transform="translate(481.640625 0)"/>
   </g>
  </g>
  <g id="text_7">
   <!-- style -->
   <g transform="translate(126.250156 34.56) scale(0.1 -0.1)">
    <defs>
     <path id="DejaVuSans-74" d="M 1172 4494 
L 1172 3500 
L 2356 3500 
L 2356 3053 
L 1172 3053 
L 1172 1153 
Q 1172 725 1289 603 
Q 1406 481 1766 481 
L 2356 481 
L 2356 0 
L 1766 0 
Q 1100 0 847 248 
Q 594 497 594 1153 
L 594 3053 
L 172 3053 
L 172 3500 
L 594 3500 
L 594 4494 
L 1172 4494 
z
" transform="scale(0.015625)"/>
    </defs>
    <use xlink:href="#DejaVuSans-73"/>
    <use xlink:href="#DejaVuSans-74" transform="translate(52.099609 0)"/>
    <use xlink:href="#DejaVuSans-79" transform="translate(91.308594 0)"/>
    <use xlink:href="#DejaVuSans-6c" transform="translate(150.488281 0)"/>
    <use xlink:href="#DejaVuSans-65" transform="translate(178.271484 0)"/>
   </g>
  </g>
  <g id="text_8">
   <!-- normal -->
   <g transform="translate(120.720469 69.12) scale(0.1 -0.1)">
    <defs>
     <path id="DejaVuSans-6f" d="M 1959 3097 
Q 1497 3097 1228 2736 
Q 959 2375 959 1747 
Q 959 1119 1226 758 
Q 1494 397 1959 397 
Q 2419 397 2687 759 
Q 2956 1122 2956 1747 
Q 2956 2369 2687 2733 
Q 2419 3097 1959 3097 
z
M 1959 3584 
Q 2709 3584 3137 3096 
Q 3566 2609 3566 1747 
Q 3566 888 3137 398 
Q 2709 -91 1959 -91 
Q 1206 -91 779 398 
Q 353 888 353 1747 
Q 353 2609 779 3096 
Q 1206 3584 1959 3584 
z
" transform="scale(0.015625)"/>
    </defs>
    <use xlink:href="#DejaVuSans-6e"/>
    <use xlink:href="#DejaVuSans-6f" transform="translate(63.378906 0)"/>
    <use xlink:href="#DejaVuSans-72" transform="translate(124.560547 0)"/>
    <use xlink:href="#DejaVuSans-6d" transform="translate(163.923828 0)"/>
    <use xlink:href="#DejaVuSans-61" transform="translate(261.335938 0)"/>
    <use xlink:href="#DejaVuSans-6c" transform="translate(322.615234 0)"/>
   </g>
  </g>
  <g id="text_9">
   <!-- italic -->
   <g transform="translate(126.299375 103.68) scale(0.1 -0.1)">
    <defs>
     <path id="DejaVuSans-Oblique-69" d="M 1172 4863 
L 1747 4863 
L 1606 4134 
L 1031 4134 
L 1172 4863 
z
M 909 3500 
L 1484 3500 
L 800 0 
L 225 0 
L 909 3500 
z
" transform="scale(0.015625)"/>
     <path id="DejaVuSans-Oblique-74" d="M 2706 3500 
L 2619 3053 
L 1472 3053 
L 1100 1153 
Q 1081 1047 1072 975 
Q 1063 903 1063 863 
Q 1063 663 1183 572 
Q 1303 481 1569 481 
L 2150 481 
L 2053 0 
L 1503 0 
Q 991 0 739 200 
Q 488 400 488 806 
Q 488 878 497 964 
Q 506 1050 525 1153 
L 897 3053 
L 409 3053 
L 500 3500 
L 978 3500 
L 1172 4494 
L 1747 4494 
L 1556 3500 
L 2706 3500 
z
" transform="scale(0.015625)"/>
     <path id="DejaVuSans-Oblique-61" d="M 3438 1997 
L 3047 0 
L 2472 0 
L 2578 531 
Q 2325 219 2001 64 
Q 1678 -91 1281 -91 
Q 834 -91 548 182 
Q 263 456 263 884 
Q 263 1497 752 1853 
Q 1241 2209 2100 2209 
L 2900 2209 
L 2931 2363 
Q 2938 2388 2941 2417 
Q 2944 2447 2944 2509 
Q 2944 2788 2717 2942 
Q 2491 3097 2081 3097 
Q 1800 3097 1504 3025 
Q 1209 2953 897 2809 
L 997 3341 
Q 1322 3463 1633 3523 
Q 1944 3584 2234 3584 
Q 2853 3584 3176 3315 
Q 3500 3047 3500 2534 
Q 3500 2431 3484 2292 
Q 3469 2153 3438 1997 
z
M 2816 1759 
L 2241 1759 
Q 1534 1759 1195 1570 
Q 856 1381 856 984 
Q 856 709 1029 553 
Q 1203 397 1509 397 
Q 1978 397 2328 733 
Q 2678 1069 2791 1631 
L 2816 1759 
z
" transform="scale(0.015625)"/>
     <path id="DejaVuSans-Oblique-6c" d="M 1172 4863 
L 1747 4863 
L 800 0 
L 225 0 
L 1172 4863 
z
" transform="scale(0.015625)"/>
     <path id="DejaVuSans-Oblique-63" d="M 3431 3366 
L 3316 2797 
Q 3109 2947 2876 3022 
Q 2644 3097 2394 3097 
Q 2119 3097 1870 3000 
Q 1622 2903 1453 2725 
Q 1184 2453 1037 2087 
Q 891 1722 891 1331 
Q 891 859 1127 628 
Q 1363 397 1844 397 
Q 2081 397 2348 469 
Q 2616 541 2906 684 
L 2797 116 
Q 2547 13 2283 -39 
Q 2019 -91 1741 -91 
Q 1044 -91 669 257 
Q 294 606 294 1253 
Q 294 1797 489 2255 
Q 684 2713 1069 3078 
Q 1331 3328 1684 3456 
Q 2038 3584 2456 3584 
Q 2700 3584 2940 3529 
Q 3181 3475 3431 3366 
z
" transform="scale(0.015625)"/>
    </defs>
    <use xlink:href="#DejaVuSans-Oblique-69"/>
    <use xlink:href="#DejaVuSans-Oblique-74" transform="translate(27.783203 0)"/>
    <use xlink:href="#DejaVuSans-Oblique-61" transform="translate(66.992188 0)"/>
    <use xlink:href="#DejaVuSans-Oblique-6c" transform="translate(128.271484 0)"/>
    <use xlink:href="#DejaVuSans-Oblique-69" transform="translate(156.054688 0)"/>
    <use xlink:href="#DejaVuSans-Oblique-63" transform="translate(183.837891 0)"/>
   </g>
  </g>
  <g id="text_10">
   <!-- oblique -->
   <g transform="translate(119.80875 138.24) scale(0.1 -0.1)">
    <defs>
     <path id="DejaVuSans-Oblique-6f" d="M 1625 -91 
Q 1009 -91 651 289 
Q 294 669 294 1325 
Q 294 1706 417 2101 
Q 541 2497 738 2766 
Q 1047 3184 1428 3384 
Q 1809 3584 2291 3584 
Q 2888 3584 3255 3212 
Q 3622 2841 3622 2241 
Q 3622 1825 3500 1412 
Q 3378 1000 3181 728 
Q 2875 309 2494 109 
Q 2113 -91 1625 -91 
z
M 891 1344 
Q 891 869 1089 633 
Q 1288 397 1691 397 
Q 2269 397 2648 901 
Q 3028 1406 3028 2181 
Q 3028 2634 2825 2865 
Q 2622 3097 2228 3097 
Q 1903 3097 1650 2945 
Q 1397 2794 1197 2484 
Q 1050 2253 970 1956 
Q 891 1659 891 1344 
z
" transform="scale(0.015625)"/>
     <path id="DejaVuSans-Oblique-62" d="M 3169 2138 
Q 3169 2591 2961 2847 
Q 2753 3103 2388 3103 
Q 2122 3103 1889 2973 
Q 1656 2844 1484 2597 
Q 1303 2338 1198 1995 
Q 1094 1653 1094 1313 
Q 1094 881 1298 636 
Q 1503 391 1863 391 
Q 2134 391 2365 517 
Q 2597 644 2772 891 
Q 2950 1147 3059 1487 
Q 3169 1828 3169 2138 
z
M 1381 2969 
Q 1594 3256 1914 3420 
Q 2234 3584 2584 3584 
Q 3122 3584 3439 3221 
Q 3756 2859 3756 2241 
Q 3756 1734 3570 1259 
Q 3384 784 3041 416 
Q 2816 172 2522 40 
Q 2228 -91 1906 -91 
Q 1566 -91 1316 65 
Q 1066 222 909 531 
L 806 0 
L 231 0 
L 1178 4863 
L 1753 4863 
L 1381 2969 
z
" transform="scale(0.015625)"/>
     <path id="DejaVuSans-Oblique-71" d="M 2669 525 
Q 2438 222 2123 65 
Q 1809 -91 1428 -91 
Q 897 -91 595 267 
Q 294 625 294 1253 
Q 294 1759 480 2231 
Q 666 2703 1013 3078 
Q 1238 3322 1530 3453 
Q 1822 3584 2144 3584 
Q 2531 3584 2781 3431 
Q 3031 3278 3144 2969 
L 3244 3494 
L 3822 3494 
L 2888 -1319 
L 2309 -1319 
L 2669 525 
z
M 891 1338 
Q 891 875 1084 633 
Q 1278 391 1644 391 
Q 2188 391 2572 911 
Q 2956 1431 2956 2175 
Q 2956 2625 2757 2864 
Q 2559 3103 2188 3103 
Q 1916 3103 1684 2976 
Q 1453 2850 1281 2606 
Q 1100 2350 995 2006 
Q 891 1663 891 1338 
z
" transform="scale(0.015625)"/>
     <path id="DejaVuSans-Oblique-75" d="M 428 1388 
L 838 3500 
L 1416 3500 
L 1006 1409 
Q 975 1256 961 1147 
Q 947 1038 947 966 
Q 947 700 1109 554 
Q 1272 409 1569 409 
Q 2031 409 2368 721 
Q 2706 1034 2809 1563 
L 3194 3500 
L 3769 3500 
L 3091 0 
L 2516 0 
L 2631 550 
Q 2388 244 2052 76 
Q 1716 -91 1338 -91 
Q 878 -91 622 161 
Q 366 413 366 863 
Q 366 956 381 1097 
Q 397 1238 428 1388 
z
" transform="scale(0.015625)"/>
     <path id="DejaVuSans-Oblique-65" d="M 3078 2063 
Q 3088 2113 3092 2166 
Q 3097 2219 3097 2272 
Q 3097 2653 2873 2875 
Q 2650 3097 2266 3097 
Q 1838 3097 1509 2826 
Q 1181 2556 1013 2059 
L 3078 2063 
z
M 3578 1613 
L 903 1613 
Q 884 1494 878 1425 
Q 872 1356 872 1306 
Q 872 872 1139 634 
Q 1406 397 1894 397 
Q 2269 397 2603 481 
Q 2938 566 3225 728 
L 3116 159 
Q 2806 34 2476 -28 
Q 2147 -91 1806 -91 
Q 1078 -91 686 257 
Q 294 606 294 1247 
Q 294 1794 489 2264 
Q 684 2734 1063 3103 
Q 1306 3334 1642 3459 
Q 1978 3584 2356 3584 
Q 2950 3584 3301 3228 
Q 3653 2872 3653 2272 
Q 3653 2128 3634 1964 
Q 3616 1800 3578 1613 
z
" transform="scale(0.015625)"/>
    </defs>
    <use xlink:href="#DejaVuSans-Oblique-6f"/>
    <use xlink:href="#DejaVuSans-Oblique-62" transform="translate(61.181641 0)"/>
    <use xlink:href="#DejaVuSans-Oblique-6c" transform="translate(124.658203 0)"/>
    <use xlink:href="#DejaVuSans-Oblique-69" transform="translate(152.441406 0)"/>
    <use xlink:href="#DejaVuSans-Oblique-71" transform="translate(180.224609 0)"/>
    <use xlink:href="#DejaVuSans-Oblique-75" transform="translate(243.701172 0)"/>
    <use xlink:href="#DejaVuSans-Oblique-65" transform="translate(307.080078 0)"/>
   </g>
  </g>
  <g id="text_11">
   <!-- variant -->
   <g transform="translate(212.739063 34.56) scale(0.1 -0.1)">
    <defs>
     <path id="DejaVuSans-76" d="M 191 3500 
L 800 3500 
L 1894 563 
L 2988 3500 
L 3597 3500 
L 2284 0 
L 1503 0 
L 191 3500 
z
" transform="scale(0.015625)"/>
    </defs>
    <use xlink:href="#DejaVuSans-76"/>
    <use xlink:href="#DejaVuSans-61" transform="translate(59.179688 0)"/>
    <use xlink:href="#DejaVuSans-72" transform="translate(120.458984 0)"/>
    <use xlink:href="#DejaVuSans-69" transform="translate(161.572266 0)"/>
    <use xlink:href="#DejaVuSans-61" transform="translate(189.355469 0)"/>
    <use xlink:href="#DejaVuSans-6e" transform="translate(250.634766 0)"/>
    <use xlink:href="#DejaVuSans-74" transform="translate(314.013672 0)"/>
   </g>
  </g>
  <g id="text_12">
   <!-- normal -->
   <g transform="translate(212.457813 69.12) scale(0.1 -0.1)">
    <defs>
     <path id="DejaVuSerif-6e" d="M 263 0 
L 263 331 
L 781 331 
L 781 2988 
L 231 2988 
L 231 3322 
L 1356 3322 
L 1356 2731 
Q 1516 3069 1770 3241 
Q 2025 3413 2363 3413 
Q 2913 3413 3172 3097 
Q 3431 2781 3431 2113 
L 3431 331 
L 3944 331 
L 3944 0 
L 2356 0 
L 2356 331 
L 2853 331 
L 2853 1931 
Q 2853 2541 2703 2767 
Q 2553 2994 2175 2994 
Q 1775 2994 1565 2701 
Q 1356 2409 1356 1850 
L 1356 331 
L 1856 331 
L 1856 0 
L 263 0 
z
" transform="scale(0.015625)"/>
     <path id="DejaVuSerif-6f" d="M 1925 219 
Q 2388 219 2623 584 
Q 2859 950 2859 1663 
Q 2859 2375 2623 2739 
Q 2388 3103 1925 3103 
Q 1463 3103 1227 2739 
Q 991 2375 991 1663 
Q 991 950 1228 584 
Q 1466 219 1925 219 
z
M 1925 -91 
Q 1200 -91 759 389 
Q 319 869 319 1663 
Q 319 2456 758 2934 
Q 1197 3413 1925 3413 
Q 2653 3413 3092 2934 
Q 3531 2456 3531 1663 
Q 3531 869 3092 389 
Q 2653 -91 1925 -91 
z
" transform="scale(0.015625)"/>
     <path id="DejaVuSerif-6d" d="M 3316 2675 
Q 3481 3041 3739 3227 
Q 3997 3413 4341 3413 
Q 4863 3413 5119 3089 
Q 5375 2766 5375 2113 
L 5375 331 
L 5894 331 
L 5894 0 
L 4300 0 
L 4300 331 
L 4800 331 
L 4800 2047 
Q 4800 2556 4650 2772 
Q 4500 2988 4153 2988 
Q 3769 2988 3567 2697 
Q 3366 2406 3366 1850 
L 3366 331 
L 3866 331 
L 3866 0 
L 2291 0 
L 2291 331 
L 2791 331 
L 2791 2069 
Q 2791 2566 2641 2777 
Q 2491 2988 2144 2988 
Q 1759 2988 1557 2697 
Q 1356 2406 1356 1850 
L 1356 331 
L 1856 331 
L 1856 0 
L 263 0 
L 263 331 
L 781 331 
L 781 2994 
L 231 2994 
L 231 3322 
L 1356 3322 
L 1356 2731 
Q 1516 3063 1762 3238 
Q 2009 3413 2322 3413 
Q 2709 3413 2968 3220 
Q 3228 3028 3316 2675 
z
" transform="scale(0.015625)"/>
     <path id="DejaVuSerif-61" d="M 2547 1044 
L 2547 1747 
L 1806 1747 
Q 1378 1747 1168 1562 
Q 959 1378 959 997 
Q 959 650 1171 447 
Q 1384 244 1747 244 
Q 2106 244 2326 466 
Q 2547 688 2547 1044 
z
M 3122 2075 
L 3122 331 
L 3634 331 
L 3634 0 
L 2547 0 
L 2547 359 
Q 2356 128 2106 18 
Q 1856 -91 1522 -91 
Q 969 -91 644 203 
Q 319 497 319 997 
Q 319 1513 691 1797 
Q 1063 2081 1741 2081 
L 2547 2081 
L 2547 2309 
Q 2547 2688 2317 2895 
Q 2088 3103 1672 3103 
Q 1328 3103 1125 2947 
Q 922 2791 872 2484 
L 575 2484 
L 575 3156 
Q 875 3284 1158 3348 
Q 1441 3413 1709 3413 
Q 2400 3413 2761 3070 
Q 3122 2728 3122 2075 
z
" transform="scale(0.015625)"/>
     <path id="DejaVuSerif-6c" d="M 1313 331 
L 1856 331 
L 1856 0 
L 184 0 
L 184 331 
L 738 331 
L 738 4531 
L 184 4531 
L 184 4863 
L 1313 4863 
L 1313 331 
z
" transform="scale(0.015625)"/>
    </defs>
    <use xlink:href="#DejaVuSerif-6e"/>
    <use xlink:href="#DejaVuSerif-6f" transform="translate(64.404297 0)"/>
    <use xlink:href="#DejaVuSerif-72" transform="translate(124.609375 0)"/>
    <use xlink:href="#DejaVuSerif-6d" transform="translate(172.412109 0)"/>
    <use xlink:href="#DejaVuSerif-61" transform="translate(267.236328 0)"/>
    <use xlink:href="#DejaVuSerif-6c" transform="translate(326.855469 0)"/>
   </g>
  </g>
  <g id="text_13">
   <!-- small-caps -->
   <g transform="translate(203.675781 103.68) scale(0.1 -0.1)">
    <defs>
     <path id="DejaVuSerif-2d" d="M 281 1959 
L 1881 1959 
L 1881 1472 
L 281 1472 
L 281 1959 
z
" transform="scale(0.015625)"/>
     <path id="DejaVuSerif-63" d="M 3291 997 
Q 3169 466 2822 187 
Q 2475 -91 1925 -91 
Q 1200 -91 759 389 
Q 319 869 319 1663 
Q 319 2459 759 2936 
Q 1200 3413 1925 3413 
Q 2241 3413 2553 3339 
Q 2866 3266 3181 3116 
L 3181 2266 
L 2847 2266 
Q 2781 2703 2561 2903 
Q 2341 3103 1931 3103 
Q 1466 3103 1228 2742 
Q 991 2381 991 1663 
Q 991 944 1227 581 
Q 1463 219 1931 219 
Q 2303 219 2525 412 
Q 2747 606 2828 997 
L 3291 997 
z
" transform="scale(0.015625)"/>
     <path id="DejaVuSerif-70" d="M 1313 1825 
L 1313 1497 
Q 1313 897 1542 583 
Q 1772 269 2209 269 
Q 2650 269 2876 622 
Q 3103 975 3103 1663 
Q 3103 2353 2876 2703 
Q 2650 3053 2209 3053 
Q 1772 3053 1542 2737 
Q 1313 2422 1313 1825 
z
M 738 2988 
L 184 2988 
L 184 3322 
L 1313 3322 
L 1313 2803 
Q 1481 3116 1742 3264 
Q 2003 3413 2388 3413 
Q 3000 3413 3387 2928 
Q 3775 2444 3775 1663 
Q 3775 881 3387 395 
Q 3000 -91 2388 -91 
Q 2003 -91 1742 57 
Q 1481 206 1313 519 
L 1313 -997 
L 1856 -997 
L 1856 -1331 
L 184 -1331 
L 184 -997 
L 738 -997 
L 738 2988 
z
" transform="scale(0.015625)"/>
    </defs>
    <use xlink:href="#DejaVuSerif-73"/>
    <use xlink:href="#DejaVuSerif-6d" transform="translate(51.318359 0)"/>
    <use xlink:href="#DejaVuSerif-61" transform="translate(146.142578 0)"/>
    <use xlink:href="#DejaVuSerif-6c" transform="translate(205.761719 0)"/>
    <use xlink:href="#DejaVuSerif-6c" transform="translate(237.744141 0)"/>
    <use xlink:href="#DejaVuSerif-2d" transform="translate(269.726562 0)"/>
    <use xlink:href="#DejaVuSerif-63" transform="translate(303.515625 0)"/>
    <use xlink:href="#DejaVuSerif-61" transform="translate(359.521484 0)"/>
    <use xlink:href="#DejaVuSerif-70" transform="translate(419.140625 0)"/>
    <use xlink:href="#DejaVuSerif-73" transform="translate(483.154297 0)"/>
   </g>
  </g>
  <g id="text_14">
   <!-- weight -->
   <g transform="translate(305.702187 34.56) scale(0.1 -0.1)">
    <defs>
     <path id="DejaVuSans-77" d="M 269 3500 
L 844 3500 
L 1563 769 
L 2278 3500 
L 2956 3500 
L 3675 769 
L 4391 3500 
L 4966 3500 
L 4050 0 
L 3372 0 
L 2619 2869 
L 1863 0 
L 1184 0 
L 269 3500 
z
" transform="scale(0.015625)"/>
     <path id="DejaVuSans-67" d="M 2906 1791 
Q 2906 2416 2648 2759 
Q 2391 3103 1925 3103 
Q 1463 3103 1205 2759 
Q 947 2416 947 1791 
Q 947 1169 1205 825 
Q 1463 481 1925 481 
Q 2391 481 2648 825 
Q 2906 1169 2906 1791 
z
M 3481 434 
Q 3481 -459 3084 -895 
Q 2688 -1331 1869 -1331 
Q 1566 -1331 1297 -1286 
Q 1028 -1241 775 -1147 
L 775 -588 
Q 1028 -725 1275 -790 
Q 1522 -856 1778 -856 
Q 2344 -856 2625 -561 
Q 2906 -266 2906 331 
L 2906 616 
Q 2728 306 2450 153 
Q 2172 0 1784 0 
Q 1141 0 747 490 
Q 353 981 353 1791 
Q 353 2603 747 3093 
Q 1141 3584 1784 3584 
Q 2172 3584 2450 3431 
Q 2728 3278 2906 2969 
L 2906 3500 
L 3481 3500 
L 3481 434 
z
" transform="scale(0.015625)"/>
     <path id="DejaVuSans-68" d="M 3513 2113 
L 3513 0 
L 2938 0 
L 2938 2094 
Q 2938 2591 2744 2837 
Q 2550 3084 2163 3084 
Q 1697 3084 1428 2787 
Q 1159 2491 1159 1978 
L 1159 0 
L 581 0 
L 581 4863 
L 1159 4863 
L 1159 2956 
Q 1366 3272 1645 3428 
Q 1925 3584 2291 3584 
Q 2894 3584 3203 3211 
Q 3513 2838 3513 2113 
z
" transform="scale(0.015625)"/>
    </defs>
    <use xlink:href="#DejaVuSans-77"/>
    <use xlink:href="#DejaVuSans-65" transform="translate(81.787109 0)"/>
    <use xlink:href="#DejaVuSans-69" transform="translate(143.310547 0)"/>
    <use xlink:href="#DejaVuSans-67" transform="translate(171.09375 0)"/>
    <use xlink:href="#DejaVuSans-68" transform="translate(234.570312 0)"/>
    <use xlink:href="#DejaVuSans-74" transform="translate(297.949219 0)"/>
   </g>
  </g>
  <g id="text_15">
   <!-- light -->
   <g transform="translate(311.47875 69.12) scale(0.1 -0.1)">
    <use xlink:href="#DejaVuSans-6c"/>
    <use xlink:href="#DejaVuSans-69" transform="translate(27.783203 0)"/>
    <use xlink:href="#DejaVuSans-67" transform="translate(55.566406 0)"/>
    <use xlink:href="#DejaVuSans-68" transform="translate(119.042969 0)"/>
    <use xlink:href="#DejaVuSans-74" transform="translate(182.421875 0)"/>
   </g>
  </g>
  <g id="text_16">
   <!-- normal -->
   <g transform="translate(305.040469 103.68) scale(0.1 -0.1)">
    <use xlink:href="#DejaVuSans-6e"/>
    <use xlink:href="#DejaVuSans-6f" transform="translate(63.378906 0)"/>
    <use xlink:href="#DejaVuSans-72" transform="translate(124.560547 0)"/>
    <use xlink:href="#DejaVuSans-6d" transform="translate(163.923828 0)"/>
    <use xlink:href="#DejaVuSans-61" transform="translate(261.335938 0)"/>
    <use xlink:href="#DejaVuSans-6c" transform="translate(322.615234 0)"/>
   </g>
  </g>
  <g id="text_17">
   <!-- medium -->
   <g transform="translate(302.010781 138.24) scale(0.1 -0.1)">
    <defs>
     <path id="DejaVuSans-64" d="M 2906 2969 
L 2906 4863 
L 3481 4863 
L 3481 0 
L 2906 0 
L 2906 525 
Q 2725 213 2448 61 
Q 2172 -91 1784 -91 
Q 1150 -91 751 415 
Q 353 922 353 1747 
Q 353 2572 751 3078 
Q 1150 3584 1784 3584 
Q 2172 3584 2448 3432 
Q 2725 3281 2906 2969 
z
M 947 1747 
Q 947 1113 1208 752 
Q 1469 391 1925 391 
Q 2381 391 2643 752 
Q 2906 1113 2906 1747 
Q 2906 2381 2643 2742 
Q 2381 3103 1925 3103 
Q 1469 3103 1208 2742 
Q 947 2381 947 1747 
z
" transform="scale(0.015625)"/>
     <path id="DejaVuSans-75" d="M 544 1381 
L 544 3500 
L 1119 3500 
L 1119 1403 
Q 1119 906 1312 657 
Q 1506 409 1894 409 
Q 2359 409 2629 706 
Q 2900 1003 2900 1516 
L 2900 3500 
L 3475 3500 
L 3475 0 
L 2900 0 
L 2900 538 
Q 2691 219 2414 64 
Q 2138 -91 1772 -91 
Q 1169 -91 856 284 
Q 544 659 544 1381 
z
M 1991 3584 
L 1991 3584 
z
" transform="scale(0.015625)"/>
    </defs>
    <use xlink:href="#DejaVuSans-6d"/>
    <use xlink:href="#DejaVuSans-65" transform="translate(97.412109 0)"/>
    <use xlink:href="#DejaVuSans-64" transform="translate(158.935547 0)"/>
    <use xlink:href="#DejaVuSans-69" transform="translate(222.412109 0)"/>
    <use xlink:href="#DejaVuSans-75" transform="translate(250.195312 0)"/>
    <use xlink:href="#DejaVuSans-6d" transform="translate(313.574219 0)"/>
   </g>
  </g>
  <g id="text_18">
   <!-- semibold -->
   <g transform="translate(296.961563 172.8) scale(0.1 -0.1)">
    <defs>
     <path id="DejaVuSans-Bold-73" d="M 3272 3391 
L 3272 2541 
Q 2913 2691 2578 2766 
Q 2244 2841 1947 2841 
Q 1628 2841 1473 2761 
Q 1319 2681 1319 2516 
Q 1319 2381 1436 2309 
Q 1553 2238 1856 2203 
L 2053 2175 
Q 2913 2066 3209 1816 
Q 3506 1566 3506 1031 
Q 3506 472 3093 190 
Q 2681 -91 1863 -91 
Q 1516 -91 1145 -36 
Q 775 19 384 128 
L 384 978 
Q 719 816 1070 734 
Q 1422 653 1784 653 
Q 2113 653 2278 743 
Q 2444 834 2444 1013 
Q 2444 1163 2330 1236 
Q 2216 1309 1875 1350 
L 1678 1375 
Q 931 1469 631 1722 
Q 331 1975 331 2491 
Q 331 3047 712 3315 
Q 1094 3584 1881 3584 
Q 2191 3584 2531 3537 
Q 2872 3491 3272 3391 
z
" transform="scale(0.015625)"/>
     <path id="DejaVuSans-Bold-65" d="M 4031 1759 
L 4031 1441 
L 1416 1441 
Q 1456 1047 1700 850 
Q 1944 653 2381 653 
Q 2734 653 3104 758 
Q 3475 863 3866 1075 
L 3866 213 
Q 3469 63 3072 -14 
Q 2675 -91 2278 -91 
Q 1328 -91 801 392 
Q 275 875 275 1747 
Q 275 2603 792 3093 
Q 1309 3584 2216 3584 
Q 3041 3584 3536 3087 
Q 4031 2591 4031 1759 
z
M 2881 2131 
Q 2881 2450 2695 2645 
Q 2509 2841 2209 2841 
Q 1884 2841 1681 2658 
Q 1478 2475 1428 2131 
L 2881 2131 
z
" transform="scale(0.015625)"/>
     <path id="DejaVuSans-Bold-6d" d="M 3781 2919 
Q 3994 3244 4286 3414 
Q 4578 3584 4928 3584 
Q 5531 3584 5847 3212 
Q 6163 2841 6163 2131 
L 6163 0 
L 5038 0 
L 5038 1825 
Q 5041 1866 5042 1909 
Q 5044 1953 5044 2034 
Q 5044 2406 4934 2573 
Q 4825 2741 4581 2741 
Q 4263 2741 4089 2478 
Q 3916 2216 3909 1719 
L 3909 0 
L 2784 0 
L 2784 1825 
Q 2784 2406 2684 2573 
Q 2584 2741 2328 2741 
Q 2006 2741 1831 2477 
Q 1656 2213 1656 1722 
L 1656 0 
L 531 0 
L 531 3500 
L 1656 3500 
L 1656 2988 
Q 1863 3284 2130 3434 
Q 2397 3584 2719 3584 
Q 3081 3584 3359 3409 
Q 3638 3234 3781 2919 
z
" transform="scale(0.015625)"/>
     <path id="DejaVuSans-Bold-69" d="M 538 3500 
L 1656 3500 
L 1656 0 
L 538 0 
L 538 3500 
z
M 538 4863 
L 1656 4863 
L 1656 3950 
L 538 3950 
L 538 4863 
z
" transform="scale(0.015625)"/>
     <path id="DejaVuSans-Bold-62" d="M 2400 722 
Q 2759 722 2948 984 
Q 3138 1247 3138 1747 
Q 3138 2247 2948 2509 
Q 2759 2772 2400 2772 
Q 2041 2772 1848 2508 
Q 1656 2244 1656 1747 
Q 1656 1250 1848 986 
Q 2041 722 2400 722 
z
M 1656 2988 
Q 1888 3294 2169 3439 
Q 2450 3584 2816 3584 
Q 3463 3584 3878 3070 
Q 4294 2556 4294 1747 
Q 4294 938 3878 423 
Q 3463 -91 2816 -91 
Q 2450 -91 2169 54 
Q 1888 200 1656 506 
L 1656 0 
L 538 0 
L 538 4863 
L 1656 4863 
L 1656 2988 
z
" transform="scale(0.015625)"/>
     <path id="DejaVuSans-Bold-6f" d="M 2203 2784 
Q 1831 2784 1636 2517 
Q 1441 2250 1441 1747 
Q 1441 1244 1636 976 
Q 1831 709 2203 709 
Q 2569 709 2762 976 
Q 2956 1244 2956 1747 
Q 2956 2250 2762 2517 
Q 2569 2784 2203 2784 
z
M 2203 3584 
Q 3106 3584 3614 3096 
Q 4122 2609 4122 1747 
Q 4122 884 3614 396 
Q 3106 -91 2203 -91 
Q 1297 -91 786 396 
Q 275 884 275 1747 
Q 275 2609 786 3096 
Q 1297 3584 2203 3584 
z
" transform="scale(0.015625)"/>
     <path id="DejaVuSans-Bold-6c" d="M 538 4863 
L 1656 4863 
L 1656 0 
L 538 0 
L 538 4863 
z
" transform="scale(0.015625)"/>
     <path id="DejaVuSans-Bold-64" d="M 2919 2988 
L 2919 4863 
L 4044 4863 
L 4044 0 
L 2919 0 
L 2919 506 
Q 2688 197 2409 53 
Q 2131 -91 1766 -91 
Q 1119 -91 703 423 
Q 288 938 288 1747 
Q 288 2556 703 3070 
Q 1119 3584 1766 3584 
Q 2128 3584 2408 3439 
Q 2688 3294 2919 2988 
z
M 2181 722 
Q 2541 722 2730 984 
Q 2919 1247 2919 1747 
Q 2919 2247 2730 2509 
Q 2541 2772 2181 2772 
Q 1825 2772 1636 2509 
Q 1447 2247 1447 1747 
Q 1447 1247 1636 984 
Q 1825 722 2181 722 
z
" transform="scale(0.015625)"/>
    </defs>
    <use xlink:href="#DejaVuSans-Bold-73"/>
    <use xlink:href="#DejaVuSans-Bold-65" transform="translate(59.521484 0)"/>
    <use xlink:href="#DejaVuSans-Bold-6d" transform="translate(127.34375 0)"/>
    <use xlink:href="#DejaVuSans-Bold-69" transform="translate(231.542969 0)"/>
    <use xlink:href="#DejaVuSans-Bold-62" transform="translate(265.820312 0)"/>
    <use xlink:href="#DejaVuSans-Bold-6f" transform="translate(337.402344 0)"/>
    <use xlink:href="#DejaVuSans-Bold-6c" transform="translate(406.103516 0)"/>
    <use xlink:href="#DejaVuSans-Bold-64" transform="translate(440.380859 0)"/>
   </g>
  </g>
  <g id="text_19">
   <!-- bold -->
   <g transform="translate(310.252969 207.36) scale(0.1 -0.1)">
    <use xlink:href="#DejaVuSans-Bold-62"/>
    <use xlink:href="#DejaVuSans-Bold-6f" transform="translate(71.582031 0)"/>
    <use xlink:href="#DejaVuSans-Bold-6c" transform="translate(140.283203 0)"/>
    <use xlink:href="#DejaVuSans-Bold-64" transform="translate(174.560547 0)"/>
   </g>
  </g>
  <g id="text_20">
   <!-- heavy -->
   <g transform="translate(305.71625 241.92) scale(0.1 -0.1)">
    <defs>
     <path id="DejaVuSans-Bold-68" d="M 4056 2131 
L 4056 0 
L 2931 0 
L 2931 347 
L 2931 1625 
Q 2931 2084 2911 2256 
Q 2891 2428 2841 2509 
Q 2775 2619 2662 2680 
Q 2550 2741 2406 2741 
Q 2056 2741 1856 2470 
Q 1656 2200 1656 1722 
L 1656 0 
L 538 0 
L 538 4863 
L 1656 4863 
L 1656 2988 
Q 1909 3294 2193 3439 
Q 2478 3584 2822 3584 
Q 3428 3584 3742 3212 
Q 4056 2841 4056 2131 
z
" transform="scale(0.015625)"/>
     <path id="DejaVuSans-Bold-61" d="M 2106 1575 
Q 1756 1575 1579 1456 
Q 1403 1338 1403 1106 
Q 1403 894 1545 773 
Q 1688 653 1941 653 
Q 2256 653 2472 879 
Q 2688 1106 2688 1447 
L 2688 1575 
L 2106 1575 
z
M 3816 1997 
L 3816 0 
L 2688 0 
L 2688 519 
Q 2463 200 2181 54 
Q 1900 -91 1497 -91 
Q 953 -91 614 226 
Q 275 544 275 1050 
Q 275 1666 698 1953 
Q 1122 2241 2028 2241 
L 2688 2241 
L 2688 2328 
Q 2688 2594 2478 2717 
Q 2269 2841 1825 2841 
Q 1466 2841 1156 2769 
Q 847 2697 581 2553 
L 581 3406 
Q 941 3494 1303 3539 
Q 1666 3584 2028 3584 
Q 2975 3584 3395 3211 
Q 3816 2838 3816 1997 
z
" transform="scale(0.015625)"/>
     <path id="DejaVuSans-Bold-76" d="M 97 3500 
L 1216 3500 
L 2088 1081 
L 2956 3500 
L 4078 3500 
L 2700 0 
L 1472 0 
L 97 3500 
z
" transform="scale(0.015625)"/>
     <path id="DejaVuSans-Bold-79" d="M 78 3500 
L 1197 3500 
L 2138 1125 
L 2938 3500 
L 4056 3500 
L 2584 -331 
Q 2363 -916 2067 -1148 
Q 1772 -1381 1288 -1381 
L 641 -1381 
L 641 -647 
L 991 -647 
Q 1275 -647 1404 -556 
Q 1534 -466 1606 -231 
L 1638 -134 
L 78 3500 
z
" transform="scale(0.015625)"/>
    </defs>
    <use xlink:href="#DejaVuSans-Bold-68"/>
    <use xlink:href="#DejaVuSans-Bold-65" transform="translate(71.191406 0)"/>
    <use xlink:href="#DejaVuSans-Bold-61" transform="translate(139.013672 0)"/>
    <use xlink:href="#DejaVuSans-Bold-76" transform="translate(206.494141 0)"/>
    <use xlink:href="#DejaVuSans-Bold-79" transform="translate(271.679688 0)"/>
   </g>
  </g>
  <g id="text_21">
   <!-- black -->
   <g transform="translate(307.60375 276.48) scale(0.1 -0.1)">
    <defs>
     <path id="DejaVuSans-Bold-63" d="M 3366 3391 
L 3366 2478 
Q 3138 2634 2908 2709 
Q 2678 2784 2431 2784 
Q 1963 2784 1702 2511 
Q 1441 2238 1441 1747 
Q 1441 1256 1702 982 
Q 1963 709 2431 709 
Q 2694 709 2930 787 
Q 3166 866 3366 1019 
L 3366 103 
Q 3103 6 2833 -42 
Q 2563 -91 2291 -91 
Q 1344 -91 809 395 
Q 275 881 275 1747 
Q 275 2613 809 3098 
Q 1344 3584 2291 3584 
Q 2566 3584 2833 3536 
Q 3100 3488 3366 3391 
z
" transform="scale(0.015625)"/>
     <path id="DejaVuSans-Bold-6b" d="M 538 4863 
L 1656 4863 
L 1656 2216 
L 2944 3500 
L 4244 3500 
L 2534 1894 
L 4378 0 
L 3022 0 
L 1656 1459 
L 1656 0 
L 538 0 
L 538 4863 
z
" transform="scale(0.015625)"/>
    </defs>
    <use xlink:href="#DejaVuSans-Bold-62"/>
    <use xlink:href="#DejaVuSans-Bold-6c" transform="translate(71.582031 0)"/>
    <use xlink:href="#DejaVuSans-Bold-61" transform="translate(105.859375 0)"/>
    <use xlink:href="#DejaVuSans-Bold-63" transform="translate(173.339844 0)"/>
    <use xlink:href="#DejaVuSans-Bold-6b" transform="translate(232.617188 0)"/>
   </g>
  </g>
  <g id="text_22">
   <!-- size -->
   <g transform="translate(405.025469 34.56) scale(0.1 -0.1)">
    <defs>
     <path id="DejaVuSans-7a" d="M 353 3500 
L 3084 3500 
L 3084 2975 
L 922 459 
L 3084 459 
L 3084 0 
L 275 0 
L 275 525 
L 2438 3041 
L 353 3041 
L 353 3500 
z
" transform="scale(0.015625)"/>
    </defs>
    <use xlink:href="#DejaVuSans-73"/>
    <use xlink:href="#DejaVuSans-69" transform="translate(52.099609 0)"/>
    <use xlink:href="#DejaVuSans-7a" transform="translate(79.882812 0)"/>
    <use xlink:href="#DejaVuSans-65" transform="translate(132.373047 0)"/>
   </g>
  </g>
  <g id="text_23">
   <!-- xx-small -->
   <g transform="translate(402.53793 69.12) scale(0.0579 -0.0579)">
    <defs>
     <path id="DejaVuSans-78" d="M 3513 3500 
L 2247 1797 
L 3578 0 
L 2900 0 
L 1881 1375 
L 863 0 
L 184 0 
L 1544 1831 
L 300 3500 
L 978 3500 
L 1906 2253 
L 2834 3500 
L 3513 3500 
z
" transform="scale(0.015625)"/>
    </defs>
    <use xlink:href="#DejaVuSans-78"/>
    <use xlink:href="#DejaVuSans-78" transform="translate(59.179688 0)"/>
    <use xlink:href="#DejaVuSans-2d" transform="translate(118.359375 0)"/>
    <use xlink:href="#DejaVuSans-73" transform="translate(154.443359 0)"/>
    <use xlink:href="#DejaVuSans-6d" transform="translate(206.542969 0)"/>
    <use xlink:href="#DejaVuSans-61" transform="translate(303.955078 0)"/>
    <use xlink:href="#DejaVuSans-6c" transform="translate(365.234375 0)"/>
    <use xlink:href="#DejaVuSans-6c" transform="translate(393.017578 0)"/>
   </g>
  </g>
  <g id="text_24">
   <!-- x-small -->
   <g transform="translate(402.172155 103.68) scale(0.0694 -0.0694)">
    <use xlink:href="#DejaVuSans-78"/>
    <use xlink:href="#DejaVuSans-2d" transform="translate(59.179688 0)"/>
    <use xlink:href="#DejaVuSans-73" transform="translate(95.263672 0)"/>
    <use xlink:href="#DejaVuSans-6d" transform="translate(147.363281 0)"/>
    <use xlink:href="#DejaVuSans-61" transform="translate(244.775391 0)"/>
    <use xlink:href="#DejaVuSans-6c" transform="translate(306.054688 0)"/>
    <use xlink:href="#DejaVuSans-6c" transform="translate(333.837891 0)"/>
   </g>
  </g>
  <g id="text_25">
   <!-- small -->
   <g transform="translate(403.626783 138.24) scale(0.0833 -0.0833)">
    <use xlink:href="#DejaVuSans-73"/>
    <use xlink:href="#DejaVuSans-6d" transform="translate(52.099609 0)"/>
    <use xlink:href="#DejaVuSans-61" transform="translate(149.511719 0)"/>
    <use xlink:href="#DejaVuSans-6c" transform="translate(210.791016 0)"/>
    <use xlink:href="#DejaVuSans-6c" transform="translate(238.574219 0)"/>
   </g>
  </g>
  <g id="text_26">
   <!-- medium -->
   <g transform="translate(394.170781 172.8) scale(0.1 -0.1)">
    <use xlink:href="#DejaVuSans-6d"/>
    <use xlink:href="#DejaVuSans-65" transform="translate(97.412109 0)"/>
    <use xlink:href="#DejaVuSans-64" transform="translate(158.935547 0)"/>
    <use xlink:href="#DejaVuSans-69" transform="translate(222.412109 0)"/>
    <use xlink:href="#DejaVuSans-75" transform="translate(250.195312 0)"/>
    <use xlink:href="#DejaVuSans-6d" transform="translate(313.574219 0)"/>
   </g>
  </g>
  <g id="text_27">
   <!-- large -->
   <g transform="translate(399.51375 207.36) scale(0.12 -0.12)">
    <use xlink:href="#DejaVuSans-6c"/>
    <use xlink:href="#DejaVuSans-61" transform="translate(27.783203 0)"/>
    <use xlink:href="#DejaVuSans-72" transform="translate(89.0625 0)"/>
    <use xlink:href="#DejaVuSans-67" transform="translate(128.425781 0)"/>
    <use xlink:href="#DejaVuSans-65" transform="translate(191.902344 0)"/>
   </g>
  </g>
  <g id="text_28">
   <!-- x-large -->
   <g transform="translate(389.613375 241.92) scale(0.144 -0.144)">
    <use xlink:href="#DejaVuSans-78"/>
    <use xlink:href="#DejaVuSans-2d" transform="translate(59.179688 0)"/>
    <use xlink:href="#DejaVuSans-6c" transform="translate(95.263672 0)"/>
    <use xlink:href="#DejaVuSans-61" transform="translate(123.046875 0)"/>
    <use xlink:href="#DejaVuSans-72" transform="translate(184.326172 0)"/>
    <use xlink:href="#DejaVuSans-67" transform="translate(223.689453 0)"/>
    <use xlink:href="#DejaVuSans-65" transform="translate(287.166016 0)"/>
   </g>
  </g>
  <g id="text_29">
   <!-- xx-large -->
   <g transform="translate(379.47825 276.48) scale(0.1728 -0.1728)">
    <use xlink:href="#DejaVuSans-78"/>
    <use xlink:href="#DejaVuSans-78" transform="translate(59.179688 0)"/>
    <use xlink:href="#DejaVuSans-2d" transform="translate(118.359375 0)"/>
    <use xlink:href="#DejaVuSans-6c" transform="translate(154.443359 0)"/>
    <use xlink:href="#DejaVuSans-61" transform="translate(182.226562 0)"/>
    <use xlink:href="#DejaVuSans-72" transform="translate(243.505859 0)"/>
    <use xlink:href="#DejaVuSans-67" transform="translate(282.869141 0)"/>
    <use xlink:href="#DejaVuSans-65" transform="translate(346.345703 0)"/>
   </g>
  </g>
  <g id="text_30">
   <!-- bold italic -->
   <g transform="translate(118.86493 311.04) scale(0.0694 -0.0694)">
    <defs>
     <path id="DejaVuSans-BoldOblique-62" d="M 2597 2772 
Q 2166 2772 1892 2373 
Q 1619 1975 1619 1338 
Q 1619 1050 1773 886 
Q 1928 722 2203 722 
Q 2625 722 2900 1114 
Q 3175 1506 3175 2119 
Q 3175 2438 3026 2605 
Q 2878 2772 2597 2772 
z
M 1422 506 
L 1319 0 
L 197 0 
L 1141 4863 
L 2266 4863 
L 1900 2988 
Q 2156 3294 2437 3439 
Q 2719 3584 3053 3584 
Q 3644 3584 3987 3209 
Q 4331 2834 4331 2188 
Q 4331 1784 4211 1403 
Q 4091 1022 3866 709 
Q 3581 316 3223 112 
Q 2866 -91 2456 -91 
Q 2097 -91 1845 54 
Q 1594 200 1422 506 
z
" transform="scale(0.015625)"/>
     <path id="DejaVuSans-BoldOblique-6f" d="M 2400 2784 
Q 1966 2784 1684 2390 
Q 1403 1997 1403 1388 
Q 1403 1056 1554 882 
Q 1706 709 1997 709 
Q 2431 709 2712 1104 
Q 2994 1500 2994 2113 
Q 2994 2441 2842 2612 
Q 2691 2784 2400 2784 
z
M 2491 3584 
Q 3272 3584 3719 3187 
Q 4166 2791 4166 2106 
Q 4166 1709 4025 1336 
Q 3884 963 3616 653 
Q 3297 284 2862 96 
Q 2428 -91 1894 -91 
Q 1122 -91 676 306 
Q 231 703 231 1388 
Q 231 1781 375 2157 
Q 519 2534 788 2847 
Q 1100 3209 1533 3396 
Q 1966 3584 2491 3584 
z
" transform="scale(0.015625)"/>
     <path id="DejaVuSans-BoldOblique-6c" d="M 1141 4863 
L 2266 4863 
L 1319 0 
L 197 0 
L 1141 4863 
z
" transform="scale(0.015625)"/>
     <path id="DejaVuSans-BoldOblique-64" d="M 1966 722 
Q 2397 722 2667 1119 
Q 2938 1516 2938 2156 
Q 2938 2447 2786 2609 
Q 2634 2772 2363 2772 
Q 1938 2772 1663 2380 
Q 1388 1988 1388 1375 
Q 1388 1056 1536 889 
Q 1684 722 1966 722 
z
M 3144 2988 
L 3506 4863 
L 4634 4863 
L 3688 0 
L 2559 0 
L 2663 506 
Q 2406 200 2125 54 
Q 1844 -91 1509 -91 
Q 919 -91 575 284 
Q 231 659 231 1306 
Q 231 1709 351 2090 
Q 472 2472 697 2784 
Q 981 3178 1339 3381 
Q 1697 3584 2106 3584 
Q 2466 3584 2717 3439 
Q 2969 3294 3144 2988 
z
" transform="scale(0.015625)"/>
     <path id="DejaVuSans-BoldOblique-20" transform="scale(0.015625)"/>
     <path id="DejaVuSans-BoldOblique-69" d="M 878 3500 
L 2003 3500 
L 1319 0 
L 197 0 
L 878 3500 
z
M 1141 4863 
L 2266 4863 
L 2088 3950 
L 959 3950 
L 1141 4863 
z
" transform="scale(0.015625)"/>
     <path id="DejaVuSans-BoldOblique-74" d="M 2303 4494 
L 2113 3500 
L 3256 3500 
L 3097 2700 
L 1953 2700 
L 1666 1219 
Q 1653 1169 1648 1134 
Q 1644 1100 1644 1069 
Q 1644 925 1739 862 
Q 1834 800 2059 800 
L 2638 800 
L 2478 0 
L 1538 0 
Q 1031 0 765 212 
Q 500 425 500 825 
Q 500 913 509 1013 
Q 519 1113 538 1216 
L 825 2700 
L 275 2700 
L 428 3500 
L 984 3500 
L 1178 4494 
L 2303 4494 
z
" transform="scale(0.015625)"/>
     <path id="DejaVuSans-BoldOblique-61" d="M 2106 1575 
Q 1688 1575 1473 1445 
Q 1259 1316 1259 1063 
Q 1259 872 1386 762 
Q 1513 653 1734 653 
Q 2078 653 2309 861 
Q 2541 1069 2619 1447 
L 2644 1575 
L 2106 1575 
z
M 3853 1997 
L 3463 0 
L 2344 0 
L 2438 519 
Q 2163 206 1856 57 
Q 1550 -91 1191 -91 
Q 694 -91 401 167 
Q 109 425 109 863 
Q 109 1531 626 1886 
Q 1144 2241 2119 2241 
L 2778 2241 
L 2791 2328 
Q 2800 2372 2801 2390 
Q 2803 2409 2803 2425 
Q 2803 2631 2608 2736 
Q 2413 2841 2028 2841 
Q 1681 2841 1356 2769 
Q 1031 2697 728 2553 
L 897 3406 
Q 1247 3494 1614 3539 
Q 1981 3584 2375 3584 
Q 3153 3584 3531 3317 
Q 3909 3050 3909 2503 
Q 3909 2397 3895 2270 
Q 3881 2144 3853 1997 
z
" transform="scale(0.015625)"/>
     <path id="DejaVuSans-BoldOblique-63" d="M 3719 3391 
L 3541 2478 
Q 3316 2628 3097 2706 
Q 2878 2784 2669 2784 
Q 2122 2784 1775 2417 
Q 1428 2050 1428 1478 
Q 1428 1113 1643 911 
Q 1859 709 2253 709 
Q 2516 709 2769 787 
Q 3022 866 3250 1019 
L 3078 103 
Q 2800 6 2519 -42 
Q 2238 -91 1953 -91 
Q 1128 -91 683 279 
Q 238 650 238 1331 
Q 238 1759 402 2162 
Q 566 2566 872 2888 
Q 1213 3241 1653 3412 
Q 2094 3584 2669 3584 
Q 2934 3584 3196 3536 
Q 3459 3488 3719 3391 
z
" transform="scale(0.015625)"/>
    </defs>
    <use xlink:href="#DejaVuSans-BoldOblique-62"/>
    <use xlink:href="#DejaVuSans-BoldOblique-6f" transform="translate(71.582031 0)"/>
    <use xlink:href="#DejaVuSans-BoldOblique-6c" transform="translate(140.283203 0)"/>
    <use xlink:href="#DejaVuSans-BoldOblique-64" transform="translate(174.560547 0)"/>
    <use xlink:href="#DejaVuSans-BoldOblique-20" transform="translate(246.142578 0)"/>
    <use xlink:href="#DejaVuSans-BoldOblique-69" transform="translate(280.957031 0)"/>
    <use xlink:href="#DejaVuSans-BoldOblique-74" transform="translate(315.234375 0)"/>
    <use xlink:href="#DejaVuSans-BoldOblique-61" transform="translate(363.037109 0)"/>
    <use xlink:href="#DejaVuSans-BoldOblique-6c" transform="translate(430.517578 0)"/>
    <use xlink:href="#DejaVuSans-BoldOblique-69" transform="translate(464.794922 0)"/>
    <use xlink:href="#DejaVuSans-BoldOblique-63" transform="translate(499.072266 0)"/>
   </g>
  </g>
  <g id="text_31">
   <!-- bold italic -->
   <g transform="translate(110.322031 276.48) scale(0.1 -0.1)">
    <use xlink:href="#DejaVuSans-BoldOblique-62"/>
    <use xlink:href="#DejaVuSans-BoldOblique-6f" transform="translate(71.582031 0)"/>
    <use xlink:href="#DejaVuSans-BoldOblique-6c" transform="translate(140.283203 0)"/>
    <use xlink:href="#DejaVuSans-BoldOblique-64" transform="translate(174.560547 0)"/>
    <use xlink:href="#DejaVuSans-BoldOblique-20" transform="translate(246.142578 0)"/>
    <use xlink:href="#DejaVuSans-BoldOblique-69" transform="translate(280.957031 0)"/>
    <use xlink:href="#DejaVuSans-BoldOblique-74" transform="translate(315.234375 0)"/>
    <use xlink:href="#DejaVuSans-BoldOblique-61" transform="translate(363.037109 0)"/>
    <use xlink:href="#DejaVuSans-BoldOblique-6c" transform="translate(430.517578 0)"/>
    <use xlink:href="#DejaVuSans-BoldOblique-69" transform="translate(464.794922 0)"/>
    <use xlink:href="#DejaVuSans-BoldOblique-63" transform="translate(499.072266 0)"/>
   </g>
  </g>
  <g id="text_32">
   <!-- bold italic -->
   <g transform="translate(98.038125 241.92) scale(0.144 -0.144)">
    <use xlink:href="#DejaVuSans-BoldOblique-62"/>
    <use xlink:href="#DejaVuSans-BoldOblique-6f" transform="translate(71.582031 0)"/>
    <use xlink:href="#DejaVuSans-BoldOblique-6c" transform="translate(140.283203 0)"/>
    <use xlink:href="#DejaVuSans-BoldOblique-64" transform="translate(174.560547 0)"/>
    <use xlink:href="#DejaVuSans-BoldOblique-20" transform="translate(246.142578 0)"/>
    <use xlink:href="#DejaVuSans-BoldOblique-69" transform="translate(280.957031 0)"/>
    <use xlink:href="#DejaVuSans-BoldOblique-74" transform="translate(315.234375 0)"/>
    <use xlink:href="#DejaVuSans-BoldOblique-61" transform="translate(363.037109 0)"/>
    <use xlink:href="#DejaVuSans-BoldOblique-6c" transform="translate(430.517578 0)"/>
    <use xlink:href="#DejaVuSans-BoldOblique-69" transform="translate(464.794922 0)"/>
    <use xlink:href="#DejaVuSans-BoldOblique-63" transform="translate(499.072266 0)"/>
   </g>
  </g>
 </g>
</svg>
