<?xml version="1.0" standalone="no"?>
<svg width="567.429" height="545.624" viewBox="0 0 567.429 545.624" xmlns="http://www.w3.org/2000/svg" shape-rendering="crispEdges">
<title>
/Users/zhangzh/fourGaus.svg
</title>
<desc>
Creator: ROOT Version 6.28/04
CreationDate: Tue Nov  7 21:12:30 2023</desc>
<defs>
</defs>
<rect x="0.5" y="0" width="566.929" height="545.124" fill="white"/>
<rect x="57.1929" y="54.5124" width="453.543" height="436.099" fill="white"/>
<rect x="57.1929" y="54.5124" width="453.543" height="436.099" fill="none" stroke="black"/>
<rect x="57.1929" y="54.5124" width="453.543" height="436.099" fill="white"/>
<rect x="57.1929" y="54.5124" width="453.543" height="436.099" fill="none" stroke="black"/>
<path d="M57.1929,490.612h 453.543" fill="none" stroke="black"/>
<path d="M57.1929,54.5124v 436.099" fill="none" stroke="black" stroke-dasharray=" 1, 2"/>
<path d="M132.783,54.5124v 436.099" fill="none" stroke="black" stroke-dasharray=" 1, 2"/>
<path d="M208.374,54.5124v 436.099" fill="none" stroke="black" stroke-dasharray=" 1, 2"/>
<path d="M283.965,54.5124v 436.099" fill="none" stroke="black" stroke-dasharray=" 1, 2"/>
<path d="M359.555,54.5124v 436.099" fill="none" stroke="black" stroke-dasharray=" 1, 2"/>
<path d="M435.146,54.5124v 436.099" fill="none" stroke="black" stroke-dasharray=" 1, 2"/>
<path d="M510.736,54.5124v 436.099" fill="none" stroke="black" stroke-dasharray=" 1, 2"/>
<path d="M57.1929,490.612v -436.099" fill="none" stroke="black"/>
<path d="M510.736,490.612h -453.543" fill="none" stroke="black" stroke-dasharray=" 1, 2"/>
<path d="M510.736,407.396h -453.543" fill="none" stroke="black" stroke-dasharray=" 1, 2"/>
<path d="M510.736,324.179h -453.543" fill="none" stroke="black" stroke-dasharray=" 1, 2"/>
<path d="M510.736,240.963h -453.543" fill="none" stroke="black" stroke-dasharray=" 1, 2"/>
<path d="M510.736,157.747h -453.543" fill="none" stroke="black" stroke-dasharray=" 1, 2"/>
<path d="M510.736,74.5308h -453.543" fill="none" stroke="black" stroke-dasharray=" 1, 2"/>
<path d="M510.736,74.5308h -453.543" fill="none" stroke="black" stroke-dasharray=" 1, 2"/>
<path d="M59.4606,490.612h 58.9606l 4.53543, -0.0476954l 4.53543, -0.0312562l 4.53543, -0.0498708l 4.53543, -0.0783673l 4.53543, -0.121277l 4.53543, -0.18482l 4.53543, -0.277347l 4.53543, -0.409796l 4.53543, -0.596141l 4.53543, -0.853748l 4.53543,
 -1.20356l 4.53543, -1.67l 4.53543, -2.28046l 4.53543, -3.06428l 4.53543, -4.05104l 4.53543, -5.26817l 4.53543, -6.73784l 4.53543, -8.47321l 4.53543, -10.4743l 4.53543, -12.7236l 4.53543, -15.1826l 4.53543, -17.7884l 4.53543, -20.4525l 4.53543,
 -23.0614l 4.53543, -25.4802l 4.53543, -27.558l 4.53543, -29.1368l 4.53543, -30.0625l 4.53543, -30.1971l 4.53543, -29.4321l 4.53543, -27.6997l 4.53543, -24.9833l 4.53543, -21.323l 4.53543, -16.8179l 4.53543, -11.6224l 4.53543, -5.93794" fill="none"
 stroke="#ff0000" stroke-width="4"/>
<path d="M281.697,75.2791h 4.53543l 4.53543, 5.93794l 4.53543, 11.6224l 4.53543, 16.8179l 4.53543, 21.323l 4.53543, 24.9833l 4.53543, 27.6997l 4.53543, 29.4321l 4.53543, 30.1971l 4.53543, 30.0625l 4.53543, 29.1368l 4.53543, 27.558l 4.53543, 25.4802l
 4.53543, 23.0614l 4.53543, 20.4525l 4.53543, 17.7884l 4.53543, 15.1826l 4.53543, 12.7236l 4.53543, 10.4743l 4.53543, 8.47321l 4.53543, 6.73784l 4.53543, 5.26817l 4.53543, 4.05104l 4.53543, 3.06428l 4.53543, 2.28046l 4.53543, 1.67l 4.53543, 1.20356l
 4.53543, 0.853748l 4.53543, 0.596141l 4.53543, 0.409796l 4.53543, 0.277347l 4.53543, 0.18482l 4.53543, 0.121277l 4.53543, 0.0783673l 4.53543, 0.0498708l 4.53543, 0.0312562l 4.53543, 0.0476954h 54.4252" fill="none" stroke="#ff0000" stroke-width="4"/>
<path d="M503.933,490.612h 4.53543" fill="none" stroke="#ff0000" stroke-width="4"/>
<path d="M57.1929,490.612h 453.543" fill="none" stroke="black"/>
<path d="M57.1929,477.529v 13.083" fill="none" stroke="black"/>
<path d="M76.0906,484.07v 6.54149" fill="none" stroke="black"/>
<path d="M94.9882,484.07v 6.54149" fill="none" stroke="black"/>
<path d="M113.886,484.07v 6.54149" fill="none" stroke="black"/>
<path d="M132.783,477.529v 13.083" fill="none" stroke="black"/>
<path d="M151.681,484.07v 6.54149" fill="none" stroke="black"/>
<path d="M170.579,484.07v 6.54149" fill="none" stroke="black"/>
<path d="M189.476,484.07v 6.54149" fill="none" stroke="black"/>
<path d="M208.374,477.529v 13.083" fill="none" stroke="black"/>
<path d="M227.272,484.07v 6.54149" fill="none" stroke="black"/>
<path d="M246.169,484.07v 6.54149" fill="none" stroke="black"/>
<path d="M265.067,484.07v 6.54149" fill="none" stroke="black"/>
<path d="M283.965,477.529v 13.083" fill="none" stroke="black"/>
<path d="M302.862,484.07v 6.54149" fill="none" stroke="black"/>
<path d="M321.76,484.07v 6.54149" fill="none" stroke="black"/>
<path d="M340.657,484.07v 6.54149" fill="none" stroke="black"/>
<path d="M359.555,477.529v 13.083" fill="none" stroke="black"/>
<path d="M378.453,484.07v 6.54149" fill="none" stroke="black"/>
<path d="M397.35,484.07v 6.54149" fill="none" stroke="black"/>
<path d="M416.248,484.07v 6.54149" fill="none" stroke="black"/>
<path d="M435.146,477.529v 13.083" fill="none" stroke="black"/>
<path d="M454.043,484.07v 6.54149" fill="none" stroke="black"/>
<path d="M472.941,484.07v 6.54149" fill="none" stroke="black"/>
<path d="M491.839,484.07v 6.54149" fill="none" stroke="black"/>
<path d="M510.736,477.529v 13.083" fill="none" stroke="black"/>
<text xml:space="preserve" x="56.4345" y="508.151" fill="black" font-size="18.004" font-family="Helvetica">6</text>
<text xml:space="preserve" x="46.006" y="508.151" fill="black" font-size="18.004" font-family="Times">&#8722;</text>
<text xml:space="preserve" x="132.278" y="508.151" fill="black" font-size="18.004" font-family="Helvetica">4</text>
<text xml:space="preserve" x="121.849" y="508.151" fill="black" font-size="18.004" font-family="Times">&#8722;</text>
<text xml:space="preserve" x="208.121" y="508.151" fill="black" font-size="18.004" font-family="Helvetica">2</text>
<text xml:space="preserve" x="197.693" y="508.151" fill="black" font-size="18.004" font-family="Times">&#8722;</text>
<text xml:space="preserve" x="279.224" y="508.151" fill="black" font-size="18.004" font-family="Helvetica">0</text>
<text xml:space="preserve" x="354.12" y="508.151" fill="black" font-size="18.004" font-family="Helvetica">2</text>
<text xml:space="preserve" x="429.963" y="508.151" fill="black" font-size="18.004" font-family="Helvetica">4</text>
<text xml:space="preserve" x="505.806" y="508.151" fill="black" font-size="18.004" font-family="Helvetica">6</text>
<path d="M57.1929,490.612v -436.099" fill="none" stroke="black"/>
<path d="M70.7992,490.612h -13.6063" fill="none" stroke="black"/>
<path d="M63.9961,469.808h -6.80315" fill="none" stroke="black"/>
<path d="M63.9961,449.004h -6.80315" fill="none" stroke="black"/>
<path d="M63.9961,428.2h -6.80315" fill="none" stroke="black"/>
<path d="M70.7992,407.396h -13.6063" fill="none" stroke="black"/>
<path d="M63.9961,386.592h -6.80315" fill="none" stroke="black"/>
<path d="M63.9961,365.787h -6.80315" fill="none" stroke="black"/>
<path d="M63.9961,344.983h -6.80315" fill="none" stroke="black"/>
<path d="M70.7992,324.179h -13.6063" fill="none" stroke="black"/>
<path d="M63.9961,303.375h -6.80315" fill="none" stroke="black"/>
<path d="M63.9961,282.571h -6.80315" fill="none" stroke="black"/>
<path d="M63.9961,261.767h -6.80315" fill="none" stroke="black"/>
<path d="M70.7992,240.963h -13.6063" fill="none" stroke="black"/>
<path d="M63.9961,220.159h -6.80315" fill="none" stroke="black"/>
<path d="M63.9961,199.355h -6.80315" fill="none" stroke="black"/>
<path d="M63.9961,178.551h -6.80315" fill="none" stroke="black"/>
<path d="M70.7992,157.747h -13.6063" fill="none" stroke="black"/>
<path d="M63.9961,136.943h -6.80315" fill="none" stroke="black"/>
<path d="M63.9961,116.139h -6.80315" fill="none" stroke="black"/>
<path d="M63.9961,95.3348h -6.80315" fill="none" stroke="black"/>
<path d="M70.7992,74.5308h -13.6063" fill="none" stroke="black"/>
<path d="M70.7992,74.5308h -13.6063" fill="none" stroke="black"/>
<text xml:space="preserve" x="44.1099" y="496.774" fill="black" font-size="18.004" font-family="Helvetica">0</text>
<text xml:space="preserve" x="28.9413" y="413.346" fill="black" font-size="18.004" font-family="Helvetica">0.2</text>
<text xml:space="preserve" x="28.9413" y="329.919" fill="black" font-size="18.004" font-family="Helvetica">0.4</text>
<text xml:space="preserve" x="28.9413" y="247.439" fill="black" font-size="18.004" font-family="Helvetica">0.6</text>
<text xml:space="preserve" x="28.9413" y="164.011" fill="black" font-size="18.004" font-family="Helvetica">0.8</text>
<text xml:space="preserve" x="46.9541" y="81.5316" fill="black" font-size="18.004" font-family="Helvetica">1</text>
<path d="M59.4606,485.557l 4.53543, -0.975237l 4.53543, -1.13752l 4.53543, -1.32148l 4.53543, -1.52897l 4.53543, -1.76185l 4.53543, -2.02191l 4.53543, -2.31083l 4.53543, -2.63012l 4.53543, -2.98109l 4.53543, -3.36474l 4.53543, -3.78177l 4.53543,
 -4.23242l 4.53543, -4.71649l 4.53543, -5.23322l 4.53543, -5.78124l 4.53543, -6.3585l 4.53543, -6.96226l 4.53543, -7.58898l 4.53543, -8.23435l 4.53543, -8.89324l 4.53543, -9.55972l 4.53543, -10.2271l 4.53543, -10.8878l 4.53543, -11.5337l 4.53543,
 -12.156l 4.53543, -12.7454l 4.53543, -13.2923l 4.53543, -13.7868l 4.53543, -14.2189l 4.53543, -14.5786l 4.53543, -14.8566l 4.53543, -15.0436l 4.53543, -15.1315l 4.53543, -15.1127l 4.53543, -14.981l 4.53543, -14.7313l 4.53543, -14.36l 4.53543,
 -13.8653l 4.53543, -13.247l 4.53543, -12.5065l 4.53543, -11.6473l 4.53543, -10.6748l 4.53543, -9.59599l 4.53543, -8.41981l 4.53543, -7.15678l 4.53543, -5.8189l 4.53543, -4.4195l 4.53543, -2.97296l 4.53543, -1.49453" fill="none" stroke="#0000ff"
 stroke-width="4"/>
<path d="M281.697,74.718h 4.53543l 4.53543, 1.49453l 4.53543, 2.97296l 4.53543, 4.4195l 4.53543, 5.8189l 4.53543, 7.15678l 4.53543, 8.41981l 4.53543, 9.59599l 4.53543, 10.6748l 4.53543, 11.6473l 4.53543, 12.5065l 4.53543, 13.247l 4.53543, 13.8653l
 4.53543, 14.36l 4.53543, 14.7313l 4.53543, 14.981l 4.53543, 15.1127l 4.53543, 15.1315l 4.53543, 15.0436l 4.53543, 14.8566l 4.53543, 14.5786l 4.53543, 14.2189l 4.53543, 13.7868l 4.53543, 13.2923l 4.53543, 12.7454l 4.53543, 12.156l 4.53543, 11.5337l
 4.53543, 10.8878l 4.53543, 10.2271l 4.53543, 9.55972l 4.53543, 8.89324l 4.53543, 8.23435l 4.53543, 7.58898l 4.53543, 6.96226l 4.53543, 6.3585l 4.53543, 5.78124l 4.53543, 5.23322l 4.53543, 4.71649l 4.53543, 4.23242l 4.53543, 3.78177l 4.53543,
 3.36474l 4.53543, 2.98109l 4.53543, 2.63012l 4.53543, 2.31083l 4.53543, 2.02191l 4.53543, 1.76185l 4.53543, 1.52897l 4.53543, 1.32148l 4.53543, 1.13752" fill="none" stroke="#0000ff" stroke-width="4"/>
<path d="M503.933,484.581l 4.53543, 0.975237" fill="none" stroke="#0000ff" stroke-width="4"/>
<path d="M59.4606,490.612h 99.7795l 4.53543, -0.0668489l 4.53543, -0.0427508l 4.53543, -0.0675216l 4.53543, -0.105028l 4.53543, -0.16088l 4.53543, -0.242668l 4.53543, -0.360415l 4.53543, -0.527038l 4.53543, -0.758742l 4.53543, -1.07527l 4.53543,
 -1.49992l 4.53543, -2.05919l 4.53543, -2.7819l 4.53543, -3.6978l 4.53543, -4.83535l 4.53543, -6.21884l 4.53543, -7.86491l 4.53543, -9.7784l 4.53543, -11.9482l 4.53543, -14.343l 4.53543, -16.9084l 4.53543, -19.5645l 4.53543, -22.2058l 4.53543,
 -24.7042l 4.53543, -26.913l 4.53543, -28.6757l 4.53543, -29.8355" fill="none" stroke="#ff00ff" stroke-width="4"/>
<path d="M281.697,253.37l 4.53543, -30.2476l 4.53543, -29.7922l 4.53543, -28.3869l 4.53543, -25.9968l 4.53543, -22.643l 4.53543, -18.405l 4.53543, -13.4194l 4.53543, -7.87309l 4.53543, -1.992l 4.53543, 3.97447l 4.53543, 9.77084l 4.53543, 15.1537l
 4.53543, 19.9086l 4.53543, 23.8644l 4.53543, 26.9028l 4.53543, 28.9641l 4.53543, 30.0464l 4.53543, 30.2013l 4.53543, 29.5252l 4.53543, 28.1475l 4.53543, 26.2185l 4.53543, 23.896l 4.53543, 21.3345l 4.53543, 18.675l 4.53543, 16.0388l 4.53543, 13.5226l
 4.53543, 11.1979l 4.53543, 9.11117l 4.53543, 7.28646l 4.53543, 5.72912l 4.53543, 4.42992l 4.53543, 3.36923l 4.53543, 2.521l 4.53543, 1.85606l 4.53543, 1.34478l 4.53543, 0.958969l 4.53543, 0.673132l 4.53543, 0.465138l 4.53543, 0.316437l 4.53543,
 0.21196l 4.53543, 0.139801l 4.53543, 0.0908006l 4.53543, 0.0580782l 4.53543, 0.0365854l 4.53543, 0.056511h 18.1417" fill="none" stroke="#ff00ff" stroke-width="4"/>
<path d="M503.933,490.612h 4.53543" fill="none" stroke="#ff00ff" stroke-width="4"/>
<path d="M59.4606,489.601l 4.53543, -0.231648l 4.53543, -0.279266l 4.53543, -0.335356l 4.53543, -0.401134l 4.53543, -0.477928l 4.53543, -0.567179l 4.53543, -0.670435l 4.53543, -0.789341l 4.53543, -0.925633l 4.53543, -1.08111l 4.53543, -1.25763l
 4.53543, -1.45707l 4.53543, -1.68129l 4.53543, -1.9321l 4.53543, -2.21122l 4.53543, -2.52023l 4.53543, -2.86051l 4.53543, -3.23318l 4.53543, -3.63903l 4.53543, -4.07847l 4.53543, -4.55146l 4.53543, -5.05742l 4.53543, -5.5952l 4.53543, -6.16299l
 4.53543, -6.75827l 4.53543, -7.37777l 4.53543, -8.01746l 4.53543, -8.67246l 4.53543, -9.33712l 4.53543, -10.005l 4.53543, -10.6687l 4.53543, -11.3205l 4.53543, -11.9517l 4.53543, -12.5532l 4.53543, -13.1154l 4.53543, -13.6284l 4.53543, -14.0824l
 4.53543, -14.4673l 4.53543, -14.7736l 4.53543, -14.9919l 4.53543, -15.1137l 4.53543, -15.1312l 4.53543, -15.0378l 4.53543, -14.8279l 4.53543, -14.4974l 4.53543, -14.044l 4.53543, -13.4668l 4.53543, -12.7667l 4.53543, -11.9466" fill="none"
 stroke="#59d354" stroke-width="4"/>
<path d="M281.697,129.051l 4.53543, -11.0112l 4.53543, -9.96688l 4.53543, -8.82207l 4.53543, -7.58673l 4.53543, -6.27238l 4.53543, -4.89193l 4.53543, -3.45945l 4.53543, -1.98991l 4.53543, -0.498973l 4.53543, 0.997347l 4.53543, 2.48292l 4.53543,
 3.94182l 4.53543, 5.35858l 4.53543, 6.7185l 4.53543, 8.00789l 4.53543, 9.21426l 4.53543, 10.3266l 4.53543, 11.3354l 4.53543, 12.2331l 4.53543, 13.0136l 4.53543, 13.6729l 4.53543, 14.2089l 4.53543, 14.6212l 4.53543, 14.911l 4.53543, 15.0816l 4.53543,
 15.1374l 4.53543, 15.0843l 4.53543, 14.9295l 4.53543, 14.6808l 4.53543, 14.3473l 4.53543, 13.9383l 4.53543, 13.4635l 4.53543, 12.933l 4.53543, 12.3566l 4.53543, 11.7442l 4.53543, 11.1051l 4.53543, 10.4484l 4.53543, 9.78242l 4.53543, 9.11488l
 4.53543, 8.45276l 4.53543, 7.80227l 4.53543, 7.16881l 4.53543, 6.55697l 4.53543, 5.97053l 4.53543, 5.4125l 4.53543, 4.88516l 4.53543, 4.39009l 4.53543, 3.92825l 4.53543, 3.50002" fill="none" stroke="#59d354" stroke-width="4"/>
<path d="M503.933,467.81l 4.53543, 3.1053" fill="none" stroke="#59d354" stroke-width="4"/>
<rect x="57.1929" y="54.5124" width="170.079" height="109.025" fill="white"/>
<path d="M57.1929,163.537h 170.079" fill="none" stroke="black"/>
<path d="M227.272,163.537v -109.025" fill="none" stroke="black"/>
<path d="M227.272,54.5124h -170.079" fill="none" stroke="black"/>
<path d="M57.1929,54.5124v 109.025" fill="none" stroke="black"/>
<text xml:space="preserve" x="99.0964" y="73.9473" fill="black" font-size="20.5046" font-family="Helvetica">Gaus(0,1)</text>
<path d="M63.5709,77.6802h 29.7638v -19.0793h -29.7638z" fill="none" stroke="#f2f2f2"/>
<path d="M63.5709,68.1405h 29.7638" fill="none" stroke="#ff0000" stroke-width="4"/>
<g stroke="black" stroke-width="1" fill="none">
<line x1="77.4528" y1="68.1405" x2="78.4528" y2="68.1405"/>
</g>
<text xml:space="preserve" x="99.0964" y="101.44" fill="black" font-size="20.5046" font-family="Helvetica">Gaus(0,2)</text>
<path d="M63.5709,104.936h 29.7638v -19.0793h -29.7638z" fill="none" stroke="#f2f2f2"/>
<path d="M63.5709,95.3967h 29.7638" fill="none" stroke="#0000ff" stroke-width="4"/>
<g stroke="black" stroke-width="1" fill="none">
<line x1="77.4528" y1="95.3967" x2="78.4528" y2="95.3967"/>
</g>
<text xml:space="preserve" x="99.0964" y="127.986" fill="black" font-size="20.5046" font-family="Helvetica">Gaus(1,1)</text>
<path d="M63.5709,132.193h 29.7638v -19.0793h -29.7638z" fill="none" stroke="#f2f2f2"/>
<path d="M63.5709,122.653h 29.7638" fill="none" stroke="#ff00ff" stroke-width="4"/>
<g stroke="black" stroke-width="1" fill="none">
<line x1="77.4528" y1="122.653" x2="78.4528" y2="122.653"/>
</g>
<text xml:space="preserve" x="99.0964" y="155.479" fill="black" font-size="20.5046" font-family="Helvetica">Gaus(1,2)</text>
<path d="M63.5709,159.449h 29.7638v -19.0793h -29.7638z" fill="none" stroke="#f2f2f2"/>
<path d="M63.5709,149.909h 29.7638" fill="none" stroke="#59d354" stroke-width="4"/>
<g stroke="black" stroke-width="1" fill="none">
<line x1="77.4528" y1="149.909" x2="78.4528" y2="149.909"/>
</g>
<text xml:space="preserve" x="137.966" y="26.5452" fill="black" font-size="23.8803" font-family="Helvetica">Four Gaussian Distributions</text></svg>
