<?xml version="1.0" encoding="utf-8" standalone="no"?>
<!DOCTYPE svg PUBLIC "-//W3C//DTD SVG 1.1//EN"
  "http://www.w3.org/Graphics/SVG/1.1/DTD/svg11.dtd">
<svg xmlns:xlink="http://www.w3.org/1999/xlink" width="371.52pt" height="296.64pt" viewBox="0 0 371.52 296.64" xmlns="http://www.w3.org/2000/svg" version="1.1">
 <metadata>
  <rdf:RDF xmlns:dc="http://purl.org/dc/elements/1.1/" xmlns:cc="http://creativecommons.org/ns#" xmlns:rdf="http://www.w3.org/1999/02/22-rdf-syntax-ns#">
   <cc:Work>
    <dc:type rdf:resource="http://purl.org/dc/dcmitype/StillImage"/>
    <dc:date>2026-07-09T10:21:47.938004</dc:date>
    <dc:format>image/svg+xml</dc:format>
    <dc:creator>
     <cc:Agent>
      <dc:title>Matplotlib v3.10.3, https://matplotlib.org/</dc:title>
     </cc:Agent>
    </dc:creator>
   </cc:Work>
  </rdf:RDF>
 </metadata>
 <defs>
  <style type="text/css">*{stroke-linejoin: round; stroke-linecap: butt}</style>
 </defs>
 <g id="figure_1">
  <g id="patch_1">
   <path d="M 0 296.64 
L 371.52 296.64 
L 371.52 0 
L 0 0 
z
" style="fill: #ffffff"/>
  </g>
  <g id="axes_1">
   <g id="patch_2">
    <path d="M 37.152 266.976 
L 297.216 266.976 
L 297.216 74.16 
L 37.152 74.16 
z
" style="fill: #ffffff"/>
   </g>
   <g id="matplotlib.axis_1">
    <g id="xtick_1">
     <g id="line2d_1">
      <path d="M 48.973091 266.976 
L 48.973091 74.16 
" clip-path="url(#p05bba19706)" style="fill: none; stroke: #b0b0b0; stroke-opacity: 0.3; stroke-width: 0.8; stroke-linecap: square"/>
     </g>
     <g id="line2d_2">
      <defs>
       <path id="me54ed89c84" d="M 0 0 
L 0 3.5 
" style="stroke: #000000; stroke-width: 0.8"/>
      </defs>
      <g>
       <use xlink:href="#me54ed89c84" x="48.973091" y="266.976" style="stroke: #000000; stroke-width: 0.8"/>
      </g>
     </g>
     <g id="text_1">
      <!-- 0 -->
      <g transform="translate(45.791841 281.574437) scale(0.1 -0.1)">
       <defs>
        <path id="DejaVuSans-30" d="M 2034 4250 
Q 1547 4250 1301 3770 
Q 1056 3291 1056 2328 
Q 1056 1369 1301 889 
Q 1547 409 2034 409 
Q 2525 409 2770 889 
Q 3016 1369 3016 2328 
Q 3016 3291 2770 3770 
Q 2525 4250 2034 4250 
z
M 2034 4750 
Q 2819 4750 3233 4129 
Q 3647 3509 3647 2328 
Q 3647 1150 3233 529 
Q 2819 -91 2034 -91 
Q 1250 -91 836 529 
Q 422 1150 422 2328 
Q 422 3509 836 4129 
Q 1250 4750 2034 4750 
z
" transform="scale(0.015625)"/>
       </defs>
       <use xlink:href="#DejaVuSans-30"/>
      </g>
     </g>
    </g>
    <g id="xtick_2">
     <g id="line2d_3">
      <path d="M 96.735074 266.976 
L 96.735074 74.16 
" clip-path="url(#p05bba19706)" style="fill: none; stroke: #b0b0b0; stroke-opacity: 0.3; stroke-width: 0.8; stroke-linecap: square"/>
     </g>
     <g id="line2d_4">
      <g>
       <use xlink:href="#me54ed89c84" x="96.735074" y="266.976" style="stroke: #000000; stroke-width: 0.8"/>
      </g>
     </g>
     <g id="text_2">
      <!-- 20 -->
      <g transform="translate(90.372574 281.574437) scale(0.1 -0.1)">
       <defs>
        <path id="DejaVuSans-32" d="M 1228 531 
L 3431 531 
L 3431 0 
L 469 0 
L 469 531 
Q 828 903 1448 1529 
Q 2069 2156 2228 2338 
Q 2531 2678 2651 2914 
Q 2772 3150 2772 3378 
Q 2772 3750 2511 3984 
Q 2250 4219 1831 4219 
Q 1534 4219 1204 4116 
Q 875 4013 500 3803 
L 500 4441 
Q 881 4594 1212 4672 
Q 1544 4750 1819 4750 
Q 2544 4750 2975 4387 
Q 3406 4025 3406 3419 
Q 3406 3131 3298 2873 
Q 3191 2616 2906 2266 
Q 2828 2175 2409 1742 
Q 1991 1309 1228 531 
z
" transform="scale(0.015625)"/>
       </defs>
       <use xlink:href="#DejaVuSans-32"/>
       <use xlink:href="#DejaVuSans-30" transform="translate(63.623047 0)"/>
      </g>
     </g>
    </g>
    <g id="xtick_3">
     <g id="line2d_5">
      <path d="M 144.497058 266.976 
L 144.497058 74.16 
" clip-path="url(#p05bba19706)" style="fill: none; stroke: #b0b0b0; stroke-opacity: 0.3; stroke-width: 0.8; stroke-linecap: square"/>
     </g>
     <g id="line2d_6">
      <g>
       <use xlink:href="#me54ed89c84" x="144.497058" y="266.976" style="stroke: #000000; stroke-width: 0.8"/>
      </g>
     </g>
     <g id="text_3">
      <!-- 40 -->
      <g transform="translate(138.134558 281.574437) scale(0.1 -0.1)">
       <defs>
        <path id="DejaVuSans-34" d="M 2419 4116 
L 825 1625 
L 2419 1625 
L 2419 4116 
z
M 2253 4666 
L 3047 4666 
L 3047 1625 
L 3713 1625 
L 3713 1100 
L 3047 1100 
L 3047 0 
L 2419 0 
L 2419 1100 
L 313 1100 
L 313 1709 
L 2253 4666 
z
" transform="scale(0.015625)"/>
       </defs>
       <use xlink:href="#DejaVuSans-34"/>
       <use xlink:href="#DejaVuSans-30" transform="translate(63.623047 0)"/>
      </g>
     </g>
    </g>
    <g id="xtick_4">
     <g id="line2d_7">
      <path d="M 192.259041 266.976 
L 192.259041 74.16 
" clip-path="url(#p05bba19706)" style="fill: none; stroke: #b0b0b0; stroke-opacity: 0.3; stroke-width: 0.8; stroke-linecap: square"/>
     </g>
     <g id="line2d_8">
      <g>
       <use xlink:href="#me54ed89c84" x="192.259041" y="266.976" style="stroke: #000000; stroke-width: 0.8"/>
      </g>
     </g>
     <g id="text_4">
      <!-- 60 -->
      <g transform="translate(185.896541 281.574437) scale(0.1 -0.1)">
       <defs>
        <path id="DejaVuSans-36" d="M 2113 2584 
Q 1688 2584 1439 2293 
Q 1191 2003 1191 1497 
Q 1191 994 1439 701 
Q 1688 409 2113 409 
Q 2538 409 2786 701 
Q 3034 994 3034 1497 
Q 3034 2003 2786 2293 
Q 2538 2584 2113 2584 
z
M 3366 4563 
L 3366 3988 
Q 3128 4100 2886 4159 
Q 2644 4219 2406 4219 
Q 1781 4219 1451 3797 
Q 1122 3375 1075 2522 
Q 1259 2794 1537 2939 
Q 1816 3084 2150 3084 
Q 2853 3084 3261 2657 
Q 3669 2231 3669 1497 
Q 3669 778 3244 343 
Q 2819 -91 2113 -91 
Q 1303 -91 875 529 
Q 447 1150 447 2328 
Q 447 3434 972 4092 
Q 1497 4750 2381 4750 
Q 2619 4750 2861 4703 
Q 3103 4656 3366 4563 
z
" transform="scale(0.015625)"/>
       </defs>
       <use xlink:href="#DejaVuSans-36"/>
       <use xlink:href="#DejaVuSans-30" transform="translate(63.623047 0)"/>
      </g>
     </g>
    </g>
    <g id="xtick_5">
     <g id="line2d_9">
      <path d="M 240.021025 266.976 
L 240.021025 74.16 
" clip-path="url(#p05bba19706)" style="fill: none; stroke: #b0b0b0; stroke-opacity: 0.3; stroke-width: 0.8; stroke-linecap: square"/>
     </g>
     <g id="line2d_10">
      <g>
       <use xlink:href="#me54ed89c84" x="240.021025" y="266.976" style="stroke: #000000; stroke-width: 0.8"/>
      </g>
     </g>
     <g id="text_5">
      <!-- 80 -->
      <g transform="translate(233.658525 281.574437) scale(0.1 -0.1)">
       <defs>
        <path id="DejaVuSans-38" d="M 2034 2216 
Q 1584 2216 1326 1975 
Q 1069 1734 1069 1313 
Q 1069 891 1326 650 
Q 1584 409 2034 409 
Q 2484 409 2743 651 
Q 3003 894 3003 1313 
Q 3003 1734 2745 1975 
Q 2488 2216 2034 2216 
z
M 1403 2484 
Q 997 2584 770 2862 
Q 544 3141 544 3541 
Q 544 4100 942 4425 
Q 1341 4750 2034 4750 
Q 2731 4750 3128 4425 
Q 3525 4100 3525 3541 
Q 3525 3141 3298 2862 
Q 3072 2584 2669 2484 
Q 3125 2378 3379 2068 
Q 3634 1759 3634 1313 
Q 3634 634 3220 271 
Q 2806 -91 2034 -91 
Q 1263 -91 848 271 
Q 434 634 434 1313 
Q 434 1759 690 2068 
Q 947 2378 1403 2484 
z
M 1172 3481 
Q 1172 3119 1398 2916 
Q 1625 2713 2034 2713 
Q 2441 2713 2670 2916 
Q 2900 3119 2900 3481 
Q 2900 3844 2670 4047 
Q 2441 4250 2034 4250 
Q 1625 4250 1398 4047 
Q 1172 3844 1172 3481 
z
" transform="scale(0.015625)"/>
       </defs>
       <use xlink:href="#DejaVuSans-38"/>
       <use xlink:href="#DejaVuSans-30" transform="translate(63.623047 0)"/>
      </g>
     </g>
    </g>
    <g id="xtick_6">
     <g id="line2d_11">
      <path d="M 287.783008 266.976 
L 287.783008 74.16 
" clip-path="url(#p05bba19706)" style="fill: none; stroke: #b0b0b0; stroke-opacity: 0.3; stroke-width: 0.8; stroke-linecap: square"/>
     </g>
     <g id="line2d_12">
      <g>
       <use xlink:href="#me54ed89c84" x="287.783008" y="266.976" style="stroke: #000000; stroke-width: 0.8"/>
      </g>
     </g>
     <g id="text_6">
      <!-- 100 -->
      <g transform="translate(278.239258 281.574437) scale(0.1 -0.1)">
       <defs>
        <path id="DejaVuSans-31" d="M 794 531 
L 1825 531 
L 1825 4091 
L 703 3866 
L 703 4441 
L 1819 4666 
L 2450 4666 
L 2450 531 
L 3481 531 
L 3481 0 
L 794 0 
L 794 531 
z
" transform="scale(0.015625)"/>
       </defs>
       <use xlink:href="#DejaVuSans-31"/>
       <use xlink:href="#DejaVuSans-30" transform="translate(63.623047 0)"/>
       <use xlink:href="#DejaVuSans-30" transform="translate(127.246094 0)"/>
      </g>
     </g>
    </g>
   </g>
   <g id="matplotlib.axis_2">
    <g id="ytick_1">
     <g id="line2d_13">
      <path d="M 37.152 266.235947 
L 297.216 266.235947 
" clip-path="url(#p05bba19706)" style="fill: none; stroke: #b0b0b0; stroke-opacity: 0.3; stroke-width: 0.8; stroke-linecap: square"/>
     </g>
     <g id="line2d_14">
      <defs>
       <path id="m43b7230d43" d="M 0 0 
L -3.5 0 
" style="stroke: #000000; stroke-width: 0.8"/>
      </defs>
      <g>
       <use xlink:href="#m43b7230d43" x="37.152" y="266.235947" style="stroke: #000000; stroke-width: 0.8"/>
      </g>
     </g>
     <g id="text_7">
      <!-- −2 -->
      <g transform="translate(15.409813 270.035166) scale(0.1 -0.1)">
       <defs>
        <path id="DejaVuSans-2212" d="M 678 2272 
L 4684 2272 
L 4684 1741 
L 678 1741 
L 678 2272 
z
" transform="scale(0.015625)"/>
       </defs>
       <use xlink:href="#DejaVuSans-2212"/>
       <use xlink:href="#DejaVuSans-32" transform="translate(83.789062 0)"/>
      </g>
     </g>
    </g>
    <g id="ytick_2">
     <g id="line2d_15">
      <path d="M 37.152 241.685254 
L 297.216 241.685254 
" clip-path="url(#p05bba19706)" style="fill: none; stroke: #b0b0b0; stroke-opacity: 0.3; stroke-width: 0.8; stroke-linecap: square"/>
     </g>
     <g id="line2d_16">
      <g>
       <use xlink:href="#m43b7230d43" x="37.152" y="241.685254" style="stroke: #000000; stroke-width: 0.8"/>
      </g>
     </g>
     <g id="text_8">
      <!-- 0 -->
      <g transform="translate(23.7895 245.484473) scale(0.1 -0.1)">
       <use xlink:href="#DejaVuSans-30"/>
      </g>
     </g>
    </g>
    <g id="ytick_3">
     <g id="line2d_17">
      <path d="M 37.152 217.134561 
L 297.216 217.134561 
" clip-path="url(#p05bba19706)" style="fill: none; stroke: #b0b0b0; stroke-opacity: 0.3; stroke-width: 0.8; stroke-linecap: square"/>
     </g>
     <g id="line2d_18">
      <g>
       <use xlink:href="#m43b7230d43" x="37.152" y="217.134561" style="stroke: #000000; stroke-width: 0.8"/>
      </g>
     </g>
     <g id="text_9">
      <!-- 2 -->
      <g transform="translate(23.7895 220.93378) scale(0.1 -0.1)">
       <use xlink:href="#DejaVuSans-32"/>
      </g>
     </g>
    </g>
    <g id="ytick_4">
     <g id="line2d_19">
      <path d="M 37.152 192.583867 
L 297.216 192.583867 
" clip-path="url(#p05bba19706)" style="fill: none; stroke: #b0b0b0; stroke-opacity: 0.3; stroke-width: 0.8; stroke-linecap: square"/>
     </g>
     <g id="line2d_20">
      <g>
       <use xlink:href="#m43b7230d43" x="37.152" y="192.583867" style="stroke: #000000; stroke-width: 0.8"/>
      </g>
     </g>
     <g id="text_10">
      <!-- 4 -->
      <g transform="translate(23.7895 196.383086) scale(0.1 -0.1)">
       <use xlink:href="#DejaVuSans-34"/>
      </g>
     </g>
    </g>
    <g id="ytick_5">
     <g id="line2d_21">
      <path d="M 37.152 168.033174 
L 297.216 168.033174 
" clip-path="url(#p05bba19706)" style="fill: none; stroke: #b0b0b0; stroke-opacity: 0.3; stroke-width: 0.8; stroke-linecap: square"/>
     </g>
     <g id="line2d_22">
      <g>
       <use xlink:href="#m43b7230d43" x="37.152" y="168.033174" style="stroke: #000000; stroke-width: 0.8"/>
      </g>
     </g>
     <g id="text_11">
      <!-- 6 -->
      <g transform="translate(23.7895 171.832393) scale(0.1 -0.1)">
       <use xlink:href="#DejaVuSans-36"/>
      </g>
     </g>
    </g>
    <g id="ytick_6">
     <g id="line2d_23">
      <path d="M 37.152 143.482481 
L 297.216 143.482481 
" clip-path="url(#p05bba19706)" style="fill: none; stroke: #b0b0b0; stroke-opacity: 0.3; stroke-width: 0.8; stroke-linecap: square"/>
     </g>
     <g id="line2d_24">
      <g>
       <use xlink:href="#m43b7230d43" x="37.152" y="143.482481" style="stroke: #000000; stroke-width: 0.8"/>
      </g>
     </g>
     <g id="text_12">
      <!-- 8 -->
      <g transform="translate(23.7895 147.2817) scale(0.1 -0.1)">
       <use xlink:href="#DejaVuSans-38"/>
      </g>
     </g>
    </g>
    <g id="ytick_7">
     <g id="line2d_25">
      <path d="M 37.152 118.931788 
L 297.216 118.931788 
" clip-path="url(#p05bba19706)" style="fill: none; stroke: #b0b0b0; stroke-opacity: 0.3; stroke-width: 0.8; stroke-linecap: square"/>
     </g>
     <g id="line2d_26">
      <g>
       <use xlink:href="#m43b7230d43" x="37.152" y="118.931788" style="stroke: #000000; stroke-width: 0.8"/>
      </g>
     </g>
     <g id="text_13">
      <!-- 10 -->
      <g transform="translate(17.427 122.731006) scale(0.1 -0.1)">
       <use xlink:href="#DejaVuSans-31"/>
       <use xlink:href="#DejaVuSans-30" transform="translate(63.623047 0)"/>
      </g>
     </g>
    </g>
    <g id="ytick_8">
     <g id="line2d_27">
      <path d="M 37.152 94.381094 
L 297.216 94.381094 
" clip-path="url(#p05bba19706)" style="fill: none; stroke: #b0b0b0; stroke-opacity: 0.3; stroke-width: 0.8; stroke-linecap: square"/>
     </g>
     <g id="line2d_28">
      <g>
       <use xlink:href="#m43b7230d43" x="37.152" y="94.381094" style="stroke: #000000; stroke-width: 0.8"/>
      </g>
     </g>
     <g id="text_14">
      <!-- 12 -->
      <g transform="translate(17.427 98.180313) scale(0.1 -0.1)">
       <use xlink:href="#DejaVuSans-31"/>
       <use xlink:href="#DejaVuSans-32" transform="translate(63.623047 0)"/>
      </g>
     </g>
    </g>
   </g>
   <g id="line2d_29">
    <path d="M 48.973091 216.529333 
L 51.36119 218.489388 
L 53.749289 222.060039 
L 56.137388 207.310048 
L 58.525488 236.183313 
L 60.913587 233.768828 
L 63.301686 214.340175 
L 65.689785 215.346997 
L 68.077884 236.834543 
L 70.465983 241.741013 
L 72.854083 203.361948 
L 75.242182 229.61576 
L 77.630281 215.846733 
L 80.01838 224.811916 
L 82.406479 215.900273 
L 84.794579 207.08178 
L 87.182678 237.716307 
L 89.570777 203.131011 
L 91.958876 205.830531 
L 94.346975 220.109292 
L 96.735074 233.983466 
L 99.123174 208.856812 
L 101.511273 226.500038 
L 103.899372 226.831678 
L 106.287471 220.959424 
L 108.67557 233.41112 
L 111.063669 234.27413 
L 113.451769 235.992817 
L 115.839868 202.050974 
L 118.227967 223.94003 
L 120.616066 217.225707 
L 123.004165 210.681601 
L 125.392264 206.311606 
L 127.780364 238.374139 
L 130.168463 216.182689 
L 132.556562 220.354356 
L 134.944661 204.303473 
L 137.33276 196.12726 
L 139.72086 205.222769 
L 142.108959 214.089965 
L 144.497058 202.445929 
L 146.885157 216.414541 
L 149.273256 214.99689 
L 151.661355 204.474851 
L 154.049455 245.850023 
L 156.437554 223.400403 
L 158.825653 207.652901 
L 161.213752 207.723662 
L 163.601851 204.601585 
L 165.98995 180.825797 
L 168.37805 198.087802 
L 170.766149 198.584127 
L 173.154248 182.39348 
L 175.542347 180.495402 
L 177.930446 212.217269 
L 180.318545 187.457655 
L 182.706645 188.36539 
L 185.094744 186.695357 
L 187.482843 209.490192 
L 189.870942 167.54697 
L 192.259041 199.534196 
L 194.64714 171.156446 
L 197.03524 192.887574 
L 199.423339 207.156146 
L 201.811438 188.736836 
L 204.199537 179.936494 
L 206.587636 193.332688 
L 208.975736 178.517797 
L 211.363835 195.783773 
L 213.751934 201.649594 
L 216.140033 182.480854 
L 218.528132 176.62286 
L 220.916231 189.561333 
L 223.304331 173.252403 
L 225.69243 184.762437 
L 228.080529 170.8247 
L 230.468628 175.719257 
L 232.856727 151.722359 
L 235.244826 160.47039 
L 237.632926 173.795654 
L 240.021025 178.991418 
L 242.409124 156.843412 
L 244.797223 162.29393 
L 247.185322 149.266451 
L 249.573421 168.812817 
L 251.961521 149.799937 
L 254.34962 149.819243 
L 256.737719 163.510505 
L 259.125818 157.676353 
L 261.513917 144.962492 
L 263.902017 149.446572 
L 266.290116 139.581439 
L 268.678215 144.828467 
L 271.066314 126.065104 
L 273.454413 126.709097 
L 275.842512 119.690564 
L 278.230612 126.063205 
L 280.618711 152.281431 
L 283.00681 109.592419 
L 285.394909 134.568318 
" clip-path="url(#p05bba19706)" style="fill: none; stroke: #3b4cc0; stroke-width: 1.5; stroke-linecap: square"/>
   </g>
   <g id="line2d_30">
    <path d="M 48.973091 246.444859 
L 51.36119 227.215667 
L 53.749289 227.921052 
L 56.137388 215.889653 
L 58.525488 236.319489 
L 60.913587 235.492913 
L 63.301686 229.898221 
L 65.689785 233.942249 
L 68.077884 206.942236 
L 70.465983 227.810418 
L 72.854083 243.749318 
L 75.242182 215.085404 
L 77.630281 227.32062 
L 80.01838 229.617623 
L 82.406479 224.51364 
L 84.794579 225.28777 
L 87.182678 210.46529 
L 89.570777 216.97804 
L 91.958876 201.648124 
L 94.346975 229.295112 
L 96.735074 201.794665 
L 99.123174 213.410456 
L 101.511273 222.25028 
L 103.899372 241.010745 
L 106.287471 212.333769 
L 108.67557 230.952667 
L 111.063669 214.917429 
L 113.451769 217.479436 
L 115.839868 206.847288 
L 118.227967 212.47866 
L 120.616066 208.572118 
L 123.004165 216.842369 
L 125.392264 209.186904 
L 127.780364 215.311097 
L 130.168463 231.332403 
L 132.556562 217.876379 
L 134.944661 241.889452 
L 137.33276 201.863492 
L 139.72086 220.397723 
L 142.108959 225.9379 
L 144.497058 225.541065 
L 146.885157 220.277776 
L 149.273256 200.810463 
L 151.661355 200.508537 
L 154.049455 197.275084 
L 156.437554 204.4906 
L 158.825653 190.775171 
L 161.213752 217.296529 
L 163.601851 214.070417 
L 165.98995 180.812476 
L 168.37805 201.381445 
L 170.766149 207.212118 
L 173.154248 206.174994 
L 175.542347 207.231123 
L 177.930446 190.664929 
L 180.318545 220.29874 
L 182.706645 186.179548 
L 185.094744 182.041768 
L 187.482843 188.777229 
L 189.870942 189.915982 
L 192.259041 215.659104 
L 194.64714 188.962499 
L 197.03524 178.471148 
L 199.423339 196.739246 
L 201.811438 187.870631 
L 204.199537 193.5523 
L 206.587636 189.310586 
L 208.975736 177.021785 
L 211.363835 175.379772 
L 213.751934 180.571845 
L 216.140033 180.476058 
L 218.528132 169.207247 
L 220.916231 157.998334 
L 223.304331 163.51912 
L 225.69243 153.045594 
L 228.080529 170.790374 
L 230.468628 190.384689 
L 232.856727 171.85331 
L 235.244826 168.347714 
L 237.632926 150.752247 
L 240.021025 163.119789 
L 242.409124 160.565553 
L 244.797223 169.318804 
L 247.185322 169.32205 
L 249.573421 152.668667 
L 251.961521 172.28307 
L 254.34962 150.018674 
L 256.737719 146.009642 
L 259.125818 132.347398 
L 261.513917 144.23877 
L 263.902017 156.008145 
L 266.290116 148.347743 
L 268.678215 153.128363 
L 271.066314 147.61758 
L 273.454413 121.86716 
L 275.842512 143.69089 
L 278.230612 121.986751 
L 280.618711 112.037635 
L 283.00681 160.281607 
L 285.394909 124.971634 
" clip-path="url(#p05bba19706)" style="fill: none; stroke: #5673e0; stroke-width: 1.5; stroke-linecap: square"/>
   </g>
   <g id="line2d_31">
    <path d="M 48.973091 209.644728 
L 51.36119 223.302816 
L 53.749289 257.200253 
L 56.137388 234.085758 
L 58.525488 238.422107 
L 60.913587 231.126068 
L 63.301686 230.681848 
L 65.689785 225.954975 
L 68.077884 231.053993 
L 70.465983 240.644069 
L 72.854083 232.673492 
L 75.242182 227.314027 
L 77.630281 223.318549 
L 80.01838 232.918798 
L 82.406479 225.729661 
L 84.794579 204.314549 
L 87.182678 214.920862 
L 89.570777 218.701673 
L 91.958876 221.357456 
L 94.346975 220.642001 
L 96.735074 223.211862 
L 99.123174 230.654878 
L 101.511273 205.904926 
L 103.899372 211.982651 
L 106.287471 234.627358 
L 108.67557 214.340678 
L 111.063669 225.665434 
L 113.451769 213.133237 
L 115.839868 207.960485 
L 118.227967 191.774148 
L 120.616066 210.748027 
L 123.004165 190.158971 
L 125.392264 223.374468 
L 127.780364 190.000037 
L 130.168463 214.916753 
L 132.556562 193.321659 
L 134.944661 199.715947 
L 137.33276 200.933593 
L 139.72086 217.394513 
L 142.108959 216.960474 
L 144.497058 197.14477 
L 146.885157 226.730022 
L 149.273256 206.402726 
L 151.661355 235.215011 
L 154.049455 196.461857 
L 156.437554 183.212567 
L 158.825653 193.804345 
L 161.213752 202.691466 
L 163.601851 208.997815 
L 165.98995 212.845382 
L 168.37805 206.304635 
L 170.766149 201.202929 
L 173.154248 193.772415 
L 175.542347 181.626952 
L 177.930446 182.054314 
L 180.318545 202.187317 
L 182.706645 198.172388 
L 185.094744 179.80924 
L 187.482843 189.617792 
L 189.870942 212.451991 
L 192.259041 185.954072 
L 194.64714 207.596013 
L 197.03524 174.669239 
L 199.423339 201.004527 
L 201.811438 184.540738 
L 204.199537 187.909772 
L 206.587636 209.412934 
L 208.975736 162.963537 
L 211.363835 170.367224 
L 213.751934 212.201649 
L 216.140033 174.305154 
L 218.528132 180.66278 
L 220.916231 167.054057 
L 223.304331 174.36863 
L 225.69243 150.698775 
L 228.080529 191.547522 
L 230.468628 168.623433 
L 232.856727 170.224433 
L 235.244826 159.549992 
L 237.632926 159.397202 
L 240.021025 172.71989 
L 242.409124 176.319929 
L 244.797223 149.427953 
L 247.185322 170.801068 
L 249.573421 165.522184 
L 251.961521 150.133767 
L 254.34962 148.420343 
L 256.737719 148.385246 
L 259.125818 149.78638 
L 261.513917 151.544084 
L 263.902017 141.721165 
L 266.290116 142.869794 
L 268.678215 142.656151 
L 271.066314 128.083399 
L 273.454413 125.005584 
L 275.842512 134.974027 
L 278.230612 107.069824 
L 280.618711 113.998161 
L 283.00681 115.552393 
L 285.394909 117.905619 
" clip-path="url(#p05bba19706)" style="fill: none; stroke: #7597f6; stroke-width: 1.5; stroke-linecap: square"/>
   </g>
   <g id="line2d_32">
    <path d="M 48.973091 225.991043 
L 51.36119 229.981683 
L 53.749289 229.270535 
L 56.137388 256.220238 
L 58.525488 246.100515 
L 60.913587 233.284848 
L 63.301686 227.834296 
L 65.689785 238.459247 
L 68.077884 214.048338 
L 70.465983 222.907602 
L 72.854083 238.940641 
L 75.242182 228.623145 
L 77.630281 214.35722 
L 80.01838 243.240484 
L 82.406479 230.087643 
L 84.794579 204.563237 
L 87.182678 236.495037 
L 89.570777 235.321283 
L 91.958876 213.912869 
L 94.346975 202.210491 
L 96.735074 245.193066 
L 99.123174 220.045504 
L 101.511273 219.378623 
L 103.899372 210.205748 
L 106.287471 212.052108 
L 108.67557 217.23674 
L 111.063669 222.746801 
L 113.451769 203.860061 
L 115.839868 221.509777 
L 118.227967 202.714447 
L 120.616066 199.566279 
L 123.004165 225.051346 
L 125.392264 217.040723 
L 127.780364 216.782377 
L 130.168463 203.508757 
L 132.556562 204.825726 
L 134.944661 236.815403 
L 137.33276 227.43231 
L 139.72086 206.893505 
L 142.108959 228.80592 
L 144.497058 196.733556 
L 146.885157 196.654594 
L 149.273256 218.958015 
L 151.661355 191.059875 
L 154.049455 219.034362 
L 156.437554 201.890389 
L 158.825653 176.474728 
L 161.213752 223.533777 
L 163.601851 221.037447 
L 165.98995 198.888578 
L 168.37805 211.623245 
L 170.766149 197.027823 
L 173.154248 234.264861 
L 175.542347 193.159101 
L 177.930446 185.738932 
L 180.318545 184.761524 
L 182.706645 201.365695 
L 185.094744 187.175214 
L 187.482843 192.318689 
L 189.870942 182.274305 
L 192.259041 194.179462 
L 194.64714 180.563022 
L 197.03524 192.294006 
L 199.423339 174.671424 
L 201.811438 194.009003 
L 204.199537 188.206846 
L 206.587636 185.217488 
L 208.975736 191.003799 
L 211.363835 183.009538 
L 213.751934 179.79948 
L 216.140033 172.717608 
L 218.528132 158.705471 
L 220.916231 184.686322 
L 223.304331 175.561532 
L 225.69243 152.17147 
L 228.080529 181.538199 
L 230.468628 180.904755 
L 232.856727 167.259167 
L 235.244826 172.585845 
L 237.632926 133.593361 
L 240.021025 167.002738 
L 242.409124 157.808566 
L 244.797223 145.657619 
L 247.185322 164.287726 
L 249.573421 140.371071 
L 251.961521 164.635832 
L 254.34962 170.308683 
L 256.737719 139.835206 
L 259.125818 157.516012 
L 261.513917 163.50609 
L 263.902017 144.023156 
L 266.290116 130.408044 
L 268.678215 158.702283 
L 271.066314 147.377082 
L 273.454413 128.652141 
L 275.842512 120.388806 
L 278.230612 103.718933 
L 280.618711 124.197197 
L 283.00681 122.941754 
L 285.394909 128.520712 
" clip-path="url(#p05bba19706)" style="fill: none; stroke: #94b6ff; stroke-width: 1.5; stroke-linecap: square"/>
   </g>
   <g id="line2d_33">
    <path d="M 48.973091 227.913835 
L 51.36119 216.360433 
L 53.749289 227.253237 
L 56.137388 214.231406 
L 58.525488 224.441091 
L 60.913587 241.83272 
L 63.301686 228.570457 
L 65.689785 230.953962 
L 68.077884 236.393126 
L 70.465983 228.23984 
L 72.854083 233.803492 
L 75.242182 225.219895 
L 77.630281 239.223136 
L 80.01838 215.263701 
L 82.406479 220.391929 
L 84.794579 217.328116 
L 87.182678 211.830499 
L 89.570777 233.331826 
L 91.958876 217.666173 
L 94.346975 221.623042 
L 96.735074 235.457728 
L 99.123174 187.295282 
L 101.511273 232.860422 
L 103.899372 227.348883 
L 106.287471 196.776527 
L 108.67557 212.560893 
L 111.063669 221.678843 
L 113.451769 224.593148 
L 115.839868 216.270194 
L 118.227967 211.813075 
L 120.616066 219.341398 
L 123.004165 220.818669 
L 125.392264 235.815705 
L 127.780364 220.124075 
L 130.168463 198.881022 
L 132.556562 213.320513 
L 134.944661 227.378973 
L 137.33276 223.282102 
L 139.72086 235.619725 
L 142.108959 209.430889 
L 144.497058 205.089053 
L 146.885157 216.429266 
L 149.273256 186.968517 
L 151.661355 210.053601 
L 154.049455 226.051012 
L 156.437554 228.816067 
L 158.825653 214.421035 
L 161.213752 207.328137 
L 163.601851 186.907222 
L 165.98995 237.203442 
L 168.37805 203.653156 
L 170.766149 194.621408 
L 173.154248 199.311715 
L 175.542347 207.475286 
L 177.930446 210.765435 
L 180.318545 193.810461 
L 182.706645 213.204771 
L 185.094744 185.387938 
L 187.482843 206.86228 
L 189.870942 174.390734 
L 192.259041 185.325969 
L 194.64714 199.493496 
L 197.03524 177.998825 
L 199.423339 182.673271 
L 201.811438 195.360177 
L 204.199537 194.044634 
L 206.587636 163.515255 
L 208.975736 201.477054 
L 211.363835 178.349394 
L 213.751934 195.711218 
L 216.140033 182.830898 
L 218.528132 183.952902 
L 220.916231 186.678845 
L 223.304331 174.027954 
L 225.69243 148.140197 
L 228.080529 165.862068 
L 230.468628 161.892863 
L 232.856727 146.572861 
L 235.244826 173.868446 
L 237.632926 155.043162 
L 240.021025 142.996989 
L 242.409124 168.302611 
L 244.797223 153.621485 
L 247.185322 151.069705 
L 249.573421 165.776521 
L 251.961521 151.3308 
L 254.34962 154.369163 
L 256.737719 125.560528 
L 259.125818 159.034332 
L 261.513917 127.203409 
L 263.902017 139.795281 
L 266.290116 124.237416 
L 268.678215 143.485859 
L 271.066314 139.58011 
L 273.454413 140.982626 
L 275.842512 122.619541 
L 278.230612 125.490887 
L 280.618711 128.167761 
L 283.00681 112.57853 
L 285.394909 114.526523 
" clip-path="url(#p05bba19706)" style="fill: none; stroke: #b5cdfa; stroke-width: 1.5; stroke-linecap: square"/>
   </g>
   <g id="line2d_34">
    <path d="M 48.973091 216.672328 
L 51.36119 217.301164 
L 53.749289 223.153168 
L 56.137388 208.573397 
L 58.525488 220.441087 
L 60.913587 244.489759 
L 63.301686 215.277433 
L 65.689785 223.315358 
L 68.077884 219.949722 
L 70.465983 217.163792 
L 72.854083 216.846428 
L 75.242182 223.746309 
L 77.630281 230.109923 
L 80.01838 212.07824 
L 82.406479 222.327668 
L 84.794579 235.342474 
L 87.182678 221.588301 
L 89.570777 221.589857 
L 91.958876 204.906679 
L 94.346975 212.769361 
L 96.735074 236.094222 
L 99.123174 215.344671 
L 101.511273 221.753282 
L 103.899372 231.712635 
L 106.287471 208.024683 
L 108.67557 227.69817 
L 111.063669 246.620271 
L 113.451769 193.034816 
L 115.839868 209.600117 
L 118.227967 204.645153 
L 120.616066 198.885931 
L 123.004165 190.023489 
L 125.392264 216.866066 
L 127.780364 209.892689 
L 130.168463 211.929153 
L 132.556562 258.211636 
L 134.944661 229.082433 
L 137.33276 219.127363 
L 139.72086 206.240929 
L 142.108959 205.107783 
L 144.497058 195.51616 
L 146.885157 204.417307 
L 149.273256 190.879679 
L 151.661355 211.161534 
L 154.049455 211.293184 
L 156.437554 190.457788 
L 158.825653 193.970667 
L 161.213752 193.566467 
L 163.601851 204.104583 
L 165.98995 208.442983 
L 168.37805 205.640652 
L 170.766149 177.93757 
L 173.154248 209.590405 
L 175.542347 193.899005 
L 177.930446 196.408095 
L 180.318545 212.986272 
L 182.706645 192.544476 
L 185.094744 186.240031 
L 187.482843 192.753712 
L 189.870942 196.956346 
L 192.259041 179.858369 
L 194.64714 184.042867 
L 197.03524 175.000853 
L 199.423339 186.438799 
L 201.811438 183.008472 
L 204.199537 179.230352 
L 206.587636 196.088212 
L 208.975736 173.812455 
L 211.363835 174.37597 
L 213.751934 180.779756 
L 216.140033 183.151446 
L 218.528132 186.387763 
L 220.916231 190.401943 
L 223.304331 157.205076 
L 225.69243 174.502848 
L 228.080529 161.796061 
L 230.468628 153.869134 
L 232.856727 148.690938 
L 235.244826 133.328879 
L 237.632926 159.9189 
L 240.021025 171.752454 
L 242.409124 164.353677 
L 244.797223 165.391199 
L 247.185322 152.695732 
L 249.573421 155.992342 
L 251.961521 146.276082 
L 254.34962 121.834743 
L 256.737719 166.520617 
L 259.125818 145.145246 
L 261.513917 134.099002 
L 263.902017 154.169597 
L 266.290116 150.963982 
L 268.678215 142.845724 
L 271.066314 139.586512 
L 273.454413 134.573211 
L 275.842512 135.373124 
L 278.230612 128.924928 
L 280.618711 127.975667 
L 283.00681 132.989437 
L 285.394909 93.142576 
" clip-path="url(#p05bba19706)" style="fill: none; stroke: #d1dae9; stroke-width: 1.5; stroke-linecap: square"/>
   </g>
   <g id="line2d_35">
    <path d="M 48.973091 212.281432 
L 51.36119 206.017006 
L 53.749289 228.465788 
L 56.137388 233.165668 
L 58.525488 210.640078 
L 60.913587 234.534449 
L 63.301686 218.322969 
L 65.689785 228.778735 
L 68.077884 227.783344 
L 70.465983 214.764204 
L 72.854083 243.302027 
L 75.242182 216.727128 
L 77.630281 214.522372 
L 80.01838 216.83289 
L 82.406479 202.365436 
L 84.794579 222.297489 
L 87.182678 230.803149 
L 89.570777 216.253616 
L 91.958876 233.16962 
L 94.346975 237.416908 
L 96.735074 228.490242 
L 99.123174 214.349383 
L 101.511273 213.979622 
L 103.899372 231.437145 
L 106.287471 211.746503 
L 108.67557 219.611139 
L 111.063669 221.808935 
L 113.451769 228.76863 
L 115.839868 206.846799 
L 118.227967 230.176306 
L 120.616066 213.718183 
L 123.004165 196.284745 
L 125.392264 229.521258 
L 127.780364 217.386611 
L 130.168463 224.28842 
L 132.556562 215.132758 
L 134.944661 223.03768 
L 137.33276 232.786035 
L 139.72086 235.10497 
L 142.108959 217.574886 
L 144.497058 205.256585 
L 146.885157 223.934849 
L 149.273256 200.096599 
L 151.661355 225.663169 
L 154.049455 204.397047 
L 156.437554 209.893661 
L 158.825653 196.524094 
L 161.213752 202.1275 
L 163.601851 220.352411 
L 165.98995 209.090877 
L 168.37805 216.004805 
L 170.766149 202.869102 
L 173.154248 205.994697 
L 175.542347 215.426289 
L 177.930446 193.959375 
L 180.318545 192.574171 
L 182.706645 186.335517 
L 185.094744 194.830695 
L 187.482843 187.670707 
L 189.870942 186.658324 
L 192.259041 193.554548 
L 194.64714 201.012354 
L 197.03524 175.65854 
L 199.423339 186.246165 
L 201.811438 192.635117 
L 204.199537 162.399166 
L 206.587636 187.475601 
L 208.975736 169.952344 
L 211.363835 164.187687 
L 213.751934 171.246041 
L 216.140033 170.993881 
L 218.528132 170.187919 
L 220.916231 174.603476 
L 223.304331 157.007794 
L 225.69243 174.426196 
L 228.080529 180.435766 
L 230.468628 169.620986 
L 232.856727 175.606358 
L 235.244826 153.65858 
L 237.632926 157.81727 
L 240.021025 171.883003 
L 242.409124 169.663638 
L 244.797223 174.48729 
L 247.185322 143.398505 
L 249.573421 147.640182 
L 251.961521 122.531088 
L 254.34962 147.322472 
L 256.737719 149.351302 
L 259.125818 154.015649 
L 261.513917 126.717054 
L 263.902017 142.589882 
L 266.290116 144.098291 
L 268.678215 122.075255 
L 271.066314 145.057817 
L 273.454413 82.924364 
L 275.842512 119.937516 
L 278.230612 147.483643 
L 280.618711 130.799217 
L 283.00681 113.082623 
L 285.394909 131.697567 
" clip-path="url(#p05bba19706)" style="fill: none; stroke: #e8d6cc; stroke-width: 1.5; stroke-linecap: square"/>
   </g>
   <g id="line2d_36">
    <path d="M 48.973091 232.767126 
L 51.36119 240.823547 
L 53.749289 217.021734 
L 56.137388 229.247078 
L 58.525488 226.310024 
L 60.913587 209.051357 
L 63.301686 255.584699 
L 65.689785 234.824635 
L 68.077884 227.122123 
L 70.465983 237.422601 
L 72.854083 193.881665 
L 75.242182 220.870857 
L 77.630281 225.994374 
L 80.01838 215.315136 
L 82.406479 243.181936 
L 84.794579 227.749511 
L 87.182678 222.597621 
L 89.570777 219.107582 
L 91.958876 232.047319 
L 94.346975 209.025505 
L 96.735074 214.588359 
L 99.123174 206.632988 
L 101.511273 202.979298 
L 103.899372 234.959958 
L 106.287471 229.805344 
L 108.67557 221.637405 
L 111.063669 234.892687 
L 113.451769 205.347107 
L 115.839868 225.741147 
L 118.227967 203.21493 
L 120.616066 230.483389 
L 123.004165 223.278771 
L 125.392264 221.607508 
L 127.780364 202.761818 
L 130.168463 226.918935 
L 132.556562 242.727632 
L 134.944661 199.418753 
L 137.33276 213.806637 
L 139.72086 215.087974 
L 142.108959 204.839688 
L 144.497058 210.409241 
L 146.885157 211.919916 
L 149.273256 205.600834 
L 151.661355 195.671546 
L 154.049455 221.470211 
L 156.437554 219.540978 
L 158.825653 208.591014 
L 161.213752 207.117588 
L 163.601851 196.745506 
L 165.98995 213.301192 
L 168.37805 200.473424 
L 170.766149 180.322233 
L 173.154248 199.148292 
L 175.542347 201.8433 
L 177.930446 194.392445 
L 180.318545 186.867149 
L 182.706645 187.474369 
L 185.094744 191.626922 
L 187.482843 201.222575 
L 189.870942 220.859822 
L 192.259041 182.365013 
L 194.64714 177.302059 
L 197.03524 182.856055 
L 199.423339 183.96612 
L 201.811438 181.249303 
L 204.199537 176.941632 
L 206.587636 174.002208 
L 208.975736 195.419223 
L 211.363835 141.415166 
L 213.751934 202.498965 
L 216.140033 176.727701 
L 218.528132 165.473575 
L 220.916231 166.922349 
L 223.304331 160.820766 
L 225.69243 177.19327 
L 228.080529 174.936327 
L 230.468628 174.133619 
L 232.856727 160.838479 
L 235.244826 155.963781 
L 237.632926 150.07753 
L 240.021025 165.110722 
L 242.409124 168.893872 
L 244.797223 166.641749 
L 247.185322 146.854692 
L 249.573421 165.820091 
L 251.961521 141.833885 
L 254.34962 158.424178 
L 256.737719 153.412876 
L 259.125818 145.267154 
L 261.513917 163.203013 
L 263.902017 150.002891 
L 266.290116 133.814769 
L 268.678215 116.065293 
L 271.066314 120.298229 
L 273.454413 124.068645 
L 275.842512 116.283265 
L 278.230612 158.386212 
L 280.618711 100.187568 
L 283.00681 123.076458 
L 285.394909 101.768722 
" clip-path="url(#p05bba19706)" style="fill: none; stroke: #f5c1a9; stroke-width: 1.5; stroke-linecap: square"/>
   </g>
   <g id="line2d_37">
    <path d="M 48.973091 212.916594 
L 51.36119 232.720525 
L 53.749289 227.245928 
L 56.137388 236.707064 
L 58.525488 235.343706 
L 60.913587 242.158371 
L 63.301686 234.56356 
L 65.689785 234.461961 
L 68.077884 231.988633 
L 70.465983 208.727434 
L 72.854083 223.531784 
L 75.242182 232.42827 
L 77.630281 232.280926 
L 80.01838 217.762881 
L 82.406479 240.528637 
L 84.794579 220.940125 
L 87.182678 198.094698 
L 89.570777 223.67613 
L 91.958876 205.197732 
L 94.346975 204.018459 
L 96.735074 215.553859 
L 99.123174 231.839697 
L 101.511273 223.993279 
L 103.899372 225.435168 
L 106.287471 214.806738 
L 108.67557 223.70683 
L 111.063669 205.219134 
L 113.451769 232.459709 
L 115.839868 203.896297 
L 118.227967 204.732676 
L 120.616066 232.08556 
L 123.004165 215.69876 
L 125.392264 207.007935 
L 127.780364 226.005921 
L 130.168463 215.531878 
L 132.556562 209.656533 
L 134.944661 196.501341 
L 137.33276 226.651705 
L 139.72086 195.607075 
L 142.108959 200.741979 
L 144.497058 228.888023 
L 146.885157 191.56871 
L 149.273256 188.912023 
L 151.661355 226.761132 
L 154.049455 238.117679 
L 156.437554 204.633279 
L 158.825653 205.057869 
L 161.213752 199.828088 
L 163.601851 200.958882 
L 165.98995 181.809476 
L 168.37805 180.675942 
L 170.766149 208.623098 
L 173.154248 174.293054 
L 175.542347 209.030692 
L 177.930446 203.005992 
L 180.318545 202.294028 
L 182.706645 202.796229 
L 185.094744 182.81293 
L 187.482843 184.165356 
L 189.870942 200.926716 
L 192.259041 176.82767 
L 194.64714 182.8784 
L 197.03524 175.351272 
L 199.423339 206.173838 
L 201.811438 204.255071 
L 204.199537 196.659563 
L 206.587636 191.549207 
L 208.975736 155.904205 
L 211.363835 198.925863 
L 213.751934 158.112861 
L 216.140033 179.192771 
L 218.528132 180.020223 
L 220.916231 220.109289 
L 223.304331 158.562026 
L 225.69243 160.448994 
L 228.080529 173.473618 
L 230.468628 171.581869 
L 232.856727 179.540656 
L 235.244826 180.164303 
L 237.632926 176.272347 
L 240.021025 142.770655 
L 242.409124 185.968592 
L 244.797223 159.316358 
L 247.185322 138.515316 
L 249.573421 160.80592 
L 251.961521 138.643039 
L 254.34962 171.107307 
L 256.737719 154.014815 
L 259.125818 141.617065 
L 261.513917 141.249593 
L 263.902017 148.653695 
L 266.290116 134.913757 
L 268.678215 152.740394 
L 271.066314 119.590638 
L 273.454413 138.89269 
L 275.842512 152.188151 
L 278.230612 135.903659 
L 280.618711 128.717811 
L 283.00681 114.066798 
L 285.394909 142.13995 
" clip-path="url(#p05bba19706)" style="fill: none; stroke: #f6a283; stroke-width: 1.5; stroke-linecap: square"/>
   </g>
   <g id="line2d_38">
    <path d="M 48.973091 231.007157 
L 51.36119 230.691466 
L 53.749289 234.876883 
L 56.137388 214.542592 
L 58.525488 237.426898 
L 60.913587 232.7701 
L 63.301686 220.44362 
L 65.689785 203.601233 
L 68.077884 213.19267 
L 70.465983 219.73583 
L 72.854083 215.934669 
L 75.242182 230.47689 
L 77.630281 215.846249 
L 80.01838 232.71436 
L 82.406479 233.034545 
L 84.794579 209.392726 
L 87.182678 224.538102 
L 89.570777 216.501151 
L 91.958876 219.614904 
L 94.346975 215.544631 
L 96.735074 221.61199 
L 99.123174 230.596071 
L 101.511273 217.672798 
L 103.899372 224.795554 
L 106.287471 229.963293 
L 108.67557 206.020614 
L 111.063669 208.694333 
L 113.451769 218.459371 
L 115.839868 240.069556 
L 118.227967 224.737045 
L 120.616066 214.164764 
L 123.004165 205.125715 
L 125.392264 190.890382 
L 127.780364 220.165401 
L 130.168463 205.249404 
L 132.556562 203.171981 
L 134.944661 216.908631 
L 137.33276 205.110954 
L 139.72086 213.499164 
L 142.108959 203.001758 
L 144.497058 191.246915 
L 146.885157 218.651065 
L 149.273256 202.223682 
L 151.661355 198.437608 
L 154.049455 209.998849 
L 156.437554 180.013078 
L 158.825653 191.126595 
L 161.213752 212.630199 
L 163.601851 206.384791 
L 165.98995 211.095552 
L 168.37805 206.801378 
L 170.766149 184.038519 
L 173.154248 210.588748 
L 175.542347 197.100262 
L 177.930446 205.978107 
L 180.318545 178.07389 
L 182.706645 202.678591 
L 185.094744 192.333602 
L 187.482843 188.390877 
L 189.870942 204.279553 
L 192.259041 206.43352 
L 194.64714 182.183223 
L 197.03524 170.992202 
L 199.423339 194.816933 
L 201.811438 172.851293 
L 204.199537 188.597344 
L 206.587636 166.852705 
L 208.975736 179.628774 
L 211.363835 175.854324 
L 213.751934 156.65299 
L 216.140033 184.058529 
L 218.528132 165.576216 
L 220.916231 188.838274 
L 223.304331 171.718944 
L 225.69243 175.294128 
L 228.080529 183.533866 
L 230.468628 176.108249 
L 232.856727 162.069897 
L 235.244826 180.89558 
L 237.632926 149.384304 
L 240.021025 160.47751 
L 242.409124 135.786773 
L 244.797223 167.379649 
L 247.185322 158.326695 
L 249.573421 156.160305 
L 251.961521 152.950937 
L 254.34962 159.133086 
L 256.737719 170.68977 
L 259.125818 152.531186 
L 261.513917 151.362787 
L 263.902017 163.744385 
L 266.290116 141.564515 
L 268.678215 132.180127 
L 271.066314 133.362567 
L 273.454413 121.163209 
L 275.842512 136.095367 
L 278.230612 134.528315 
L 280.618711 101.148618 
L 283.00681 125.901739 
L 285.394909 117.571328 
" clip-path="url(#p05bba19706)" style="fill: none; stroke: #ea7b60; stroke-width: 1.5; stroke-linecap: square"/>
   </g>
   <g id="line2d_39">
    <path d="M 48.973091 251.666244 
L 51.36119 232.238618 
L 53.749289 216.511997 
L 56.137388 222.006705 
L 58.525488 222.33478 
L 60.913587 236.956619 
L 63.301686 242.076375 
L 65.689785 233.768816 
L 68.077884 241.816376 
L 70.465983 236.321323 
L 72.854083 228.517309 
L 75.242182 233.011026 
L 77.630281 236.56527 
L 80.01838 237.268971 
L 82.406479 230.762197 
L 84.794579 221.228743 
L 87.182678 223.526613 
L 89.570777 244.908996 
L 91.958876 221.087985 
L 94.346975 234.268156 
L 96.735074 200.797614 
L 99.123174 229.82916 
L 101.511273 234.827288 
L 103.899372 224.989437 
L 106.287471 242.775208 
L 108.67557 226.656368 
L 111.063669 238.70145 
L 113.451769 200.958908 
L 115.839868 228.006194 
L 118.227967 214.905923 
L 120.616066 210.638678 
L 123.004165 225.442346 
L 125.392264 201.144991 
L 127.780364 244.417219 
L 130.168463 208.431781 
L 132.556562 195.345622 
L 134.944661 205.886985 
L 137.33276 205.713165 
L 139.72086 204.445813 
L 142.108959 208.888353 
L 144.497058 210.787336 
L 146.885157 194.272308 
L 149.273256 202.36281 
L 151.661355 191.999616 
L 154.049455 204.1902 
L 156.437554 187.240213 
L 158.825653 221.354714 
L 161.213752 213.556004 
L 163.601851 218.235291 
L 165.98995 193.350253 
L 168.37805 218.58669 
L 170.766149 213.799063 
L 173.154248 182.979308 
L 175.542347 197.980443 
L 177.930446 162.952449 
L 180.318545 200.347755 
L 182.706645 187.132706 
L 185.094744 174.836681 
L 187.482843 209.870506 
L 189.870942 185.723636 
L 192.259041 186.941018 
L 194.64714 176.279203 
L 197.03524 181.023062 
L 199.423339 169.496265 
L 201.811438 167.796848 
L 204.199537 203.171994 
L 206.587636 172.402213 
L 208.975736 166.539904 
L 211.363835 170.957114 
L 213.751934 180.01294 
L 216.140033 169.754262 
L 218.528132 167.96192 
L 220.916231 179.53687 
L 223.304331 179.949361 
L 225.69243 176.153291 
L 228.080529 156.344843 
L 230.468628 157.360842 
L 232.856727 177.614939 
L 235.244826 174.498793 
L 237.632926 169.439138 
L 240.021025 145.318679 
L 242.409124 151.677856 
L 244.797223 170.604869 
L 247.185322 173.118543 
L 249.573421 157.638278 
L 251.961521 162.820428 
L 254.34962 134.941909 
L 256.737719 158.007646 
L 259.125818 160.114193 
L 261.513917 140.80425 
L 263.902017 146.350843 
L 266.290116 152.350256 
L 268.678215 133.28873 
L 271.066314 149.473663 
L 273.454413 146.10272 
L 275.842512 133.423874 
L 278.230612 91.509851 
L 280.618711 114.327467 
L 283.00681 103.685245 
L 285.394909 121.661738 
" clip-path="url(#p05bba19706)" style="fill: none; stroke: #d44e41; stroke-width: 1.5; stroke-linecap: square"/>
   </g>
   <g id="line2d_40">
    <path d="M 48.973091 239.878975 
L 51.36119 207.877219 
L 53.749289 229.928038 
L 56.137388 218.223274 
L 58.525488 202.559366 
L 60.913587 248.092782 
L 63.301686 228.321685 
L 65.689785 236.482245 
L 68.077884 227.007247 
L 70.465983 230.720212 
L 72.854083 221.507465 
L 75.242182 237.204636 
L 77.630281 236.370672 
L 80.01838 203.650572 
L 82.406479 221.395451 
L 84.794579 205.657253 
L 87.182678 200.474468 
L 89.570777 229.654028 
L 91.958876 216.034642 
L 94.346975 218.257253 
L 96.735074 227.743387 
L 99.123174 225.691109 
L 101.511273 212.738041 
L 103.899372 216.219304 
L 106.287471 212.281166 
L 108.67557 226.801884 
L 111.063669 210.848187 
L 113.451769 213.436424 
L 115.839868 231.573372 
L 118.227967 212.312392 
L 120.616066 223.818479 
L 123.004165 214.705291 
L 125.392264 219.671876 
L 127.780364 234.239214 
L 130.168463 205.376938 
L 132.556562 225.766674 
L 134.944661 201.904929 
L 137.33276 233.50094 
L 139.72086 213.362794 
L 142.108959 220.192299 
L 144.497058 209.533489 
L 146.885157 227.277906 
L 149.273256 220.317068 
L 151.661355 197.201718 
L 154.049455 202.867225 
L 156.437554 210.205612 
L 158.825653 182.893937 
L 161.213752 197.385383 
L 163.601851 192.689933 
L 165.98995 232.195154 
L 168.37805 209.713748 
L 170.766149 209.141906 
L 173.154248 201.089053 
L 175.542347 212.783895 
L 177.930446 220.744203 
L 180.318545 189.152249 
L 182.706645 196.874533 
L 185.094744 191.535798 
L 187.482843 175.671856 
L 189.870942 197.029924 
L 192.259041 183.001552 
L 194.64714 194.882515 
L 197.03524 181.719922 
L 199.423339 182.350836 
L 201.811438 203.286466 
L 204.199537 175.531907 
L 206.587636 188.631536 
L 208.975736 190.973867 
L 211.363835 175.740295 
L 213.751934 169.553862 
L 216.140033 187.668865 
L 218.528132 178.846178 
L 220.916231 183.964 
L 223.304331 167.475839 
L 225.69243 188.754722 
L 228.080529 194.743156 
L 230.468628 156.756847 
L 232.856727 168.66728 
L 235.244826 159.699109 
L 237.632926 185.894926 
L 240.021025 156.783981 
L 242.409124 178.604492 
L 244.797223 160.681387 
L 247.185322 151.302246 
L 249.573421 166.989612 
L 251.961521 150.021207 
L 254.34962 158.8801 
L 256.737719 147.807584 
L 259.125818 133.006884 
L 261.513917 128.903 
L 263.902017 119.553318 
L 266.290116 144.03916 
L 268.678215 166.792446 
L 271.066314 128.192426 
L 273.454413 143.062459 
L 275.842512 133.936028 
L 278.230612 127.776291 
L 280.618711 131.481069 
L 283.00681 129.134229 
L 285.394909 103.818276 
" clip-path="url(#p05bba19706)" style="fill: none; stroke: #b40426; stroke-width: 1.5; stroke-linecap: square"/>
   </g>
   <g id="patch_3">
    <path d="M 37.152 266.976 
L 37.152 74.16 
" style="fill: none; stroke: #000000; stroke-width: 0.8; stroke-linejoin: miter; stroke-linecap: square"/>
   </g>
   <g id="patch_4">
    <path d="M 297.216 266.976 
L 297.216 74.16 
" style="fill: none; stroke: #000000; stroke-width: 0.8; stroke-linejoin: miter; stroke-linecap: square"/>
   </g>
   <g id="patch_5">
    <path d="M 37.152 266.976 
L 297.216 266.976 
" style="fill: none; stroke: #000000; stroke-width: 0.8; stroke-linejoin: miter; stroke-linecap: square"/>
   </g>
   <g id="patch_6">
    <path d="M 37.152 74.16 
L 297.216 74.16 
" style="fill: none; stroke: #000000; stroke-width: 0.8; stroke-linejoin: miter; stroke-linecap: square"/>
   </g>
   <g id="legend_1">
    <g id="patch_7">
     <path d="M 39.152 70.30368 
L 295.216 70.30368 
Q 297.216 70.30368 297.216 68.30368 
L 297.216 25.269305 
Q 297.216 23.269305 295.216 23.269305 
L 39.152 23.269305 
Q 37.152 23.269305 37.152 25.269305 
L 37.152 68.30368 
Q 37.152 70.30368 39.152 70.30368 
z
" style="fill: #ffffff; opacity: 0.8; stroke: #cccccc; stroke-linejoin: miter"/>
    </g>
    <g id="line2d_41">
     <path d="M 41.152 31.367742 
L 51.152 31.367742 
L 61.152 31.367742 
" style="fill: none; stroke: #3b4cc0; stroke-width: 1.5; stroke-linecap: square"/>
    </g>
    <g id="text_15">
     <!-- 10 ℃ -->
     <g transform="translate(69.152 34.867742) scale(0.1 -0.1)">
      <defs>
       <path id="DejaVuSans-20" transform="scale(0.015625)"/>
       <path id="DejaVuSans-2103" d="M 1600 4347 
Q 1350 4347 1178 4173 
Q 1006 4000 1006 3750 
Q 1006 3503 1178 3333 
Q 1350 3163 1600 3163 
Q 1850 3163 2022 3333 
Q 2194 3503 2194 3750 
Q 2194 3997 2020 4172 
Q 1847 4347 1600 4347 
z
M 1600 4750 
Q 1800 4750 1984 4673 
Q 2169 4597 2303 4453 
Q 2447 4313 2519 4134 
Q 2591 3956 2591 3750 
Q 2591 3338 2302 3052 
Q 2013 2766 1594 2766 
Q 1172 2766 890 3047 
Q 609 3328 609 3750 
Q 609 4169 896 4459 
Q 1184 4750 1600 4750 
z
M 6738 4306 
L 6738 3641 
Q 6419 3938 6058 4084 
Q 5697 4231 5291 4231 
Q 4491 4231 4066 3742 
Q 3641 3253 3641 2328 
Q 3641 1406 4066 917 
Q 4491 428 5291 428 
Q 5697 428 6058 575 
Q 6419 722 6738 1019 
L 6738 359 
Q 6407 134 6036 21 
Q 5666 -91 5254 -91 
Q 4194 -91 3584 557 
Q 2975 1206 2975 2328 
Q 2975 3453 3584 4101 
Q 4194 4750 5254 4750 
Q 5672 4750 6042 4639 
Q 6413 4528 6738 4306 
z
" transform="scale(0.015625)"/>
      </defs>
      <use xlink:href="#DejaVuSans-31"/>
      <use xlink:href="#DejaVuSans-30" transform="translate(63.623047 0)"/>
      <use xlink:href="#DejaVuSans-20" transform="translate(127.246094 0)"/>
      <use xlink:href="#DejaVuSans-2103" transform="translate(159.033203 0)"/>
     </g>
    </g>
    <g id="line2d_42">
     <path d="M 41.152 46.045867 
L 51.152 46.045867 
L 61.152 46.045867 
" style="fill: none; stroke: #5673e0; stroke-width: 1.5; stroke-linecap: square"/>
    </g>
    <g id="text_16">
     <!-- 20 ℃ -->
     <g transform="translate(69.152 49.545867) scale(0.1 -0.1)">
      <use xlink:href="#DejaVuSans-32"/>
      <use xlink:href="#DejaVuSans-30" transform="translate(63.623047 0)"/>
      <use xlink:href="#DejaVuSans-20" transform="translate(127.246094 0)"/>
      <use xlink:href="#DejaVuSans-2103" transform="translate(159.033203 0)"/>
     </g>
    </g>
    <g id="line2d_43">
     <path d="M 41.152 60.723992 
L 51.152 60.723992 
L 61.152 60.723992 
" style="fill: none; stroke: #7597f6; stroke-width: 1.5; stroke-linecap: square"/>
    </g>
    <g id="text_17">
     <!-- 30 ℃ -->
     <g transform="translate(69.152 64.223992) scale(0.1 -0.1)">
      <defs>
       <path id="DejaVuSans-33" d="M 2597 2516 
Q 3050 2419 3304 2112 
Q 3559 1806 3559 1356 
Q 3559 666 3084 287 
Q 2609 -91 1734 -91 
Q 1441 -91 1130 -33 
Q 819 25 488 141 
L 488 750 
Q 750 597 1062 519 
Q 1375 441 1716 441 
Q 2309 441 2620 675 
Q 2931 909 2931 1356 
Q 2931 1769 2642 2001 
Q 2353 2234 1838 2234 
L 1294 2234 
L 1294 2753 
L 1863 2753 
Q 2328 2753 2575 2939 
Q 2822 3125 2822 3475 
Q 2822 3834 2567 4026 
Q 2313 4219 1838 4219 
Q 1578 4219 1281 4162 
Q 984 4106 628 3988 
L 628 4550 
Q 988 4650 1302 4700 
Q 1616 4750 1894 4750 
Q 2613 4750 3031 4423 
Q 3450 4097 3450 3541 
Q 3450 3153 3228 2886 
Q 3006 2619 2597 2516 
z
" transform="scale(0.015625)"/>
      </defs>
      <use xlink:href="#DejaVuSans-33"/>
      <use xlink:href="#DejaVuSans-30" transform="translate(63.623047 0)"/>
      <use xlink:href="#DejaVuSans-20" transform="translate(127.246094 0)"/>
      <use xlink:href="#DejaVuSans-2103" transform="translate(159.033203 0)"/>
     </g>
    </g>
    <g id="line2d_44">
     <path d="M 104.674375 31.367742 
L 114.674375 31.367742 
L 124.674375 31.367742 
" style="fill: none; stroke: #94b6ff; stroke-width: 1.5; stroke-linecap: square"/>
    </g>
    <g id="text_18">
     <!-- 40 ℃ -->
     <g transform="translate(132.674375 34.867742) scale(0.1 -0.1)">
      <use xlink:href="#DejaVuSans-34"/>
      <use xlink:href="#DejaVuSans-30" transform="translate(63.623047 0)"/>
      <use xlink:href="#DejaVuSans-20" transform="translate(127.246094 0)"/>
      <use xlink:href="#DejaVuSans-2103" transform="translate(159.033203 0)"/>
     </g>
    </g>
    <g id="line2d_45">
     <path d="M 104.674375 46.045867 
L 114.674375 46.045867 
L 124.674375 46.045867 
" style="fill: none; stroke: #b5cdfa; stroke-width: 1.5; stroke-linecap: square"/>
    </g>
    <g id="text_19">
     <!-- 50 ℃ -->
     <g transform="translate(132.674375 49.545867) scale(0.1 -0.1)">
      <defs>
       <path id="DejaVuSans-35" d="M 691 4666 
L 3169 4666 
L 3169 4134 
L 1269 4134 
L 1269 2991 
Q 1406 3038 1543 3061 
Q 1681 3084 1819 3084 
Q 2600 3084 3056 2656 
Q 3513 2228 3513 1497 
Q 3513 744 3044 326 
Q 2575 -91 1722 -91 
Q 1428 -91 1123 -41 
Q 819 9 494 109 
L 494 744 
Q 775 591 1075 516 
Q 1375 441 1709 441 
Q 2250 441 2565 725 
Q 2881 1009 2881 1497 
Q 2881 1984 2565 2268 
Q 2250 2553 1709 2553 
Q 1456 2553 1204 2497 
Q 953 2441 691 2322 
L 691 4666 
z
" transform="scale(0.015625)"/>
      </defs>
      <use xlink:href="#DejaVuSans-35"/>
      <use xlink:href="#DejaVuSans-30" transform="translate(63.623047 0)"/>
      <use xlink:href="#DejaVuSans-20" transform="translate(127.246094 0)"/>
      <use xlink:href="#DejaVuSans-2103" transform="translate(159.033203 0)"/>
     </g>
    </g>
    <g id="line2d_46">
     <path d="M 104.674375 60.723992 
L 114.674375 60.723992 
L 124.674375 60.723992 
" style="fill: none; stroke: #d1dae9; stroke-width: 1.5; stroke-linecap: square"/>
    </g>
    <g id="text_20">
     <!-- 60 ℃ -->
     <g transform="translate(132.674375 64.223992) scale(0.1 -0.1)">
      <use xlink:href="#DejaVuSans-36"/>
      <use xlink:href="#DejaVuSans-30" transform="translate(63.623047 0)"/>
      <use xlink:href="#DejaVuSans-20" transform="translate(127.246094 0)"/>
      <use xlink:href="#DejaVuSans-2103" transform="translate(159.033203 0)"/>
     </g>
    </g>
    <g id="line2d_47">
     <path d="M 168.19675 31.367742 
L 178.19675 31.367742 
L 188.19675 31.367742 
" style="fill: none; stroke: #e8d6cc; stroke-width: 1.5; stroke-linecap: square"/>
    </g>
    <g id="text_21">
     <!-- 70 ℃ -->
     <g transform="translate(196.19675 34.867742) scale(0.1 -0.1)">
      <defs>
       <path id="DejaVuSans-37" d="M 525 4666 
L 3525 4666 
L 3525 4397 
L 1831 0 
L 1172 0 
L 2766 4134 
L 525 4134 
L 525 4666 
z
" transform="scale(0.015625)"/>
      </defs>
      <use xlink:href="#DejaVuSans-37"/>
      <use xlink:href="#DejaVuSans-30" transform="translate(63.623047 0)"/>
      <use xlink:href="#DejaVuSans-20" transform="translate(127.246094 0)"/>
      <use xlink:href="#DejaVuSans-2103" transform="translate(159.033203 0)"/>
     </g>
    </g>
    <g id="line2d_48">
     <path d="M 168.19675 46.045867 
L 178.19675 46.045867 
L 188.19675 46.045867 
" style="fill: none; stroke: #f5c1a9; stroke-width: 1.5; stroke-linecap: square"/>
    </g>
    <g id="text_22">
     <!-- 80 ℃ -->
     <g transform="translate(196.19675 49.545867) scale(0.1 -0.1)">
      <use xlink:href="#DejaVuSans-38"/>
      <use xlink:href="#DejaVuSans-30" transform="translate(63.623047 0)"/>
      <use xlink:href="#DejaVuSans-20" transform="translate(127.246094 0)"/>
      <use xlink:href="#DejaVuSans-2103" transform="translate(159.033203 0)"/>
     </g>
    </g>
    <g id="line2d_49">
     <path d="M 168.19675 60.723992 
L 178.19675 60.723992 
L 188.19675 60.723992 
" style="fill: none; stroke: #f6a283; stroke-width: 1.5; stroke-linecap: square"/>
    </g>
    <g id="text_23">
     <!-- 90 ℃ -->
     <g transform="translate(196.19675 64.223992) scale(0.1 -0.1)">
      <defs>
       <path id="DejaVuSans-39" d="M 703 97 
L 703 672 
Q 941 559 1184 500 
Q 1428 441 1663 441 
Q 2288 441 2617 861 
Q 2947 1281 2994 2138 
Q 2813 1869 2534 1725 
Q 2256 1581 1919 1581 
Q 1219 1581 811 2004 
Q 403 2428 403 3163 
Q 403 3881 828 4315 
Q 1253 4750 1959 4750 
Q 2769 4750 3195 4129 
Q 3622 3509 3622 2328 
Q 3622 1225 3098 567 
Q 2575 -91 1691 -91 
Q 1453 -91 1209 -44 
Q 966 3 703 97 
z
M 1959 2075 
Q 2384 2075 2632 2365 
Q 2881 2656 2881 3163 
Q 2881 3666 2632 3958 
Q 2384 4250 1959 4250 
Q 1534 4250 1286 3958 
Q 1038 3666 1038 3163 
Q 1038 2656 1286 2365 
Q 1534 2075 1959 2075 
z
" transform="scale(0.015625)"/>
      </defs>
      <use xlink:href="#DejaVuSans-39"/>
      <use xlink:href="#DejaVuSans-30" transform="translate(63.623047 0)"/>
      <use xlink:href="#DejaVuSans-20" transform="translate(127.246094 0)"/>
      <use xlink:href="#DejaVuSans-2103" transform="translate(159.033203 0)"/>
     </g>
    </g>
    <g id="line2d_50">
     <path d="M 231.719125 31.367742 
L 241.719125 31.367742 
L 251.719125 31.367742 
" style="fill: none; stroke: #ea7b60; stroke-width: 1.5; stroke-linecap: square"/>
    </g>
    <g id="text_24">
     <!-- 100 ℃ -->
     <g transform="translate(259.719125 34.867742) scale(0.1 -0.1)">
      <use xlink:href="#DejaVuSans-31"/>
      <use xlink:href="#DejaVuSans-30" transform="translate(63.623047 0)"/>
      <use xlink:href="#DejaVuSans-30" transform="translate(127.246094 0)"/>
      <use xlink:href="#DejaVuSans-20" transform="translate(190.869141 0)"/>
      <use xlink:href="#DejaVuSans-2103" transform="translate(222.65625 0)"/>
     </g>
    </g>
    <g id="line2d_51">
     <path d="M 231.719125 46.045867 
L 241.719125 46.045867 
L 251.719125 46.045867 
" style="fill: none; stroke: #d44e41; stroke-width: 1.5; stroke-linecap: square"/>
    </g>
    <g id="text_25">
     <!-- 110 ℃ -->
     <g transform="translate(259.719125 49.545867) scale(0.1 -0.1)">
      <use xlink:href="#DejaVuSans-31"/>
      <use xlink:href="#DejaVuSans-31" transform="translate(63.623047 0)"/>
      <use xlink:href="#DejaVuSans-30" transform="translate(127.246094 0)"/>
      <use xlink:href="#DejaVuSans-20" transform="translate(190.869141 0)"/>
      <use xlink:href="#DejaVuSans-2103" transform="translate(222.65625 0)"/>
     </g>
    </g>
    <g id="line2d_52">
     <path d="M 231.719125 60.723992 
L 241.719125 60.723992 
L 251.719125 60.723992 
" style="fill: none; stroke: #b40426; stroke-width: 1.5; stroke-linecap: square"/>
    </g>
    <g id="text_26">
     <!-- 120 ℃ -->
     <g transform="translate(259.719125 64.223992) scale(0.1 -0.1)">
      <use xlink:href="#DejaVuSans-31"/>
      <use xlink:href="#DejaVuSans-32" transform="translate(63.623047 0)"/>
      <use xlink:href="#DejaVuSans-30" transform="translate(127.246094 0)"/>
      <use xlink:href="#DejaVuSans-20" transform="translate(190.869141 0)"/>
      <use xlink:href="#DejaVuSans-2103" transform="translate(222.65625 0)"/>
     </g>
    </g>
   </g>
   <g id="legend_2">
    <g id="patch_8">
     <path d="M 44.152 126.194375 
L 116.137938 126.194375 
Q 118.137938 126.194375 118.137938 124.194375 
L 118.137938 81.16 
Q 118.137938 79.16 116.137938 79.16 
L 44.152 79.16 
Q 42.152 79.16 42.152 81.16 
L 42.152 124.194375 
Q 42.152 126.194375 44.152 126.194375 
z
" style="fill: #ffffff; opacity: 0.8; stroke: #cccccc; stroke-linejoin: miter"/>
    </g>
    <g id="line2d_53">
     <path d="M 46.152 87.258438 
L 56.152 87.258438 
L 66.152 87.258438 
" style="fill: none; stroke: #3b4cc0; stroke-width: 1.5; stroke-linecap: square"/>
    </g>
    <g id="text_27">
     <!-- Cold -->
     <g transform="translate(74.152 90.758438) scale(0.1 -0.1)">
      <defs>
       <path id="DejaVuSans-43" d="M 4122 4306 
L 4122 3641 
Q 3803 3938 3442 4084 
Q 3081 4231 2675 4231 
Q 1875 4231 1450 3742 
Q 1025 3253 1025 2328 
Q 1025 1406 1450 917 
Q 1875 428 2675 428 
Q 3081 428 3442 575 
Q 3803 722 4122 1019 
L 4122 359 
Q 3791 134 3420 21 
Q 3050 -91 2638 -91 
Q 1578 -91 968 557 
Q 359 1206 359 2328 
Q 359 3453 968 4101 
Q 1578 4750 2638 4750 
Q 3056 4750 3426 4639 
Q 3797 4528 4122 4306 
z
" transform="scale(0.015625)"/>
       <path id="DejaVuSans-6f" d="M 1959 3097 
Q 1497 3097 1228 2736 
Q 959 2375 959 1747 
Q 959 1119 1226 758 
Q 1494 397 1959 397 
Q 2419 397 2687 759 
Q 2956 1122 2956 1747 
Q 2956 2369 2687 2733 
Q 2419 3097 1959 3097 
z
M 1959 3584 
Q 2709 3584 3137 3096 
Q 3566 2609 3566 1747 
Q 3566 888 3137 398 
Q 2709 -91 1959 -91 
Q 1206 -91 779 398 
Q 353 888 353 1747 
Q 353 2609 779 3096 
Q 1206 3584 1959 3584 
z
" transform="scale(0.015625)"/>
       <path id="DejaVuSans-6c" d="M 603 4863 
L 1178 4863 
L 1178 0 
L 603 0 
L 603 4863 
z
" transform="scale(0.015625)"/>
       <path id="DejaVuSans-64" d="M 2906 2969 
L 2906 4863 
L 3481 4863 
L 3481 0 
L 2906 0 
L 2906 525 
Q 2725 213 2448 61 
Q 2172 -91 1784 -91 
Q 1150 -91 751 415 
Q 353 922 353 1747 
Q 353 2572 751 3078 
Q 1150 3584 1784 3584 
Q 2172 3584 2448 3432 
Q 2725 3281 2906 2969 
z
M 947 1747 
Q 947 1113 1208 752 
Q 1469 391 1925 391 
Q 2381 391 2643 752 
Q 2906 1113 2906 1747 
Q 2906 2381 2643 2742 
Q 2381 3103 1925 3103 
Q 1469 3103 1208 2742 
Q 947 2381 947 1747 
z
" transform="scale(0.015625)"/>
      </defs>
      <use xlink:href="#DejaVuSans-43"/>
      <use xlink:href="#DejaVuSans-6f" transform="translate(69.824219 0)"/>
      <use xlink:href="#DejaVuSans-6c" transform="translate(131.005859 0)"/>
      <use xlink:href="#DejaVuSans-64" transform="translate(158.789062 0)"/>
     </g>
    </g>
    <g id="line2d_54">
     <path d="M 46.152 101.936563 
L 56.152 101.936563 
L 66.152 101.936563 
" style="fill: none; stroke: #e8d6cc; stroke-width: 1.5; stroke-linecap: square"/>
    </g>
    <g id="text_28">
     <!-- Medium -->
     <g transform="translate(74.152 105.436563) scale(0.1 -0.1)">
      <defs>
       <path id="DejaVuSans-4d" d="M 628 4666 
L 1569 4666 
L 2759 1491 
L 3956 4666 
L 4897 4666 
L 4897 0 
L 4281 0 
L 4281 4097 
L 3078 897 
L 2444 897 
L 1241 4097 
L 1241 0 
L 628 0 
L 628 4666 
z
" transform="scale(0.015625)"/>
       <path id="DejaVuSans-65" d="M 3597 1894 
L 3597 1613 
L 953 1613 
Q 991 1019 1311 708 
Q 1631 397 2203 397 
Q 2534 397 2845 478 
Q 3156 559 3463 722 
L 3463 178 
Q 3153 47 2828 -22 
Q 2503 -91 2169 -91 
Q 1331 -91 842 396 
Q 353 884 353 1716 
Q 353 2575 817 3079 
Q 1281 3584 2069 3584 
Q 2775 3584 3186 3129 
Q 3597 2675 3597 1894 
z
M 3022 2063 
Q 3016 2534 2758 2815 
Q 2500 3097 2075 3097 
Q 1594 3097 1305 2825 
Q 1016 2553 972 2059 
L 3022 2063 
z
" transform="scale(0.015625)"/>
       <path id="DejaVuSans-69" d="M 603 3500 
L 1178 3500 
L 1178 0 
L 603 0 
L 603 3500 
z
M 603 4863 
L 1178 4863 
L 1178 4134 
L 603 4134 
L 603 4863 
z
" transform="scale(0.015625)"/>
       <path id="DejaVuSans-75" d="M 544 1381 
L 544 3500 
L 1119 3500 
L 1119 1403 
Q 1119 906 1312 657 
Q 1506 409 1894 409 
Q 2359 409 2629 706 
Q 2900 1003 2900 1516 
L 2900 3500 
L 3475 3500 
L 3475 0 
L 2900 0 
L 2900 538 
Q 2691 219 2414 64 
Q 2138 -91 1772 -91 
Q 1169 -91 856 284 
Q 544 659 544 1381 
z
M 1991 3584 
L 1991 3584 
z
" transform="scale(0.015625)"/>
       <path id="DejaVuSans-6d" d="M 3328 2828 
Q 3544 3216 3844 3400 
Q 4144 3584 4550 3584 
Q 5097 3584 5394 3201 
Q 5691 2819 5691 2113 
L 5691 0 
L 5113 0 
L 5113 2094 
Q 5113 2597 4934 2840 
Q 4756 3084 4391 3084 
Q 3944 3084 3684 2787 
Q 3425 2491 3425 1978 
L 3425 0 
L 2847 0 
L 2847 2094 
Q 2847 2600 2669 2842 
Q 2491 3084 2119 3084 
Q 1678 3084 1418 2786 
Q 1159 2488 1159 1978 
L 1159 0 
L 581 0 
L 581 3500 
L 1159 3500 
L 1159 2956 
Q 1356 3278 1631 3431 
Q 1906 3584 2284 3584 
Q 2666 3584 2933 3390 
Q 3200 3197 3328 2828 
z
" transform="scale(0.015625)"/>
      </defs>
      <use xlink:href="#DejaVuSans-4d"/>
      <use xlink:href="#DejaVuSans-65" transform="translate(86.279297 0)"/>
      <use xlink:href="#DejaVuSans-64" transform="translate(147.802734 0)"/>
      <use xlink:href="#DejaVuSans-69" transform="translate(211.279297 0)"/>
      <use xlink:href="#DejaVuSans-75" transform="translate(239.0625 0)"/>
      <use xlink:href="#DejaVuSans-6d" transform="translate(302.441406 0)"/>
     </g>
    </g>
    <g id="line2d_55">
     <path d="M 46.152 116.614688 
L 56.152 116.614688 
L 66.152 116.614688 
" style="fill: none; stroke: #b40426; stroke-width: 1.5; stroke-linecap: square"/>
    </g>
    <g id="text_29">
     <!-- Hot -->
     <g transform="translate(74.152 120.114688) scale(0.1 -0.1)">
      <defs>
       <path id="DejaVuSans-48" d="M 628 4666 
L 1259 4666 
L 1259 2753 
L 3553 2753 
L 3553 4666 
L 4184 4666 
L 4184 0 
L 3553 0 
L 3553 2222 
L 1259 2222 
L 1259 0 
L 628 0 
L 628 4666 
z
" transform="scale(0.015625)"/>
       <path id="DejaVuSans-74" d="M 1172 4494 
L 1172 3500 
L 2356 3500 
L 2356 3053 
L 1172 3053 
L 1172 1153 
Q 1172 725 1289 603 
Q 1406 481 1766 481 
L 2356 481 
L 2356 0 
L 1766 0 
Q 1100 0 847 248 
Q 594 497 594 1153 
L 594 3053 
L 172 3053 
L 172 3500 
L 594 3500 
L 594 4494 
L 1172 4494 
z
" transform="scale(0.015625)"/>
      </defs>
      <use xlink:href="#DejaVuSans-48"/>
      <use xlink:href="#DejaVuSans-6f" transform="translate(75.195312 0)"/>
      <use xlink:href="#DejaVuSans-74" transform="translate(136.376953 0)"/>
     </g>
    </g>
   </g>
   <g id="legend_3">
    <g id="patch_9">
     <path d="M 301.81664 267.975625 
L 367.313515 267.975625 
Q 369.313515 267.975625 369.313515 265.975625 
L 369.313515 76.16 
Q 369.313515 74.16 367.313515 74.16 
L 301.81664 74.16 
Q 299.81664 74.16 299.81664 76.16 
L 299.81664 265.975625 
Q 299.81664 267.975625 301.81664 267.975625 
z
" style="fill: #ffffff; opacity: 0.8; stroke: #cccccc; stroke-linejoin: miter"/>
    </g>
    <g id="text_30">
     <!-- Curve Temp -->
     <g transform="translate(304.899452 85.758437) scale(0.1 -0.1)">
      <defs>
       <path id="DejaVuSans-72" d="M 2631 2963 
Q 2534 3019 2420 3045 
Q 2306 3072 2169 3072 
Q 1681 3072 1420 2755 
Q 1159 2438 1159 1844 
L 1159 0 
L 581 0 
L 581 3500 
L 1159 3500 
L 1159 2956 
Q 1341 3275 1631 3429 
Q 1922 3584 2338 3584 
Q 2397 3584 2469 3576 
Q 2541 3569 2628 3553 
L 2631 2963 
z
" transform="scale(0.015625)"/>
       <path id="DejaVuSans-76" d="M 191 3500 
L 800 3500 
L 1894 563 
L 2988 3500 
L 3597 3500 
L 2284 0 
L 1503 0 
L 191 3500 
z
" transform="scale(0.015625)"/>
       <path id="DejaVuSans-54" d="M -19 4666 
L 3928 4666 
L 3928 4134 
L 2272 4134 
L 2272 0 
L 1638 0 
L 1638 4134 
L -19 4134 
L -19 4666 
z
" transform="scale(0.015625)"/>
       <path id="DejaVuSans-70" d="M 1159 525 
L 1159 -1331 
L 581 -1331 
L 581 3500 
L 1159 3500 
L 1159 2969 
Q 1341 3281 1617 3432 
Q 1894 3584 2278 3584 
Q 2916 3584 3314 3078 
Q 3713 2572 3713 1747 
Q 3713 922 3314 415 
Q 2916 -91 2278 -91 
Q 1894 -91 1617 61 
Q 1341 213 1159 525 
z
M 3116 1747 
Q 3116 2381 2855 2742 
Q 2594 3103 2138 3103 
Q 1681 3103 1420 2742 
Q 1159 2381 1159 1747 
Q 1159 1113 1420 752 
Q 1681 391 2138 391 
Q 2594 391 2855 752 
Q 3116 1113 3116 1747 
z
" transform="scale(0.015625)"/>
      </defs>
      <use xlink:href="#DejaVuSans-43"/>
      <use xlink:href="#DejaVuSans-75" transform="translate(69.824219 0)"/>
      <use xlink:href="#DejaVuSans-72" transform="translate(133.203125 0)"/>
      <use xlink:href="#DejaVuSans-76" transform="translate(174.316406 0)"/>
      <use xlink:href="#DejaVuSans-65" transform="translate(233.496094 0)"/>
      <use xlink:href="#DejaVuSans-20" transform="translate(295.019531 0)"/>
      <use xlink:href="#DejaVuSans-54" transform="translate(326.806641 0)"/>
      <use xlink:href="#DejaVuSans-65" transform="translate(370.890625 0)"/>
      <use xlink:href="#DejaVuSans-6d" transform="translate(432.414062 0)"/>
      <use xlink:href="#DejaVuSans-70" transform="translate(529.826172 0)"/>
     </g>
    </g>
    <g id="line2d_56">
     <path d="M 303.81664 96.936562 
L 313.81664 96.936562 
L 323.81664 96.936562 
" style="fill: none; stroke: #3b4cc0; stroke-width: 1.5; stroke-linecap: square"/>
    </g>
    <g id="text_31">
     <!-- 10 ℃ -->
     <g transform="translate(331.81664 100.436562) scale(0.1 -0.1)">
      <use xlink:href="#DejaVuSans-31"/>
      <use xlink:href="#DejaVuSans-30" transform="translate(63.623047 0)"/>
      <use xlink:href="#DejaVuSans-20" transform="translate(127.246094 0)"/>
      <use xlink:href="#DejaVuSans-2103" transform="translate(159.033203 0)"/>
     </g>
    </g>
    <g id="line2d_57">
     <path d="M 303.81664 111.614688 
L 313.81664 111.614688 
L 323.81664 111.614688 
" style="fill: none; stroke: #5673e0; stroke-width: 1.5; stroke-linecap: square"/>
    </g>
    <g id="text_32">
     <!-- 20 ℃ -->
     <g transform="translate(331.81664 115.114688) scale(0.1 -0.1)">
      <use xlink:href="#DejaVuSans-32"/>
      <use xlink:href="#DejaVuSans-30" transform="translate(63.623047 0)"/>
      <use xlink:href="#DejaVuSans-20" transform="translate(127.246094 0)"/>
      <use xlink:href="#DejaVuSans-2103" transform="translate(159.033203 0)"/>
     </g>
    </g>
    <g id="line2d_58">
     <path d="M 303.81664 126.292812 
L 313.81664 126.292812 
L 323.81664 126.292812 
" style="fill: none; stroke: #7597f6; stroke-width: 1.5; stroke-linecap: square"/>
    </g>
    <g id="text_33">
     <!-- 30 ℃ -->
     <g transform="translate(331.81664 129.792812) scale(0.1 -0.1)">
      <use xlink:href="#DejaVuSans-33"/>
      <use xlink:href="#DejaVuSans-30" transform="translate(63.623047 0)"/>
      <use xlink:href="#DejaVuSans-20" transform="translate(127.246094 0)"/>
      <use xlink:href="#DejaVuSans-2103" transform="translate(159.033203 0)"/>
     </g>
    </g>
    <g id="line2d_59">
     <path d="M 303.81664 140.970937 
L 313.81664 140.970937 
L 323.81664 140.970937 
" style="fill: none; stroke: #94b6ff; stroke-width: 1.5; stroke-linecap: square"/>
    </g>
    <g id="text_34">
     <!-- 40 ℃ -->
     <g transform="translate(331.81664 144.470937) scale(0.1 -0.1)">
      <use xlink:href="#DejaVuSans-34"/>
      <use xlink:href="#DejaVuSans-30" transform="translate(63.623047 0)"/>
      <use xlink:href="#DejaVuSans-20" transform="translate(127.246094 0)"/>
      <use xlink:href="#DejaVuSans-2103" transform="translate(159.033203 0)"/>
     </g>
    </g>
    <g id="line2d_60">
     <path d="M 303.81664 155.649063 
L 313.81664 155.649063 
L 323.81664 155.649063 
" style="fill: none; stroke: #b5cdfa; stroke-width: 1.5; stroke-linecap: square"/>
    </g>
    <g id="text_35">
     <!-- 50 ℃ -->
     <g transform="translate(331.81664 159.149063) scale(0.1 -0.1)">
      <use xlink:href="#DejaVuSans-35"/>
      <use xlink:href="#DejaVuSans-30" transform="translate(63.623047 0)"/>
      <use xlink:href="#DejaVuSans-20" transform="translate(127.246094 0)"/>
      <use xlink:href="#DejaVuSans-2103" transform="translate(159.033203 0)"/>
     </g>
    </g>
    <g id="line2d_61">
     <path d="M 303.81664 170.327187 
L 313.81664 170.327187 
L 323.81664 170.327187 
" style="fill: none; stroke: #d1dae9; stroke-width: 1.5; stroke-linecap: square"/>
    </g>
    <g id="text_36">
     <!-- 60 ℃ -->
     <g transform="translate(331.81664 173.827187) scale(0.1 -0.1)">
      <use xlink:href="#DejaVuSans-36"/>
      <use xlink:href="#DejaVuSans-30" transform="translate(63.623047 0)"/>
      <use xlink:href="#DejaVuSans-20" transform="translate(127.246094 0)"/>
      <use xlink:href="#DejaVuSans-2103" transform="translate(159.033203 0)"/>
     </g>
    </g>
    <g id="line2d_62">
     <path d="M 303.81664 185.005313 
L 313.81664 185.005313 
L 323.81664 185.005313 
" style="fill: none; stroke: #e8d6cc; stroke-width: 1.5; stroke-linecap: square"/>
    </g>
    <g id="text_37">
     <!-- 70 ℃ -->
     <g transform="translate(331.81664 188.505313) scale(0.1 -0.1)">
      <use xlink:href="#DejaVuSans-37"/>
      <use xlink:href="#DejaVuSans-30" transform="translate(63.623047 0)"/>
      <use xlink:href="#DejaVuSans-20" transform="translate(127.246094 0)"/>
      <use xlink:href="#DejaVuSans-2103" transform="translate(159.033203 0)"/>
     </g>
    </g>
    <g id="line2d_63">
     <path d="M 303.81664 199.683437 
L 313.81664 199.683437 
L 323.81664 199.683437 
" style="fill: none; stroke: #f5c1a9; stroke-width: 1.5; stroke-linecap: square"/>
    </g>
    <g id="text_38">
     <!-- 80 ℃ -->
     <g transform="translate(331.81664 203.183437) scale(0.1 -0.1)">
      <use xlink:href="#DejaVuSans-38"/>
      <use xlink:href="#DejaVuSans-30" transform="translate(63.623047 0)"/>
      <use xlink:href="#DejaVuSans-20" transform="translate(127.246094 0)"/>
      <use xlink:href="#DejaVuSans-2103" transform="translate(159.033203 0)"/>
     </g>
    </g>
    <g id="line2d_64">
     <path d="M 303.81664 214.361562 
L 313.81664 214.361562 
L 323.81664 214.361562 
" style="fill: none; stroke: #f6a283; stroke-width: 1.5; stroke-linecap: square"/>
    </g>
    <g id="text_39">
     <!-- 90 ℃ -->
     <g transform="translate(331.81664 217.861562) scale(0.1 -0.1)">
      <use xlink:href="#DejaVuSans-39"/>
      <use xlink:href="#DejaVuSans-30" transform="translate(63.623047 0)"/>
      <use xlink:href="#DejaVuSans-20" transform="translate(127.246094 0)"/>
      <use xlink:href="#DejaVuSans-2103" transform="translate(159.033203 0)"/>
     </g>
    </g>
    <g id="line2d_65">
     <path d="M 303.81664 229.039687 
L 313.81664 229.039687 
L 323.81664 229.039687 
" style="fill: none; stroke: #ea7b60; stroke-width: 1.5; stroke-linecap: square"/>
    </g>
    <g id="text_40">
     <!-- 100 ℃ -->
     <g transform="translate(331.81664 232.539687) scale(0.1 -0.1)">
      <use xlink:href="#DejaVuSans-31"/>
      <use xlink:href="#DejaVuSans-30" transform="translate(63.623047 0)"/>
      <use xlink:href="#DejaVuSans-30" transform="translate(127.246094 0)"/>
      <use xlink:href="#DejaVuSans-20" transform="translate(190.869141 0)"/>
      <use xlink:href="#DejaVuSans-2103" transform="translate(222.65625 0)"/>
     </g>
    </g>
    <g id="line2d_66">
     <path d="M 303.81664 243.717812 
L 313.81664 243.717812 
L 323.81664 243.717812 
" style="fill: none; stroke: #d44e41; stroke-width: 1.5; stroke-linecap: square"/>
    </g>
    <g id="text_41">
     <!-- 110 ℃ -->
     <g transform="translate(331.81664 247.217812) scale(0.1 -0.1)">
      <use xlink:href="#DejaVuSans-31"/>
      <use xlink:href="#DejaVuSans-31" transform="translate(63.623047 0)"/>
      <use xlink:href="#DejaVuSans-30" transform="translate(127.246094 0)"/>
      <use xlink:href="#DejaVuSans-20" transform="translate(190.869141 0)"/>
      <use xlink:href="#DejaVuSans-2103" transform="translate(222.65625 0)"/>
     </g>
    </g>
    <g id="line2d_67">
     <path d="M 303.81664 258.395937 
L 313.81664 258.395937 
L 323.81664 258.395937 
" style="fill: none; stroke: #b40426; stroke-width: 1.5; stroke-linecap: square"/>
    </g>
    <g id="text_42">
     <!-- 120 ℃ -->
     <g transform="translate(331.81664 261.895937) scale(0.1 -0.1)">
      <use xlink:href="#DejaVuSans-31"/>
      <use xlink:href="#DejaVuSans-32" transform="translate(63.623047 0)"/>
      <use xlink:href="#DejaVuSans-30" transform="translate(127.246094 0)"/>
      <use xlink:href="#DejaVuSans-20" transform="translate(190.869141 0)"/>
      <use xlink:href="#DejaVuSans-2103" transform="translate(222.65625 0)"/>
     </g>
    </g>
   </g>
  </g>
 </g>
 <defs>
  <clipPath id="p05bba19706">
   <rect x="37.152" y="74.16" width="260.064" height="192.816"/>
  </clipPath>
 </defs>
</svg>
