<?xml version="1.0" encoding="utf-8" standalone="no"?>
<!DOCTYPE svg PUBLIC "-//W3C//DTD SVG 1.1//EN"
  "http://www.w3.org/Graphics/SVG/1.1/DTD/svg11.dtd">
<svg xmlns:xlink="http://www.w3.org/1999/xlink" width="504pt" height="576pt" viewBox="0 0 504 576" xmlns="http://www.w3.org/2000/svg" version="1.1">
 <metadata>
  <rdf:RDF xmlns:dc="http://purl.org/dc/elements/1.1/" xmlns:cc="http://creativecommons.org/ns#" xmlns:rdf="http://www.w3.org/1999/02/22-rdf-syntax-ns#">
   <cc:Work>
    <dc:type rdf:resource="http://purl.org/dc/dcmitype/StillImage"/>
    <dc:date>2026-07-03T09:42:41.770380</dc:date>
    <dc:format>image/svg+xml</dc:format>
    <dc:creator>
     <cc:Agent>
      <dc:title>Matplotlib v3.10.3, https://matplotlib.org/</dc:title>
     </cc:Agent>
    </dc:creator>
   </cc:Work>
  </rdf:RDF>
 </metadata>
 <defs>
  <style type="text/css">*{stroke-linejoin: round; stroke-linecap: butt}</style>
 </defs>
 <g id="figure_1">
  <g id="patch_1">
   <path d="M 0 576 
L 504 576 
L 504 0 
L 0 0 
z
" style="fill: #ffffff"/>
  </g>
  <g id="axes_1">
   <g id="patch_2">
    <path d="M 134.22274 151.559062 
L 500.99976 151.559062 
L 500.99976 18.118365 
L 134.22274 18.118365 
z
" style="fill: #ffffff"/>
   </g>
   <g id="matplotlib.axis_1">
    <g id="xtick_1"/>
    <g id="xtick_2"/>
    <g id="xtick_3"/>
    <g id="xtick_4"/>
    <g id="xtick_5"/>
    <g id="xtick_6"/>
   </g>
   <g id="matplotlib.axis_2">
    <g id="ytick_1">
     <g id="text_1">
      <!-- dashdot -->
      <g transform="translate(86.811802 138.678194) scale(0.1 -0.1)">
       <defs>
        <path id="DejaVuSans-64" d="M 2906 2969 
L 2906 4863 
L 3481 4863 
L 3481 0 
L 2906 0 
L 2906 525 
Q 2725 213 2448 61 
Q 2172 -91 1784 -91 
Q 1150 -91 751 415 
Q 353 922 353 1747 
Q 353 2572 751 3078 
Q 1150 3584 1784 3584 
Q 2172 3584 2448 3432 
Q 2725 3281 2906 2969 
z
M 947 1747 
Q 947 1113 1208 752 
Q 1469 391 1925 391 
Q 2381 391 2643 752 
Q 2906 1113 2906 1747 
Q 2906 2381 2643 2742 
Q 2381 3103 1925 3103 
Q 1469 3103 1208 2742 
Q 947 2381 947 1747 
z
" transform="scale(0.015625)"/>
        <path id="DejaVuSans-61" d="M 2194 1759 
Q 1497 1759 1228 1600 
Q 959 1441 959 1056 
Q 959 750 1161 570 
Q 1363 391 1709 391 
Q 2188 391 2477 730 
Q 2766 1069 2766 1631 
L 2766 1759 
L 2194 1759 
z
M 3341 1997 
L 3341 0 
L 2766 0 
L 2766 531 
Q 2569 213 2275 61 
Q 1981 -91 1556 -91 
Q 1019 -91 701 211 
Q 384 513 384 1019 
Q 384 1609 779 1909 
Q 1175 2209 1959 2209 
L 2766 2209 
L 2766 2266 
Q 2766 2663 2505 2880 
Q 2244 3097 1772 3097 
Q 1472 3097 1187 3025 
Q 903 2953 641 2809 
L 641 3341 
Q 956 3463 1253 3523 
Q 1550 3584 1831 3584 
Q 2591 3584 2966 3190 
Q 3341 2797 3341 1997 
z
" transform="scale(0.015625)"/>
        <path id="DejaVuSans-73" d="M 2834 3397 
L 2834 2853 
Q 2591 2978 2328 3040 
Q 2066 3103 1784 3103 
Q 1356 3103 1142 2972 
Q 928 2841 928 2578 
Q 928 2378 1081 2264 
Q 1234 2150 1697 2047 
L 1894 2003 
Q 2506 1872 2764 1633 
Q 3022 1394 3022 966 
Q 3022 478 2636 193 
Q 2250 -91 1575 -91 
Q 1294 -91 989 -36 
Q 684 19 347 128 
L 347 722 
Q 666 556 975 473 
Q 1284 391 1588 391 
Q 1994 391 2212 530 
Q 2431 669 2431 922 
Q 2431 1156 2273 1281 
Q 2116 1406 1581 1522 
L 1381 1569 
Q 847 1681 609 1914 
Q 372 2147 372 2553 
Q 372 3047 722 3315 
Q 1072 3584 1716 3584 
Q 2034 3584 2315 3537 
Q 2597 3491 2834 3397 
z
" transform="scale(0.015625)"/>
        <path id="DejaVuSans-68" d="M 3513 2113 
L 3513 0 
L 2938 0 
L 2938 2094 
Q 2938 2591 2744 2837 
Q 2550 3084 2163 3084 
Q 1697 3084 1428 2787 
Q 1159 2491 1159 1978 
L 1159 0 
L 581 0 
L 581 4863 
L 1159 4863 
L 1159 2956 
Q 1366 3272 1645 3428 
Q 1925 3584 2291 3584 
Q 2894 3584 3203 3211 
Q 3513 2838 3513 2113 
z
" transform="scale(0.015625)"/>
        <path id="DejaVuSans-6f" d="M 1959 3097 
Q 1497 3097 1228 2736 
Q 959 2375 959 1747 
Q 959 1119 1226 758 
Q 1494 397 1959 397 
Q 2419 397 2687 759 
Q 2956 1122 2956 1747 
Q 2956 2369 2687 2733 
Q 2419 3097 1959 3097 
z
M 1959 3584 
Q 2709 3584 3137 3096 
Q 3566 2609 3566 1747 
Q 3566 888 3137 398 
Q 2709 -91 1959 -91 
Q 1206 -91 779 398 
Q 353 888 353 1747 
Q 353 2609 779 3096 
Q 1206 3584 1959 3584 
z
" transform="scale(0.015625)"/>
        <path id="DejaVuSans-74" d="M 1172 4494 
L 1172 3500 
L 2356 3500 
L 2356 3053 
L 1172 3053 
L 1172 1153 
Q 1172 725 1289 603 
Q 1406 481 1766 481 
L 2356 481 
L 2356 0 
L 1766 0 
Q 1100 0 847 248 
Q 594 497 594 1153 
L 594 3053 
L 172 3053 
L 172 3500 
L 594 3500 
L 594 4494 
L 1172 4494 
z
" transform="scale(0.015625)"/>
       </defs>
       <use xlink:href="#DejaVuSans-64"/>
       <use xlink:href="#DejaVuSans-61" transform="translate(63.476562 0)"/>
       <use xlink:href="#DejaVuSans-73" transform="translate(124.755859 0)"/>
       <use xlink:href="#DejaVuSans-68" transform="translate(176.855469 0)"/>
       <use xlink:href="#DejaVuSans-64" transform="translate(240.234375 0)"/>
       <use xlink:href="#DejaVuSans-6f" transform="translate(303.710938 0)"/>
       <use xlink:href="#DejaVuSans-74" transform="translate(364.892578 0)"/>
      </g>
     </g>
    </g>
    <g id="ytick_2">
     <g id="text_2">
      <!-- dashed -->
      <g transform="translate(90.69774 105.31802) scale(0.1 -0.1)">
       <defs>
        <path id="DejaVuSans-65" d="M 3597 1894 
L 3597 1613 
L 953 1613 
Q 991 1019 1311 708 
Q 1631 397 2203 397 
Q 2534 397 2845 478 
Q 3156 559 3463 722 
L 3463 178 
Q 3153 47 2828 -22 
Q 2503 -91 2169 -91 
Q 1331 -91 842 396 
Q 353 884 353 1716 
Q 353 2575 817 3079 
Q 1281 3584 2069 3584 
Q 2775 3584 3186 3129 
Q 3597 2675 3597 1894 
z
M 3022 2063 
Q 3016 2534 2758 2815 
Q 2500 3097 2075 3097 
Q 1594 3097 1305 2825 
Q 1016 2553 972 2059 
L 3022 2063 
z
" transform="scale(0.015625)"/>
       </defs>
       <use xlink:href="#DejaVuSans-64"/>
       <use xlink:href="#DejaVuSans-61" transform="translate(63.476562 0)"/>
       <use xlink:href="#DejaVuSans-73" transform="translate(124.755859 0)"/>
       <use xlink:href="#DejaVuSans-68" transform="translate(176.855469 0)"/>
       <use xlink:href="#DejaVuSans-65" transform="translate(240.234375 0)"/>
       <use xlink:href="#DejaVuSans-64" transform="translate(301.757812 0)"/>
      </g>
     </g>
    </g>
    <g id="ytick_3">
     <g id="text_3">
      <!-- dotted -->
      <g transform="translate(94.413365 71.957845) scale(0.1 -0.1)">
       <use xlink:href="#DejaVuSans-64"/>
       <use xlink:href="#DejaVuSans-6f" transform="translate(63.476562 0)"/>
       <use xlink:href="#DejaVuSans-74" transform="translate(124.658203 0)"/>
       <use xlink:href="#DejaVuSans-74" transform="translate(163.867188 0)"/>
       <use xlink:href="#DejaVuSans-65" transform="translate(203.076172 0)"/>
       <use xlink:href="#DejaVuSans-64" transform="translate(264.599609 0)"/>
      </g>
     </g>
    </g>
    <g id="ytick_4">
     <g id="text_4">
      <!-- solid -->
      <g transform="translate(103.989927 38.597671) scale(0.1 -0.1)">
       <defs>
        <path id="DejaVuSans-6c" d="M 603 4863 
L 1178 4863 
L 1178 0 
L 603 0 
L 603 4863 
z
" transform="scale(0.015625)"/>
        <path id="DejaVuSans-69" d="M 603 3500 
L 1178 3500 
L 1178 0 
L 603 0 
L 603 3500 
z
M 603 4863 
L 1178 4863 
L 1178 4134 
L 603 4134 
L 603 4863 
z
" transform="scale(0.015625)"/>
       </defs>
       <use xlink:href="#DejaVuSans-73"/>
       <use xlink:href="#DejaVuSans-6f" transform="translate(52.099609 0)"/>
       <use xlink:href="#DejaVuSans-6c" transform="translate(113.28125 0)"/>
       <use xlink:href="#DejaVuSans-69" transform="translate(141.064453 0)"/>
       <use xlink:href="#DejaVuSans-64" transform="translate(168.847656 0)"/>
      </g>
     </g>
    </g>
   </g>
   <g id="line2d_1">
    <path d="M 150.894423 134.878975 
L 187.942607 134.878975 
L 224.99079 134.878975 
L 262.038974 134.878975 
L 299.087158 134.878975 
L 336.135342 134.878975 
L 373.183526 134.878975 
L 410.23171 134.878975 
L 447.279893 134.878975 
L 484.328077 134.878975 
" clip-path="url(#p800d199da2)" style="fill: none; stroke-dasharray: 9.6,2.4,1.5,2.4; stroke-dashoffset: 0; stroke: #000000; stroke-width: 1.5"/>
   </g>
   <g id="line2d_2">
    <path d="M 150.894423 101.518801 
L 187.942607 101.518801 
L 224.99079 101.518801 
L 262.038974 101.518801 
L 299.087158 101.518801 
L 336.135342 101.518801 
L 373.183526 101.518801 
L 410.23171 101.518801 
L 447.279893 101.518801 
L 484.328077 101.518801 
" clip-path="url(#p800d199da2)" style="fill: none; stroke-dasharray: 5.55,2.4; stroke-dashoffset: 0; stroke: #000000; stroke-width: 1.5"/>
   </g>
   <g id="line2d_3">
    <path d="M 150.894423 68.158627 
L 187.942607 68.158627 
L 224.99079 68.158627 
L 262.038974 68.158627 
L 299.087158 68.158627 
L 336.135342 68.158627 
L 373.183526 68.158627 
L 410.23171 68.158627 
L 447.279893 68.158627 
L 484.328077 68.158627 
" clip-path="url(#p800d199da2)" style="fill: none; stroke-dasharray: 1.5,2.475; stroke-dashoffset: 0; stroke: #000000; stroke-width: 1.5"/>
   </g>
   <g id="line2d_4">
    <path d="M 150.894423 34.798452 
L 187.942607 34.798452 
L 224.99079 34.798452 
L 262.038974 34.798452 
L 299.087158 34.798452 
L 336.135342 34.798452 
L 373.183526 34.798452 
L 410.23171 34.798452 
L 447.279893 34.798452 
L 484.328077 34.798452 
" clip-path="url(#p800d199da2)" style="fill: none; stroke: #000000; stroke-width: 1.5; stroke-linecap: square"/>
   </g>
   <g id="text_5">
    <!-- 'dashdot' -->
    <g style="fill: #0000ff" transform="translate(84.87649 146.878975) scale(0.08 -0.08)">
     <defs>
      <path id="DejaVuSansMono-27" d="M 2194 4666 
L 2194 2931 
L 1650 2931 
L 1650 4666 
L 2194 4666 
z
" transform="scale(0.015625)"/>
      <path id="DejaVuSansMono-64" d="M 2681 3053 
L 2681 4863 
L 3256 4863 
L 3256 0 
L 2681 0 
L 2681 441 
Q 2538 181 2298 45 
Q 2059 -91 1747 -91 
Q 1113 -91 748 401 
Q 384 894 384 1759 
Q 384 2613 750 3098 
Q 1116 3584 1747 3584 
Q 2063 3584 2303 3448 
Q 2544 3313 2681 3053 
z
M 991 1747 
Q 991 1078 1203 737 
Q 1416 397 1831 397 
Q 2247 397 2464 740 
Q 2681 1084 2681 1747 
Q 2681 2413 2464 2755 
Q 2247 3097 1831 3097 
Q 1416 3097 1203 2756 
Q 991 2416 991 1747 
z
" transform="scale(0.015625)"/>
      <path id="DejaVuSansMono-61" d="M 2194 1759 
L 2003 1759 
Q 1500 1759 1245 1582 
Q 991 1406 991 1056 
Q 991 741 1181 566 
Q 1372 391 1709 391 
Q 2184 391 2456 720 
Q 2728 1050 2731 1631 
L 2731 1759 
L 2194 1759 
z
M 3309 1997 
L 3309 0 
L 2731 0 
L 2731 519 
Q 2547 206 2267 57 
Q 1988 -91 1588 -91 
Q 1053 -91 734 211 
Q 416 513 416 1019 
Q 416 1603 808 1906 
Q 1200 2209 1959 2209 
L 2731 2209 
L 2731 2300 
Q 2728 2719 2518 2908 
Q 2309 3097 1850 3097 
Q 1556 3097 1256 3012 
Q 956 2928 672 2766 
L 672 3341 
Q 991 3463 1283 3523 
Q 1575 3584 1850 3584 
Q 2284 3584 2592 3456 
Q 2900 3328 3091 3072 
Q 3209 2916 3259 2686 
Q 3309 2456 3309 1997 
z
" transform="scale(0.015625)"/>
      <path id="DejaVuSansMono-73" d="M 3041 3378 
L 3041 2816 
Q 2794 2959 2544 3031 
Q 2294 3103 2034 3103 
Q 1644 3103 1451 2976 
Q 1259 2850 1259 2591 
Q 1259 2356 1403 2240 
Q 1547 2125 2119 2016 
L 2350 1972 
Q 2778 1891 2998 1647 
Q 3219 1403 3219 1013 
Q 3219 494 2850 201 
Q 2481 -91 1825 -91 
Q 1566 -91 1281 -36 
Q 997 19 666 128 
L 666 722 
Q 988 556 1281 473 
Q 1575 391 1838 391 
Q 2219 391 2428 545 
Q 2638 700 2638 978 
Q 2638 1378 1872 1531 
L 1847 1538 
L 1631 1581 
Q 1134 1678 906 1908 
Q 678 2138 678 2534 
Q 678 3038 1018 3311 
Q 1359 3584 1991 3584 
Q 2272 3584 2531 3532 
Q 2791 3481 3041 3378 
z
" transform="scale(0.015625)"/>
      <path id="DejaVuSansMono-68" d="M 3284 2169 
L 3284 0 
L 2706 0 
L 2706 2169 
Q 2706 2641 2540 2862 
Q 2375 3084 2022 3084 
Q 1619 3084 1401 2798 
Q 1184 2513 1184 1978 
L 1184 0 
L 609 0 
L 609 4863 
L 1184 4863 
L 1184 2975 
Q 1338 3275 1600 3429 
Q 1863 3584 2222 3584 
Q 2756 3584 3020 3232 
Q 3284 2881 3284 2169 
z
" transform="scale(0.015625)"/>
      <path id="DejaVuSansMono-6f" d="M 1925 3097 
Q 1488 3097 1263 2756 
Q 1038 2416 1038 1747 
Q 1038 1081 1263 739 
Q 1488 397 1925 397 
Q 2366 397 2591 739 
Q 2816 1081 2816 1747 
Q 2816 2416 2591 2756 
Q 2366 3097 1925 3097 
z
M 1925 3584 
Q 2653 3584 3039 3112 
Q 3425 2641 3425 1747 
Q 3425 850 3040 379 
Q 2656 -91 1925 -91 
Q 1197 -91 812 379 
Q 428 850 428 1747 
Q 428 2641 812 3112 
Q 1197 3584 1925 3584 
z
" transform="scale(0.015625)"/>
      <path id="DejaVuSansMono-74" d="M 1919 4494 
L 1919 3500 
L 3225 3500 
L 3225 3053 
L 1919 3053 
L 1919 1153 
Q 1919 766 2066 612 
Q 2213 459 2578 459 
L 3225 459 
L 3225 0 
L 2522 0 
Q 1875 0 1609 259 
Q 1344 519 1344 1153 
L 1344 3053 
L 409 3053 
L 409 3500 
L 1344 3500 
L 1344 4494 
L 1919 4494 
z
" transform="scale(0.015625)"/>
     </defs>
     <use xlink:href="#DejaVuSansMono-27"/>
     <use xlink:href="#DejaVuSansMono-64" transform="translate(60.205078 0)"/>
     <use xlink:href="#DejaVuSansMono-61" transform="translate(120.410156 0)"/>
     <use xlink:href="#DejaVuSansMono-73" transform="translate(180.615234 0)"/>
     <use xlink:href="#DejaVuSansMono-68" transform="translate(240.820312 0)"/>
     <use xlink:href="#DejaVuSansMono-64" transform="translate(301.025391 0)"/>
     <use xlink:href="#DejaVuSansMono-6f" transform="translate(361.230469 0)"/>
     <use xlink:href="#DejaVuSansMono-74" transform="translate(421.435547 0)"/>
     <use xlink:href="#DejaVuSansMono-27" transform="translate(481.640625 0)"/>
    </g>
   </g>
   <g id="text_6">
    <!-- 'dashed' -->
    <g style="fill: #0000ff" transform="translate(89.69274 113.518801) scale(0.08 -0.08)">
     <defs>
      <path id="DejaVuSansMono-65" d="M 3475 1894 
L 3475 1613 
L 984 1613 
L 984 1594 
Q 984 1022 1282 709 
Q 1581 397 2125 397 
Q 2400 397 2700 484 
Q 3000 572 3341 750 
L 3341 178 
Q 3013 44 2708 -23 
Q 2403 -91 2119 -91 
Q 1303 -91 843 398 
Q 384 888 384 1747 
Q 384 2584 834 3084 
Q 1284 3584 2034 3584 
Q 2703 3584 3089 3131 
Q 3475 2678 3475 1894 
z
M 2900 2063 
Q 2888 2569 2661 2833 
Q 2434 3097 2009 3097 
Q 1594 3097 1325 2822 
Q 1056 2547 1006 2059 
L 2900 2063 
z
" transform="scale(0.015625)"/>
     </defs>
     <use xlink:href="#DejaVuSansMono-27"/>
     <use xlink:href="#DejaVuSansMono-64" transform="translate(60.205078 0)"/>
     <use xlink:href="#DejaVuSansMono-61" transform="translate(120.410156 0)"/>
     <use xlink:href="#DejaVuSansMono-73" transform="translate(180.615234 0)"/>
     <use xlink:href="#DejaVuSansMono-68" transform="translate(240.820312 0)"/>
     <use xlink:href="#DejaVuSansMono-65" transform="translate(301.025391 0)"/>
     <use xlink:href="#DejaVuSansMono-64" transform="translate(361.230469 0)"/>
     <use xlink:href="#DejaVuSansMono-27" transform="translate(421.435547 0)"/>
    </g>
   </g>
   <g id="text_7">
    <!-- 'dotted' -->
    <g style="fill: #0000ff" transform="translate(89.69274 80.158627) scale(0.08 -0.08)">
     <use xlink:href="#DejaVuSansMono-27"/>
     <use xlink:href="#DejaVuSansMono-64" transform="translate(60.205078 0)"/>
     <use xlink:href="#DejaVuSansMono-6f" transform="translate(120.410156 0)"/>
     <use xlink:href="#DejaVuSansMono-74" transform="translate(180.615234 0)"/>
     <use xlink:href="#DejaVuSansMono-74" transform="translate(240.820312 0)"/>
     <use xlink:href="#DejaVuSansMono-65" transform="translate(301.025391 0)"/>
     <use xlink:href="#DejaVuSansMono-64" transform="translate(361.230469 0)"/>
     <use xlink:href="#DejaVuSansMono-27" transform="translate(421.435547 0)"/>
    </g>
   </g>
   <g id="text_8">
    <!-- 'solid' -->
    <g style="fill: #0000ff" transform="translate(94.50899 46.798452) scale(0.08 -0.08)">
     <defs>
      <path id="DejaVuSansMono-6c" d="M 1997 1269 
Q 1997 881 2139 684 
Q 2281 488 2559 488 
L 3231 488 
L 3231 0 
L 2503 0 
Q 1988 0 1705 331 
Q 1422 663 1422 1269 
L 1422 4447 
L 500 4447 
L 500 4897 
L 1997 4897 
L 1997 1269 
z
" transform="scale(0.015625)"/>
      <path id="DejaVuSansMono-69" d="M 800 3500 
L 2272 3500 
L 2272 447 
L 3413 447 
L 3413 0 
L 556 0 
L 556 447 
L 1697 447 
L 1697 3053 
L 800 3053 
L 800 3500 
z
M 1697 4863 
L 2272 4863 
L 2272 4134 
L 1697 4134 
L 1697 4863 
z
" transform="scale(0.015625)"/>
     </defs>
     <use xlink:href="#DejaVuSansMono-27"/>
     <use xlink:href="#DejaVuSansMono-73" transform="translate(60.205078 0)"/>
     <use xlink:href="#DejaVuSansMono-6f" transform="translate(120.410156 0)"/>
     <use xlink:href="#DejaVuSansMono-6c" transform="translate(180.615234 0)"/>
     <use xlink:href="#DejaVuSansMono-69" transform="translate(240.820312 0)"/>
     <use xlink:href="#DejaVuSansMono-64" transform="translate(301.025391 0)"/>
     <use xlink:href="#DejaVuSansMono-27" transform="translate(361.230469 0)"/>
    </g>
   </g>
   <g id="text_9">
    <!-- Named linestyles -->
    <g transform="translate(265.851875 12.118365) scale(0.12 -0.12)">
     <defs>
      <path id="DejaVuSans-4e" d="M 628 4666 
L 1478 4666 
L 3547 763 
L 3547 4666 
L 4159 4666 
L 4159 0 
L 3309 0 
L 1241 3903 
L 1241 0 
L 628 0 
L 628 4666 
z
" transform="scale(0.015625)"/>
      <path id="DejaVuSans-6d" d="M 3328 2828 
Q 3544 3216 3844 3400 
Q 4144 3584 4550 3584 
Q 5097 3584 5394 3201 
Q 5691 2819 5691 2113 
L 5691 0 
L 5113 0 
L 5113 2094 
Q 5113 2597 4934 2840 
Q 4756 3084 4391 3084 
Q 3944 3084 3684 2787 
Q 3425 2491 3425 1978 
L 3425 0 
L 2847 0 
L 2847 2094 
Q 2847 2600 2669 2842 
Q 2491 3084 2119 3084 
Q 1678 3084 1418 2786 
Q 1159 2488 1159 1978 
L 1159 0 
L 581 0 
L 581 3500 
L 1159 3500 
L 1159 2956 
Q 1356 3278 1631 3431 
Q 1906 3584 2284 3584 
Q 2666 3584 2933 3390 
Q 3200 3197 3328 2828 
z
" transform="scale(0.015625)"/>
      <path id="DejaVuSans-20" transform="scale(0.015625)"/>
      <path id="DejaVuSans-6e" d="M 3513 2113 
L 3513 0 
L 2938 0 
L 2938 2094 
Q 2938 2591 2744 2837 
Q 2550 3084 2163 3084 
Q 1697 3084 1428 2787 
Q 1159 2491 1159 1978 
L 1159 0 
L 581 0 
L 581 3500 
L 1159 3500 
L 1159 2956 
Q 1366 3272 1645 3428 
Q 1925 3584 2291 3584 
Q 2894 3584 3203 3211 
Q 3513 2838 3513 2113 
z
" transform="scale(0.015625)"/>
      <path id="DejaVuSans-79" d="M 2059 -325 
Q 1816 -950 1584 -1140 
Q 1353 -1331 966 -1331 
L 506 -1331 
L 506 -850 
L 844 -850 
Q 1081 -850 1212 -737 
Q 1344 -625 1503 -206 
L 1606 56 
L 191 3500 
L 800 3500 
L 1894 763 
L 2988 3500 
L 3597 3500 
L 2059 -325 
z
" transform="scale(0.015625)"/>
     </defs>
     <use xlink:href="#DejaVuSans-4e"/>
     <use xlink:href="#DejaVuSans-61" transform="translate(74.804688 0)"/>
     <use xlink:href="#DejaVuSans-6d" transform="translate(136.083984 0)"/>
     <use xlink:href="#DejaVuSans-65" transform="translate(233.496094 0)"/>
     <use xlink:href="#DejaVuSans-64" transform="translate(295.019531 0)"/>
     <use xlink:href="#DejaVuSans-20" transform="translate(358.496094 0)"/>
     <use xlink:href="#DejaVuSans-6c" transform="translate(390.283203 0)"/>
     <use xlink:href="#DejaVuSans-69" transform="translate(418.066406 0)"/>
     <use xlink:href="#DejaVuSans-6e" transform="translate(445.849609 0)"/>
     <use xlink:href="#DejaVuSans-65" transform="translate(509.228516 0)"/>
     <use xlink:href="#DejaVuSans-73" transform="translate(570.751953 0)"/>
     <use xlink:href="#DejaVuSans-74" transform="translate(622.851562 0)"/>
     <use xlink:href="#DejaVuSans-79" transform="translate(662.060547 0)"/>
     <use xlink:href="#DejaVuSans-6c" transform="translate(721.240234 0)"/>
     <use xlink:href="#DejaVuSans-65" transform="translate(749.023438 0)"/>
     <use xlink:href="#DejaVuSans-73" transform="translate(810.546875 0)"/>
    </g>
   </g>
  </g>
  <g id="axes_2">
   <g id="patch_3">
    <path d="M 134.22274 572.99976 
L 500.99976 572.99976 
L 500.99976 172.677667 
L 134.22274 172.677667 
z
" style="fill: #ffffff"/>
   </g>
   <g id="matplotlib.axis_3">
    <g id="xtick_7"/>
    <g id="xtick_8"/>
    <g id="xtick_9"/>
    <g id="xtick_10"/>
    <g id="xtick_11"/>
    <g id="xtick_12"/>
   </g>
   <g id="matplotlib.axis_4">
    <g id="ytick_5">
     <g id="text_10">
      <!-- densely dashdotdotted -->
      <g transform="translate(11.925865 561.401975) scale(0.1 -0.1)">
       <use xlink:href="#DejaVuSans-64"/>
       <use xlink:href="#DejaVuSans-65" transform="translate(63.476562 0)"/>
       <use xlink:href="#DejaVuSans-6e" transform="translate(125 0)"/>
       <use xlink:href="#DejaVuSans-73" transform="translate(188.378906 0)"/>
       <use xlink:href="#DejaVuSans-65" transform="translate(240.478516 0)"/>
       <use xlink:href="#DejaVuSans-6c" transform="translate(302.001953 0)"/>
       <use xlink:href="#DejaVuSans-79" transform="translate(329.785156 0)"/>
       <use xlink:href="#DejaVuSans-20" transform="translate(388.964844 0)"/>
       <use xlink:href="#DejaVuSans-64" transform="translate(420.751953 0)"/>
       <use xlink:href="#DejaVuSans-61" transform="translate(484.228516 0)"/>
       <use xlink:href="#DejaVuSans-73" transform="translate(545.507812 0)"/>
       <use xlink:href="#DejaVuSans-68" transform="translate(597.607422 0)"/>
       <use xlink:href="#DejaVuSans-64" transform="translate(660.986328 0)"/>
       <use xlink:href="#DejaVuSans-6f" transform="translate(724.462891 0)"/>
       <use xlink:href="#DejaVuSans-74" transform="translate(785.644531 0)"/>
       <use xlink:href="#DejaVuSans-64" transform="translate(824.853516 0)"/>
       <use xlink:href="#DejaVuSans-6f" transform="translate(888.330078 0)"/>
       <use xlink:href="#DejaVuSans-74" transform="translate(949.511719 0)"/>
       <use xlink:href="#DejaVuSans-74" transform="translate(988.720703 0)"/>
       <use xlink:href="#DejaVuSans-65" transform="translate(1027.929688 0)"/>
       <use xlink:href="#DejaVuSans-64" transform="translate(1089.453125 0)"/>
      </g>
     </g>
    </g>
    <g id="ytick_6">
     <g id="text_11">
      <!-- loosely dashdotdotted -->
      <g transform="translate(15.749302 530.607968) scale(0.1 -0.1)">
       <use xlink:href="#DejaVuSans-6c"/>
       <use xlink:href="#DejaVuSans-6f" transform="translate(27.783203 0)"/>
       <use xlink:href="#DejaVuSans-6f" transform="translate(88.964844 0)"/>
       <use xlink:href="#DejaVuSans-73" transform="translate(150.146484 0)"/>
       <use xlink:href="#DejaVuSans-65" transform="translate(202.246094 0)"/>
       <use xlink:href="#DejaVuSans-6c" transform="translate(263.769531 0)"/>
       <use xlink:href="#DejaVuSans-79" transform="translate(291.552734 0)"/>
       <use xlink:href="#DejaVuSans-20" transform="translate(350.732422 0)"/>
       <use xlink:href="#DejaVuSans-64" transform="translate(382.519531 0)"/>
       <use xlink:href="#DejaVuSans-61" transform="translate(445.996094 0)"/>
       <use xlink:href="#DejaVuSans-73" transform="translate(507.275391 0)"/>
       <use xlink:href="#DejaVuSans-68" transform="translate(559.375 0)"/>
       <use xlink:href="#DejaVuSans-64" transform="translate(622.753906 0)"/>
       <use xlink:href="#DejaVuSans-6f" transform="translate(686.230469 0)"/>
       <use xlink:href="#DejaVuSans-74" transform="translate(747.412109 0)"/>
       <use xlink:href="#DejaVuSans-64" transform="translate(786.621094 0)"/>
       <use xlink:href="#DejaVuSans-6f" transform="translate(850.097656 0)"/>
       <use xlink:href="#DejaVuSans-74" transform="translate(911.279297 0)"/>
       <use xlink:href="#DejaVuSans-74" transform="translate(950.488281 0)"/>
       <use xlink:href="#DejaVuSans-65" transform="translate(989.697266 0)"/>
       <use xlink:href="#DejaVuSans-64" transform="translate(1051.220703 0)"/>
      </g>
     </g>
    </g>
    <g id="ytick_7">
     <g id="text_12">
      <!-- dashdotdotted -->
      <g transform="translate(54.002427 499.813961) scale(0.1 -0.1)">
       <use xlink:href="#DejaVuSans-64"/>
       <use xlink:href="#DejaVuSans-61" transform="translate(63.476562 0)"/>
       <use xlink:href="#DejaVuSans-73" transform="translate(124.755859 0)"/>
       <use xlink:href="#DejaVuSans-68" transform="translate(176.855469 0)"/>
       <use xlink:href="#DejaVuSans-64" transform="translate(240.234375 0)"/>
       <use xlink:href="#DejaVuSans-6f" transform="translate(303.710938 0)"/>
       <use xlink:href="#DejaVuSans-74" transform="translate(364.892578 0)"/>
       <use xlink:href="#DejaVuSans-64" transform="translate(404.101562 0)"/>
       <use xlink:href="#DejaVuSans-6f" transform="translate(467.578125 0)"/>
       <use xlink:href="#DejaVuSans-74" transform="translate(528.759766 0)"/>
       <use xlink:href="#DejaVuSans-74" transform="translate(567.96875 0)"/>
       <use xlink:href="#DejaVuSans-65" transform="translate(607.177734 0)"/>
       <use xlink:href="#DejaVuSans-64" transform="translate(668.701172 0)"/>
      </g>
     </g>
    </g>
    <g id="ytick_8">
     <g id="text_13">
      <!-- densely dashdotted -->
      <g transform="translate(28.313365 469.019954) scale(0.1 -0.1)">
       <use xlink:href="#DejaVuSans-64"/>
       <use xlink:href="#DejaVuSans-65" transform="translate(63.476562 0)"/>
       <use xlink:href="#DejaVuSans-6e" transform="translate(125 0)"/>
       <use xlink:href="#DejaVuSans-73" transform="translate(188.378906 0)"/>
       <use xlink:href="#DejaVuSans-65" transform="translate(240.478516 0)"/>
       <use xlink:href="#DejaVuSans-6c" transform="translate(302.001953 0)"/>
       <use xlink:href="#DejaVuSans-79" transform="translate(329.785156 0)"/>
       <use xlink:href="#DejaVuSans-20" transform="translate(388.964844 0)"/>
       <use xlink:href="#DejaVuSans-64" transform="translate(420.751953 0)"/>
       <use xlink:href="#DejaVuSans-61" transform="translate(484.228516 0)"/>
       <use xlink:href="#DejaVuSans-73" transform="translate(545.507812 0)"/>
       <use xlink:href="#DejaVuSans-68" transform="translate(597.607422 0)"/>
       <use xlink:href="#DejaVuSans-64" transform="translate(660.986328 0)"/>
       <use xlink:href="#DejaVuSans-6f" transform="translate(724.462891 0)"/>
       <use xlink:href="#DejaVuSans-74" transform="translate(785.644531 0)"/>
       <use xlink:href="#DejaVuSans-74" transform="translate(824.853516 0)"/>
       <use xlink:href="#DejaVuSans-65" transform="translate(864.0625 0)"/>
       <use xlink:href="#DejaVuSans-64" transform="translate(925.585938 0)"/>
      </g>
     </g>
    </g>
    <g id="ytick_9">
     <g id="text_14">
      <!-- dashdotted -->
      <g transform="translate(70.389927 438.225947) scale(0.1 -0.1)">
       <use xlink:href="#DejaVuSans-64"/>
       <use xlink:href="#DejaVuSans-61" transform="translate(63.476562 0)"/>
       <use xlink:href="#DejaVuSans-73" transform="translate(124.755859 0)"/>
       <use xlink:href="#DejaVuSans-68" transform="translate(176.855469 0)"/>
       <use xlink:href="#DejaVuSans-64" transform="translate(240.234375 0)"/>
       <use xlink:href="#DejaVuSans-6f" transform="translate(303.710938 0)"/>
       <use xlink:href="#DejaVuSans-74" transform="translate(364.892578 0)"/>
       <use xlink:href="#DejaVuSans-74" transform="translate(404.101562 0)"/>
       <use xlink:href="#DejaVuSans-65" transform="translate(443.310547 0)"/>
       <use xlink:href="#DejaVuSans-64" transform="translate(504.833984 0)"/>
      </g>
     </g>
    </g>
    <g id="ytick_10">
     <g id="text_15">
      <!-- loosely dashdotted -->
      <g transform="translate(32.136802 407.43194) scale(0.1 -0.1)">
       <use xlink:href="#DejaVuSans-6c"/>
       <use xlink:href="#DejaVuSans-6f" transform="translate(27.783203 0)"/>
       <use xlink:href="#DejaVuSans-6f" transform="translate(88.964844 0)"/>
       <use xlink:href="#DejaVuSans-73" transform="translate(150.146484 0)"/>
       <use xlink:href="#DejaVuSans-65" transform="translate(202.246094 0)"/>
       <use xlink:href="#DejaVuSans-6c" transform="translate(263.769531 0)"/>
       <use xlink:href="#DejaVuSans-79" transform="translate(291.552734 0)"/>
       <use xlink:href="#DejaVuSans-20" transform="translate(350.732422 0)"/>
       <use xlink:href="#DejaVuSans-64" transform="translate(382.519531 0)"/>
       <use xlink:href="#DejaVuSans-61" transform="translate(445.996094 0)"/>
       <use xlink:href="#DejaVuSans-73" transform="translate(507.275391 0)"/>
       <use xlink:href="#DejaVuSans-68" transform="translate(559.375 0)"/>
       <use xlink:href="#DejaVuSans-64" transform="translate(622.753906 0)"/>
       <use xlink:href="#DejaVuSans-6f" transform="translate(686.230469 0)"/>
       <use xlink:href="#DejaVuSans-74" transform="translate(747.412109 0)"/>
       <use xlink:href="#DejaVuSans-74" transform="translate(786.621094 0)"/>
       <use xlink:href="#DejaVuSans-65" transform="translate(825.830078 0)"/>
       <use xlink:href="#DejaVuSans-64" transform="translate(887.353516 0)"/>
      </g>
     </g>
    </g>
    <g id="ytick_11">
     <g id="text_16">
      <!-- densely dashed -->
      <g transform="translate(48.621177 376.637932) scale(0.1 -0.1)">
       <use xlink:href="#DejaVuSans-64"/>
       <use xlink:href="#DejaVuSans-65" transform="translate(63.476562 0)"/>
       <use xlink:href="#DejaVuSans-6e" transform="translate(125 0)"/>
       <use xlink:href="#DejaVuSans-73" transform="translate(188.378906 0)"/>
       <use xlink:href="#DejaVuSans-65" transform="translate(240.478516 0)"/>
       <use xlink:href="#DejaVuSans-6c" transform="translate(302.001953 0)"/>
       <use xlink:href="#DejaVuSans-79" transform="translate(329.785156 0)"/>
       <use xlink:href="#DejaVuSans-20" transform="translate(388.964844 0)"/>
       <use xlink:href="#DejaVuSans-64" transform="translate(420.751953 0)"/>
       <use xlink:href="#DejaVuSans-61" transform="translate(484.228516 0)"/>
       <use xlink:href="#DejaVuSans-73" transform="translate(545.507812 0)"/>
       <use xlink:href="#DejaVuSans-68" transform="translate(597.607422 0)"/>
       <use xlink:href="#DejaVuSans-65" transform="translate(660.986328 0)"/>
       <use xlink:href="#DejaVuSans-64" transform="translate(722.509766 0)"/>
      </g>
     </g>
    </g>
    <g id="ytick_12">
     <g id="text_17">
      <!-- dashed -->
      <g transform="translate(90.69774 345.843925) scale(0.1 -0.1)">
       <use xlink:href="#DejaVuSans-64"/>
       <use xlink:href="#DejaVuSans-61" transform="translate(63.476562 0)"/>
       <use xlink:href="#DejaVuSans-73" transform="translate(124.755859 0)"/>
       <use xlink:href="#DejaVuSans-68" transform="translate(176.855469 0)"/>
       <use xlink:href="#DejaVuSans-65" transform="translate(240.234375 0)"/>
       <use xlink:href="#DejaVuSans-64" transform="translate(301.757812 0)"/>
      </g>
     </g>
    </g>
    <g id="ytick_13">
     <g id="text_18">
      <!-- loosely dashed -->
      <g transform="translate(52.444615 315.049918) scale(0.1 -0.1)">
       <use xlink:href="#DejaVuSans-6c"/>
       <use xlink:href="#DejaVuSans-6f" transform="translate(27.783203 0)"/>
       <use xlink:href="#DejaVuSans-6f" transform="translate(88.964844 0)"/>
       <use xlink:href="#DejaVuSans-73" transform="translate(150.146484 0)"/>
       <use xlink:href="#DejaVuSans-65" transform="translate(202.246094 0)"/>
       <use xlink:href="#DejaVuSans-6c" transform="translate(263.769531 0)"/>
       <use xlink:href="#DejaVuSans-79" transform="translate(291.552734 0)"/>
       <use xlink:href="#DejaVuSans-20" transform="translate(350.732422 0)"/>
       <use xlink:href="#DejaVuSans-64" transform="translate(382.519531 0)"/>
       <use xlink:href="#DejaVuSans-61" transform="translate(445.996094 0)"/>
       <use xlink:href="#DejaVuSans-73" transform="translate(507.275391 0)"/>
       <use xlink:href="#DejaVuSans-68" transform="translate(559.375 0)"/>
       <use xlink:href="#DejaVuSans-65" transform="translate(622.753906 0)"/>
       <use xlink:href="#DejaVuSans-64" transform="translate(684.277344 0)"/>
      </g>
     </g>
    </g>
    <g id="ytick_14">
     <g id="text_19">
      <!-- long dash with offset -->
      <g transform="translate(22.425865 284.255911) scale(0.1 -0.1)">
       <defs>
        <path id="DejaVuSans-67" d="M 2906 1791 
Q 2906 2416 2648 2759 
Q 2391 3103 1925 3103 
Q 1463 3103 1205 2759 
Q 947 2416 947 1791 
Q 947 1169 1205 825 
Q 1463 481 1925 481 
Q 2391 481 2648 825 
Q 2906 1169 2906 1791 
z
M 3481 434 
Q 3481 -459 3084 -895 
Q 2688 -1331 1869 -1331 
Q 1566 -1331 1297 -1286 
Q 1028 -1241 775 -1147 
L 775 -588 
Q 1028 -725 1275 -790 
Q 1522 -856 1778 -856 
Q 2344 -856 2625 -561 
Q 2906 -266 2906 331 
L 2906 616 
Q 2728 306 2450 153 
Q 2172 0 1784 0 
Q 1141 0 747 490 
Q 353 981 353 1791 
Q 353 2603 747 3093 
Q 1141 3584 1784 3584 
Q 2172 3584 2450 3431 
Q 2728 3278 2906 2969 
L 2906 3500 
L 3481 3500 
L 3481 434 
z
" transform="scale(0.015625)"/>
        <path id="DejaVuSans-77" d="M 269 3500 
L 844 3500 
L 1563 769 
L 2278 3500 
L 2956 3500 
L 3675 769 
L 4391 3500 
L 4966 3500 
L 4050 0 
L 3372 0 
L 2619 2869 
L 1863 0 
L 1184 0 
L 269 3500 
z
" transform="scale(0.015625)"/>
        <path id="DejaVuSans-66" d="M 2375 4863 
L 2375 4384 
L 1825 4384 
Q 1516 4384 1395 4259 
Q 1275 4134 1275 3809 
L 1275 3500 
L 2222 3500 
L 2222 3053 
L 1275 3053 
L 1275 0 
L 697 0 
L 697 3053 
L 147 3053 
L 147 3500 
L 697 3500 
L 697 3744 
Q 697 4328 969 4595 
Q 1241 4863 1831 4863 
L 2375 4863 
z
" transform="scale(0.015625)"/>
       </defs>
       <use xlink:href="#DejaVuSans-6c"/>
       <use xlink:href="#DejaVuSans-6f" transform="translate(27.783203 0)"/>
       <use xlink:href="#DejaVuSans-6e" transform="translate(88.964844 0)"/>
       <use xlink:href="#DejaVuSans-67" transform="translate(152.34375 0)"/>
       <use xlink:href="#DejaVuSans-20" transform="translate(215.820312 0)"/>
       <use xlink:href="#DejaVuSans-64" transform="translate(247.607422 0)"/>
       <use xlink:href="#DejaVuSans-61" transform="translate(311.083984 0)"/>
       <use xlink:href="#DejaVuSans-73" transform="translate(372.363281 0)"/>
       <use xlink:href="#DejaVuSans-68" transform="translate(424.462891 0)"/>
       <use xlink:href="#DejaVuSans-20" transform="translate(487.841797 0)"/>
       <use xlink:href="#DejaVuSans-77" transform="translate(519.628906 0)"/>
       <use xlink:href="#DejaVuSans-69" transform="translate(601.416016 0)"/>
       <use xlink:href="#DejaVuSans-74" transform="translate(629.199219 0)"/>
       <use xlink:href="#DejaVuSans-68" transform="translate(668.408203 0)"/>
       <use xlink:href="#DejaVuSans-20" transform="translate(731.787109 0)"/>
       <use xlink:href="#DejaVuSans-6f" transform="translate(763.574219 0)"/>
       <use xlink:href="#DejaVuSans-66" transform="translate(824.755859 0)"/>
       <use xlink:href="#DejaVuSans-66" transform="translate(859.960938 0)"/>
       <use xlink:href="#DejaVuSans-73" transform="translate(895.166016 0)"/>
       <use xlink:href="#DejaVuSans-65" transform="translate(947.265625 0)"/>
       <use xlink:href="#DejaVuSans-74" transform="translate(1008.789062 0)"/>
      </g>
     </g>
    </g>
    <g id="ytick_15">
     <g id="text_20">
      <!-- densely dotted -->
      <g transform="translate(52.336802 253.461904) scale(0.1 -0.1)">
       <use xlink:href="#DejaVuSans-64"/>
       <use xlink:href="#DejaVuSans-65" transform="translate(63.476562 0)"/>
       <use xlink:href="#DejaVuSans-6e" transform="translate(125 0)"/>
       <use xlink:href="#DejaVuSans-73" transform="translate(188.378906 0)"/>
       <use xlink:href="#DejaVuSans-65" transform="translate(240.478516 0)"/>
       <use xlink:href="#DejaVuSans-6c" transform="translate(302.001953 0)"/>
       <use xlink:href="#DejaVuSans-79" transform="translate(329.785156 0)"/>
       <use xlink:href="#DejaVuSans-20" transform="translate(388.964844 0)"/>
       <use xlink:href="#DejaVuSans-64" transform="translate(420.751953 0)"/>
       <use xlink:href="#DejaVuSans-6f" transform="translate(484.228516 0)"/>
       <use xlink:href="#DejaVuSans-74" transform="translate(545.410156 0)"/>
       <use xlink:href="#DejaVuSans-74" transform="translate(584.619141 0)"/>
       <use xlink:href="#DejaVuSans-65" transform="translate(623.828125 0)"/>
       <use xlink:href="#DejaVuSans-64" transform="translate(685.351562 0)"/>
      </g>
     </g>
    </g>
    <g id="ytick_16">
     <g id="text_21">
      <!-- dotted -->
      <g transform="translate(94.413365 222.667897) scale(0.1 -0.1)">
       <use xlink:href="#DejaVuSans-64"/>
       <use xlink:href="#DejaVuSans-6f" transform="translate(63.476562 0)"/>
       <use xlink:href="#DejaVuSans-74" transform="translate(124.658203 0)"/>
       <use xlink:href="#DejaVuSans-74" transform="translate(163.867188 0)"/>
       <use xlink:href="#DejaVuSans-65" transform="translate(203.076172 0)"/>
       <use xlink:href="#DejaVuSans-64" transform="translate(264.599609 0)"/>
      </g>
     </g>
    </g>
    <g id="ytick_17">
     <g id="text_22">
      <!-- loosely dotted -->
      <g transform="translate(56.16024 191.87389) scale(0.1 -0.1)">
       <use xlink:href="#DejaVuSans-6c"/>
       <use xlink:href="#DejaVuSans-6f" transform="translate(27.783203 0)"/>
       <use xlink:href="#DejaVuSans-6f" transform="translate(88.964844 0)"/>
       <use xlink:href="#DejaVuSans-73" transform="translate(150.146484 0)"/>
       <use xlink:href="#DejaVuSans-65" transform="translate(202.246094 0)"/>
       <use xlink:href="#DejaVuSans-6c" transform="translate(263.769531 0)"/>
       <use xlink:href="#DejaVuSans-79" transform="translate(291.552734 0)"/>
       <use xlink:href="#DejaVuSans-20" transform="translate(350.732422 0)"/>
       <use xlink:href="#DejaVuSans-64" transform="translate(382.519531 0)"/>
       <use xlink:href="#DejaVuSans-6f" transform="translate(445.996094 0)"/>
       <use xlink:href="#DejaVuSans-74" transform="translate(507.177734 0)"/>
       <use xlink:href="#DejaVuSans-74" transform="translate(546.386719 0)"/>
       <use xlink:href="#DejaVuSans-65" transform="translate(585.595703 0)"/>
       <use xlink:href="#DejaVuSans-64" transform="translate(647.119141 0)"/>
      </g>
     </g>
    </g>
   </g>
   <g id="line2d_5">
    <path d="M 150.894423 557.602756 
L 187.942607 557.602756 
L 224.99079 557.602756 
L 262.038974 557.602756 
L 299.087158 557.602756 
L 336.135342 557.602756 
L 373.183526 557.602756 
L 410.23171 557.602756 
L 447.279893 557.602756 
L 484.328077 557.602756 
" clip-path="url(#pdf04e81c4c)" style="fill: none; stroke-dasharray: 4.5,1.5,1.5,1.5,1.5,1.5; stroke-dashoffset: 0; stroke: #000000; stroke-width: 1.5"/>
   </g>
   <g id="line2d_6">
    <path d="M 150.894423 526.808749 
L 187.942607 526.808749 
L 224.99079 526.808749 
L 262.038974 526.808749 
L 299.087158 526.808749 
L 336.135342 526.808749 
L 373.183526 526.808749 
L 410.23171 526.808749 
L 447.279893 526.808749 
L 484.328077 526.808749 
" clip-path="url(#pdf04e81c4c)" style="fill: none; stroke-dasharray: 4.5,15,1.5,15,1.5,15; stroke-dashoffset: 0; stroke: #000000; stroke-width: 1.5"/>
   </g>
   <g id="line2d_7">
    <path d="M 150.894423 496.014742 
L 187.942607 496.014742 
L 224.99079 496.014742 
L 262.038974 496.014742 
L 299.087158 496.014742 
L 336.135342 496.014742 
L 373.183526 496.014742 
L 410.23171 496.014742 
L 447.279893 496.014742 
L 484.328077 496.014742 
" clip-path="url(#pdf04e81c4c)" style="fill: none; stroke-dasharray: 4.5,7.5,1.5,7.5,1.5,7.5; stroke-dashoffset: 0; stroke: #000000; stroke-width: 1.5"/>
   </g>
   <g id="line2d_8">
    <path d="M 150.894423 465.220735 
L 187.942607 465.220735 
L 224.99079 465.220735 
L 262.038974 465.220735 
L 299.087158 465.220735 
L 336.135342 465.220735 
L 373.183526 465.220735 
L 410.23171 465.220735 
L 447.279893 465.220735 
L 484.328077 465.220735 
" clip-path="url(#pdf04e81c4c)" style="fill: none; stroke-dasharray: 4.5,1.5,1.5,1.5; stroke-dashoffset: 0; stroke: #000000; stroke-width: 1.5"/>
   </g>
   <g id="line2d_9">
    <path d="M 150.894423 434.426728 
L 187.942607 434.426728 
L 224.99079 434.426728 
L 262.038974 434.426728 
L 299.087158 434.426728 
L 336.135342 434.426728 
L 373.183526 434.426728 
L 410.23171 434.426728 
L 447.279893 434.426728 
L 484.328077 434.426728 
" clip-path="url(#pdf04e81c4c)" style="fill: none; stroke-dasharray: 4.5,7.5,1.5,7.5; stroke-dashoffset: 0; stroke: #000000; stroke-width: 1.5"/>
   </g>
   <g id="line2d_10">
    <path d="M 150.894423 403.632721 
L 187.942607 403.632721 
L 224.99079 403.632721 
L 262.038974 403.632721 
L 299.087158 403.632721 
L 336.135342 403.632721 
L 373.183526 403.632721 
L 410.23171 403.632721 
L 447.279893 403.632721 
L 484.328077 403.632721 
" clip-path="url(#pdf04e81c4c)" style="fill: none; stroke-dasharray: 4.5,15,1.5,15; stroke-dashoffset: 0; stroke: #000000; stroke-width: 1.5"/>
   </g>
   <g id="line2d_11">
    <path d="M 150.894423 372.838714 
L 187.942607 372.838714 
L 224.99079 372.838714 
L 262.038974 372.838714 
L 299.087158 372.838714 
L 336.135342 372.838714 
L 373.183526 372.838714 
L 410.23171 372.838714 
L 447.279893 372.838714 
L 484.328077 372.838714 
" clip-path="url(#pdf04e81c4c)" style="fill: none; stroke-dasharray: 7.5,1.5; stroke-dashoffset: 0; stroke: #000000; stroke-width: 1.5"/>
   </g>
   <g id="line2d_12">
    <path d="M 150.894423 342.044707 
L 187.942607 342.044707 
L 224.99079 342.044707 
L 262.038974 342.044707 
L 299.087158 342.044707 
L 336.135342 342.044707 
L 373.183526 342.044707 
L 410.23171 342.044707 
L 447.279893 342.044707 
L 484.328077 342.044707 
" clip-path="url(#pdf04e81c4c)" style="fill: none; stroke-dasharray: 7.5,7.5; stroke-dashoffset: 0; stroke: #000000; stroke-width: 1.5"/>
   </g>
   <g id="line2d_13">
    <path d="M 150.894423 311.2507 
L 187.942607 311.2507 
L 224.99079 311.2507 
L 262.038974 311.2507 
L 299.087158 311.2507 
L 336.135342 311.2507 
L 373.183526 311.2507 
L 410.23171 311.2507 
L 447.279893 311.2507 
L 484.328077 311.2507 
" clip-path="url(#pdf04e81c4c)" style="fill: none; stroke-dasharray: 7.5,15; stroke-dashoffset: 0; stroke: #000000; stroke-width: 1.5"/>
   </g>
   <g id="line2d_14">
    <path d="M 150.894423 280.456692 
L 187.942607 280.456692 
L 224.99079 280.456692 
L 262.038974 280.456692 
L 299.087158 280.456692 
L 336.135342 280.456692 
L 373.183526 280.456692 
L 410.23171 280.456692 
L 447.279893 280.456692 
L 484.328077 280.456692 
" clip-path="url(#pdf04e81c4c)" style="fill: none; stroke-dasharray: 15,4.5; stroke-dashoffset: 7.5; stroke: #000000; stroke-width: 1.5"/>
   </g>
   <g id="line2d_15">
    <path d="M 150.894423 249.662685 
L 187.942607 249.662685 
L 224.99079 249.662685 
L 262.038974 249.662685 
L 299.087158 249.662685 
L 336.135342 249.662685 
L 373.183526 249.662685 
L 410.23171 249.662685 
L 447.279893 249.662685 
L 484.328077 249.662685 
" clip-path="url(#pdf04e81c4c)" style="fill: none; stroke-dasharray: 1.5,1.5; stroke-dashoffset: 0; stroke: #000000; stroke-width: 1.5"/>
   </g>
   <g id="line2d_16">
    <path d="M 150.894423 218.868678 
L 187.942607 218.868678 
L 224.99079 218.868678 
L 262.038974 218.868678 
L 299.087158 218.868678 
L 336.135342 218.868678 
L 373.183526 218.868678 
L 410.23171 218.868678 
L 447.279893 218.868678 
L 484.328077 218.868678 
" clip-path="url(#pdf04e81c4c)" style="fill: none; stroke-dasharray: 1.5,7.5; stroke-dashoffset: 0; stroke: #000000; stroke-width: 1.5"/>
   </g>
   <g id="line2d_17">
    <path d="M 150.894423 188.074671 
L 187.942607 188.074671 
L 224.99079 188.074671 
L 262.038974 188.074671 
L 299.087158 188.074671 
L 336.135342 188.074671 
L 373.183526 188.074671 
L 410.23171 188.074671 
L 447.279893 188.074671 
L 484.328077 188.074671 
" clip-path="url(#pdf04e81c4c)" style="fill: none; stroke-dasharray: 1.5,15; stroke-dashoffset: 0; stroke: #000000; stroke-width: 1.5"/>
   </g>
   <g id="text_23">
    <!-- (0, (3, 1, 1, 1, 1, 1)) -->
    <g style="fill: #0000ff" transform="translate(17.44899 569.602756) scale(0.08 -0.08)">
     <defs>
      <path id="DejaVuSansMono-28" d="M 2766 4856 
Q 2350 4144 2145 3436 
Q 1941 2728 1941 2009 
Q 1941 1294 2145 584 
Q 2350 -125 2766 -844 
L 2266 -844 
Q 1794 -100 1562 604 
Q 1331 1309 1331 2009 
Q 1331 2706 1562 3412 
Q 1794 4119 2266 4856 
L 2766 4856 
z
" transform="scale(0.015625)"/>
      <path id="DejaVuSansMono-30" d="M 1509 2344 
Q 1509 2516 1629 2641 
Q 1750 2766 1919 2766 
Q 2094 2766 2219 2641 
Q 2344 2516 2344 2344 
Q 2344 2169 2220 2047 
Q 2097 1925 1919 1925 
Q 1744 1925 1626 2044 
Q 1509 2163 1509 2344 
z
M 1925 4250 
Q 1484 4250 1267 3775 
Q 1050 3300 1050 2328 
Q 1050 1359 1267 884 
Q 1484 409 1925 409 
Q 2369 409 2586 884 
Q 2803 1359 2803 2328 
Q 2803 3300 2586 3775 
Q 2369 4250 1925 4250 
z
M 1925 4750 
Q 2672 4750 3055 4137 
Q 3438 3525 3438 2328 
Q 3438 1134 3055 521 
Q 2672 -91 1925 -91 
Q 1178 -91 797 521 
Q 416 1134 416 2328 
Q 416 3525 797 4137 
Q 1178 4750 1925 4750 
z
" transform="scale(0.015625)"/>
      <path id="DejaVuSansMono-2c" d="M 1569 947 
L 2356 947 
L 2356 300 
L 1741 -897 
L 1259 -897 
L 1569 300 
L 1569 947 
z
" transform="scale(0.015625)"/>
      <path id="DejaVuSansMono-20" transform="scale(0.015625)"/>
      <path id="DejaVuSansMono-33" d="M 2425 2497 
Q 2884 2375 3128 2064 
Q 3372 1753 3372 1288 
Q 3372 644 2939 276 
Q 2506 -91 1741 -91 
Q 1419 -91 1084 -31 
Q 750 28 428 141 
L 428 769 
Q 747 603 1056 522 
Q 1366 441 1672 441 
Q 2191 441 2469 675 
Q 2747 909 2747 1350 
Q 2747 1756 2469 1995 
Q 2191 2234 1716 2234 
L 1234 2234 
L 1234 2753 
L 1716 2753 
Q 2150 2753 2394 2943 
Q 2638 3134 2638 3475 
Q 2638 3834 2411 4026 
Q 2184 4219 1766 4219 
Q 1488 4219 1191 4156 
Q 894 4094 569 3969 
L 569 4550 
Q 947 4650 1242 4700 
Q 1538 4750 1766 4750 
Q 2447 4750 2855 4408 
Q 3263 4066 3263 3500 
Q 3263 3116 3048 2859 
Q 2834 2603 2425 2497 
z
" transform="scale(0.015625)"/>
      <path id="DejaVuSansMono-31" d="M 844 531 
L 1825 531 
L 1825 4097 
L 769 3859 
L 769 4434 
L 1819 4666 
L 2450 4666 
L 2450 531 
L 3419 531 
L 3419 0 
L 844 0 
L 844 531 
z
" transform="scale(0.015625)"/>
      <path id="DejaVuSansMono-29" d="M 1088 4856 
L 1588 4856 
Q 2059 4119 2290 3412 
Q 2522 2706 2522 2009 
Q 2522 1306 2290 600 
Q 2059 -106 1588 -844 
L 1088 -844 
Q 1503 -119 1708 590 
Q 1913 1300 1913 2009 
Q 1913 2722 1708 3431 
Q 1503 4141 1088 4856 
z
" transform="scale(0.015625)"/>
     </defs>
     <use xlink:href="#DejaVuSansMono-28"/>
     <use xlink:href="#DejaVuSansMono-30" transform="translate(60.205078 0)"/>
     <use xlink:href="#DejaVuSansMono-2c" transform="translate(120.410156 0)"/>
     <use xlink:href="#DejaVuSansMono-20" transform="translate(180.615234 0)"/>
     <use xlink:href="#DejaVuSansMono-28" transform="translate(240.820312 0)"/>
     <use xlink:href="#DejaVuSansMono-33" transform="translate(301.025391 0)"/>
     <use xlink:href="#DejaVuSansMono-2c" transform="translate(361.230469 0)"/>
     <use xlink:href="#DejaVuSansMono-20" transform="translate(421.435547 0)"/>
     <use xlink:href="#DejaVuSansMono-31" transform="translate(481.640625 0)"/>
     <use xlink:href="#DejaVuSansMono-2c" transform="translate(541.845703 0)"/>
     <use xlink:href="#DejaVuSansMono-20" transform="translate(602.050781 0)"/>
     <use xlink:href="#DejaVuSansMono-31" transform="translate(662.255859 0)"/>
     <use xlink:href="#DejaVuSansMono-2c" transform="translate(722.460938 0)"/>
     <use xlink:href="#DejaVuSansMono-20" transform="translate(782.666016 0)"/>
     <use xlink:href="#DejaVuSansMono-31" transform="translate(842.871094 0)"/>
     <use xlink:href="#DejaVuSansMono-2c" transform="translate(903.076172 0)"/>
     <use xlink:href="#DejaVuSansMono-20" transform="translate(963.28125 0)"/>
     <use xlink:href="#DejaVuSansMono-31" transform="translate(1023.486328 0)"/>
     <use xlink:href="#DejaVuSansMono-2c" transform="translate(1083.691406 0)"/>
     <use xlink:href="#DejaVuSansMono-20" transform="translate(1143.896484 0)"/>
     <use xlink:href="#DejaVuSansMono-31" transform="translate(1204.101562 0)"/>
     <use xlink:href="#DejaVuSansMono-29" transform="translate(1264.306641 0)"/>
     <use xlink:href="#DejaVuSansMono-29" transform="translate(1324.511719 0)"/>
    </g>
   </g>
   <g id="text_24">
    <!-- (0, (3, 10, 1, 10, 1, 10)) -->
    <g style="fill: #0000ff" transform="translate(3.00024 538.808749) scale(0.08 -0.08)">
     <use xlink:href="#DejaVuSansMono-28"/>
     <use xlink:href="#DejaVuSansMono-30" transform="translate(60.205078 0)"/>
     <use xlink:href="#DejaVuSansMono-2c" transform="translate(120.410156 0)"/>
     <use xlink:href="#DejaVuSansMono-20" transform="translate(180.615234 0)"/>
     <use xlink:href="#DejaVuSansMono-28" transform="translate(240.820312 0)"/>
     <use xlink:href="#DejaVuSansMono-33" transform="translate(301.025391 0)"/>
     <use xlink:href="#DejaVuSansMono-2c" transform="translate(361.230469 0)"/>
     <use xlink:href="#DejaVuSansMono-20" transform="translate(421.435547 0)"/>
     <use xlink:href="#DejaVuSansMono-31" transform="translate(481.640625 0)"/>
     <use xlink:href="#DejaVuSansMono-30" transform="translate(541.845703 0)"/>
     <use xlink:href="#DejaVuSansMono-2c" transform="translate(602.050781 0)"/>
     <use xlink:href="#DejaVuSansMono-20" transform="translate(662.255859 0)"/>
     <use xlink:href="#DejaVuSansMono-31" transform="translate(722.460938 0)"/>
     <use xlink:href="#DejaVuSansMono-2c" transform="translate(782.666016 0)"/>
     <use xlink:href="#DejaVuSansMono-20" transform="translate(842.871094 0)"/>
     <use xlink:href="#DejaVuSansMono-31" transform="translate(903.076172 0)"/>
     <use xlink:href="#DejaVuSansMono-30" transform="translate(963.28125 0)"/>
     <use xlink:href="#DejaVuSansMono-2c" transform="translate(1023.486328 0)"/>
     <use xlink:href="#DejaVuSansMono-20" transform="translate(1083.691406 0)"/>
     <use xlink:href="#DejaVuSansMono-31" transform="translate(1143.896484 0)"/>
     <use xlink:href="#DejaVuSansMono-2c" transform="translate(1204.101562 0)"/>
     <use xlink:href="#DejaVuSansMono-20" transform="translate(1264.306641 0)"/>
     <use xlink:href="#DejaVuSansMono-31" transform="translate(1324.511719 0)"/>
     <use xlink:href="#DejaVuSansMono-30" transform="translate(1384.716797 0)"/>
     <use xlink:href="#DejaVuSansMono-29" transform="translate(1444.921875 0)"/>
     <use xlink:href="#DejaVuSansMono-29" transform="translate(1505.126953 0)"/>
    </g>
   </g>
   <g id="text_25">
    <!-- (0, (3, 5, 1, 5, 1, 5)) -->
    <g style="fill: #0000ff" transform="translate(17.44899 508.014742) scale(0.08 -0.08)">
     <defs>
      <path id="DejaVuSansMono-35" d="M 647 4666 
L 3009 4666 
L 3009 4134 
L 1222 4134 
L 1222 2988 
Q 1356 3038 1492 3061 
Q 1628 3084 1766 3084 
Q 2491 3084 2916 2656 
Q 3341 2228 3341 1497 
Q 3341 759 2895 334 
Q 2450 -91 1678 -91 
Q 1306 -91 998 -41 
Q 691 9 447 109 
L 447 750 
Q 734 594 1025 517 
Q 1316 441 1619 441 
Q 2141 441 2423 716 
Q 2706 991 2706 1497 
Q 2706 1997 2414 2275 
Q 2122 2553 1600 2553 
Q 1347 2553 1106 2495 
Q 866 2438 647 2322 
L 647 4666 
z
" transform="scale(0.015625)"/>
     </defs>
     <use xlink:href="#DejaVuSansMono-28"/>
     <use xlink:href="#DejaVuSansMono-30" transform="translate(60.205078 0)"/>
     <use xlink:href="#DejaVuSansMono-2c" transform="translate(120.410156 0)"/>
     <use xlink:href="#DejaVuSansMono-20" transform="translate(180.615234 0)"/>
     <use xlink:href="#DejaVuSansMono-28" transform="translate(240.820312 0)"/>
     <use xlink:href="#DejaVuSansMono-33" transform="translate(301.025391 0)"/>
     <use xlink:href="#DejaVuSansMono-2c" transform="translate(361.230469 0)"/>
     <use xlink:href="#DejaVuSansMono-20" transform="translate(421.435547 0)"/>
     <use xlink:href="#DejaVuSansMono-35" transform="translate(481.640625 0)"/>
     <use xlink:href="#DejaVuSansMono-2c" transform="translate(541.845703 0)"/>
     <use xlink:href="#DejaVuSansMono-20" transform="translate(602.050781 0)"/>
     <use xlink:href="#DejaVuSansMono-31" transform="translate(662.255859 0)"/>
     <use xlink:href="#DejaVuSansMono-2c" transform="translate(722.460938 0)"/>
     <use xlink:href="#DejaVuSansMono-20" transform="translate(782.666016 0)"/>
     <use xlink:href="#DejaVuSansMono-35" transform="translate(842.871094 0)"/>
     <use xlink:href="#DejaVuSansMono-2c" transform="translate(903.076172 0)"/>
     <use xlink:href="#DejaVuSansMono-20" transform="translate(963.28125 0)"/>
     <use xlink:href="#DejaVuSansMono-31" transform="translate(1023.486328 0)"/>
     <use xlink:href="#DejaVuSansMono-2c" transform="translate(1083.691406 0)"/>
     <use xlink:href="#DejaVuSansMono-20" transform="translate(1143.896484 0)"/>
     <use xlink:href="#DejaVuSansMono-35" transform="translate(1204.101562 0)"/>
     <use xlink:href="#DejaVuSansMono-29" transform="translate(1264.306641 0)"/>
     <use xlink:href="#DejaVuSansMono-29" transform="translate(1324.511719 0)"/>
    </g>
   </g>
   <g id="text_26">
    <!-- (0, (3, 1, 1, 1)) -->
    <g style="fill: #0000ff" transform="translate(46.34649 477.220735) scale(0.08 -0.08)">
     <use xlink:href="#DejaVuSansMono-28"/>
     <use xlink:href="#DejaVuSansMono-30" transform="translate(60.205078 0)"/>
     <use xlink:href="#DejaVuSansMono-2c" transform="translate(120.410156 0)"/>
     <use xlink:href="#DejaVuSansMono-20" transform="translate(180.615234 0)"/>
     <use xlink:href="#DejaVuSansMono-28" transform="translate(240.820312 0)"/>
     <use xlink:href="#DejaVuSansMono-33" transform="translate(301.025391 0)"/>
     <use xlink:href="#DejaVuSansMono-2c" transform="translate(361.230469 0)"/>
     <use xlink:href="#DejaVuSansMono-20" transform="translate(421.435547 0)"/>
     <use xlink:href="#DejaVuSansMono-31" transform="translate(481.640625 0)"/>
     <use xlink:href="#DejaVuSansMono-2c" transform="translate(541.845703 0)"/>
     <use xlink:href="#DejaVuSansMono-20" transform="translate(602.050781 0)"/>
     <use xlink:href="#DejaVuSansMono-31" transform="translate(662.255859 0)"/>
     <use xlink:href="#DejaVuSansMono-2c" transform="translate(722.460938 0)"/>
     <use xlink:href="#DejaVuSansMono-20" transform="translate(782.666016 0)"/>
     <use xlink:href="#DejaVuSansMono-31" transform="translate(842.871094 0)"/>
     <use xlink:href="#DejaVuSansMono-29" transform="translate(903.076172 0)"/>
     <use xlink:href="#DejaVuSansMono-29" transform="translate(963.28125 0)"/>
    </g>
   </g>
   <g id="text_27">
    <!-- (0, (3, 5, 1, 5)) -->
    <g style="fill: #0000ff" transform="translate(46.34649 446.426728) scale(0.08 -0.08)">
     <use xlink:href="#DejaVuSansMono-28"/>
     <use xlink:href="#DejaVuSansMono-30" transform="translate(60.205078 0)"/>
     <use xlink:href="#DejaVuSansMono-2c" transform="translate(120.410156 0)"/>
     <use xlink:href="#DejaVuSansMono-20" transform="translate(180.615234 0)"/>
     <use xlink:href="#DejaVuSansMono-28" transform="translate(240.820312 0)"/>
     <use xlink:href="#DejaVuSansMono-33" transform="translate(301.025391 0)"/>
     <use xlink:href="#DejaVuSansMono-2c" transform="translate(361.230469 0)"/>
     <use xlink:href="#DejaVuSansMono-20" transform="translate(421.435547 0)"/>
     <use xlink:href="#DejaVuSansMono-35" transform="translate(481.640625 0)"/>
     <use xlink:href="#DejaVuSansMono-2c" transform="translate(541.845703 0)"/>
     <use xlink:href="#DejaVuSansMono-20" transform="translate(602.050781 0)"/>
     <use xlink:href="#DejaVuSansMono-31" transform="translate(662.255859 0)"/>
     <use xlink:href="#DejaVuSansMono-2c" transform="translate(722.460938 0)"/>
     <use xlink:href="#DejaVuSansMono-20" transform="translate(782.666016 0)"/>
     <use xlink:href="#DejaVuSansMono-35" transform="translate(842.871094 0)"/>
     <use xlink:href="#DejaVuSansMono-29" transform="translate(903.076172 0)"/>
     <use xlink:href="#DejaVuSansMono-29" transform="translate(963.28125 0)"/>
    </g>
   </g>
   <g id="text_28">
    <!-- (0, (3, 10, 1, 10)) -->
    <g style="fill: #0000ff" transform="translate(36.71399 415.632721) scale(0.08 -0.08)">
     <use xlink:href="#DejaVuSansMono-28"/>
     <use xlink:href="#DejaVuSansMono-30" transform="translate(60.205078 0)"/>
     <use xlink:href="#DejaVuSansMono-2c" transform="translate(120.410156 0)"/>
     <use xlink:href="#DejaVuSansMono-20" transform="translate(180.615234 0)"/>
     <use xlink:href="#DejaVuSansMono-28" transform="translate(240.820312 0)"/>
     <use xlink:href="#DejaVuSansMono-33" transform="translate(301.025391 0)"/>
     <use xlink:href="#DejaVuSansMono-2c" transform="translate(361.230469 0)"/>
     <use xlink:href="#DejaVuSansMono-20" transform="translate(421.435547 0)"/>
     <use xlink:href="#DejaVuSansMono-31" transform="translate(481.640625 0)"/>
     <use xlink:href="#DejaVuSansMono-30" transform="translate(541.845703 0)"/>
     <use xlink:href="#DejaVuSansMono-2c" transform="translate(602.050781 0)"/>
     <use xlink:href="#DejaVuSansMono-20" transform="translate(662.255859 0)"/>
     <use xlink:href="#DejaVuSansMono-31" transform="translate(722.460938 0)"/>
     <use xlink:href="#DejaVuSansMono-2c" transform="translate(782.666016 0)"/>
     <use xlink:href="#DejaVuSansMono-20" transform="translate(842.871094 0)"/>
     <use xlink:href="#DejaVuSansMono-31" transform="translate(903.076172 0)"/>
     <use xlink:href="#DejaVuSansMono-30" transform="translate(963.28125 0)"/>
     <use xlink:href="#DejaVuSansMono-29" transform="translate(1023.486328 0)"/>
     <use xlink:href="#DejaVuSansMono-29" transform="translate(1083.691406 0)"/>
    </g>
   </g>
   <g id="text_29">
    <!-- (0, (5, 1)) -->
    <g style="fill: #0000ff" transform="translate(75.24399 384.838714) scale(0.08 -0.08)">
     <use xlink:href="#DejaVuSansMono-28"/>
     <use xlink:href="#DejaVuSansMono-30" transform="translate(60.205078 0)"/>
     <use xlink:href="#DejaVuSansMono-2c" transform="translate(120.410156 0)"/>
     <use xlink:href="#DejaVuSansMono-20" transform="translate(180.615234 0)"/>
     <use xlink:href="#DejaVuSansMono-28" transform="translate(240.820312 0)"/>
     <use xlink:href="#DejaVuSansMono-35" transform="translate(301.025391 0)"/>
     <use xlink:href="#DejaVuSansMono-2c" transform="translate(361.230469 0)"/>
     <use xlink:href="#DejaVuSansMono-20" transform="translate(421.435547 0)"/>
     <use xlink:href="#DejaVuSansMono-31" transform="translate(481.640625 0)"/>
     <use xlink:href="#DejaVuSansMono-29" transform="translate(541.845703 0)"/>
     <use xlink:href="#DejaVuSansMono-29" transform="translate(602.050781 0)"/>
    </g>
   </g>
   <g id="text_30">
    <!-- (0, (5, 5)) -->
    <g style="fill: #0000ff" transform="translate(75.24399 354.044707) scale(0.08 -0.08)">
     <use xlink:href="#DejaVuSansMono-28"/>
     <use xlink:href="#DejaVuSansMono-30" transform="translate(60.205078 0)"/>
     <use xlink:href="#DejaVuSansMono-2c" transform="translate(120.410156 0)"/>
     <use xlink:href="#DejaVuSansMono-20" transform="translate(180.615234 0)"/>
     <use xlink:href="#DejaVuSansMono-28" transform="translate(240.820312 0)"/>
     <use xlink:href="#DejaVuSansMono-35" transform="translate(301.025391 0)"/>
     <use xlink:href="#DejaVuSansMono-2c" transform="translate(361.230469 0)"/>
     <use xlink:href="#DejaVuSansMono-20" transform="translate(421.435547 0)"/>
     <use xlink:href="#DejaVuSansMono-35" transform="translate(481.640625 0)"/>
     <use xlink:href="#DejaVuSansMono-29" transform="translate(541.845703 0)"/>
     <use xlink:href="#DejaVuSansMono-29" transform="translate(602.050781 0)"/>
    </g>
   </g>
   <g id="text_31">
    <!-- (0, (5, 10)) -->
    <g style="fill: #0000ff" transform="translate(70.42774 323.2507) scale(0.08 -0.08)">
     <use xlink:href="#DejaVuSansMono-28"/>
     <use xlink:href="#DejaVuSansMono-30" transform="translate(60.205078 0)"/>
     <use xlink:href="#DejaVuSansMono-2c" transform="translate(120.410156 0)"/>
     <use xlink:href="#DejaVuSansMono-20" transform="translate(180.615234 0)"/>
     <use xlink:href="#DejaVuSansMono-28" transform="translate(240.820312 0)"/>
     <use xlink:href="#DejaVuSansMono-35" transform="translate(301.025391 0)"/>
     <use xlink:href="#DejaVuSansMono-2c" transform="translate(361.230469 0)"/>
     <use xlink:href="#DejaVuSansMono-20" transform="translate(421.435547 0)"/>
     <use xlink:href="#DejaVuSansMono-31" transform="translate(481.640625 0)"/>
     <use xlink:href="#DejaVuSansMono-30" transform="translate(541.845703 0)"/>
     <use xlink:href="#DejaVuSansMono-29" transform="translate(602.050781 0)"/>
     <use xlink:href="#DejaVuSansMono-29" transform="translate(662.255859 0)"/>
    </g>
   </g>
   <g id="text_32">
    <!-- (5, (10, 3)) -->
    <g style="fill: #0000ff" transform="translate(70.42774 292.456692) scale(0.08 -0.08)">
     <use xlink:href="#DejaVuSansMono-28"/>
     <use xlink:href="#DejaVuSansMono-35" transform="translate(60.205078 0)"/>
     <use xlink:href="#DejaVuSansMono-2c" transform="translate(120.410156 0)"/>
     <use xlink:href="#DejaVuSansMono-20" transform="translate(180.615234 0)"/>
     <use xlink:href="#DejaVuSansMono-28" transform="translate(240.820312 0)"/>
     <use xlink:href="#DejaVuSansMono-31" transform="translate(301.025391 0)"/>
     <use xlink:href="#DejaVuSansMono-30" transform="translate(361.230469 0)"/>
     <use xlink:href="#DejaVuSansMono-2c" transform="translate(421.435547 0)"/>
     <use xlink:href="#DejaVuSansMono-20" transform="translate(481.640625 0)"/>
     <use xlink:href="#DejaVuSansMono-33" transform="translate(541.845703 0)"/>
     <use xlink:href="#DejaVuSansMono-29" transform="translate(602.050781 0)"/>
     <use xlink:href="#DejaVuSansMono-29" transform="translate(662.255859 0)"/>
    </g>
   </g>
   <g id="text_33">
    <!-- (0, (1, 1)) -->
    <g style="fill: #0000ff" transform="translate(75.24399 261.662685) scale(0.08 -0.08)">
     <use xlink:href="#DejaVuSansMono-28"/>
     <use xlink:href="#DejaVuSansMono-30" transform="translate(60.205078 0)"/>
     <use xlink:href="#DejaVuSansMono-2c" transform="translate(120.410156 0)"/>
     <use xlink:href="#DejaVuSansMono-20" transform="translate(180.615234 0)"/>
     <use xlink:href="#DejaVuSansMono-28" transform="translate(240.820312 0)"/>
     <use xlink:href="#DejaVuSansMono-31" transform="translate(301.025391 0)"/>
     <use xlink:href="#DejaVuSansMono-2c" transform="translate(361.230469 0)"/>
     <use xlink:href="#DejaVuSansMono-20" transform="translate(421.435547 0)"/>
     <use xlink:href="#DejaVuSansMono-31" transform="translate(481.640625 0)"/>
     <use xlink:href="#DejaVuSansMono-29" transform="translate(541.845703 0)"/>
     <use xlink:href="#DejaVuSansMono-29" transform="translate(602.050781 0)"/>
    </g>
   </g>
   <g id="text_34">
    <!-- (0, (1, 5)) -->
    <g style="fill: #0000ff" transform="translate(75.24399 230.868678) scale(0.08 -0.08)">
     <use xlink:href="#DejaVuSansMono-28"/>
     <use xlink:href="#DejaVuSansMono-30" transform="translate(60.205078 0)"/>
     <use xlink:href="#DejaVuSansMono-2c" transform="translate(120.410156 0)"/>
     <use xlink:href="#DejaVuSansMono-20" transform="translate(180.615234 0)"/>
     <use xlink:href="#DejaVuSansMono-28" transform="translate(240.820312 0)"/>
     <use xlink:href="#DejaVuSansMono-31" transform="translate(301.025391 0)"/>
     <use xlink:href="#DejaVuSansMono-2c" transform="translate(361.230469 0)"/>
     <use xlink:href="#DejaVuSansMono-20" transform="translate(421.435547 0)"/>
     <use xlink:href="#DejaVuSansMono-35" transform="translate(481.640625 0)"/>
     <use xlink:href="#DejaVuSansMono-29" transform="translate(541.845703 0)"/>
     <use xlink:href="#DejaVuSansMono-29" transform="translate(602.050781 0)"/>
    </g>
   </g>
   <g id="text_35">
    <!-- (0, (1, 10)) -->
    <g style="fill: #0000ff" transform="translate(70.42774 200.074671) scale(0.08 -0.08)">
     <use xlink:href="#DejaVuSansMono-28"/>
     <use xlink:href="#DejaVuSansMono-30" transform="translate(60.205078 0)"/>
     <use xlink:href="#DejaVuSansMono-2c" transform="translate(120.410156 0)"/>
     <use xlink:href="#DejaVuSansMono-20" transform="translate(180.615234 0)"/>
     <use xlink:href="#DejaVuSansMono-28" transform="translate(240.820312 0)"/>
     <use xlink:href="#DejaVuSansMono-31" transform="translate(301.025391 0)"/>
     <use xlink:href="#DejaVuSansMono-2c" transform="translate(361.230469 0)"/>
     <use xlink:href="#DejaVuSansMono-20" transform="translate(421.435547 0)"/>
     <use xlink:href="#DejaVuSansMono-31" transform="translate(481.640625 0)"/>
     <use xlink:href="#DejaVuSansMono-30" transform="translate(541.845703 0)"/>
     <use xlink:href="#DejaVuSansMono-29" transform="translate(602.050781 0)"/>
     <use xlink:href="#DejaVuSansMono-29" transform="translate(662.255859 0)"/>
    </g>
   </g>
   <g id="text_36">
    <!-- Parametrized linestyles -->
    <g transform="translate(247.522813 166.677667) scale(0.12 -0.12)">
     <defs>
      <path id="DejaVuSans-50" d="M 1259 4147 
L 1259 2394 
L 2053 2394 
Q 2494 2394 2734 2622 
Q 2975 2850 2975 3272 
Q 2975 3691 2734 3919 
Q 2494 4147 2053 4147 
L 1259 4147 
z
M 628 4666 
L 2053 4666 
Q 2838 4666 3239 4311 
Q 3641 3956 3641 3272 
Q 3641 2581 3239 2228 
Q 2838 1875 2053 1875 
L 1259 1875 
L 1259 0 
L 628 0 
L 628 4666 
z
" transform="scale(0.015625)"/>
      <path id="DejaVuSans-72" d="M 2631 2963 
Q 2534 3019 2420 3045 
Q 2306 3072 2169 3072 
Q 1681 3072 1420 2755 
Q 1159 2438 1159 1844 
L 1159 0 
L 581 0 
L 581 3500 
L 1159 3500 
L 1159 2956 
Q 1341 3275 1631 3429 
Q 1922 3584 2338 3584 
Q 2397 3584 2469 3576 
Q 2541 3569 2628 3553 
L 2631 2963 
z
" transform="scale(0.015625)"/>
      <path id="DejaVuSans-7a" d="M 353 3500 
L 3084 3500 
L 3084 2975 
L 922 459 
L 3084 459 
L 3084 0 
L 275 0 
L 275 525 
L 2438 3041 
L 353 3041 
L 353 3500 
z
" transform="scale(0.015625)"/>
     </defs>
     <use xlink:href="#DejaVuSans-50"/>
     <use xlink:href="#DejaVuSans-61" transform="translate(55.802734 0)"/>
     <use xlink:href="#DejaVuSans-72" transform="translate(117.082031 0)"/>
     <use xlink:href="#DejaVuSans-61" transform="translate(158.195312 0)"/>
     <use xlink:href="#DejaVuSans-6d" transform="translate(219.474609 0)"/>
     <use xlink:href="#DejaVuSans-65" transform="translate(316.886719 0)"/>
     <use xlink:href="#DejaVuSans-74" transform="translate(378.410156 0)"/>
     <use xlink:href="#DejaVuSans-72" transform="translate(417.619141 0)"/>
     <use xlink:href="#DejaVuSans-69" transform="translate(458.732422 0)"/>
     <use xlink:href="#DejaVuSans-7a" transform="translate(486.515625 0)"/>
     <use xlink:href="#DejaVuSans-65" transform="translate(539.005859 0)"/>
     <use xlink:href="#DejaVuSans-64" transform="translate(600.529297 0)"/>
     <use xlink:href="#DejaVuSans-20" transform="translate(664.005859 0)"/>
     <use xlink:href="#DejaVuSans-6c" transform="translate(695.792969 0)"/>
     <use xlink:href="#DejaVuSans-69" transform="translate(723.576172 0)"/>
     <use xlink:href="#DejaVuSans-6e" transform="translate(751.359375 0)"/>
     <use xlink:href="#DejaVuSans-65" transform="translate(814.738281 0)"/>
     <use xlink:href="#DejaVuSans-73" transform="translate(876.261719 0)"/>
     <use xlink:href="#DejaVuSans-74" transform="translate(928.361328 0)"/>
     <use xlink:href="#DejaVuSans-79" transform="translate(967.570312 0)"/>
     <use xlink:href="#DejaVuSans-6c" transform="translate(1026.75 0)"/>
     <use xlink:href="#DejaVuSans-65" transform="translate(1054.533203 0)"/>
     <use xlink:href="#DejaVuSans-73" transform="translate(1116.056641 0)"/>
    </g>
   </g>
  </g>
 </g>
 <defs>
  <clipPath id="p800d199da2">
   <rect x="134.22274" y="18.118365" width="366.77702" height="133.440698"/>
  </clipPath>
  <clipPath id="pdf04e81c4c">
   <rect x="134.22274" y="172.677667" width="366.77702" height="400.322093"/>
  </clipPath>
 </defs>
</svg>
