<?xml version="1.0" standalone="no"?>
<svg width="567.429" height="386.304" viewBox="0 0 567.429 386.304" xmlns="http://www.w3.org/2000/svg" shape-rendering="crispEdges">
<title>
/Users/zhangzh/rlx+palecolor.svg
</title>
<desc>
Creator: ROOT Version 6.28/04
CreationDate: Tue Nov  7 22:53:15 2023</desc>
<defs>
</defs>
<rect x="0.5" y="0" width="566.929" height="385.804" fill="white"/>
<rect x="57.1929" y="38.5804" width="453.543" height="308.643" fill="white"/>
<rect x="57.1929" y="38.5804" width="453.543" height="308.643" fill="none" stroke="black"/>
<rect x="57.1929" y="38.5804" width="453.543" height="308.643" fill="white"/>
<rect x="57.1929" y="38.5804" width="453.543" height="308.643" fill="none" stroke="black"/>
<path d="M57.1929,38.5804h 453.543" fill="none" stroke="black"/>
<path d="M94.9882,47.8397v -9.2593" fill="none" stroke="black"/>
<path d="M104.437,43.2101v -4.62965" fill="none" stroke="black"/>
<path d="M113.886,43.2101v -4.62965" fill="none" stroke="black"/>
<path d="M123.335,43.2101v -4.62965" fill="none" stroke="black"/>
<path d="M132.783,43.2101v -4.62965" fill="none" stroke="black"/>
<path d="M142.232,47.8397v -9.2593" fill="none" stroke="black"/>
<path d="M151.681,43.2101v -4.62965" fill="none" stroke="black"/>
<path d="M161.13,43.2101v -4.62965" fill="none" stroke="black"/>
<path d="M170.579,43.2101v -4.62965" fill="none" stroke="black"/>
<path d="M180.028,43.2101v -4.62965" fill="none" stroke="black"/>
<path d="M189.476,47.8397v -9.2593" fill="none" stroke="black"/>
<path d="M198.925,43.2101v -4.62965" fill="none" stroke="black"/>
<path d="M208.374,43.2101v -4.62965" fill="none" stroke="black"/>
<path d="M217.823,43.2101v -4.62965" fill="none" stroke="black"/>
<path d="M227.272,43.2101v -4.62965" fill="none" stroke="black"/>
<path d="M236.72,47.8397v -9.2593" fill="none" stroke="black"/>
<path d="M246.169,43.2101v -4.62965" fill="none" stroke="black"/>
<path d="M255.618,43.2101v -4.62965" fill="none" stroke="black"/>
<path d="M265.067,43.2101v -4.62965" fill="none" stroke="black"/>
<path d="M274.516,43.2101v -4.62965" fill="none" stroke="black"/>
<path d="M283.965,47.8397v -9.2593" fill="none" stroke="black"/>
<path d="M293.413,43.2101v -4.62965" fill="none" stroke="black"/>
<path d="M302.862,43.2101v -4.62965" fill="none" stroke="black"/>
<path d="M312.311,43.2101v -4.62965" fill="none" stroke="black"/>
<path d="M321.76,43.2101v -4.62965" fill="none" stroke="black"/>
<path d="M331.209,47.8397v -9.2593" fill="none" stroke="black"/>
<path d="M340.657,43.2101v -4.62965" fill="none" stroke="black"/>
<path d="M350.106,43.2101v -4.62965" fill="none" stroke="black"/>
<path d="M359.555,43.2101v -4.62965" fill="none" stroke="black"/>
<path d="M369.004,43.2101v -4.62965" fill="none" stroke="black"/>
<path d="M378.453,47.8397v -9.2593" fill="none" stroke="black"/>
<path d="M387.902,43.2101v -4.62965" fill="none" stroke="black"/>
<path d="M397.35,43.2101v -4.62965" fill="none" stroke="black"/>
<path d="M406.799,43.2101v -4.62965" fill="none" stroke="black"/>
<path d="M416.248,43.2101v -4.62965" fill="none" stroke="black"/>
<path d="M425.697,47.8397v -9.2593" fill="none" stroke="black"/>
<path d="M435.146,43.2101v -4.62965" fill="none" stroke="black"/>
<path d="M444.594,43.2101v -4.62965" fill="none" stroke="black"/>
<path d="M454.043,43.2101v -4.62965" fill="none" stroke="black"/>
<path d="M463.492,43.2101v -4.62965" fill="none" stroke="black"/>
<path d="M472.941,47.8397v -9.2593" fill="none" stroke="black"/>
<path d="M94.9882,47.8397v -9.2593" fill="none" stroke="black"/>
<path d="M85.5394,43.2101v -4.62965" fill="none" stroke="black"/>
<path d="M76.0906,43.2101v -4.62965" fill="none" stroke="black"/>
<path d="M66.6417,43.2101v -4.62965" fill="none" stroke="black"/>
<path d="M57.1929,43.2101v -4.62965" fill="none" stroke="black"/>
<path d="M472.941,47.8397v -9.2593" fill="none" stroke="black"/>
<path d="M482.39,43.2101v -4.62965" fill="none" stroke="black"/>
<path d="M491.839,43.2101v -4.62965" fill="none" stroke="black"/>
<path d="M501.287,43.2101v -4.62965" fill="none" stroke="black"/>
<path d="M510.736,43.2101v -4.62965" fill="none" stroke="black"/>
<text xml:space="preserve" x="92.2808" y="30.8643" fill="black" font-size="12.8882" font-family="Helvetica">1</text>
<text xml:space="preserve" x="132.892" y="30.8643" fill="black" font-size="12.8882" font-family="Helvetica">1.5</text>
<text xml:space="preserve" x="184.874" y="30.8643" fill="black" font-size="12.8882" font-family="Helvetica">2</text>
<text xml:space="preserve" x="227.109" y="30.8643" fill="black" font-size="12.8882" font-family="Helvetica">2.5</text>
<text xml:space="preserve" x="279.903" y="30.8643" fill="black" font-size="12.8882" font-family="Helvetica">3</text>
<text xml:space="preserve" x="322.139" y="30.8643" fill="black" font-size="12.8882" font-family="Helvetica">3.5</text>
<text xml:space="preserve" x="374.121" y="30.8643" fill="black" font-size="12.8882" font-family="Helvetica">4</text>
<text xml:space="preserve" x="416.356" y="30.8643" fill="black" font-size="12.8882" font-family="Helvetica">4.5</text>
<text xml:space="preserve" x="468.338" y="30.8643" fill="black" font-size="12.8882" font-family="Helvetica">5</text>
<path d="M57.1929,347.224v -308.643" fill="none" stroke="white"/>
<path d="M57.1929,321.504z" fill="none" stroke="white"/>
<path d="M57.1929,308.643z" fill="none" stroke="white"/>
<path d="M57.1929,295.783z" fill="none" stroke="white"/>
<path d="M57.1929,282.923z" fill="none" stroke="white"/>
<path d="M57.1929,270.063z" fill="none" stroke="white"/>
<path d="M57.1929,257.203z" fill="none" stroke="white"/>
<path d="M57.1929,244.343z" fill="none" stroke="white"/>
<path d="M57.1929,231.483z" fill="none" stroke="white"/>
<path d="M57.1929,218.622z" fill="none" stroke="white"/>
<path d="M57.1929,205.762z" fill="none" stroke="white"/>
<path d="M57.1929,192.902z" fill="none" stroke="white"/>
<path d="M57.1929,180.042z" fill="none" stroke="white"/>
<path d="M57.1929,167.182z" fill="none" stroke="white"/>
<path d="M57.1929,154.322z" fill="none" stroke="white"/>
<path d="M57.1929,141.462z" fill="none" stroke="white"/>
<path d="M57.1929,128.601z" fill="none" stroke="white"/>
<path d="M57.1929,115.741z" fill="none" stroke="white"/>
<path d="M57.1929,102.881z" fill="none" stroke="white"/>
<path d="M57.1929,90.021z" fill="none" stroke="white"/>
<path d="M57.1929,77.1608z" fill="none" stroke="white"/>
<path d="M57.1929,64.3007z" fill="none" stroke="white"/>
<path d="M57.1929,321.504z" fill="none" stroke="white"/>
<path d="M57.1929,334.364z" fill="none" stroke="white"/>
<path d="M57.1929,64.3007z" fill="none" stroke="white"/>
<path d="M57.1929,51.4406z" fill="none" stroke="white"/>
<path d="M57.1929,38.5804v 308.643" fill="none" stroke="black"/>
<path d="M70.7992,64.3007h -13.6063" fill="none" stroke="black"/>
<path d="M63.9961,77.1608h -6.80315" fill="none" stroke="black"/>
<path d="M63.9961,90.021h -6.80315" fill="none" stroke="black"/>
<path d="M63.9961,102.881h -6.80315" fill="none" stroke="black"/>
<path d="M63.9961,115.741h -6.80315" fill="none" stroke="black"/>
<path d="M70.7992,128.601h -13.6063" fill="none" stroke="black"/>
<path d="M63.9961,141.462h -6.80315" fill="none" stroke="black"/>
<path d="M63.9961,154.322h -6.80315" fill="none" stroke="black"/>
<path d="M63.9961,167.182h -6.80315" fill="none" stroke="black"/>
<path d="M63.9961,180.042h -6.80315" fill="none" stroke="black"/>
<path d="M70.7992,192.902h -13.6063" fill="none" stroke="black"/>
<path d="M63.9961,205.762h -6.80315" fill="none" stroke="black"/>
<path d="M63.9961,218.622h -6.80315" fill="none" stroke="black"/>
<path d="M63.9961,231.483h -6.80315" fill="none" stroke="black"/>
<path d="M63.9961,244.343h -6.80315" fill="none" stroke="black"/>
<path d="M70.7992,257.203h -13.6063" fill="none" stroke="black"/>
<path d="M63.9961,270.063h -6.80315" fill="none" stroke="black"/>
<path d="M63.9961,282.923h -6.80315" fill="none" stroke="black"/>
<path d="M63.9961,295.783h -6.80315" fill="none" stroke="black"/>
<path d="M63.9961,308.643h -6.80315" fill="none" stroke="black"/>
<path d="M70.7992,321.504h -13.6063" fill="none" stroke="black"/>
<path d="M70.7992,64.3007h -13.6063" fill="none" stroke="black"/>
<path d="M63.9961,51.4406h -6.80315" fill="none" stroke="black"/>
<path d="M70.7992,321.504h -13.6063" fill="none" stroke="black"/>
<path d="M63.9961,334.364h -6.80315" fill="none" stroke="black"/>
<text xml:space="preserve" x="37.8621" y="69.8509" fill="black" font-size="12.8882" font-family="Helvetica">1</text>
<text xml:space="preserve" x="24.8666" y="133.204" fill="black" font-size="12.8882" font-family="Helvetica">1.5</text>
<text xml:space="preserve" x="35.4254" y="198.182" fill="black" font-size="12.8882" font-family="Helvetica">2</text>
<text xml:space="preserve" x="24.8666" y="261.535" fill="black" font-size="12.8882" font-family="Helvetica">2.5</text>
<text xml:space="preserve" x="35.4254" y="325.7" fill="black" font-size="12.8882" font-family="Helvetica">3</text>
<path d="M94.9882,64.3007l 5.13315, 13.7146l 5.03338, 12.6763l 4.95891, 11.7465l 4.91203, 10.9138l 4.89488, 10.1653l 4.90874, 9.4857l 4.95282, 8.85538l 5.02197, 8.24846l 5.10379, 7.6322l 5.17653, 6.97084l 5.21298, 6.23861l 5.19761, 5.44178l 5.20977,
 4.67626l 5.22121, 3.9062l 5.20422, 3.11713l 5.20586, 2.3433l 5.05009, 1.53295l 5.14807, 0.812266l 2.94218, 0.123839l 2.97777, -0.399453l 3.06679, -1.21127l 3.19548, -2.0668l 3.33754, -2.96809l 3.50008, -3.92262l 4.16298, -5.62913l 4.27111, -6.71942l
 4.63169, -8.1847l 5.53668, -10.7313l 7.64225, -15.8862l 11.8972, -25.1753l 6.1212, -12.1739l 5.19327, -9.43822l 4.40789, -7.13996l 3.74335, -5.29635l 3.1819, -3.86339l 3.40546, -3.40709l 3.20081, -2.44782l 3.08736, -1.60671l 2.89435, -0.78215l
 2.78111, -0.0472557l 2.25193, 0.495771l 3.08738, 1.4147l 3.1702, 2.2491l 3.27926, 3.12808l 3.39434, 4.04274l 3.52199, 4.99922l 4.12553, 6.81039" fill="none" stroke="#9a0807" stroke-width="3"/>
<path d="M304.543,86.9449l 4.18405, 7.85352l 4.24515, 8.82517l 4.66239, 10.5429l 5.40355, 13.1228l 6.73963, 17.352l 21.7022, 57.5204l 5.48169, 13.5272l 4.6307, 10.7051l 4.28875, 9.17747l 4.18138, 8.14332l 3.48384, 6.09594l 3.58336, 5.54468l 1.32278,
 1.84734l 7.02756, 9.16274l 7.10916, 8.54834l 7.21743, 7.93861l 7.32648, 7.29763l 7.39892, 6.59318l 7.40199, 5.81628l 7.81435, 5.29532l 6.65121, 3.82419l 7.4698, 3.54681l 7.41917, 2.73991l 7.60523, 1.9992l 7.0829, 1.12509l 6.964, 0.413384"
 fill="none" stroke="#9a0807" stroke-width="3"/>
<g stroke="#ff0000" stroke-width="1" fill="none">
<line x1="91.7393" y1="64.3007" x2="98.2371" y2="64.3007"/><line x1="94.9882" y1="61.0518" x2="94.9882" y2="67.5496"/><line x1="92.6912" y1="62.0037" x2="97.2851" y2="66.5977"/><line x1="92.6912" y1="66.5977" x2="97.2851" y2="62.0037"/>
<line x1="186.228" y1="192.902" x2="192.725" y2="192.902"/><line x1="189.476" y1="189.653" x2="189.476" y2="196.151"/><line x1="187.179" y1="190.605" x2="191.773" y2="195.199"/><line x1="187.179" y1="195.199" x2="191.773" y2="190.605"/>
<line x1="280.716" y1="64.3007" x2="287.213" y2="64.3007"/><line x1="283.965" y1="61.0518" x2="283.965" y2="67.5496"/><line x1="281.668" y1="62.0037" x2="286.262" y2="66.5977"/><line x1="281.668" y1="66.5977" x2="286.262" y2="62.0037"/>
<line x1="375.204" y1="257.203" x2="381.702" y2="257.203"/><line x1="378.453" y1="253.954" x2="378.453" y2="260.452"/><line x1="376.156" y1="254.906" x2="380.75" y2="259.5"/><line x1="376.156" y1="259.5" x2="380.75" y2="254.906"/>
<line x1="469.692" y1="321.504" x2="476.19" y2="321.504"/><line x1="472.941" y1="318.255" x2="472.941" y2="324.752"/><line x1="470.644" y1="319.207" x2="475.238" y2="323.8"/><line x1="470.644" y1="323.8" x2="475.238" y2="319.207"/>
</g>
<path d="M94.9882,77.1608l 5.13315, 13.7146l 5.03338, 12.6763l 4.95891, 11.7465l 4.91203, 10.9138l 4.89488, 10.1653l 4.90874, 9.4857l 4.95282, 8.85538l 5.02197, 8.24846l 5.10379, 7.6322l 5.17653, 6.97084l 5.21298, 6.23861l 5.19761, 5.44178l 5.20977,
 4.67626l 5.22121, 3.9062l 5.20422, 3.11713l 5.20586, 2.3433l 5.05009, 1.53295l 5.14807, 0.812266l 2.94218, 0.123839l 2.97777, -0.399453l 3.06679, -1.21127l 3.19548, -2.0668l 3.33754, -2.96809l 3.50008, -3.92262l 4.16298, -5.62913l 4.27111, -6.71942l
 4.63169, -8.1847l 5.53668, -10.7313l 7.64225, -15.8862l 11.8972, -25.1753l 6.1212, -12.1739l 5.19327, -9.43822l 4.40789, -7.13996l 3.74335, -5.29635l 3.1819, -3.86339l 3.40546, -3.40709l 3.20081, -2.44782l 3.08736, -1.60671l 2.89435, -0.78215l
 2.78111, -0.0472557l 2.25193, 0.495771l 3.08738, 1.4147l 3.1702, 2.2491l 3.27926, 3.12808l 3.39434, 4.04274l 3.52199, 4.99922l 4.12553, 6.81039" fill="none" stroke="#9a0807" stroke-width="3"/>
<path d="M304.543,99.8051l 4.18405, 7.85352l 4.24515, 8.82517l 4.66239, 10.5429l 5.40355, 13.1228l 6.73963, 17.352l 21.7022, 57.5204l 5.48169, 13.5272l 4.6307, 10.7051l 4.28875, 9.17747l 4.18138, 8.14332l 3.48384, 6.09594l 3.58336, 5.54468l 1.32278,
 1.84734l 7.02756, 9.16274l 7.10916, 8.54834l 7.21743, 7.93861l 7.32648, 7.29763l 7.39892, 6.59318l 7.40199, 5.81628l 7.81435, 5.29532l 6.65121, 3.82419l 7.4698, 3.54681l 7.41917, 2.73991l 7.60523, 1.9992l 7.0829, 1.12509l 6.964, 0.413384"
 fill="none" stroke="#9a0807" stroke-width="3"/>
<g stroke="black" stroke-width="1" fill="none">
<circle cx="94.9882" cy="77.1608" r="3.24888"/>
<circle cx="189.476" cy="205.762" r="3.24888"/>
<circle cx="283.965" cy="77.1608" r="3.24888"/>
<circle cx="378.453" cy="270.063" r="3.24888"/>
<circle cx="472.941" cy="334.364" r="3.24888"/>
</g>
<path d="M94.9882,295.783l 5.13315, -13.7146l 5.03338, -12.6763l 4.95891, -11.7465l 4.91203, -10.9138l 4.89488, -10.1653l 4.90874, -9.4857l 4.95282, -8.85538l 5.02197, -8.24846l 5.10379, -7.6322l 5.17653, -6.97084l 5.21298, -6.23861l 5.19761,
 -5.44178l 5.20977, -4.67626l 5.22121, -3.9062l 5.20422, -3.11713l 5.20586, -2.3433l 5.05009, -1.53295l 5.14807, -0.812266l 2.94218, -0.123839l 2.97806, 0.399529l 3.06725, 1.21158l 3.19604, 2.06743l 85.2468, 124.923l 3.07185, -1.40563l 3.17178,
 -2.24657l 3.2782, -3.12358l 3.39278, -4.03721l 3.52026, -4.99288l 4.11424, -6.7861l 4.13051, -7.74121l 4.27244, -8.86861l 4.62626, -10.4485l 5.34348, -12.958l 6.6193, -17.0157l 14.8961, -39.8133l 6.98475, -18.1857l 5.48469, -13.5482l 4.62919,
 -10.7164l 4.29202, -9.20082l 4.19867, -8.19338l 3.48526, -6.11193l 3.58071, -5.55593l 1.39571, -1.95241l 7.02756, -9.16274l 7.10916, -8.54834l 7.21743, -7.93861l 7.32648, -7.29763" fill="none" stroke="#c73909" stroke-width="3"/>
<path d="M407.133,69.9338l 7.39892, -6.59318l 7.40199, -5.81628l 7.81435, -5.29532l 6.65121, -3.82419l 7.4698, -3.54681l 7.41917, -2.73991l 7.60523, -1.9992l 7.0829, -1.12509l 6.964, -0.413384" fill="none" stroke="#c73909" stroke-width="3"/>
<g stroke="black" stroke-width="1" fill="none">
<rect x="91.7393" y="292.534" width="6.49776" height="6.49776"/>
<rect x="186.228" y="163.933" width="6.49776" height="6.49776"/>
<rect x="280.716" y="292.534" width="6.49776" height="6.49776"/>
<rect x="375.204" y="99.6322" width="6.49776" height="6.49776"/>
<rect x="469.692" y="35.3315" width="6.49776" height="6.49776"/>
</g>
<path d="M94.9882,282.923l 5.13315, -13.7146l 5.03338, -12.6763l 4.95891, -11.7465l 4.91203, -10.9138l 4.89488, -10.1653l 4.90874, -9.4857l 4.95282, -8.85538l 5.02197, -8.24846l 5.10379, -7.6322l 5.17653, -6.97084l 5.21298, -6.23861l 5.19761,
 -5.44178l 5.20977, -4.67626l 5.22121, -3.9062l 5.20422, -3.11713l 5.20586, -2.3433l 5.05009, -1.53295l 5.14807, -0.812266l 2.94218, -0.123839l 2.97806, 0.399529l 3.06725, 1.21158l 3.19604, 2.06743l 85.2468, 124.923l 3.07185, -1.40563l 3.17178,
 -2.24657l 3.2782, -3.12358l 3.39278, -4.03721l 3.52026, -4.99288l 4.11424, -6.7861l 4.13051, -7.74121l 4.27244, -8.86861l 4.62626, -10.4485l 5.34348, -12.958l 6.6193, -17.0157l 14.8961, -39.8133l 6.98475, -18.1857l 5.48469, -13.5482l 4.62919,
 -10.7164l 4.29202, -9.20082l 4.19867, -8.19338l 3.48526, -6.11193l 3.58071, -5.55593l 1.39571, -1.95241l 7.02756, -9.16274l 7.10916, -8.54834l 7.21743, -7.93861l 7.32648, -7.29763" fill="none" stroke="#c87410" stroke-width="3"/>
<path d="M407.133,57.0737l 7.39892, -6.59318l 7.40199, -5.81628l 7.81435, -5.29532l 1.37132, -0.788458" fill="none" stroke="#c87410" stroke-width="3"/>
<g stroke="#0000ff" stroke-width="1" fill="none">
<line x1="91.7393" y1="282.923" x2="98.2371" y2="282.923"/><line x1="94.9882" y1="279.674" x2="94.9882" y2="286.172"/><line x1="92.6912" y1="280.626" x2="97.2851" y2="285.22"/><line x1="92.6912" y1="285.22" x2="97.2851" y2="280.626"/>
<line x1="186.228" y1="154.322" x2="192.725" y2="154.322"/><line x1="189.476" y1="151.073" x2="189.476" y2="157.571"/><line x1="187.179" y1="152.025" x2="191.773" y2="156.619"/><line x1="187.179" y1="156.619" x2="191.773" y2="152.025"/>
<line x1="280.716" y1="282.923" x2="287.213" y2="282.923"/><line x1="283.965" y1="279.674" x2="283.965" y2="286.172"/><line x1="281.668" y1="280.626" x2="286.262" y2="285.22"/><line x1="281.668" y1="285.22" x2="286.262" y2="280.626"/>
<line x1="375.204" y1="90.021" x2="381.702" y2="90.021"/><line x1="378.453" y1="86.7721" x2="378.453" y2="93.2699"/><line x1="376.156" y1="87.724" x2="380.75" y2="92.3179"/><line x1="376.156" y1="92.3179" x2="380.75" y2="87.724"/>
</g>
<path d="M94.9882,270.063l 5.13315, -13.7146l 5.03338, -12.6763l 4.95891, -11.7465l 4.91203, -10.9138l 4.89488, -10.1653l 4.90874, -9.4857l 4.95282, -8.85538l 5.02197, -8.24846l 5.10379, -7.6322l 5.17653, -6.97084l 5.21298, -6.23861l 5.19761,
 -5.44178l 5.20977, -4.67626l 5.22121, -3.9062l 5.20422, -3.11713l 5.20586, -2.3433l 5.05009, -1.53295l 5.14807, -0.812266l 2.94218, -0.123839l 2.97806, 0.399529l 3.06725, 1.21158l 3.19604, 2.06743l 85.2468, 124.923l 3.07185, -1.40563l 3.17178,
 -2.24657l 3.2782, -3.12358l 3.39278, -4.03721l 3.52026, -4.99288l 4.11424, -6.7861l 4.13051, -7.74121l 4.27244, -8.86861l 4.62626, -10.4485l 5.34348, -12.958l 6.6193, -17.0157l 14.8961, -39.8133l 6.98475, -18.1857l 5.48469, -13.5482l 4.62919,
 -10.7164l 4.29202, -9.20082l 4.19867, -8.19338l 3.48526, -6.11193l 3.58071, -5.55593l 1.39571, -1.95241l 7.02756, -9.16274l 7.10916, -8.54834l 7.21743, -7.93861l 7.32648, -7.29763" fill="none" stroke="#e3a917" stroke-width="3"/>
<path d="M407.133,44.2135l 6.32152, -5.63311" fill="none" stroke="#e3a917" stroke-width="3"/>
<g fill="black">
<rect x="91.7393" y="266.814" width="6.49776" height="6.49776"/>
<rect x="186.228" y="138.213" width="6.49776" height="6.49776"/>
<rect x="280.716" y="266.814" width="6.49776" height="6.49776"/>
<rect x="375.204" y="73.912" width="6.49776" height="6.49776"/>
</g>
<rect x="58.0145" y="58.5273" width="170.079" height="81.0189" fill="white"/>
<path d="M58.0145,139.546h 170.079" fill="none" stroke="black"/>
<path d="M228.093,139.546v -81.0189" fill="none" stroke="black"/>
<path d="M228.093,58.5273h -170.079" fill="none" stroke="black"/>
<path d="M58.0145,58.5273v 81.0189" fill="none" stroke="black"/>
<text xml:space="preserve" x="100.403" y="69.8509" fill="black" font-size="8.08067" font-family="Helvetica">Graph with a red star</text>
<path d="M64.3925,72.3005h 29.7638v -11.3426h -29.7638z" fill="#9a0807"/>
<path d="M64.3925,66.6292h 29.7638" fill="none" stroke="#9a0807" stroke-width="3"/>
<g stroke="#ff0000" stroke-width="1" fill="none">
<line x1="76.0255" y1="66.6292" x2="82.5233" y2="66.6292"/><line x1="79.2744" y1="63.3803" x2="79.2744" y2="69.8781"/><line x1="76.9774" y1="64.3323" x2="81.5714" y2="68.9262"/><line x1="76.9774" y1="68.9262" x2="81.5714" y2="64.3323"/>
</g>
<text xml:space="preserve" x="100.403" y="86.0953" fill="black" font-size="8.08067" font-family="Helvetica">Graph with a circular marker</text>
<path d="M64.3925,88.5043h 29.7638v -11.3426h -29.7638z" fill="#9a0807"/>
<path d="M64.3925,82.833h 29.7638" fill="none" stroke="#9a0807" stroke-width="3"/>
<g stroke="black" stroke-width="1" fill="none">
<circle cx="79.2744" cy="82.833" r="3.24888"/>
</g>
<text xml:space="preserve" x="100.403" y="102.34" fill="black" font-size="8.08067" font-family="Helvetica">Graph with an open square marker</text>
<path d="M64.3925,104.708h 29.7638v -11.3426h -29.7638z" fill="#c73909"/>
<path d="M64.3925,99.0368h 29.7638" fill="none" stroke="#c73909" stroke-width="3"/>
<g stroke="black" stroke-width="1" fill="none">
<rect x="76.0255" y="95.7879" width="6.49776" height="6.49776"/>
</g>
<text xml:space="preserve" x="100.403" y="118.584" fill="black" font-size="8.08067" font-family="Helvetica">Graph with a blue star</text>
<path d="M64.3925,120.912h 29.7638v -11.3426h -29.7638z" fill="#c87410"/>
<path d="M64.3925,115.241h 29.7638" fill="none" stroke="#c87410" stroke-width="3"/>
<g stroke="#0000ff" stroke-width="1" fill="none">
<line x1="76.0255" y1="115.241" x2="82.5233" y2="115.241"/><line x1="79.2744" y1="111.992" x2="79.2744" y2="118.489"/><line x1="76.9774" y1="112.944" x2="81.5714" y2="117.537"/><line x1="76.9774" y1="117.537" x2="81.5714" y2="112.944"/>
</g>
<text xml:space="preserve" x="100.403" y="134.828" fill="black" font-size="8.08067" font-family="Helvetica">Graph with a full square marker</text>
<path d="M64.3925,137.116h 29.7638v -11.3426h -29.7638z" fill="#e3a917"/>
<path d="M64.3925,131.444h 29.7638" fill="none" stroke="#e3a917" stroke-width="3"/>
<g fill="black">
<rect x="76.0255" y="128.195" width="6.49776" height="6.49776"/>
</g></svg>
