<svg id="svg" version="1.1" xmlns="http://www.w3.org/2000/svg" xmlns:xlink="http://www.w3.org/1999/xlink" width="400" height="400" viewBox="0, 0, 400,400"><g id="svgg"><path id="path0" d="M184.500 0.267 C 181.446 0.357,179.200 0.588,179.200 0.812 C 179.200 1.028,177.874 1.200,176.200 1.200 C 174.467 1.200,173.200 1.369,173.200 1.600 C 173.200 1.829,172.000 2.000,170.400 2.000 C 168.800 2.000,167.600 2.171,167.600 2.400 C 167.600 2.620,166.621 2.800,165.424 2.800 C 164.227 2.800,163.136 2.980,163.000 3.200 C 162.864 3.420,161.953 3.600,160.976 3.600 C 159.999 3.600,159.200 3.780,159.200 4.000 C 159.200 4.220,158.300 4.400,157.200 4.400 C 156.100 4.400,155.200 4.580,155.200 4.800 C 155.200 5.020,154.480 5.200,153.600 5.200 C 152.720 5.200,152.000 5.380,152.000 5.600 C 152.000 5.820,151.280 6.000,150.400 6.000 C 149.520 6.000,148.800 6.180,148.800 6.400 C 148.800 6.620,148.260 6.800,147.600 6.800 C 146.940 6.800,146.400 6.980,146.400 7.200 C 146.400 7.420,145.770 7.600,145.000 7.600 C 144.230 7.600,143.600 7.780,143.600 8.000 C 143.600 8.220,142.981 8.400,142.224 8.400 C 141.467 8.400,140.736 8.580,140.600 8.800 C 140.464 9.020,139.823 9.200,139.176 9.200 C 138.529 9.200,138.000 9.363,138.000 9.562 C 138.000 9.762,137.100 10.049,136.000 10.200 C 134.900 10.351,134.000 10.638,134.000 10.838 C 134.000 11.037,133.561 11.200,133.024 11.200 C 132.487 11.200,131.936 11.380,131.800 11.600 C 131.664 11.820,131.201 12.000,130.771 12.000 C 130.341 12.000,129.632 12.180,129.195 12.400 C 128.758 12.620,128.042 12.980,127.605 13.200 C 127.168 13.420,126.538 13.600,126.205 13.600 C 125.872 13.600,125.600 13.780,125.600 14.000 C 125.600 14.220,125.161 14.400,124.624 14.400 C 124.087 14.400,123.536 14.580,123.400 14.800 C 123.264 15.020,122.803 15.200,122.376 15.200 C 121.949 15.200,121.600 15.380,121.600 15.600 C 121.600 15.820,121.240 16.000,120.800 16.000 C 120.360 16.000,120.000 16.180,120.000 16.400 C 120.000 16.620,119.728 16.800,119.395 16.800 C 119.062 16.800,118.432 16.980,117.995 17.200 C 117.558 17.420,116.842 17.780,116.405 18.000 C 115.968 18.220,115.338 18.400,115.005 18.400 C 114.672 18.400,114.400 18.580,114.400 18.800 C 114.400 19.020,114.040 19.200,113.600 19.200 C 113.160 19.200,112.800 19.346,112.800 19.525 C 112.800 19.704,112.170 20.098,111.400 20.400 C 110.630 20.702,110.000 21.096,110.000 21.275 C 110.000 21.454,109.640 21.600,109.200 21.600 C 108.760 21.600,108.400 21.780,108.400 22.000 C 108.400 22.220,108.040 22.400,107.600 22.400 C 107.160 22.400,106.800 22.580,106.800 22.800 C 106.800 23.020,106.440 23.200,106.000 23.200 C 105.560 23.200,105.200 23.380,105.200 23.600 C 105.200 23.820,104.880 24.000,104.488 24.000 C 104.097 24.000,103.517 24.360,103.200 24.800 C 102.883 25.240,102.303 25.600,101.912 25.600 C 101.520 25.600,101.200 25.780,101.200 26.000 C 101.200 26.220,100.855 26.400,100.433 26.400 C 100.012 26.400,99.607 26.535,99.533 26.700 C 99.460 26.865,98.369 27.523,97.109 28.162 C 95.849 28.801,94.499 29.611,94.109 29.962 C 93.719 30.313,92.905 30.855,92.300 31.168 C 91.695 31.480,91.200 31.885,91.200 32.068 C 91.200 32.250,90.880 32.400,90.488 32.400 C 90.097 32.400,89.517 32.760,89.200 33.200 C 88.883 33.640,88.343 34.000,88.000 34.000 C 87.657 34.000,87.117 34.360,86.800 34.800 C 86.483 35.240,86.038 35.600,85.812 35.601 C 85.585 35.601,84.770 36.141,84.000 36.800 C 83.230 37.459,82.415 37.999,82.188 37.999 C 81.962 38.000,81.517 38.360,81.200 38.800 C 80.883 39.240,80.438 39.601,80.212 39.602 C 79.679 39.604,77.200 41.924,77.200 42.420 C 77.200 42.629,76.922 42.800,76.583 42.800 C 76.244 42.800,75.749 42.983,75.483 43.207 C 74.319 44.189,73.210 45.043,72.376 45.600 C 71.883 45.930,70.520 47.145,69.348 48.300 C 68.176 49.455,67.062 50.400,66.872 50.400 C 66.568 50.400,64.190 52.703,58.520 58.486 C 57.596 59.429,55.794 61.190,54.514 62.400 C 53.235 63.610,51.751 65.217,51.216 65.971 C 50.681 66.726,49.289 68.329,48.122 69.534 C 46.955 70.739,46.000 71.857,46.000 72.020 C 46.000 72.182,45.459 72.919,44.799 73.658 C 42.916 75.761,42.800 75.930,42.800 76.556 C 42.800 76.881,42.479 77.248,42.087 77.373 C 41.694 77.497,41.080 78.094,40.721 78.699 C 40.363 79.305,39.604 80.340,39.035 81.000 C 38.466 81.660,38.001 82.385,38.000 82.612 C 38.000 82.838,37.640 83.283,37.200 83.600 C 36.760 83.917,36.400 84.362,36.399 84.588 C 36.399 84.815,35.859 85.630,35.200 86.400 C 34.541 87.170,34.001 87.943,34.001 88.117 C 34.000 88.291,33.640 88.820,33.200 89.292 C 32.760 89.764,32.400 90.387,32.400 90.675 C 32.400 90.964,32.242 91.200,32.049 91.200 C 31.855 91.200,31.473 91.740,31.200 92.400 C 30.927 93.060,30.545 93.600,30.351 93.600 C 30.158 93.600,30.000 93.793,30.000 94.028 C 30.000 94.263,29.485 95.208,28.855 96.128 C 28.225 97.048,27.583 98.205,27.428 98.700 C 27.273 99.195,26.978 99.600,26.773 99.600 C 26.568 99.600,26.400 99.960,26.400 100.400 C 26.400 100.840,26.220 101.200,26.000 101.200 C 25.780 101.200,25.600 101.560,25.600 102.000 C 25.600 102.440,25.420 102.800,25.200 102.800 C 24.980 102.800,24.800 103.160,24.800 103.600 C 24.800 104.040,24.620 104.400,24.400 104.400 C 24.180 104.400,24.000 104.760,24.000 105.200 C 24.000 105.640,23.820 106.000,23.600 106.000 C 23.380 106.000,23.200 106.360,23.200 106.800 C 23.200 107.240,23.048 107.600,22.863 107.600 C 22.677 107.600,22.092 108.455,21.563 109.500 C 21.033 110.545,20.465 111.460,20.300 111.533 C 20.135 111.607,20.000 112.001,20.000 112.410 C 20.000 112.818,19.820 113.264,19.600 113.400 C 19.380 113.536,19.200 113.997,19.200 114.424 C 19.200 114.851,19.020 115.200,18.800 115.200 C 18.580 115.200,18.400 115.560,18.400 116.000 C 18.400 116.440,18.220 116.800,18.000 116.800 C 17.780 116.800,17.600 117.160,17.600 117.600 C 17.600 118.040,17.420 118.400,17.200 118.400 C 16.980 118.400,16.800 118.749,16.800 119.176 C 16.800 119.603,16.620 120.064,16.400 120.200 C 16.180 120.336,16.000 120.887,16.000 121.424 C 16.000 121.961,15.820 122.400,15.600 122.400 C 15.380 122.400,15.200 122.760,15.200 123.200 C 15.200 123.640,15.020 124.000,14.800 124.000 C 14.580 124.000,14.400 124.439,14.400 124.976 C 14.400 125.513,14.220 126.064,14.000 126.200 C 13.780 126.336,13.600 126.797,13.600 127.224 C 13.600 127.651,13.420 128.000,13.200 128.000 C 12.980 128.000,12.800 128.362,12.800 128.805 C 12.800 129.248,12.636 129.923,12.436 130.305 C 11.540 132.015,10.339 135.547,10.125 137.100 C 9.997 138.035,9.736 138.800,9.546 138.800 C 9.356 138.800,9.200 139.520,9.200 140.400 C 9.200 141.280,9.020 142.000,8.800 142.000 C 8.580 142.000,8.400 142.439,8.400 142.976 C 8.400 143.513,8.220 144.064,8.000 144.200 C 7.780 144.336,7.600 145.067,7.600 145.824 C 7.600 146.581,7.420 147.200,7.200 147.200 C 6.980 147.200,6.800 147.819,6.800 148.576 C 6.800 149.333,6.620 150.064,6.400 150.200 C 6.180 150.336,6.000 151.056,6.000 151.800 C 6.000 152.544,5.820 153.264,5.600 153.400 C 5.380 153.536,5.200 154.357,5.200 155.224 C 5.200 156.091,5.020 156.800,4.800 156.800 C 4.580 156.800,4.400 157.599,4.400 158.576 C 4.400 159.553,4.220 160.464,4.000 160.600 C 3.780 160.736,3.600 161.636,3.600 162.600 C 3.600 163.564,3.420 164.464,3.200 164.600 C 2.980 164.736,2.800 165.816,2.800 167.000 C 2.800 168.184,2.620 169.264,2.400 169.400 C 2.180 169.536,2.000 170.987,2.000 172.624 C 2.000 174.341,1.831 175.600,1.600 175.600 C 1.361 175.600,1.200 177.133,1.200 179.400 C 1.200 181.667,1.039 183.200,0.800 183.200 C 0.250 183.200,0.250 216.260,0.800 216.600 C 1.020 216.736,1.200 218.446,1.200 220.400 C 1.200 222.354,1.380 224.064,1.600 224.200 C 1.820 224.336,2.000 225.697,2.000 227.224 C 2.000 228.808,2.172 230.000,2.400 230.000 C 2.622 230.000,2.800 231.067,2.800 232.400 C 2.800 233.733,2.978 234.800,3.200 234.800 C 3.420 234.800,3.600 235.790,3.600 237.000 C 3.600 238.210,3.780 239.200,4.000 239.200 C 4.220 239.200,4.400 239.999,4.400 240.976 C 4.400 241.953,4.580 242.864,4.800 243.000 C 5.020 243.136,5.200 243.957,5.200 244.824 C 5.200 245.691,5.380 246.400,5.600 246.400 C 5.820 246.400,6.000 247.120,6.000 248.000 C 6.000 248.880,6.180 249.600,6.400 249.600 C 6.620 249.600,6.800 250.219,6.800 250.976 C 6.800 251.733,6.980 252.464,7.200 252.600 C 7.420 252.736,7.600 253.366,7.600 254.000 C 7.600 254.634,7.780 255.264,8.000 255.400 C 8.220 255.536,8.400 256.177,8.400 256.824 C 8.400 257.471,8.580 258.000,8.800 258.000 C 9.020 258.000,9.200 258.540,9.200 259.200 C 9.200 259.860,9.359 260.400,9.554 260.400 C 9.749 260.400,10.031 261.387,10.182 262.594 C 10.333 263.800,10.623 264.891,10.828 265.017 C 11.033 265.144,11.200 265.651,11.200 266.144 C 11.200 266.637,11.349 267.211,11.530 267.420 C 11.712 267.629,12.110 268.610,12.414 269.600 C 12.718 270.590,13.104 271.498,13.273 271.617 C 13.442 271.737,13.647 272.187,13.730 272.617 C 14.466 276.457,15.361 276.658,19.877 274.000 C 21.746 272.900,23.340 272.000,23.420 272.000 C 23.500 272.000,24.518 271.435,25.682 270.744 C 28.122 269.297,29.861 268.298,32.400 266.885 C 33.390 266.334,36.720 264.436,39.800 262.666 C 42.880 260.897,47.200 258.433,49.400 257.191 C 51.600 255.949,54.075 254.543,54.900 254.066 C 56.321 253.246,57.181 252.753,60.700 250.743 C 61.525 250.272,63.010 249.434,64.000 248.882 C 64.990 248.329,69.817 245.564,74.726 242.738 C 79.635 239.912,83.747 237.600,83.864 237.600 C 83.981 237.600,84.554 237.267,85.138 236.861 C 85.722 236.455,87.190 235.581,88.400 234.920 C 89.610 234.259,91.275 233.331,92.100 232.859 C 92.925 232.387,94.185 231.665,94.900 231.255 C 100.207 228.216,116.144 219.135,117.600 218.320 C 119.629 217.185,120.936 216.435,125.109 214.011 C 128.154 212.241,128.983 212.182,129.561 213.690 C 129.752 214.190,130.851 216.580,132.002 219.000 C 135.946 227.290,137.514 230.603,138.910 233.600 C 139.679 235.250,141.968 240.110,143.997 244.400 C 147.543 251.900,148.704 254.347,153.117 263.634 C 154.223 265.963,156.518 270.823,158.215 274.434 C 159.913 278.045,162.238 282.980,163.383 285.400 C 164.527 287.820,165.718 290.385,166.029 291.100 C 167.030 293.399,167.584 291.767,168.981 282.400 C 169.096 281.630,169.363 280.010,169.573 278.800 C 170.932 271.007,172.495 261.874,172.791 260.000 C 172.982 258.790,174.154 251.860,175.395 244.600 C 179.059 223.166,179.934 218.010,180.588 214.000 C 180.929 211.910,181.370 209.300,181.569 208.200 C 182.064 205.459,182.721 201.673,183.200 198.800 C 183.823 195.060,184.429 191.568,184.796 189.600 C 184.981 188.610,185.343 186.450,185.600 184.800 C 185.857 183.150,186.219 180.990,186.404 180.000 C 186.939 177.131,187.537 173.690,188.213 169.600 C 188.558 167.510,189.381 162.650,190.042 158.800 C 190.702 154.950,191.398 150.810,191.587 149.600 C 191.777 148.390,192.772 142.540,193.798 136.600 C 194.825 130.660,195.820 124.810,196.011 123.600 C 196.201 122.390,196.917 118.160,197.602 114.200 C 199.325 104.236,199.545 102.936,199.976 100.200 C 200.183 98.880,200.553 96.720,200.797 95.400 C 201.040 94.080,201.411 91.965,201.620 90.700 C 201.829 89.435,202.171 87.365,202.380 86.100 C 202.589 84.835,202.958 82.720,203.200 81.400 C 203.442 80.080,203.803 78.010,204.002 76.800 C 204.865 71.554,205.095 70.371,205.295 70.172 C 205.411 70.056,216.012 70.162,228.853 70.409 C 241.694 70.655,261.740 71.019,273.400 71.218 C 285.060 71.416,304.950 71.799,317.600 72.069 C 351.160 72.785,356.945 72.728,354.100 71.712 C 353.825 71.614,353.600 71.248,353.600 70.900 C 353.600 70.552,353.489 70.378,353.352 70.514 C 353.074 70.793,352.215 70.041,351.964 69.300 C 351.442 67.754,332.511 48.730,330.338 47.567 C 329.874 47.318,328.703 46.324,327.737 45.358 C 326.770 44.391,325.796 43.600,325.571 43.600 C 325.347 43.600,324.744 43.195,324.232 42.700 C 322.807 41.323,321.624 40.400,321.284 40.400 C 321.115 40.400,320.717 40.040,320.400 39.600 C 320.083 39.160,319.593 38.800,319.312 38.800 C 319.030 38.800,318.800 38.620,318.800 38.400 C 318.800 38.180,318.570 38.000,318.288 38.000 C 318.007 38.000,317.517 37.640,317.200 37.200 C 316.883 36.760,316.369 36.400,316.059 36.400 C 315.748 36.400,315.203 36.084,314.847 35.697 C 314.491 35.311,313.705 34.740,313.100 34.430 C 312.495 34.119,312.000 33.715,312.000 33.532 C 312.000 33.350,311.764 33.200,311.475 33.200 C 311.187 33.200,310.602 32.885,310.175 32.500 C 309.749 32.115,308.905 31.545,308.300 31.232 C 307.695 30.920,307.200 30.515,307.200 30.332 C 307.200 30.150,306.930 30.000,306.600 30.000 C 306.270 30.000,306.000 29.820,306.000 29.600 C 306.000 29.380,305.803 29.200,305.562 29.200 C 305.321 29.200,304.635 28.852,304.037 28.427 C 303.440 28.001,302.467 27.532,301.876 27.383 C 301.284 27.235,300.800 26.953,300.800 26.757 C 300.800 26.560,300.530 26.400,300.200 26.400 C 299.870 26.400,299.600 26.220,299.600 26.000 C 299.600 25.780,299.240 25.600,298.800 25.600 C 298.360 25.600,298.000 25.420,298.000 25.200 C 298.000 24.980,297.640 24.800,297.200 24.800 C 296.760 24.800,296.400 24.648,296.400 24.463 C 296.400 24.277,295.545 23.692,294.500 23.163 C 293.455 22.633,292.540 22.065,292.467 21.900 C 292.393 21.735,292.003 21.600,291.600 21.600 C 291.197 21.600,290.807 21.465,290.733 21.300 C 290.541 20.868,287.228 19.200,286.562 19.200 C 286.253 19.200,286.000 19.020,286.000 18.800 C 286.000 18.580,285.550 18.400,285.000 18.400 C 284.450 18.400,284.000 18.220,284.000 18.000 C 284.000 17.780,283.640 17.600,283.200 17.600 C 282.760 17.600,282.400 17.420,282.400 17.200 C 282.400 16.980,282.040 16.800,281.600 16.800 C 281.160 16.800,280.800 16.620,280.800 16.400 C 280.800 16.180,280.440 16.000,280.000 16.000 C 279.560 16.000,279.200 15.820,279.200 15.600 C 279.200 15.380,278.660 15.200,278.000 15.200 C 277.340 15.200,276.800 15.020,276.800 14.800 C 276.800 14.580,276.528 14.400,276.195 14.400 C 275.862 14.400,275.277 14.241,274.895 14.047 C 274.513 13.852,273.705 13.492,273.100 13.247 C 272.495 13.001,271.505 12.599,270.900 12.353 C 270.295 12.108,269.487 11.748,269.105 11.553 C 268.723 11.359,268.059 11.200,267.629 11.200 C 267.199 11.200,266.744 11.033,266.617 10.828 C 266.491 10.623,265.400 10.333,264.194 10.182 C 262.987 10.031,262.000 9.749,262.000 9.554 C 262.000 9.359,261.460 9.200,260.800 9.200 C 260.140 9.200,259.600 9.020,259.600 8.800 C 259.600 8.580,259.060 8.400,258.400 8.400 C 257.740 8.400,257.200 8.220,257.200 8.000 C 257.200 7.780,256.570 7.600,255.800 7.600 C 255.030 7.600,254.400 7.420,254.400 7.200 C 254.400 6.980,253.871 6.800,253.224 6.800 C 252.577 6.800,251.936 6.620,251.800 6.400 C 251.664 6.180,250.933 6.000,250.176 6.000 C 249.419 6.000,248.800 5.820,248.800 5.600 C 248.800 5.380,247.900 5.200,246.800 5.200 C 245.700 5.200,244.800 5.020,244.800 4.800 C 244.800 4.580,244.080 4.400,243.200 4.400 C 242.320 4.400,241.600 4.220,241.600 4.000 C 241.600 3.780,240.610 3.600,239.400 3.600 C 238.190 3.600,237.200 3.420,237.200 3.200 C 237.200 2.980,236.300 2.800,235.200 2.800 C 234.100 2.800,233.200 2.620,233.200 2.400 C 233.200 2.171,232.000 2.000,230.400 2.000 C 228.800 2.000,227.600 1.829,227.600 1.600 C 227.600 1.370,226.360 1.200,224.680 1.200 C 223.074 1.200,221.575 1.015,221.350 0.790 C 220.917 0.357,194.299 -0.021,184.500 0.267 M347.200 80.432 C 340.270 80.581,324.250 80.904,311.600 81.149 C 298.950 81.394,280.230 81.770,270.000 81.986 C 259.770 82.201,245.010 82.484,237.200 82.614 C 219.537 82.909,221.457 82.454,220.849 86.489 C 220.575 88.310,220.197 90.610,220.009 91.600 C 219.821 92.590,219.467 94.750,219.223 96.400 C 218.979 98.050,218.603 100.435,218.389 101.700 C 217.559 106.602,217.216 108.701,216.800 111.400 C 216.563 112.940,216.196 115.235,215.984 116.500 C 215.773 117.765,215.427 119.835,215.216 121.100 C 215.004 122.365,214.637 124.660,214.400 126.200 C 213.956 129.083,213.494 131.893,212.804 135.900 C 212.586 137.165,211.967 140.990,211.428 144.400 C 210.545 149.981,208.618 161.941,205.179 183.200 C 204.520 187.270,203.798 191.770,203.575 193.200 C 203.352 194.630,202.996 196.835,202.784 198.100 C 202.573 199.365,202.220 201.480,202.000 202.800 C 201.780 204.120,201.420 206.280,201.200 207.600 C 200.776 210.146,200.340 212.840,199.615 217.400 C 199.370 218.940,199.004 221.190,198.801 222.400 C 198.597 223.610,198.237 225.860,198.000 227.400 C 197.582 230.113,197.224 232.299,196.410 237.100 C 196.196 238.365,195.825 240.750,195.586 242.400 C 195.348 244.050,194.983 246.300,194.776 247.400 C 194.569 248.500,193.759 253.450,192.977 258.400 C 191.012 270.833,189.257 281.779,188.808 284.400 C 188.600 285.610,188.230 287.860,187.985 289.400 C 187.252 294.008,186.821 296.672,186.416 299.100 C 186.204 300.365,185.837 302.660,185.600 304.200 C 185.363 305.740,184.996 308.035,184.784 309.300 C 184.573 310.565,184.220 312.680,184.000 314.000 C 183.780 315.320,183.427 317.435,183.216 318.700 C 183.004 319.965,182.637 322.260,182.400 323.800 C 182.163 325.340,181.796 327.635,181.584 328.900 C 181.373 330.165,181.027 332.235,180.815 333.500 C 179.950 338.670,179.498 341.440,178.004 350.747 C 177.143 356.108,176.372 360.562,176.289 360.644 C 176.207 360.726,174.910 358.230,173.406 355.097 C 171.903 351.963,169.101 346.160,167.180 342.200 C 165.259 338.240,162.609 332.750,161.292 330.000 C 159.975 327.250,157.418 321.940,155.609 318.200 C 146.423 299.206,142.378 290.824,139.200 284.200 C 137.934 281.560,135.616 276.745,134.049 273.500 C 128.374 261.747,125.466 255.709,123.211 251.000 C 117.056 238.142,118.275 239.304,113.352 241.600 C 111.465 242.480,109.859 243.200,109.784 243.200 C 109.709 243.200,108.062 243.936,106.124 244.835 C 104.186 245.735,101.790 246.834,100.800 247.277 C 99.810 247.720,97.920 248.585,96.600 249.199 C 95.280 249.813,93.210 250.763,92.000 251.311 C 90.790 251.859,88.585 252.868,87.100 253.554 C 85.615 254.239,83.185 255.361,81.700 256.047 C 80.215 256.732,77.470 257.973,75.600 258.804 C 73.730 259.635,71.030 260.854,69.600 261.514 C 67.151 262.643,65.635 263.334,60.100 265.842 C 58.835 266.416,56.720 267.387,55.400 268.000 C 54.080 268.613,52.010 269.563,50.800 270.111 C 49.590 270.659,47.340 271.687,45.800 272.396 C 41.557 274.347,30.136 279.554,27.200 280.875 C 20.591 283.849,19.200 284.577,19.200 285.059 C 19.200 285.602,20.617 288.329,21.238 288.980 C 21.437 289.189,21.600 289.684,21.600 290.080 C 21.600 290.476,21.780 290.800,22.000 290.800 C 22.220 290.800,22.400 291.160,22.400 291.600 C 22.400 292.040,22.580 292.400,22.800 292.400 C 23.020 292.400,23.200 292.760,23.200 293.200 C 23.200 293.640,23.380 294.000,23.600 294.000 C 23.820 294.000,24.000 294.360,24.000 294.800 C 24.000 295.240,24.180 295.600,24.400 295.600 C 24.620 295.600,24.800 295.836,24.800 296.125 C 24.800 296.413,25.160 297.036,25.600 297.508 C 26.040 297.980,26.400 298.644,26.400 298.983 C 26.400 299.322,26.580 299.600,26.800 299.600 C 27.020 299.600,27.200 299.918,27.200 300.307 C 27.200 300.696,27.650 301.677,28.200 302.486 C 28.750 303.295,29.200 304.113,29.200 304.303 C 29.200 304.494,29.515 304.998,29.900 305.425 C 30.285 305.851,30.854 306.692,31.164 307.293 C 31.474 307.895,32.014 308.705,32.364 309.093 C 32.714 309.482,33.255 310.295,33.568 310.900 C 33.880 311.505,34.285 312.000,34.468 312.000 C 34.650 312.000,34.800 312.243,34.800 312.541 C 34.800 312.838,35.340 313.646,36.000 314.337 C 36.660 315.028,37.200 315.825,37.200 316.108 C 37.200 316.391,37.560 316.883,38.000 317.200 C 38.440 317.517,38.800 318.007,38.800 318.288 C 38.800 318.570,38.980 318.800,39.200 318.800 C 39.420 318.800,39.600 319.004,39.600 319.253 C 39.600 319.502,39.924 319.997,40.319 320.353 C 40.714 320.709,41.471 321.630,42.000 322.400 C 42.529 323.170,43.061 323.890,43.183 324.000 C 43.305 324.110,43.940 324.920,44.595 325.800 C 45.249 326.680,46.373 327.991,47.092 328.713 C 47.812 329.436,48.400 330.179,48.400 330.365 C 48.400 330.671,52.279 334.803,58.470 341.094 C 62.502 345.190,69.499 351.766,70.005 351.935 C 70.276 352.025,71.393 352.977,72.489 354.050 C 73.585 355.122,74.644 356.000,74.844 356.000 C 75.044 356.000,75.772 356.540,76.463 357.200 C 77.154 357.860,77.864 358.400,78.041 358.400 C 78.219 358.400,78.814 358.850,79.364 359.400 C 79.914 359.950,80.552 360.400,80.782 360.400 C 81.012 360.400,81.200 360.580,81.200 360.800 C 81.200 361.020,81.430 361.200,81.712 361.200 C 81.993 361.200,82.483 361.560,82.800 362.000 C 83.117 362.440,83.609 362.800,83.892 362.800 C 84.175 362.800,84.972 363.340,85.663 364.000 C 86.354 364.660,87.122 365.200,87.371 365.200 C 87.620 365.200,88.083 365.560,88.400 366.000 C 88.717 366.440,89.214 366.800,89.505 366.800 C 89.796 366.800,90.420 367.160,90.892 367.600 C 91.364 368.040,91.987 368.400,92.275 368.400 C 92.564 368.400,92.800 368.580,92.800 368.800 C 92.800 369.020,93.070 369.200,93.400 369.200 C 93.730 369.200,94.000 369.350,94.000 369.532 C 94.000 369.715,94.493 370.120,95.095 370.432 C 95.697 370.745,97.314 371.675,98.688 372.500 C 100.062 373.325,101.369 374.000,101.593 374.000 C 101.817 374.000,102.000 374.166,102.000 374.368 C 102.000 374.571,102.540 374.855,103.200 375.000 C 103.860 375.145,104.400 375.429,104.400 375.632 C 104.400 375.834,104.760 376.000,105.200 376.000 C 105.640 376.000,106.000 376.180,106.000 376.400 C 106.000 376.620,106.360 376.800,106.800 376.800 C 107.240 376.800,107.600 376.980,107.600 377.200 C 107.600 377.420,107.960 377.600,108.400 377.600 C 108.840 377.600,109.201 377.735,109.201 377.900 C 109.202 378.065,110.192 378.650,111.400 379.200 C 112.608 379.750,113.598 380.335,113.599 380.500 C 113.599 380.665,113.960 380.800,114.400 380.800 C 114.840 380.800,115.200 380.980,115.200 381.200 C 115.200 381.420,115.549 381.600,115.976 381.600 C 116.403 381.600,116.864 381.780,117.000 382.000 C 117.136 382.220,117.687 382.400,118.224 382.400 C 118.761 382.400,119.200 382.580,119.200 382.800 C 119.200 383.020,119.560 383.200,120.000 383.200 C 120.440 383.200,120.800 383.380,120.800 383.600 C 120.800 383.820,121.160 384.000,121.600 384.000 C 122.040 384.000,122.400 384.180,122.400 384.400 C 122.400 384.620,122.940 384.800,123.600 384.800 C 124.260 384.800,124.800 384.980,124.800 385.200 C 124.800 385.420,125.160 385.600,125.600 385.600 C 126.040 385.600,126.400 385.780,126.400 386.000 C 126.400 386.220,126.755 386.400,127.188 386.400 C 127.621 386.400,128.617 386.760,129.400 387.200 C 130.183 387.640,131.168 388.000,131.589 388.000 C 132.009 388.000,132.464 388.180,132.600 388.400 C 132.736 388.620,133.276 388.800,133.800 388.800 C 134.324 388.800,134.864 388.980,135.000 389.200 C 135.136 389.420,135.676 389.600,136.200 389.600 C 136.724 389.600,137.264 389.780,137.400 390.000 C 137.536 390.220,138.076 390.400,138.600 390.400 C 139.124 390.400,139.659 390.572,139.789 390.782 C 139.918 390.991,141.099 391.285,142.412 391.433 C 143.725 391.582,144.800 391.860,144.800 392.052 C 144.800 392.243,145.329 392.400,145.976 392.400 C 146.623 392.400,147.264 392.580,147.400 392.800 C 147.536 393.020,148.267 393.200,149.024 393.200 C 149.781 393.200,150.400 393.380,150.400 393.600 C 150.400 393.820,151.120 394.000,152.000 394.000 C 152.880 394.000,153.600 394.180,153.600 394.400 C 153.600 394.620,154.500 394.800,155.600 394.800 C 156.700 394.800,157.600 394.980,157.600 395.200 C 157.600 395.420,158.309 395.600,159.176 395.600 C 160.043 395.600,160.864 395.780,161.000 396.000 C 161.136 396.220,162.137 396.400,163.224 396.400 C 164.311 396.400,165.200 396.580,165.200 396.800 C 165.200 397.022,166.267 397.200,167.600 397.200 C 168.920 397.200,170.000 397.366,170.000 397.568 C 170.000 397.919,171.943 398.135,179.600 398.634 C 181.470 398.756,183.171 399.024,183.380 399.228 C 183.914 399.751,216.800 399.723,216.800 399.200 C 216.800 398.962,218.325 398.800,220.576 398.800 C 222.663 398.800,224.463 398.621,224.600 398.400 C 224.736 398.180,226.187 398.000,227.824 398.000 C 229.541 398.000,230.800 397.831,230.800 397.600 C 230.800 397.380,231.689 397.200,232.776 397.200 C 233.863 397.200,234.864 397.020,235.000 396.800 C 235.136 396.580,236.227 396.400,237.424 396.400 C 238.621 396.400,239.600 396.220,239.600 396.000 C 239.600 395.780,240.410 395.600,241.400 395.600 C 242.390 395.600,243.200 395.420,243.200 395.200 C 243.200 394.980,243.920 394.800,244.800 394.800 C 245.680 394.800,246.400 394.620,246.400 394.400 C 246.400 394.180,247.199 394.000,248.176 394.000 C 249.153 394.000,250.064 393.820,250.200 393.600 C 250.336 393.380,250.977 393.200,251.624 393.200 C 252.271 393.200,252.800 393.020,252.800 392.800 C 252.800 392.580,253.520 392.400,254.400 392.400 C 255.280 392.400,256.000 392.244,256.000 392.054 C 256.000 391.864,256.833 391.595,257.850 391.455 C 259.694 391.202,266.374 389.120,267.695 388.386 C 268.077 388.174,268.752 388.000,269.195 388.000 C 269.638 388.000,270.000 387.820,270.000 387.600 C 270.000 387.380,270.355 387.200,270.788 387.200 C 271.221 387.200,272.217 386.840,273.000 386.400 C 273.783 385.960,274.779 385.600,275.212 385.600 C 275.645 385.600,276.000 385.420,276.000 385.200 C 276.000 384.980,276.360 384.800,276.800 384.800 C 277.240 384.800,277.600 384.620,277.600 384.400 C 277.600 384.180,278.140 384.000,278.800 384.000 C 279.460 384.000,280.000 383.820,280.000 383.600 C 280.000 383.380,280.360 383.200,280.800 383.200 C 281.240 383.200,281.600 383.020,281.600 382.800 C 281.600 382.580,281.960 382.400,282.400 382.400 C 282.840 382.400,283.200 382.220,283.200 382.000 C 283.200 381.780,283.560 381.600,284.000 381.600 C 284.440 381.600,284.800 381.420,284.800 381.200 C 284.800 380.980,285.124 380.800,285.520 380.800 C 286.414 380.800,288.393 379.906,288.397 379.500 C 288.399 379.335,288.760 379.200,289.200 379.200 C 289.640 379.200,290.000 379.020,290.000 378.800 C 290.000 378.580,290.360 378.400,290.800 378.400 C 291.240 378.400,291.600 378.220,291.600 378.000 C 291.600 377.780,291.836 377.600,292.125 377.600 C 292.413 377.600,293.036 377.240,293.508 376.800 C 293.980 376.360,294.644 376.000,294.983 376.000 C 295.322 376.000,295.600 375.820,295.600 375.600 C 295.600 375.380,295.897 375.200,296.260 375.200 C 297.099 375.200,301.200 373.138,301.200 372.716 C 301.200 372.542,301.560 372.400,302.000 372.400 C 302.440 372.400,302.800 372.220,302.800 372.000 C 302.800 371.780,303.036 371.600,303.325 371.600 C 303.613 371.600,304.198 371.285,304.625 370.900 C 305.051 370.515,305.940 369.931,306.600 369.603 C 307.260 369.274,308.091 368.689,308.447 368.303 C 308.803 367.916,309.348 367.600,309.659 367.600 C 309.969 367.600,310.483 367.240,310.800 366.800 C 311.117 366.360,311.657 366.000,312.000 366.000 C 312.343 366.000,312.883 365.640,313.200 365.200 C 313.517 364.760,313.980 364.400,314.229 364.400 C 314.478 364.400,315.246 363.860,315.937 363.200 C 316.628 362.540,317.425 362.000,317.708 362.000 C 317.991 362.000,318.483 361.640,318.800 361.200 C 319.117 360.760,319.573 360.400,319.813 360.400 C 320.053 360.400,320.598 360.080,321.025 359.688 C 321.451 359.296,322.520 358.443,323.400 357.792 C 324.280 357.141,325.270 356.328,325.600 355.985 C 325.930 355.643,326.830 354.926,327.600 354.394 C 328.370 353.861,329.630 352.784,330.400 352.000 C 331.170 351.216,332.430 350.132,333.200 349.591 C 334.941 348.370,350.400 332.904,350.400 332.384 C 350.400 332.176,351.480 330.908,352.800 329.568 C 354.120 328.227,355.200 326.942,355.200 326.712 C 355.200 326.482,355.524 326.003,355.921 325.647 C 356.317 325.291,357.170 324.280,357.816 323.400 C 358.462 322.520,359.308 321.509,359.696 321.153 C 360.083 320.797,360.400 320.301,360.400 320.049 C 360.400 319.798,360.940 319.028,361.600 318.337 C 362.260 317.646,362.800 316.878,362.800 316.629 C 362.800 316.380,363.160 315.917,363.600 315.600 C 364.040 315.283,364.400 314.791,364.400 314.508 C 364.400 314.225,364.940 313.428,365.600 312.737 C 366.260 312.046,366.800 311.253,366.800 310.974 C 366.800 310.695,366.935 310.407,367.100 310.333 C 367.555 310.131,369.200 307.690,369.200 307.216 C 369.200 306.987,369.350 306.800,369.532 306.800 C 369.715 306.800,370.120 306.305,370.432 305.700 C 370.744 305.095,371.089 304.510,371.199 304.400 C 371.310 304.290,371.593 303.840,371.829 303.400 C 373.795 299.736,374.262 298.934,374.700 298.471 C 374.975 298.181,375.200 297.596,375.200 297.171 C 375.200 296.747,375.380 296.400,375.600 296.400 C 375.820 296.400,376.000 296.040,376.000 295.600 C 376.000 295.160,376.180 294.800,376.400 294.800 C 376.620 294.800,376.800 294.440,376.800 294.000 C 376.800 293.560,376.980 293.200,377.200 293.200 C 377.420 293.200,377.600 292.840,377.600 292.400 C 377.600 291.960,377.780 291.600,378.000 291.600 C 378.220 291.600,378.400 291.330,378.400 291.000 C 378.400 290.670,378.580 290.400,378.800 290.400 C 379.020 290.400,379.200 290.040,379.200 289.600 C 379.200 289.160,379.380 288.800,379.600 288.800 C 379.820 288.800,380.000 288.440,380.000 288.000 C 380.000 287.560,380.180 287.200,380.400 287.200 C 380.620 287.200,380.800 286.840,380.800 286.400 C 380.800 285.960,380.980 285.600,381.200 285.600 C 381.420 285.600,381.600 285.240,381.600 284.800 C 381.600 284.360,381.780 284.000,382.000 284.000 C 382.220 284.000,382.400 283.640,382.400 283.200 C 382.400 282.760,382.580 282.400,382.800 282.400 C 383.020 282.400,383.200 282.051,383.200 281.624 C 383.200 281.197,383.380 280.736,383.600 280.600 C 383.820 280.464,384.000 279.913,384.000 279.376 C 384.000 278.839,384.180 278.400,384.400 278.400 C 384.620 278.400,384.800 278.040,384.800 277.600 C 384.800 277.160,384.980 276.800,385.200 276.800 C 385.420 276.800,385.600 276.528,385.600 276.195 C 385.600 275.862,385.780 275.232,386.000 274.795 C 386.220 274.358,386.580 273.642,386.800 273.205 C 387.020 272.768,387.200 272.048,387.200 271.605 C 387.200 271.162,387.347 270.800,387.528 270.800 C 387.708 270.800,388.104 269.889,388.407 268.775 C 388.710 267.661,389.103 266.660,389.279 266.551 C 389.456 266.442,389.600 265.924,389.600 265.400 C 389.600 264.876,389.780 264.336,390.000 264.200 C 390.220 264.064,390.400 263.524,390.400 263.000 C 390.400 262.476,390.567 261.944,390.772 261.817 C 390.977 261.691,391.267 260.600,391.418 259.394 C 391.569 258.187,391.851 257.200,392.046 257.200 C 392.241 257.200,392.400 256.570,392.400 255.800 C 392.400 255.030,392.580 254.400,392.800 254.400 C 393.020 254.400,393.200 253.781,393.200 253.024 C 393.200 252.267,393.380 251.536,393.600 251.400 C 393.820 251.264,394.000 250.533,394.000 249.776 C 394.000 249.019,394.180 248.400,394.400 248.400 C 394.620 248.400,394.800 247.590,394.800 246.600 C 394.800 245.610,394.980 244.800,395.200 244.800 C 395.420 244.800,395.600 244.080,395.600 243.200 C 395.600 242.320,395.780 241.600,396.000 241.600 C 396.220 241.600,396.400 240.700,396.400 239.600 C 396.400 238.500,396.580 237.600,396.800 237.600 C 397.020 237.600,397.200 236.610,397.200 235.400 C 397.200 234.190,397.365 233.200,397.566 233.200 C 397.909 233.200,398.071 231.962,398.642 225.000 C 398.768 223.460,399.080 221.947,399.336 221.639 C 400.033 220.796,399.998 178.333,399.300 178.100 C 398.956 177.985,398.800 176.944,398.800 174.767 C 398.800 172.922,398.633 171.600,398.400 171.600 C 398.174 171.600,398.000 170.467,398.000 169.000 C 398.000 167.533,397.826 166.400,397.600 166.400 C 397.380 166.400,397.200 165.511,397.200 164.424 C 397.200 163.337,397.020 162.336,396.800 162.200 C 396.580 162.064,396.400 161.153,396.400 160.176 C 396.400 159.199,396.220 158.400,396.000 158.400 C 395.780 158.400,395.600 157.500,395.600 156.400 C 395.600 155.300,395.420 154.400,395.200 154.400 C 394.980 154.400,394.800 153.680,394.800 152.800 C 394.800 151.920,394.620 151.200,394.400 151.200 C 394.180 151.200,394.000 150.480,394.000 149.600 C 394.000 148.720,393.820 148.000,393.600 148.000 C 393.380 148.000,393.200 147.370,393.200 146.600 C 393.200 145.830,393.020 145.200,392.800 145.200 C 392.580 145.200,392.400 144.660,392.400 144.000 C 392.400 143.340,392.243 142.800,392.052 142.800 C 391.860 142.800,391.582 141.725,391.433 140.412 C 391.285 139.099,390.991 137.918,390.782 137.789 C 390.572 137.659,390.400 137.124,390.400 136.600 C 390.400 136.076,390.220 135.536,390.000 135.400 C 389.780 135.264,389.600 134.801,389.600 134.371 C 389.600 133.941,389.420 133.232,389.200 132.795 C 388.980 132.358,388.620 131.642,388.400 131.205 C 388.180 130.768,388.000 130.048,388.000 129.605 C 388.000 129.162,387.853 128.800,387.672 128.800 C 387.492 128.800,387.100 127.900,386.800 126.800 C 386.500 125.700,386.108 124.800,385.928 124.800 C 385.747 124.800,385.600 124.451,385.600 124.024 C 385.600 123.597,385.420 123.136,385.200 123.000 C 384.980 122.864,384.800 122.313,384.800 121.776 C 384.800 121.239,384.620 120.800,384.400 120.800 C 384.180 120.800,384.000 120.440,384.000 120.000 C 384.000 119.560,383.820 119.200,383.600 119.200 C 383.380 119.200,383.200 118.851,383.200 118.424 C 383.200 117.997,383.020 117.536,382.800 117.400 C 382.580 117.264,382.400 116.803,382.400 116.376 C 382.400 115.949,382.220 115.600,382.000 115.600 C 381.780 115.600,381.600 115.355,381.600 115.056 C 381.600 114.399,379.124 109.455,378.700 109.267 C 378.535 109.193,378.400 108.788,378.400 108.367 C 378.400 107.945,378.220 107.600,378.000 107.600 C 377.780 107.600,377.600 107.240,377.600 106.800 C 377.600 106.360,377.420 106.000,377.200 106.000 C 376.980 106.000,376.800 105.680,376.800 105.288 C 376.800 104.897,376.440 104.317,376.000 104.000 C 375.560 103.683,375.200 103.147,375.200 102.809 C 375.200 102.176,373.303 98.357,372.811 98.000 C 372.660 97.890,372.281 97.215,371.970 96.500 C 371.659 95.785,371.269 95.200,371.102 95.200 C 370.936 95.200,370.800 94.930,370.800 94.600 C 370.800 94.270,370.620 94.000,370.400 94.000 C 370.180 94.000,370.000 93.730,370.000 93.400 C 370.000 93.070,369.820 92.800,369.600 92.800 C 369.380 92.800,369.200 92.564,369.200 92.275 C 369.200 91.987,368.840 91.364,368.400 90.892 C 367.960 90.420,367.600 89.891,367.599 89.717 C 367.599 89.543,367.074 88.786,366.432 88.036 C 365.791 87.286,365.027 86.206,364.733 85.636 C 364.440 85.066,363.706 84.060,363.102 83.400 C 362.498 82.740,362.003 82.041,362.002 81.847 C 362.000 81.425,360.380 79.966,360.039 80.080 C 359.907 80.123,354.130 80.282,347.200 80.432 " stroke="none" fill="#fbfcfc" fill-rule="evenodd"></path><path id="path1" d="M352.000 69.429 C 352.000 69.554,352.270 69.927,352.600 70.257 C 353.251 70.908,353.333 70.811,352.957 69.833 C 352.729 69.238,352.000 68.930,352.000 69.429 M205.037 70.900 C 204.939 71.395,204.674 72.880,204.448 74.200 C 203.779 78.107,203.574 79.283,203.156 81.600 C 202.938 82.810,202.589 84.835,202.380 86.100 C 202.171 87.365,201.829 89.435,201.620 90.700 C 201.411 91.965,201.040 94.080,200.797 95.400 C 200.553 96.720,200.183 98.880,199.976 100.200 C 199.545 102.936,199.325 104.236,197.602 114.200 C 196.917 118.160,196.201 122.390,196.011 123.600 C 195.820 124.810,194.825 130.660,193.798 136.600 C 192.772 142.540,191.777 148.390,191.587 149.600 C 191.398 150.810,190.702 154.950,190.042 158.800 C 189.381 162.650,188.558 167.510,188.213 169.600 C 187.537 173.690,186.939 177.131,186.404 180.000 C 186.219 180.990,185.857 183.150,185.600 184.800 C 185.343 186.450,184.981 188.610,184.796 189.600 C 184.429 191.568,183.823 195.060,183.200 198.800 C 182.721 201.673,182.064 205.459,181.569 208.200 C 181.370 209.300,180.929 211.910,180.588 214.000 C 179.934 218.010,179.059 223.166,175.395 244.600 C 174.154 251.860,172.982 258.790,172.791 260.000 C 172.495 261.874,170.932 271.007,169.573 278.800 C 169.363 280.010,169.096 281.630,168.981 282.400 C 167.584 291.767,167.030 293.399,166.029 291.100 C 165.718 290.385,164.527 287.820,163.383 285.400 C 162.238 282.980,159.913 278.045,158.215 274.434 C 156.518 270.823,154.223 265.963,153.117 263.634 C 148.704 254.347,147.543 251.900,143.997 244.400 C 141.968 240.110,139.679 235.250,138.910 233.600 C 137.514 230.603,135.946 227.290,132.002 219.000 C 130.851 216.580,129.752 214.190,129.561 213.690 C 128.983 212.182,128.154 212.241,125.109 214.011 C 120.936 216.435,119.629 217.185,117.600 218.320 C 116.144 219.135,100.207 228.216,94.900 231.255 C 94.185 231.665,92.925 232.387,92.100 232.859 C 91.275 233.331,89.610 234.259,88.400 234.920 C 87.190 235.581,85.722 236.455,85.138 236.861 C 84.554 237.267,83.981 237.600,83.864 237.600 C 83.747 237.600,79.635 239.912,74.726 242.738 C 69.817 245.564,64.990 248.329,64.000 248.882 C 63.010 249.434,61.525 250.272,60.700 250.743 C 57.181 252.753,56.321 253.246,54.900 254.066 C 54.075 254.543,51.600 255.949,49.400 257.191 C 47.200 258.433,42.880 260.897,39.800 262.666 C 36.720 264.436,33.390 266.334,32.400 266.885 C 29.861 268.298,28.122 269.297,25.682 270.744 C 24.518 271.435,23.500 272.000,23.420 272.000 C 23.340 272.000,21.746 272.900,19.877 274.000 C 16.568 275.947,15.200 276.416,15.200 275.600 C 15.200 275.380,14.984 275.200,14.720 275.200 C 14.347 275.200,14.347 275.307,14.720 275.680 C 14.984 275.944,15.200 276.484,15.200 276.880 C 15.200 277.276,15.380 277.600,15.600 277.600 C 15.820 277.600,16.000 277.960,16.000 278.400 C 16.000 278.840,16.180 279.200,16.400 279.200 C 16.620 279.200,16.800 279.472,16.800 279.805 C 16.800 280.138,16.980 280.768,17.200 281.205 C 17.420 281.642,17.780 282.358,18.000 282.795 C 18.220 283.232,18.400 283.862,18.400 284.195 C 18.400 284.989,18.143 285.063,22.655 282.971 C 24.825 281.965,27.140 280.900,27.800 280.604 C 29.437 279.871,42.343 273.985,45.800 272.395 C 47.340 271.687,49.590 270.659,50.800 270.111 C 52.010 269.563,54.080 268.613,55.400 268.000 C 56.720 267.387,58.835 266.416,60.100 265.842 C 65.635 263.334,67.151 262.643,69.600 261.514 C 71.030 260.854,73.730 259.635,75.600 258.804 C 77.470 257.973,80.215 256.732,81.700 256.047 C 83.185 255.361,85.615 254.239,87.100 253.554 C 88.585 252.868,90.790 251.859,92.000 251.311 C 93.210 250.763,95.280 249.813,96.600 249.199 C 97.920 248.585,99.810 247.720,100.800 247.277 C 101.790 246.834,104.186 245.735,106.124 244.835 C 108.062 243.936,109.709 243.200,109.784 243.200 C 109.859 243.200,111.465 242.480,113.352 241.600 C 117.805 239.523,117.672 239.490,119.416 243.100 C 120.240 244.805,121.948 248.360,123.211 251.000 C 125.466 255.709,128.374 261.747,134.049 273.500 C 135.616 276.745,137.934 281.560,139.200 284.200 C 142.378 290.824,146.423 299.206,155.609 318.200 C 157.418 321.940,159.975 327.250,161.292 330.000 C 162.609 332.750,165.259 338.240,167.180 342.200 C 169.101 346.160,171.903 351.963,173.406 355.097 C 174.910 358.230,176.207 360.726,176.289 360.644 C 176.372 360.562,177.143 356.108,178.004 350.747 C 179.498 341.440,179.950 338.670,180.815 333.500 C 181.027 332.235,181.373 330.165,181.584 328.900 C 181.796 327.635,182.163 325.340,182.400 323.800 C 182.637 322.260,183.004 319.965,183.216 318.700 C 183.427 317.435,183.780 315.320,184.000 314.000 C 184.220 312.680,184.573 310.565,184.784 309.300 C 184.996 308.035,185.363 305.740,185.600 304.200 C 185.837 302.660,186.197 300.410,186.401 299.200 C 186.604 297.990,186.970 295.740,187.215 294.200 C 188.027 289.091,188.396 286.823,188.792 284.500 C 189.265 281.734,191.035 270.692,192.977 258.400 C 193.759 253.450,194.569 248.500,194.776 247.400 C 194.983 246.300,195.348 244.050,195.586 242.400 C 195.825 240.750,196.196 238.365,196.410 237.100 C 197.224 232.299,197.582 230.113,198.000 227.400 C 198.237 225.860,198.604 223.565,198.816 222.300 C 199.221 219.872,199.652 217.208,200.385 212.600 C 200.630 211.060,201.003 208.765,201.215 207.500 C 201.427 206.235,201.780 204.120,202.000 202.800 C 202.220 201.480,202.573 199.365,202.784 198.100 C 202.996 196.835,203.352 194.630,203.575 193.200 C 203.798 191.770,204.520 187.270,205.179 183.200 C 208.618 161.941,210.545 149.981,211.428 144.400 C 211.967 140.990,212.586 137.165,212.804 135.900 C 213.494 131.893,213.956 129.083,214.400 126.200 C 214.637 124.660,215.004 122.365,215.216 121.100 C 215.427 119.835,215.773 117.765,215.984 116.500 C 216.196 115.235,216.563 112.940,216.800 111.400 C 217.216 108.701,217.559 106.602,218.389 101.700 C 218.603 100.435,218.979 98.050,219.223 96.400 C 219.467 94.750,219.821 92.590,220.009 91.600 C 220.197 90.610,220.575 88.310,220.849 86.489 C 221.457 82.454,219.537 82.909,237.200 82.614 C 245.010 82.483,259.680 82.203,269.800 81.990 C 279.920 81.778,298.957 81.432,312.106 81.222 C 325.254 81.012,336.161 80.748,336.344 80.635 C 336.527 80.521,342.189 80.408,348.925 80.383 C 359.029 80.345,361.088 80.245,360.686 79.810 C 360.419 79.521,360.065 79.366,359.900 79.466 C 359.735 79.565,359.600 79.359,359.600 79.007 C 359.600 78.654,359.418 78.149,359.196 77.883 C 358.973 77.617,358.256 76.770,357.602 76.000 C 356.948 75.230,356.410 74.493,356.406 74.361 C 356.367 72.871,355.052 72.600,347.800 72.586 C 343.840 72.578,330.340 72.351,317.800 72.081 C 305.260 71.812,285.010 71.419,272.800 71.208 C 260.590 70.997,241.420 70.643,230.200 70.422 C 202.602 69.877,205.250 69.827,205.037 70.900 " stroke="none" fill="#1ed4e4" fill-rule="evenodd"></path></g></svg>