<?xml version="1.0" standalone="no"?>
<svg width="567.429" height="541.246" viewBox="0 0 567.429 541.246" xmlns="http://www.w3.org/2000/svg" shape-rendering="crispEdges">
<title>
/Users/zhangzh/ROOTfillcanvaspad.svg
</title>
<desc>
Creator: ROOT Version 6.30/04
CreationDate: Fri Jul  4 11:47:25 2025</desc>
<defs>
</defs>
<rect x="0.5" y="0" width="566.929" height="540.746" fill="#0000ff"/>
<rect x="17.5079" y="16.2224" width="266.457" height="237.928" fill="#ff0000"/>
<text xml:space="preserve" x="137.413" y="147.083" fill="black" font-size="15.7798" font-family="Helvetica" font-weight="bold">Pad 1</text>
<rect x="300.972" y="16.2224" width="249.449" height="237.928" fill="#00ff00"/>
<text xml:space="preserve" x="413.224" y="147.083" fill="black" font-size="15.7798" font-family="Helvetica" font-weight="bold">Pad 2</text>
<rect x="17.5079" y="270.373" width="266.457" height="254.15" fill="white"/>
<rect x="44.1535" y="295.788" width="213.165" height="203.32" fill="white"/>
<rect x="44.1535" y="295.788" width="213.165" height="203.32" fill="none" stroke="black"/>
<rect x="44.1535" y="295.788" width="213.165" height="203.32" fill="white"/>
<rect x="44.1535" y="295.788" width="213.165" height="203.32" fill="none" stroke="black"/>
<path d="M45.2194,463.942l 2.13165, -2.76107l 2.13165, -3.05034l 2.13165, -3.23042l 2.13165, -3.28969l 2.13165, -3.22069l 2.13165, -3.02045l 2.13165, -2.69084l 2.13165, -2.23865l 2.13165, -1.67554l 2.13165, -1.01782l 2.13165, -0.286021l 2.13165,
 0.495629l 2.13165, 1.29996l 2.13165, 2.09767l 2.13165, 2.85826l 2.13165, 3.55108l 2.13165, 4.14633l 2.13165, 4.61612l 2.13165, 4.93549l 2.13165, 5.08335l 2.13165, 5.04335l 2.13165, 4.80455l 2.13165, 4.362l 2.13165, 3.71709l 2.13165, 2.87774l
 2.13165, 1.85836l 2.13165, 0.679569l 2.13165, -0.632201l 2.13165, -2.04541l 2.13165, -3.52423l 2.13165, -5.02951l 2.13165, -6.51992l 2.13165, -7.95314l 2.13165, -9.28713l 2.13165, -10.4814l 2.13165, -11.4982l 2.13165, -12.304l 2.13165, -12.87l
 2.13165, -13.1737l 2.13165, -13.1992l 2.13165, -12.9381l 2.13165, -12.3896l 2.13165, -11.5609l 2.13165, -10.4667l 2.13165, -9.12933l 2.13165, -7.57776l 2.13165, -5.84706l 2.13165, -3.97737l 2.13165, -2.01276" fill="none" stroke="black"
 stroke-width="2"/>
<path d="M149.67,305.47l 2.13165, 5.68434e-14l 2.13165, 2.01276l 2.13165, 3.97737l 2.13165, 5.84706l 2.13165, 7.57776l 2.13165, 9.12933l 2.13165, 10.4667l 2.13165, 11.5609l 2.13165, 12.3896l 2.13165, 12.9381l 2.13165, 13.1992l 2.13165, 13.1737l
 2.13165, 12.87l 2.13165, 12.304l 2.13165, 11.4982l 2.13165, 10.4814l 2.13165, 9.28713l 2.13165, 7.95314l 2.13165, 6.51992l 2.13165, 5.02951l 2.13165, 3.52423l 2.13165, 2.04541l 2.13165, 0.632201l 2.13165, -0.679569l 2.13165, -1.85836l 2.13165,
 -2.87774l 2.13165, -3.71709l 2.13165, -4.362l 2.13165, -4.80455l 2.13165, -5.04335l 2.13165, -5.08335l 2.13165, -4.93549l 2.13165, -4.61612l 2.13165, -4.14633l 2.13165, -3.55108l 2.13165, -2.85826l 2.13165, -2.09767l 2.13165, -1.29996l 2.13165,
 -0.495629l 2.13165, 0.286021l 2.13165, 1.01782l 2.13165, 1.67554l 2.13165, 2.23865l 2.13165, 2.69084l 2.13165, 3.02045l 2.13165, 3.22069l 2.13165, 3.28969l 2.13165, 3.23042l 2.13165, 3.05034" fill="none" stroke="black" stroke-width="2"/>
<path d="M254.121,461.181l 2.13165, 2.76107" fill="none" stroke="black" stroke-width="2"/>
<path d="M44.1535,499.108h 213.165" fill="none" stroke="black"/>
<path d="M44.1535,493.009v 6.09961" fill="none" stroke="black"/>
<path d="M49.4827,496.058v 3.04981" fill="none" stroke="black"/>
<path d="M54.8118,496.058v 3.04981" fill="none" stroke="black"/>
<path d="M60.1409,496.058v 3.04981" fill="none" stroke="black"/>
<path d="M65.4701,493.009v 6.09961" fill="none" stroke="black"/>
<path d="M70.7992,496.058v 3.04981" fill="none" stroke="black"/>
<path d="M76.1283,496.058v 3.04981" fill="none" stroke="black"/>
<path d="M81.4575,496.058v 3.04981" fill="none" stroke="black"/>
<path d="M86.7866,493.009v 6.09961" fill="none" stroke="black"/>
<path d="M92.1157,496.058v 3.04981" fill="none" stroke="black"/>
<path d="M97.4449,496.058v 3.04981" fill="none" stroke="black"/>
<path d="M102.774,496.058v 3.04981" fill="none" stroke="black"/>
<path d="M108.103,493.009v 6.09961" fill="none" stroke="black"/>
<path d="M113.432,496.058v 3.04981" fill="none" stroke="black"/>
<path d="M118.761,496.058v 3.04981" fill="none" stroke="black"/>
<path d="M124.091,496.058v 3.04981" fill="none" stroke="black"/>
<path d="M129.42,493.009v 6.09961" fill="none" stroke="black"/>
<path d="M134.749,496.058v 3.04981" fill="none" stroke="black"/>
<path d="M140.078,496.058v 3.04981" fill="none" stroke="black"/>
<path d="M145.407,496.058v 3.04981" fill="none" stroke="black"/>
<path d="M150.736,493.009v 6.09961" fill="none" stroke="black"/>
<path d="M156.065,496.058v 3.04981" fill="none" stroke="black"/>
<path d="M161.394,496.058v 3.04981" fill="none" stroke="black"/>
<path d="M166.724,496.058v 3.04981" fill="none" stroke="black"/>
<path d="M172.053,493.009v 6.09961" fill="none" stroke="black"/>
<path d="M177.382,496.058v 3.04981" fill="none" stroke="black"/>
<path d="M182.711,496.058v 3.04981" fill="none" stroke="black"/>
<path d="M188.04,496.058v 3.04981" fill="none" stroke="black"/>
<path d="M193.369,493.009v 6.09961" fill="none" stroke="black"/>
<path d="M198.698,496.058v 3.04981" fill="none" stroke="black"/>
<path d="M204.028,496.058v 3.04981" fill="none" stroke="black"/>
<path d="M209.357,496.058v 3.04981" fill="none" stroke="black"/>
<path d="M214.686,493.009v 6.09961" fill="none" stroke="black"/>
<path d="M220.015,496.058v 3.04981" fill="none" stroke="black"/>
<path d="M225.344,496.058v 3.04981" fill="none" stroke="black"/>
<path d="M230.673,496.058v 3.04981" fill="none" stroke="black"/>
<path d="M236.002,493.009v 6.09961" fill="none" stroke="black"/>
<path d="M241.331,496.058v 3.04981" fill="none" stroke="black"/>
<path d="M246.661,496.058v 3.04981" fill="none" stroke="black"/>
<path d="M251.99,496.058v 3.04981" fill="none" stroke="black"/>
<path d="M257.319,493.009v 6.09961" fill="none" stroke="black"/>
<text xml:space="preserve" x="40.3444" y="506.593" fill="black" font-size="8.66079" font-family="Helvetica">10</text>
<text xml:space="preserve" x="36.9292" y="506.593" fill="black" font-size="8.66079" font-family="Times">&#8722;</text>
<text xml:space="preserve" x="64.2511" y="506.593" fill="black" font-size="8.66079" font-family="Helvetica">8</text>
<text xml:space="preserve" x="60.8358" y="506.593" fill="black" font-size="8.66079" font-family="Times">&#8722;</text>
<text xml:space="preserve" x="84.7425" y="506.593" fill="black" font-size="8.66079" font-family="Helvetica">6</text>
<text xml:space="preserve" x="81.3272" y="506.593" fill="black" font-size="8.66079" font-family="Times">&#8722;</text>
<text xml:space="preserve" x="106.372" y="506.593" fill="black" font-size="8.66079" font-family="Helvetica">4</text>
<text xml:space="preserve" x="102.957" y="506.593" fill="black" font-size="8.66079" font-family="Times">&#8722;</text>
<text xml:space="preserve" x="128.002" y="506.593" fill="black" font-size="8.66079" font-family="Helvetica">2</text>
<text xml:space="preserve" x="124.587" y="506.593" fill="black" font-size="8.66079" font-family="Times">&#8722;</text>
<text xml:space="preserve" x="147.355" y="506.593" fill="black" font-size="8.66079" font-family="Helvetica">0</text>
<text xml:space="preserve" x="168.985" y="506.593" fill="black" font-size="8.66079" font-family="Helvetica">2</text>
<text xml:space="preserve" x="190.615" y="506.593" fill="black" font-size="8.66079" font-family="Helvetica">4</text>
<text xml:space="preserve" x="212.245" y="506.593" fill="black" font-size="8.66079" font-family="Helvetica">6</text>
<text xml:space="preserve" x="232.736" y="506.593" fill="black" font-size="8.66079" font-family="Helvetica">8</text>
<text xml:space="preserve" x="252.089" y="506.593" fill="black" font-size="8.66079" font-family="Helvetica">10</text>
<path d="M44.1535,499.108v -203.32" fill="none" stroke="black"/>
<path d="M50.5485,487.273h -6.39496" fill="none" stroke="black"/>
<path d="M47.351,479.688h -3.19748" fill="none" stroke="black"/>
<path d="M47.351,472.102h -3.19748" fill="none" stroke="black"/>
<path d="M47.351,464.516h -3.19748" fill="none" stroke="black"/>
<path d="M50.5485,456.931h -6.39496" fill="none" stroke="black"/>
<path d="M47.351,449.345h -3.19748" fill="none" stroke="black"/>
<path d="M47.351,441.759h -3.19748" fill="none" stroke="black"/>
<path d="M47.351,434.174h -3.19748" fill="none" stroke="black"/>
<path d="M50.5485,426.588h -6.39496" fill="none" stroke="black"/>
<path d="M47.351,419.002h -3.19748" fill="none" stroke="black"/>
<path d="M47.351,411.417h -3.19748" fill="none" stroke="black"/>
<path d="M47.351,403.831h -3.19748" fill="none" stroke="black"/>
<path d="M50.5485,396.245h -6.39496" fill="none" stroke="black"/>
<path d="M47.351,388.66h -3.19748" fill="none" stroke="black"/>
<path d="M47.351,381.074h -3.19748" fill="none" stroke="black"/>
<path d="M47.351,373.488h -3.19748" fill="none" stroke="black"/>
<path d="M50.5485,365.903h -6.39496" fill="none" stroke="black"/>
<path d="M47.351,358.317h -3.19748" fill="none" stroke="black"/>
<path d="M47.351,350.731h -3.19748" fill="none" stroke="black"/>
<path d="M47.351,343.146h -3.19748" fill="none" stroke="black"/>
<path d="M50.5485,335.56h -6.39496" fill="none" stroke="black"/>
<path d="M47.351,327.974h -3.19748" fill="none" stroke="black"/>
<path d="M47.351,320.388h -3.19748" fill="none" stroke="black"/>
<path d="M47.351,312.803h -3.19748" fill="none" stroke="black"/>
<path d="M50.5485,305.217h -6.39496" fill="none" stroke="black"/>
<path d="M50.5485,487.273h -6.39496" fill="none" stroke="black"/>
<path d="M47.351,494.859h -3.19748" fill="none" stroke="black"/>
<path d="M50.5485,305.217h -6.39496" fill="none" stroke="black"/>
<path d="M47.351,297.631h -3.19748" fill="none" stroke="black"/>
<text xml:space="preserve" x="31.2371" y="490.656" fill="black" font-size="8.66079" font-family="Helvetica">0.2</text>
<text xml:space="preserve" x="26.6835" y="490.656" fill="black" font-size="8.66079" font-family="Times">&#8722;</text>
<text xml:space="preserve" x="38.0676" y="459.918" fill="black" font-size="8.66079" font-family="Helvetica">0</text>
<text xml:space="preserve" x="31.2371" y="429.181" fill="black" font-size="8.66079" font-family="Helvetica">0.2</text>
<text xml:space="preserve" x="31.2371" y="399.583" fill="black" font-size="8.66079" font-family="Helvetica">0.4</text>
<text xml:space="preserve" x="31.2371" y="368.845" fill="black" font-size="8.66079" font-family="Helvetica">0.6</text>
<text xml:space="preserve" x="31.2371" y="338.108" fill="black" font-size="8.66079" font-family="Helvetica">0.8</text>
<text xml:space="preserve" x="39.206" y="308.51" fill="black" font-size="8.66079" font-family="Helvetica">1</text>
<text xml:space="preserve" x="137.413" y="460.986" fill="black" font-size="16.8216" font-family="Helvetica" font-weight="bold">Pad 3</text>
<text xml:space="preserve" x="131.417" y="282.326" fill="black" font-size="12.2183" font-family="Helvetica">sin(x)/x</text>
<text xml:space="preserve" x="340.657" y="378.522" fill="black" font-size="35.2268" font-family="Helvetica" font-weight="bold">Canvas</text></svg>
