<?xml version="1.0" standalone="no"?>
<svg width="567.429" height="270.899" viewBox="0 0 567.429 270.899" xmlns="http://www.w3.org/2000/svg" shape-rendering="crispEdges">
<title>
/home/users/z/zhangzh/guide/root/example_cernstaff/graph/seism.svg
</title>
<desc>
Creator: ROOT Version 6.22/02
CreationDate: Fri Oct 28 14:51:47 2022</desc>
<defs>
</defs>
<rect x="0.5" y="0" width="566.929" height="270.399" fill="#ddba87"/>
<rect x="57.1929" y="27.0399" width="453.543" height="216.319" fill="#adbcc6"/>
<rect x="57.1929" y="27.0399" width="453.543" height="216.319" fill="none" stroke="black"/>
<rect x="57.1929" y="27.0399" width="453.543" height="216.319" fill="#adbcc6"/>
<rect x="57.1929" y="27.0399" width="453.543" height="216.319" fill="none" stroke="black"/>
<path d="M57.1929,243.359h 453.543" fill="none" stroke="black"/>
<path d="M57.1929,27.0399v 216.319" fill="none" stroke="black" stroke-dasharray=" 1, 2"/>
<path d="M142.232,27.0399v 216.319" fill="none" stroke="black" stroke-dasharray=" 1, 2"/>
<path d="M227.272,27.0399v 216.319" fill="none" stroke="black" stroke-dasharray=" 1, 2"/>
<path d="M312.311,27.0399v 216.319" fill="none" stroke="black" stroke-dasharray=" 1, 2"/>
<path d="M397.35,27.0399v 216.319" fill="none" stroke="black" stroke-dasharray=" 1, 2"/>
<path d="M482.39,27.0399v 216.319" fill="none" stroke="black" stroke-dasharray=" 1, 2"/>
<path d="M482.39,27.0399v 216.319" fill="none" stroke="black" stroke-dasharray=" 1, 2"/>
<path d="M57.1929,243.359v -216.319" fill="none" stroke="black"/>
<path d="M510.736,227.908h -453.543" fill="none" stroke="black" stroke-dasharray=" 1, 2"/>
<path d="M510.736,197.005h -453.543" fill="none" stroke="black" stroke-dasharray=" 1, 2"/>
<path d="M510.736,166.102h -453.543" fill="none" stroke="black" stroke-dasharray=" 1, 2"/>
<path d="M510.736,135.2h -453.543" fill="none" stroke="black" stroke-dasharray=" 1, 2"/>
<path d="M510.736,104.297h -453.543" fill="none" stroke="black" stroke-dasharray=" 1, 2"/>
<path d="M510.736,73.394h -453.543" fill="none" stroke="black" stroke-dasharray=" 1, 2"/>
<path d="M510.736,42.4913h -453.543" fill="none" stroke="black" stroke-dasharray=" 1, 2"/>
<path d="M510.736,227.908h -453.543" fill="none" stroke="black" stroke-dasharray=" 1, 2"/>
<path d="M510.736,42.4913h -453.543" fill="none" stroke="black" stroke-dasharray=" 1, 2"/>
<path d="M57.1929,143.261h 1.41732v -22.557h 1.41732v 15.053h 1.41732v -15.8404h 1.41732v 16.3348h 1.41732v 15.6521h 1.41732v -15.3186h 1.41732v -1.53185h 1.41732v 7.76293h 1.41732v -33.4113h 1.41732v 44.0598h 1.41732v -17.3573h 1.41732v 25.8544h
 1.41732v -7.09524h 1.41732v 6.07475h 1.41732v -39.9701h 1.41732v 27.876h 1.41732v -24.3962h 1.41732v 17.8344h 1.41732v -45.2979h 1.41732v 61.1081h 1.41732v -44.5028h 1.41732v 30.0289h 1.41732v -5.92278h 1.41732v 6.76525h 1.41732v -5.88147h 1.41732v
 -37.5793h 1.41732v 38.6994h 1.41732v -41.5279h 1.41732v 36.936h 1.41732v 7.91701h 1.41732v -36.3919h 1.41732v 26.8073h 1.41732v -26.5136h 1.41732v 5.70971h 1.41732v 25.088h 1.41732v 1.16639h 1.41732v 1.75309h 1.41732v -3.25232h 1.41732v 19.3192h
 1.41732v -21.743h 1.41732v -0.17989h 1.41732v 1.73025h 1.41732v 23.1838h 1.41732v -56.8477h 1.41732v 38.5055h 1.41732v -1.57798h 1.41732v 17.2983h 1.41732v 0.189356h 1.41732v 15.1918h 1.41732v -62.08h 1.41732v 15.7642h 1.41732v 3.55649h 1.41732v
 0.972455h 1.41732v 24.7763h 1.41732v -9.1456h 1.41732v 3.50129h 1.41732v 33.2306h 1.41732v -25.2845h 1.41732v 0.497013h 1.41732v -18.6418h 1.41732v -37.7933h 1.41732v 42.0763h 1.41732v 32.776h 1.41732v -35.9333h 1.41732v -38.5593h 1.41732v 49.4508h
 1.41732v -21.1822h 1.41732v 11.587h 1.41732v 6.43461h 1.41732v -6.09507h 1.41732v -1.59076h 1.41732v -3.22095h 1.41732v -18.1789h 1.41732v 7.37891h 1.41732v 9.01627h 1.41732v -22.8093h 1.41732v 15.5709h 1.41732v 17.0181h 1.41732v -27.6459h 1.41732v
 -8.49339h 1.41732v 7.636h 1.41732v 34.7349h 1.41732v -21.7408h 1.41732v 19.1079h 1.41732v -2.5186h 1.41732v 12.6402h 1.41732v -42.3675h 1.41732v 12.671h 1.41732v 33.1574h 1.41732v -52.4611h 1.41732v 20.8365h 1.41732v 7.39376h 1.41732v 2.84727h
 1.41732v -12.9816h 1.41732v 15.1623h 1.41732v -36.2836h 1.41732v 28.7199h 1.41732v -2.29235h 1.41732v -19.1219h 1.41732v 3.57241h 1.41732v 43.1277h 1.41732v -31.7512h 1.41732v 11.4617h 1.41732v 5.58023h 1.41732v -45.6651h 1.41732v 33.6868h 1.41732v
 2.35043h 1.41732v 7.062h 1.41732v -24.3253h 1.41732v 46.547h 1.41732v 5.99382h 1.41732v -45.4889h 1.41732v 44.2856h 1.41732v -16.8144h 1.41732v -7.36523h 1.41732v -9.46481h 1.41732v 8.90011h 1.41732v -26.9686h 1.41732v 56.9793h 1.41732v -37.6128h
 1.41732v 10.1971h 1.41732v -7.8806h 1.41732v -20.7752h 1.41732v 43.9704h 1.41732v -52.3396h 1.41732v 30.0716h 1.41732v -27.417h 1.41732v 13.8214h 1.41732v 7.26284h 1.41732v 16.4828h 1.41732v 9.57545h 1.41732v -52.5653h 1.41732v 45.4235h 1.41732v
 -14.9965h 1.41732v 28.1315h 1.41732v -9.4965h 1.41732v -26.5458h 1.41732v 11.6967h 1.41732v -28.9853h 1.41732v 26.827h 1.41732v 3.18809h 1.41732v 37.1547h 1.41732v -41.3095h 1.41732v -46.4607h 1.41732v 47.3896h 1.41732v -3.00526h 1.41732v -19.8451h
 1.41732v 21.6755h 1.41732v 10.6948h 1.41732v -9.47205h 1.41732v -21.0366h 1.41732v 27.367h 1.41732v -13.1987h 1.41732v -10.9688h 1.41732v 19.5124h 1.41732v -0.920755h 1.41732v 7.11024h 1.41732v -28.7242h 1.41732v 21.0598h 1.41732v -20.9667h 1.41732v
 10.426h 1.41732v -10.8085h 1.41732v -2.17825h 1.41732v -6.88199h 1.41732v 66.235h 1.41732v -28.837h 1.41732v -8.0164h 1.41732v -39.4184h 1.41732v 9.29769h 1.41732v 34.2092h 1.41732v 17.5584h 1.41732v 9.58127h 1.41732v -73.8043h 1.41732v 26.3336h
 1.41732v 12.6406h 1.41732v 32.5448h 1.41732v -34.2484h 1.41732v 25.8409h 1.41732v -11.7607h 1.41732v -13.8632h 198.425" fill="none" stroke="#ff0000"/>
<rect x="442.705" y="17.5759" width="113.386" height="43.2638" fill="white"/>
<path d="M442.705,60.8398h 113.386" fill="none" stroke="black"/>
<path d="M556.091,60.8398v -43.2638" fill="none" stroke="black"/>
<path d="M556.091,17.5759h -113.386" fill="none" stroke="black"/>
<path d="M442.705,17.5759v 43.2638" fill="none" stroke="black"/>
<text xml:space="preserve" x="495.285" y="26.131" fill="black" font-size="9.62907" font-family="Helvetica">ht</text>
<path d="M442.705,28.3919h 113.386" fill="none" stroke="black"/>
<text xml:space="preserve" x="448.135" y="36.9242" fill="black" font-size="9.62907" font-family="Helvetica">Entries </text>
<text xml:space="preserve" x="534.481" y="36.9242" fill="black" font-size="9.62907" font-family="Helvetica"> 181</text>
<text xml:space="preserve" x="448.135" y="47.7175" fill="black" font-size="9.62907" font-family="Helvetica">Mean  </text>
<text xml:space="preserve" x="522.552" y="48.2855" fill="black" font-size="9.62907" font-family="Helvetica">  112.2</text>
<text xml:space="preserve" x="448.135" y="58.5107" fill="black" font-size="9.62907" font-family="Helvetica">Std Dev   </text>
<text xml:space="preserve" x="522.552" y="58.5107" fill="black" font-size="9.62907" font-family="Helvetica">  41.69</text>
<path d="M57.1929,243.359h 453.543" fill="none" stroke="black"/>
<path d="M57.1929,236.87v 6.48958" fill="none" stroke="black"/>
<path d="M85.5394,240.114v 3.24479" fill="none" stroke="black"/>
<path d="M113.886,240.114v 3.24479" fill="none" stroke="black"/>
<path d="M142.232,236.87v 6.48958" fill="none" stroke="black"/>
<path d="M170.579,240.114v 3.24479" fill="none" stroke="black"/>
<path d="M198.925,240.114v 3.24479" fill="none" stroke="black"/>
<path d="M227.272,236.87v 6.48958" fill="none" stroke="black"/>
<path d="M255.618,240.114v 3.24479" fill="none" stroke="black"/>
<path d="M283.965,240.114v 3.24479" fill="none" stroke="black"/>
<path d="M312.311,236.87v 6.48958" fill="none" stroke="black"/>
<path d="M340.657,240.114v 3.24479" fill="none" stroke="black"/>
<path d="M369.004,240.114v 3.24479" fill="none" stroke="black"/>
<path d="M397.35,236.87v 6.48958" fill="none" stroke="black"/>
<path d="M425.697,240.114v 3.24479" fill="none" stroke="black"/>
<path d="M454.043,240.114v 3.24479" fill="none" stroke="black"/>
<path d="M482.39,236.87v 6.48958" fill="none" stroke="black"/>
<path d="M482.39,236.87v 6.48958" fill="none" stroke="black"/>
<path d="M510.736,240.114v 3.24479" fill="none" stroke="black"/>
<text xml:space="preserve" x="44.241" y="252.221" fill="black" font-size="9.18254" font-family="Helvetica">08h00</text>
<text xml:space="preserve" x="130.019" y="252.221" fill="black" font-size="9.18254" font-family="Helvetica">08h01</text>
<text xml:space="preserve" x="214.661" y="252.221" fill="black" font-size="9.18254" font-family="Helvetica">08h02</text>
<text xml:space="preserve" x="299.302" y="252.221" fill="black" font-size="9.18254" font-family="Helvetica">08h03</text>
<text xml:space="preserve" x="384.512" y="252.221" fill="black" font-size="9.18254" font-family="Helvetica">08h04</text>
<text xml:space="preserve" x="469.722" y="252.221" fill="black" font-size="9.18254" font-family="Helvetica">08h05</text>
<path d="M57.1929,243.359v -216.319" fill="none" stroke="black"/>
<path d="M70.7992,227.908h -13.6063" fill="none" stroke="black"/>
<path d="M63.9961,220.182h -6.80315" fill="none" stroke="black"/>
<path d="M63.9961,212.456h -6.80315" fill="none" stroke="black"/>
<path d="M63.9961,204.731h -6.80315" fill="none" stroke="black"/>
<path d="M70.7992,197.005h -13.6063" fill="none" stroke="black"/>
<path d="M63.9961,189.279h -6.80315" fill="none" stroke="black"/>
<path d="M63.9961,181.554h -6.80315" fill="none" stroke="black"/>
<path d="M63.9961,173.828h -6.80315" fill="none" stroke="black"/>
<path d="M70.7992,166.102h -13.6063" fill="none" stroke="black"/>
<path d="M63.9961,158.377h -6.80315" fill="none" stroke="black"/>
<path d="M63.9961,150.651h -6.80315" fill="none" stroke="black"/>
<path d="M63.9961,142.925h -6.80315" fill="none" stroke="black"/>
<path d="M70.7992,135.2h -13.6063" fill="none" stroke="black"/>
<path d="M63.9961,127.474h -6.80315" fill="none" stroke="black"/>
<path d="M63.9961,119.748h -6.80315" fill="none" stroke="black"/>
<path d="M63.9961,112.022h -6.80315" fill="none" stroke="black"/>
<path d="M70.7992,104.297h -13.6063" fill="none" stroke="black"/>
<path d="M63.9961,96.5711h -6.80315" fill="none" stroke="black"/>
<path d="M63.9961,88.8454h -6.80315" fill="none" stroke="black"/>
<path d="M63.9961,81.1197h -6.80315" fill="none" stroke="black"/>
<path d="M70.7992,73.394h -13.6063" fill="none" stroke="black"/>
<path d="M63.9961,65.6683h -6.80315" fill="none" stroke="black"/>
<path d="M63.9961,57.9427h -6.80315" fill="none" stroke="black"/>
<path d="M63.9961,50.217h -6.80315" fill="none" stroke="black"/>
<path d="M70.7992,42.4913h -13.6063" fill="none" stroke="black"/>
<path d="M70.7992,227.908h -13.6063" fill="none" stroke="black"/>
<path d="M63.9961,235.633h -6.80315" fill="none" stroke="black"/>
<path d="M70.7992,42.4913h -13.6063" fill="none" stroke="black"/>
<path d="M63.9961,34.7656h -6.80315" fill="none" stroke="black"/>
<path d="M63.9961,27.0399h -6.80315" fill="none" stroke="black"/>
<text xml:space="preserve" x="39.1284" y="231.203" fill="black" font-size="9.18254" font-family="Helvetica">600</text>
<text xml:space="preserve" x="34.0159" y="231.203" fill="black" font-size="9.18254" font-family="Times">&#8722;</text>
<text xml:space="preserve" x="39.1284" y="199.959" fill="black" font-size="9.18254" font-family="Helvetica">400</text>
<text xml:space="preserve" x="34.0159" y="199.959" fill="black" font-size="9.18254" font-family="Times">&#8722;</text>
<text xml:space="preserve" x="39.1284" y="169.283" fill="black" font-size="9.18254" font-family="Helvetica">200</text>
<text xml:space="preserve" x="34.0159" y="169.283" fill="black" font-size="9.18254" font-family="Times">&#8722;</text>
<text xml:space="preserve" x="48.7855" y="138.608" fill="black" font-size="9.18254" font-family="Helvetica">0</text>
<text xml:space="preserve" x="39.1284" y="107.364" fill="black" font-size="9.18254" font-family="Helvetica">200</text>
<text xml:space="preserve" x="39.1284" y="76.6888" fill="black" font-size="9.18254" font-family="Helvetica">400</text>
<text xml:space="preserve" x="39.1284" y="45.4452" fill="black" font-size="9.18254" font-family="Helvetica">600</text>
<rect x="442.705" y="17.5759" width="113.386" height="43.2638" fill="white"/>
<path d="M442.705,60.8398h 113.386" fill="none" stroke="black"/>
<path d="M556.091,60.8398v -43.2638" fill="none" stroke="black"/>
<path d="M556.091,17.5759h -113.386" fill="none" stroke="black"/>
<path d="M442.705,17.5759v 43.2638" fill="none" stroke="black"/>
<text xml:space="preserve" x="495.285" y="26.131" fill="black" font-size="9.62907" font-family="Helvetica">ht</text>
<path d="M442.705,28.3919h 113.386" fill="none" stroke="black"/>
<text xml:space="preserve" x="448.135" y="36.9242" fill="black" font-size="9.62907" font-family="Helvetica">Entries </text>
<text xml:space="preserve" x="534.481" y="36.9242" fill="black" font-size="9.62907" font-family="Helvetica"> 181</text>
<text xml:space="preserve" x="448.135" y="47.7175" fill="black" font-size="9.62907" font-family="Helvetica">Mean  </text>
<text xml:space="preserve" x="522.552" y="48.2855" fill="black" font-size="9.62907" font-family="Helvetica">  112.2</text>
<text xml:space="preserve" x="448.135" y="58.5107" fill="black" font-size="9.62907" font-family="Helvetica">Std Dev   </text>
<text xml:space="preserve" x="522.552" y="58.5107" fill="black" font-size="9.62907" font-family="Helvetica">  41.69</text>
<text xml:space="preserve" x="237.951" y="13.0655" fill="black" font-size="12.0974" font-family="Helvetica">The ROOT seism</text></svg>
