<?xml version="1.0" encoding="utf-8" standalone="no"?>
<!DOCTYPE svg PUBLIC "-//W3C//DTD SVG 1.1//EN"
  "http://www.w3.org/Graphics/SVG/1.1/DTD/svg11.dtd">
<svg xmlns:xlink="http://www.w3.org/1999/xlink" width="576pt" height="288pt" viewBox="0 0 576 288" xmlns="http://www.w3.org/2000/svg" version="1.1">
 <metadata>
  <rdf:RDF xmlns:dc="http://purl.org/dc/elements/1.1/" xmlns:cc="http://creativecommons.org/ns#" xmlns:rdf="http://www.w3.org/1999/02/22-rdf-syntax-ns#">
   <cc:Work>
    <dc:type rdf:resource="http://purl.org/dc/dcmitype/StillImage"/>
    <dc:date>2026-05-31T23:43:14.506379</dc:date>
    <dc:format>image/svg+xml</dc:format>
    <dc:creator>
     <cc:Agent>
      <dc:title>Matplotlib v3.10.3, https://matplotlib.org/</dc:title>
     </cc:Agent>
    </dc:creator>
   </cc:Work>
  </rdf:RDF>
 </metadata>
 <defs>
  <style type="text/css">*{stroke-linejoin: round; stroke-linecap: butt}</style>
 </defs>
 <g id="figure_1">
  <g id="patch_1">
   <path d="M 0 288 
L 576 288 
L 576 0 
L 0 0 
z
" style="fill: #ffffff"/>
  </g>
  <g id="axes_1">
   <g id="patch_2">
    <path d="M 72 256.32 
L 274.909091 256.32 
L 274.909091 34.56 
L 72 34.56 
z
" style="fill: #ffffff"/>
   </g>
   <g id="patch_3">
    <path d="M 81.22314 165.704992 
L 88.676183 165.704992 
L 88.676183 97.411412 
L 81.22314 97.411412 
z
" clip-path="url(#p0be340734d)" style="fill: #008000; opacity: 0.5; stroke: #008000; stroke-linejoin: miter"/>
   </g>
   <g id="patch_4">
    <path d="M 90.539444 165.704992 
L 97.992487 165.704992 
L 97.992487 109.33525 
L 90.539444 109.33525 
z
" clip-path="url(#p0be340734d)" style="fill: #008000; opacity: 0.5; stroke: #008000; stroke-linejoin: miter"/>
   </g>
   <g id="patch_5">
    <path d="M 99.855748 165.704992 
L 107.30879 165.704992 
L 107.30879 129.834602 
L 99.855748 129.834602 
z
" clip-path="url(#p0be340734d)" style="fill: #008000; opacity: 0.5; stroke: #008000; stroke-linejoin: miter"/>
   </g>
   <g id="patch_6">
    <path d="M 109.172051 165.704992 
L 116.625094 165.704992 
L 116.625094 53.233693 
L 109.172051 53.233693 
z
" clip-path="url(#p0be340734d)" style="fill: #008000; opacity: 0.5; stroke: #008000; stroke-linejoin: miter"/>
   </g>
   <g id="patch_7">
    <path d="M 118.488355 165.704992 
L 125.941397 165.704992 
L 125.941397 207.963667 
L 118.488355 207.963667 
z
" clip-path="url(#p0be340734d)" style="fill: #ff0000; opacity: 0.5; stroke: #ff0000; stroke-linejoin: miter"/>
   </g>
   <g id="patch_8">
    <path d="M 127.804658 165.704992 
L 135.257701 165.704992 
L 135.257701 196.842751 
L 127.804658 196.842751 
z
" clip-path="url(#p0be340734d)" style="fill: #ff0000; opacity: 0.5; stroke: #ff0000; stroke-linejoin: miter"/>
   </g>
   <g id="patch_9">
    <path d="M 137.120962 165.704992 
L 144.574005 165.704992 
L 144.574005 95.551241 
L 137.120962 95.551241 
z
" clip-path="url(#p0be340734d)" style="fill: #008000; opacity: 0.5; stroke: #008000; stroke-linejoin: miter"/>
   </g>
   <g id="patch_10">
    <path d="M 146.437265 165.704992 
L 153.890308 165.704992 
L 153.890308 102.650332 
L 146.437265 102.650332 
z
" clip-path="url(#p0be340734d)" style="fill: #008000; opacity: 0.5; stroke: #008000; stroke-linejoin: miter"/>
   </g>
   <g id="patch_11">
    <path d="M 155.753569 165.704992 
L 163.206612 165.704992 
L 163.206612 218.380896 
L 155.753569 218.380896 
z
" clip-path="url(#p0be340734d)" style="fill: #ff0000; opacity: 0.5; stroke: #ff0000; stroke-linejoin: miter"/>
   </g>
   <g id="patch_12">
    <path d="M 165.069872 165.704992 
L 172.522915 165.704992 
L 172.522915 246.24 
L 165.069872 246.24 
z
" clip-path="url(#p0be340734d)" style="fill: #ff0000; opacity: 0.5; stroke: #ff0000; stroke-linejoin: miter"/>
   </g>
   <g id="patch_13">
    <path d="M 174.386176 165.704992 
L 181.839219 165.704992 
L 181.839219 44.64 
L 174.386176 44.64 
z
" clip-path="url(#p0be340734d)" style="fill: #008000; opacity: 0.5; stroke: #008000; stroke-linejoin: miter"/>
   </g>
   <g id="patch_14">
    <path d="M 183.702479 165.704992 
L 191.155522 165.704992 
L 191.155522 185.771834 
L 183.702479 185.771834 
z
" clip-path="url(#p0be340734d)" style="fill: #ff0000; opacity: 0.5; stroke: #ff0000; stroke-linejoin: miter"/>
   </g>
   <g id="patch_15">
    <path d="M 193.018783 165.704992 
L 200.471826 165.704992 
L 200.471826 114.745645 
L 193.018783 114.745645 
z
" clip-path="url(#p0be340734d)" style="fill: #008000; opacity: 0.5; stroke: #008000; stroke-linejoin: miter"/>
   </g>
   <g id="patch_16">
    <path d="M 202.335086 165.704992 
L 209.788129 165.704992 
L 209.788129 164.304146 
L 202.335086 164.304146 
z
" clip-path="url(#p0be340734d)" style="fill: #008000; opacity: 0.5; stroke: #008000; stroke-linejoin: miter"/>
   </g>
   <g id="patch_17">
    <path d="M 211.65139 165.704992 
L 219.104433 165.704992 
L 219.104433 119.126281 
L 211.65139 119.126281 
z
" clip-path="url(#p0be340734d)" style="fill: #008000; opacity: 0.5; stroke: #008000; stroke-linejoin: miter"/>
   </g>
   <g id="patch_18">
    <path d="M 220.967693 165.704992 
L 228.420736 165.704992 
L 228.420736 74.491067 
L 220.967693 74.491067 
z
" clip-path="url(#p0be340734d)" style="fill: #008000; opacity: 0.5; stroke: #008000; stroke-linejoin: miter"/>
   </g>
   <g id="patch_19">
    <path d="M 230.283997 165.704992 
L 237.73704 165.704992 
L 237.73704 239.088046 
L 230.283997 239.088046 
z
" clip-path="url(#p0be340734d)" style="fill: #ff0000; opacity: 0.5; stroke: #ff0000; stroke-linejoin: miter"/>
   </g>
   <g id="patch_20">
    <path d="M 239.600301 165.704992 
L 247.053343 165.704992 
L 247.053343 57.93668 
L 239.600301 57.93668 
z
" clip-path="url(#p0be340734d)" style="fill: #008000; opacity: 0.5; stroke: #008000; stroke-linejoin: miter"/>
   </g>
   <g id="patch_21">
    <path d="M 248.916604 165.704992 
L 256.369647 165.704992 
L 256.369647 74.523936 
L 248.916604 74.523936 
z
" clip-path="url(#p0be340734d)" style="fill: #008000; opacity: 0.5; stroke: #008000; stroke-linejoin: miter"/>
   </g>
   <g id="patch_22">
    <path d="M 258.232908 165.704992 
L 265.68595 165.704992 
L 265.68595 152.558543 
L 258.232908 152.558543 
z
" clip-path="url(#p0be340734d)" style="fill: #008000; opacity: 0.5; stroke: #008000; stroke-linejoin: miter"/>
   </g>
   <g id="matplotlib.axis_1">
    <g id="xtick_1">
     <g id="line2d_1">
      <defs>
       <path id="md55153d960" d="M 0 0 
L 0 3.5 
" style="stroke: #000000; stroke-width: 0.8"/>
      </defs>
      <g>
       <use xlink:href="#md55153d960" x="84.949662" y="256.32" style="stroke: #000000; stroke-width: 0.8"/>
      </g>
     </g>
     <g id="text_1">
      <!-- 0 -->
      <g transform="translate(81.768412 270.918437) scale(0.1 -0.1)">
       <defs>
        <path id="DejaVuSans-30" d="M 2034 4250 
Q 1547 4250 1301 3770 
Q 1056 3291 1056 2328 
Q 1056 1369 1301 889 
Q 1547 409 2034 409 
Q 2525 409 2770 889 
Q 3016 1369 3016 2328 
Q 3016 3291 2770 3770 
Q 2525 4250 2034 4250 
z
M 2034 4750 
Q 2819 4750 3233 4129 
Q 3647 3509 3647 2328 
Q 3647 1150 3233 529 
Q 2819 -91 2034 -91 
Q 1250 -91 836 529 
Q 422 1150 422 2328 
Q 422 3509 836 4129 
Q 1250 4750 2034 4750 
z
" transform="scale(0.015625)"/>
       </defs>
       <use xlink:href="#DejaVuSans-30"/>
      </g>
     </g>
    </g>
    <g id="xtick_2">
     <g id="line2d_2">
      <g>
       <use xlink:href="#md55153d960" x="131.53118" y="256.32" style="stroke: #000000; stroke-width: 0.8"/>
      </g>
     </g>
     <g id="text_2">
      <!-- 5 -->
      <g transform="translate(128.34993 270.918437) scale(0.1 -0.1)">
       <defs>
        <path id="DejaVuSans-35" d="M 691 4666 
L 3169 4666 
L 3169 4134 
L 1269 4134 
L 1269 2991 
Q 1406 3038 1543 3061 
Q 1681 3084 1819 3084 
Q 2600 3084 3056 2656 
Q 3513 2228 3513 1497 
Q 3513 744 3044 326 
Q 2575 -91 1722 -91 
Q 1428 -91 1123 -41 
Q 819 9 494 109 
L 494 744 
Q 775 591 1075 516 
Q 1375 441 1709 441 
Q 2250 441 2565 725 
Q 2881 1009 2881 1497 
Q 2881 1984 2565 2268 
Q 2250 2553 1709 2553 
Q 1456 2553 1204 2497 
Q 953 2441 691 2322 
L 691 4666 
z
" transform="scale(0.015625)"/>
       </defs>
       <use xlink:href="#DejaVuSans-35"/>
      </g>
     </g>
    </g>
    <g id="xtick_3">
     <g id="line2d_3">
      <g>
       <use xlink:href="#md55153d960" x="178.112697" y="256.32" style="stroke: #000000; stroke-width: 0.8"/>
      </g>
     </g>
     <g id="text_3">
      <!-- 10 -->
      <g transform="translate(171.750197 270.918437) scale(0.1 -0.1)">
       <defs>
        <path id="DejaVuSans-31" d="M 794 531 
L 1825 531 
L 1825 4091 
L 703 3866 
L 703 4441 
L 1819 4666 
L 2450 4666 
L 2450 531 
L 3481 531 
L 3481 0 
L 794 0 
L 794 531 
z
" transform="scale(0.015625)"/>
       </defs>
       <use xlink:href="#DejaVuSans-31"/>
       <use xlink:href="#DejaVuSans-30" transform="translate(63.623047 0)"/>
      </g>
     </g>
    </g>
    <g id="xtick_4">
     <g id="line2d_4">
      <g>
       <use xlink:href="#md55153d960" x="224.694215" y="256.32" style="stroke: #000000; stroke-width: 0.8"/>
      </g>
     </g>
     <g id="text_4">
      <!-- 15 -->
      <g transform="translate(218.331715 270.918437) scale(0.1 -0.1)">
       <use xlink:href="#DejaVuSans-31"/>
       <use xlink:href="#DejaVuSans-35" transform="translate(63.623047 0)"/>
      </g>
     </g>
    </g>
    <g id="xtick_5">
     <g id="line2d_5">
      <g>
       <use xlink:href="#md55153d960" x="271.275733" y="256.32" style="stroke: #000000; stroke-width: 0.8"/>
      </g>
     </g>
     <g id="text_5">
      <!-- 20 -->
      <g transform="translate(264.913233 270.918437) scale(0.1 -0.1)">
       <defs>
        <path id="DejaVuSans-32" d="M 1228 531 
L 3431 531 
L 3431 0 
L 469 0 
L 469 531 
Q 828 903 1448 1529 
Q 2069 2156 2228 2338 
Q 2531 2678 2651 2914 
Q 2772 3150 2772 3378 
Q 2772 3750 2511 3984 
Q 2250 4219 1831 4219 
Q 1534 4219 1204 4116 
Q 875 4013 500 3803 
L 500 4441 
Q 881 4594 1212 4672 
Q 1544 4750 1819 4750 
Q 2544 4750 2975 4387 
Q 3406 4025 3406 3419 
Q 3406 3131 3298 2873 
Q 3191 2616 2906 2266 
Q 2828 2175 2409 1742 
Q 1991 1309 1228 531 
z
" transform="scale(0.015625)"/>
       </defs>
       <use xlink:href="#DejaVuSans-32"/>
       <use xlink:href="#DejaVuSans-30" transform="translate(63.623047 0)"/>
      </g>
     </g>
    </g>
   </g>
   <g id="matplotlib.axis_2">
    <g id="ytick_1">
     <g id="line2d_6">
      <defs>
       <path id="me166700bbb" d="M 0 0 
L -3.5 0 
" style="stroke: #000000; stroke-width: 0.8"/>
      </defs>
      <g>
       <use xlink:href="#me166700bbb" x="72" y="230.789619" style="stroke: #000000; stroke-width: 0.8"/>
      </g>
     </g>
     <g id="text_6">
      <!-- −1.0 -->
      <g transform="translate(40.717187 234.588837) scale(0.1 -0.1)">
       <defs>
        <path id="DejaVuSans-2212" d="M 678 2272 
L 4684 2272 
L 4684 1741 
L 678 1741 
L 678 2272 
z
" transform="scale(0.015625)"/>
        <path id="DejaVuSans-2e" d="M 684 794 
L 1344 794 
L 1344 0 
L 684 0 
L 684 794 
z
" transform="scale(0.015625)"/>
       </defs>
       <use xlink:href="#DejaVuSans-2212"/>
       <use xlink:href="#DejaVuSans-31" transform="translate(83.789062 0)"/>
       <use xlink:href="#DejaVuSans-2e" transform="translate(147.412109 0)"/>
       <use xlink:href="#DejaVuSans-30" transform="translate(179.199219 0)"/>
      </g>
     </g>
    </g>
    <g id="ytick_2">
     <g id="line2d_7">
      <g>
       <use xlink:href="#me166700bbb" x="72" y="198.247305" style="stroke: #000000; stroke-width: 0.8"/>
      </g>
     </g>
     <g id="text_7">
      <!-- −0.5 -->
      <g transform="translate(40.717187 202.046524) scale(0.1 -0.1)">
       <use xlink:href="#DejaVuSans-2212"/>
       <use xlink:href="#DejaVuSans-30" transform="translate(83.789062 0)"/>
       <use xlink:href="#DejaVuSans-2e" transform="translate(147.412109 0)"/>
       <use xlink:href="#DejaVuSans-35" transform="translate(179.199219 0)"/>
      </g>
     </g>
    </g>
    <g id="ytick_3">
     <g id="line2d_8">
      <g>
       <use xlink:href="#me166700bbb" x="72" y="165.704992" style="stroke: #000000; stroke-width: 0.8"/>
      </g>
     </g>
     <g id="text_8">
      <!-- 0.0 -->
      <g transform="translate(49.096875 169.50421) scale(0.1 -0.1)">
       <use xlink:href="#DejaVuSans-30"/>
       <use xlink:href="#DejaVuSans-2e" transform="translate(63.623047 0)"/>
       <use xlink:href="#DejaVuSans-30" transform="translate(95.410156 0)"/>
      </g>
     </g>
    </g>
    <g id="ytick_4">
     <g id="line2d_9">
      <g>
       <use xlink:href="#me166700bbb" x="72" y="133.162678" style="stroke: #000000; stroke-width: 0.8"/>
      </g>
     </g>
     <g id="text_9">
      <!-- 0.5 -->
      <g transform="translate(49.096875 136.961897) scale(0.1 -0.1)">
       <use xlink:href="#DejaVuSans-30"/>
       <use xlink:href="#DejaVuSans-2e" transform="translate(63.623047 0)"/>
       <use xlink:href="#DejaVuSans-35" transform="translate(95.410156 0)"/>
      </g>
     </g>
    </g>
    <g id="ytick_5">
     <g id="line2d_10">
      <g>
       <use xlink:href="#me166700bbb" x="72" y="100.620364" style="stroke: #000000; stroke-width: 0.8"/>
      </g>
     </g>
     <g id="text_10">
      <!-- 1.0 -->
      <g transform="translate(49.096875 104.419583) scale(0.1 -0.1)">
       <use xlink:href="#DejaVuSans-31"/>
       <use xlink:href="#DejaVuSans-2e" transform="translate(63.623047 0)"/>
       <use xlink:href="#DejaVuSans-30" transform="translate(95.410156 0)"/>
      </g>
     </g>
    </g>
    <g id="ytick_6">
     <g id="line2d_11">
      <g>
       <use xlink:href="#me166700bbb" x="72" y="68.078051" style="stroke: #000000; stroke-width: 0.8"/>
      </g>
     </g>
     <g id="text_11">
      <!-- 1.5 -->
      <g transform="translate(49.096875 71.87727) scale(0.1 -0.1)">
       <use xlink:href="#DejaVuSans-31"/>
       <use xlink:href="#DejaVuSans-2e" transform="translate(63.623047 0)"/>
       <use xlink:href="#DejaVuSans-35" transform="translate(95.410156 0)"/>
      </g>
     </g>
    </g>
    <g id="ytick_7">
     <g id="line2d_12">
      <g>
       <use xlink:href="#me166700bbb" x="72" y="35.535737" style="stroke: #000000; stroke-width: 0.8"/>
      </g>
     </g>
     <g id="text_12">
      <!-- 2.0 -->
      <g transform="translate(49.096875 39.334956) scale(0.1 -0.1)">
       <use xlink:href="#DejaVuSans-32"/>
       <use xlink:href="#DejaVuSans-2e" transform="translate(63.623047 0)"/>
       <use xlink:href="#DejaVuSans-30" transform="translate(95.410156 0)"/>
      </g>
     </g>
    </g>
   </g>
   <g id="patch_23">
    <path d="M 72 256.32 
L 72 34.56 
" style="fill: none; stroke: #000000; stroke-width: 0.8; stroke-linejoin: miter; stroke-linecap: square"/>
   </g>
   <g id="patch_24">
    <path d="M 274.909091 256.32 
L 274.909091 34.56 
" style="fill: none; stroke: #000000; stroke-width: 0.8; stroke-linejoin: miter; stroke-linecap: square"/>
   </g>
   <g id="patch_25">
    <path d="M 72 256.32 
L 274.909091 256.32 
" style="fill: none; stroke: #000000; stroke-width: 0.8; stroke-linejoin: miter; stroke-linecap: square"/>
   </g>
   <g id="patch_26">
    <path d="M 72 34.56 
L 274.909091 34.56 
" style="fill: none; stroke: #000000; stroke-width: 0.8; stroke-linejoin: miter; stroke-linecap: square"/>
   </g>
   <g id="text_13">
    <!-- Explicit 'alpha' keyword value -->
    <g transform="translate(84.362045 15.122625) scale(0.12 -0.12)">
     <defs>
      <path id="DejaVuSans-45" d="M 628 4666 
L 3578 4666 
L 3578 4134 
L 1259 4134 
L 1259 2753 
L 3481 2753 
L 3481 2222 
L 1259 2222 
L 1259 531 
L 3634 531 
L 3634 0 
L 628 0 
L 628 4666 
z
" transform="scale(0.015625)"/>
      <path id="DejaVuSans-78" d="M 3513 3500 
L 2247 1797 
L 3578 0 
L 2900 0 
L 1881 1375 
L 863 0 
L 184 0 
L 1544 1831 
L 300 3500 
L 978 3500 
L 1906 2253 
L 2834 3500 
L 3513 3500 
z
" transform="scale(0.015625)"/>
      <path id="DejaVuSans-70" d="M 1159 525 
L 1159 -1331 
L 581 -1331 
L 581 3500 
L 1159 3500 
L 1159 2969 
Q 1341 3281 1617 3432 
Q 1894 3584 2278 3584 
Q 2916 3584 3314 3078 
Q 3713 2572 3713 1747 
Q 3713 922 3314 415 
Q 2916 -91 2278 -91 
Q 1894 -91 1617 61 
Q 1341 213 1159 525 
z
M 3116 1747 
Q 3116 2381 2855 2742 
Q 2594 3103 2138 3103 
Q 1681 3103 1420 2742 
Q 1159 2381 1159 1747 
Q 1159 1113 1420 752 
Q 1681 391 2138 391 
Q 2594 391 2855 752 
Q 3116 1113 3116 1747 
z
" transform="scale(0.015625)"/>
      <path id="DejaVuSans-6c" d="M 603 4863 
L 1178 4863 
L 1178 0 
L 603 0 
L 603 4863 
z
" transform="scale(0.015625)"/>
      <path id="DejaVuSans-69" d="M 603 3500 
L 1178 3500 
L 1178 0 
L 603 0 
L 603 3500 
z
M 603 4863 
L 1178 4863 
L 1178 4134 
L 603 4134 
L 603 4863 
z
" transform="scale(0.015625)"/>
      <path id="DejaVuSans-63" d="M 3122 3366 
L 3122 2828 
Q 2878 2963 2633 3030 
Q 2388 3097 2138 3097 
Q 1578 3097 1268 2742 
Q 959 2388 959 1747 
Q 959 1106 1268 751 
Q 1578 397 2138 397 
Q 2388 397 2633 464 
Q 2878 531 3122 666 
L 3122 134 
Q 2881 22 2623 -34 
Q 2366 -91 2075 -91 
Q 1284 -91 818 406 
Q 353 903 353 1747 
Q 353 2603 823 3093 
Q 1294 3584 2113 3584 
Q 2378 3584 2631 3529 
Q 2884 3475 3122 3366 
z
" transform="scale(0.015625)"/>
      <path id="DejaVuSans-74" d="M 1172 4494 
L 1172 3500 
L 2356 3500 
L 2356 3053 
L 1172 3053 
L 1172 1153 
Q 1172 725 1289 603 
Q 1406 481 1766 481 
L 2356 481 
L 2356 0 
L 1766 0 
Q 1100 0 847 248 
Q 594 497 594 1153 
L 594 3053 
L 172 3053 
L 172 3500 
L 594 3500 
L 594 4494 
L 1172 4494 
z
" transform="scale(0.015625)"/>
      <path id="DejaVuSans-20" transform="scale(0.015625)"/>
      <path id="DejaVuSans-27" d="M 1147 4666 
L 1147 2931 
L 616 2931 
L 616 4666 
L 1147 4666 
z
" transform="scale(0.015625)"/>
      <path id="DejaVuSans-61" d="M 2194 1759 
Q 1497 1759 1228 1600 
Q 959 1441 959 1056 
Q 959 750 1161 570 
Q 1363 391 1709 391 
Q 2188 391 2477 730 
Q 2766 1069 2766 1631 
L 2766 1759 
L 2194 1759 
z
M 3341 1997 
L 3341 0 
L 2766 0 
L 2766 531 
Q 2569 213 2275 61 
Q 1981 -91 1556 -91 
Q 1019 -91 701 211 
Q 384 513 384 1019 
Q 384 1609 779 1909 
Q 1175 2209 1959 2209 
L 2766 2209 
L 2766 2266 
Q 2766 2663 2505 2880 
Q 2244 3097 1772 3097 
Q 1472 3097 1187 3025 
Q 903 2953 641 2809 
L 641 3341 
Q 956 3463 1253 3523 
Q 1550 3584 1831 3584 
Q 2591 3584 2966 3190 
Q 3341 2797 3341 1997 
z
" transform="scale(0.015625)"/>
      <path id="DejaVuSans-68" d="M 3513 2113 
L 3513 0 
L 2938 0 
L 2938 2094 
Q 2938 2591 2744 2837 
Q 2550 3084 2163 3084 
Q 1697 3084 1428 2787 
Q 1159 2491 1159 1978 
L 1159 0 
L 581 0 
L 581 4863 
L 1159 4863 
L 1159 2956 
Q 1366 3272 1645 3428 
Q 1925 3584 2291 3584 
Q 2894 3584 3203 3211 
Q 3513 2838 3513 2113 
z
" transform="scale(0.015625)"/>
      <path id="DejaVuSans-6b" d="M 581 4863 
L 1159 4863 
L 1159 1991 
L 2875 3500 
L 3609 3500 
L 1753 1863 
L 3688 0 
L 2938 0 
L 1159 1709 
L 1159 0 
L 581 0 
L 581 4863 
z
" transform="scale(0.015625)"/>
      <path id="DejaVuSans-65" d="M 3597 1894 
L 3597 1613 
L 953 1613 
Q 991 1019 1311 708 
Q 1631 397 2203 397 
Q 2534 397 2845 478 
Q 3156 559 3463 722 
L 3463 178 
Q 3153 47 2828 -22 
Q 2503 -91 2169 -91 
Q 1331 -91 842 396 
Q 353 884 353 1716 
Q 353 2575 817 3079 
Q 1281 3584 2069 3584 
Q 2775 3584 3186 3129 
Q 3597 2675 3597 1894 
z
M 3022 2063 
Q 3016 2534 2758 2815 
Q 2500 3097 2075 3097 
Q 1594 3097 1305 2825 
Q 1016 2553 972 2059 
L 3022 2063 
z
" transform="scale(0.015625)"/>
      <path id="DejaVuSans-79" d="M 2059 -325 
Q 1816 -950 1584 -1140 
Q 1353 -1331 966 -1331 
L 506 -1331 
L 506 -850 
L 844 -850 
Q 1081 -850 1212 -737 
Q 1344 -625 1503 -206 
L 1606 56 
L 191 3500 
L 800 3500 
L 1894 763 
L 2988 3500 
L 3597 3500 
L 2059 -325 
z
" transform="scale(0.015625)"/>
      <path id="DejaVuSans-77" d="M 269 3500 
L 844 3500 
L 1563 769 
L 2278 3500 
L 2956 3500 
L 3675 769 
L 4391 3500 
L 4966 3500 
L 4050 0 
L 3372 0 
L 2619 2869 
L 1863 0 
L 1184 0 
L 269 3500 
z
" transform="scale(0.015625)"/>
      <path id="DejaVuSans-6f" d="M 1959 3097 
Q 1497 3097 1228 2736 
Q 959 2375 959 1747 
Q 959 1119 1226 758 
Q 1494 397 1959 397 
Q 2419 397 2687 759 
Q 2956 1122 2956 1747 
Q 2956 2369 2687 2733 
Q 2419 3097 1959 3097 
z
M 1959 3584 
Q 2709 3584 3137 3096 
Q 3566 2609 3566 1747 
Q 3566 888 3137 398 
Q 2709 -91 1959 -91 
Q 1206 -91 779 398 
Q 353 888 353 1747 
Q 353 2609 779 3096 
Q 1206 3584 1959 3584 
z
" transform="scale(0.015625)"/>
      <path id="DejaVuSans-72" d="M 2631 2963 
Q 2534 3019 2420 3045 
Q 2306 3072 2169 3072 
Q 1681 3072 1420 2755 
Q 1159 2438 1159 1844 
L 1159 0 
L 581 0 
L 581 3500 
L 1159 3500 
L 1159 2956 
Q 1341 3275 1631 3429 
Q 1922 3584 2338 3584 
Q 2397 3584 2469 3576 
Q 2541 3569 2628 3553 
L 2631 2963 
z
" transform="scale(0.015625)"/>
      <path id="DejaVuSans-64" d="M 2906 2969 
L 2906 4863 
L 3481 4863 
L 3481 0 
L 2906 0 
L 2906 525 
Q 2725 213 2448 61 
Q 2172 -91 1784 -91 
Q 1150 -91 751 415 
Q 353 922 353 1747 
Q 353 2572 751 3078 
Q 1150 3584 1784 3584 
Q 2172 3584 2448 3432 
Q 2725 3281 2906 2969 
z
M 947 1747 
Q 947 1113 1208 752 
Q 1469 391 1925 391 
Q 2381 391 2643 752 
Q 2906 1113 2906 1747 
Q 2906 2381 2643 2742 
Q 2381 3103 1925 3103 
Q 1469 3103 1208 2742 
Q 947 2381 947 1747 
z
" transform="scale(0.015625)"/>
      <path id="DejaVuSans-76" d="M 191 3500 
L 800 3500 
L 1894 563 
L 2988 3500 
L 3597 3500 
L 2284 0 
L 1503 0 
L 191 3500 
z
" transform="scale(0.015625)"/>
      <path id="DejaVuSans-75" d="M 544 1381 
L 544 3500 
L 1119 3500 
L 1119 1403 
Q 1119 906 1312 657 
Q 1506 409 1894 409 
Q 2359 409 2629 706 
Q 2900 1003 2900 1516 
L 2900 3500 
L 3475 3500 
L 3475 0 
L 2900 0 
L 2900 538 
Q 2691 219 2414 64 
Q 2138 -91 1772 -91 
Q 1169 -91 856 284 
Q 544 659 544 1381 
z
M 1991 3584 
L 1991 3584 
z
" transform="scale(0.015625)"/>
     </defs>
     <use xlink:href="#DejaVuSans-45"/>
     <use xlink:href="#DejaVuSans-78" transform="translate(63.183594 0)"/>
     <use xlink:href="#DejaVuSans-70" transform="translate(122.363281 0)"/>
     <use xlink:href="#DejaVuSans-6c" transform="translate(185.839844 0)"/>
     <use xlink:href="#DejaVuSans-69" transform="translate(213.623047 0)"/>
     <use xlink:href="#DejaVuSans-63" transform="translate(241.40625 0)"/>
     <use xlink:href="#DejaVuSans-69" transform="translate(296.386719 0)"/>
     <use xlink:href="#DejaVuSans-74" transform="translate(324.169922 0)"/>
     <use xlink:href="#DejaVuSans-20" transform="translate(363.378906 0)"/>
     <use xlink:href="#DejaVuSans-27" transform="translate(395.166016 0)"/>
     <use xlink:href="#DejaVuSans-61" transform="translate(422.65625 0)"/>
     <use xlink:href="#DejaVuSans-6c" transform="translate(483.935547 0)"/>
     <use xlink:href="#DejaVuSans-70" transform="translate(511.71875 0)"/>
     <use xlink:href="#DejaVuSans-68" transform="translate(575.195312 0)"/>
     <use xlink:href="#DejaVuSans-61" transform="translate(638.574219 0)"/>
     <use xlink:href="#DejaVuSans-27" transform="translate(699.853516 0)"/>
     <use xlink:href="#DejaVuSans-20" transform="translate(727.34375 0)"/>
     <use xlink:href="#DejaVuSans-6b" transform="translate(759.130859 0)"/>
     <use xlink:href="#DejaVuSans-65" transform="translate(813.416016 0)"/>
     <use xlink:href="#DejaVuSans-79" transform="translate(874.939453 0)"/>
     <use xlink:href="#DejaVuSans-77" transform="translate(934.119141 0)"/>
     <use xlink:href="#DejaVuSans-6f" transform="translate(1015.90625 0)"/>
     <use xlink:href="#DejaVuSans-72" transform="translate(1077.087891 0)"/>
     <use xlink:href="#DejaVuSans-64" transform="translate(1116.451172 0)"/>
     <use xlink:href="#DejaVuSans-20" transform="translate(1179.927734 0)"/>
     <use xlink:href="#DejaVuSans-76" transform="translate(1211.714844 0)"/>
     <use xlink:href="#DejaVuSans-61" transform="translate(1270.894531 0)"/>
     <use xlink:href="#DejaVuSans-6c" transform="translate(1332.173828 0)"/>
     <use xlink:href="#DejaVuSans-75" transform="translate(1359.957031 0)"/>
     <use xlink:href="#DejaVuSans-65" transform="translate(1423.335938 0)"/>
    </g>
    <!-- shared by all bars and edges -->
    <g transform="translate(86.61767 28.56) scale(0.12 -0.12)">
     <defs>
      <path id="DejaVuSans-73" d="M 2834 3397 
L 2834 2853 
Q 2591 2978 2328 3040 
Q 2066 3103 1784 3103 
Q 1356 3103 1142 2972 
Q 928 2841 928 2578 
Q 928 2378 1081 2264 
Q 1234 2150 1697 2047 
L 1894 2003 
Q 2506 1872 2764 1633 
Q 3022 1394 3022 966 
Q 3022 478 2636 193 
Q 2250 -91 1575 -91 
Q 1294 -91 989 -36 
Q 684 19 347 128 
L 347 722 
Q 666 556 975 473 
Q 1284 391 1588 391 
Q 1994 391 2212 530 
Q 2431 669 2431 922 
Q 2431 1156 2273 1281 
Q 2116 1406 1581 1522 
L 1381 1569 
Q 847 1681 609 1914 
Q 372 2147 372 2553 
Q 372 3047 722 3315 
Q 1072 3584 1716 3584 
Q 2034 3584 2315 3537 
Q 2597 3491 2834 3397 
z
" transform="scale(0.015625)"/>
      <path id="DejaVuSans-62" d="M 3116 1747 
Q 3116 2381 2855 2742 
Q 2594 3103 2138 3103 
Q 1681 3103 1420 2742 
Q 1159 2381 1159 1747 
Q 1159 1113 1420 752 
Q 1681 391 2138 391 
Q 2594 391 2855 752 
Q 3116 1113 3116 1747 
z
M 1159 2969 
Q 1341 3281 1617 3432 
Q 1894 3584 2278 3584 
Q 2916 3584 3314 3078 
Q 3713 2572 3713 1747 
Q 3713 922 3314 415 
Q 2916 -91 2278 -91 
Q 1894 -91 1617 61 
Q 1341 213 1159 525 
L 1159 0 
L 581 0 
L 581 4863 
L 1159 4863 
L 1159 2969 
z
" transform="scale(0.015625)"/>
      <path id="DejaVuSans-6e" d="M 3513 2113 
L 3513 0 
L 2938 0 
L 2938 2094 
Q 2938 2591 2744 2837 
Q 2550 3084 2163 3084 
Q 1697 3084 1428 2787 
Q 1159 2491 1159 1978 
L 1159 0 
L 581 0 
L 581 3500 
L 1159 3500 
L 1159 2956 
Q 1366 3272 1645 3428 
Q 1925 3584 2291 3584 
Q 2894 3584 3203 3211 
Q 3513 2838 3513 2113 
z
" transform="scale(0.015625)"/>
      <path id="DejaVuSans-67" d="M 2906 1791 
Q 2906 2416 2648 2759 
Q 2391 3103 1925 3103 
Q 1463 3103 1205 2759 
Q 947 2416 947 1791 
Q 947 1169 1205 825 
Q 1463 481 1925 481 
Q 2391 481 2648 825 
Q 2906 1169 2906 1791 
z
M 3481 434 
Q 3481 -459 3084 -895 
Q 2688 -1331 1869 -1331 
Q 1566 -1331 1297 -1286 
Q 1028 -1241 775 -1147 
L 775 -588 
Q 1028 -725 1275 -790 
Q 1522 -856 1778 -856 
Q 2344 -856 2625 -561 
Q 2906 -266 2906 331 
L 2906 616 
Q 2728 306 2450 153 
Q 2172 0 1784 0 
Q 1141 0 747 490 
Q 353 981 353 1791 
Q 353 2603 747 3093 
Q 1141 3584 1784 3584 
Q 2172 3584 2450 3431 
Q 2728 3278 2906 2969 
L 2906 3500 
L 3481 3500 
L 3481 434 
z
" transform="scale(0.015625)"/>
     </defs>
     <use xlink:href="#DejaVuSans-73"/>
     <use xlink:href="#DejaVuSans-68" transform="translate(52.099609 0)"/>
     <use xlink:href="#DejaVuSans-61" transform="translate(115.478516 0)"/>
     <use xlink:href="#DejaVuSans-72" transform="translate(176.757812 0)"/>
     <use xlink:href="#DejaVuSans-65" transform="translate(215.621094 0)"/>
     <use xlink:href="#DejaVuSans-64" transform="translate(277.144531 0)"/>
     <use xlink:href="#DejaVuSans-20" transform="translate(340.621094 0)"/>
     <use xlink:href="#DejaVuSans-62" transform="translate(372.408203 0)"/>
     <use xlink:href="#DejaVuSans-79" transform="translate(435.884766 0)"/>
     <use xlink:href="#DejaVuSans-20" transform="translate(495.064453 0)"/>
     <use xlink:href="#DejaVuSans-61" transform="translate(526.851562 0)"/>
     <use xlink:href="#DejaVuSans-6c" transform="translate(588.130859 0)"/>
     <use xlink:href="#DejaVuSans-6c" transform="translate(615.914062 0)"/>
     <use xlink:href="#DejaVuSans-20" transform="translate(643.697266 0)"/>
     <use xlink:href="#DejaVuSans-62" transform="translate(675.484375 0)"/>
     <use xlink:href="#DejaVuSans-61" transform="translate(738.960938 0)"/>
     <use xlink:href="#DejaVuSans-72" transform="translate(800.240234 0)"/>
     <use xlink:href="#DejaVuSans-73" transform="translate(841.353516 0)"/>
     <use xlink:href="#DejaVuSans-20" transform="translate(893.453125 0)"/>
     <use xlink:href="#DejaVuSans-61" transform="translate(925.240234 0)"/>
     <use xlink:href="#DejaVuSans-6e" transform="translate(986.519531 0)"/>
     <use xlink:href="#DejaVuSans-64" transform="translate(1049.898438 0)"/>
     <use xlink:href="#DejaVuSans-20" transform="translate(1113.375 0)"/>
     <use xlink:href="#DejaVuSans-65" transform="translate(1145.162109 0)"/>
     <use xlink:href="#DejaVuSans-64" transform="translate(1206.685547 0)"/>
     <use xlink:href="#DejaVuSans-67" transform="translate(1270.162109 0)"/>
     <use xlink:href="#DejaVuSans-65" transform="translate(1333.638672 0)"/>
     <use xlink:href="#DejaVuSans-73" transform="translate(1395.162109 0)"/>
    </g>
   </g>
  </g>
  <g id="axes_2">
   <g id="patch_27">
    <path d="M 315.490909 256.32 
L 518.4 256.32 
L 518.4 34.56 
L 315.490909 34.56 
z
" style="fill: #ffffff"/>
   </g>
   <g id="patch_28">
    <path d="M 324.71405 165.704992 
L 332.167092 165.704992 
L 332.167092 97.411412 
L 324.71405 97.411412 
z
" clip-path="url(#p54e2785e04)" style="fill: #008000; fill-opacity: 0.564107; stroke: #008000; stroke-opacity: 0.435893; stroke-linejoin: miter"/>
   </g>
   <g id="patch_29">
    <path d="M 334.030353 165.704992 
L 341.483396 165.704992 
L 341.483396 109.33525 
L 334.030353 109.33525 
z
" clip-path="url(#p54e2785e04)" style="fill: #008000; fill-opacity: 0.465616; stroke: #008000; stroke-opacity: 0.534384; stroke-linejoin: miter"/>
   </g>
   <g id="patch_30">
    <path d="M 343.346657 165.704992 
L 350.799699 165.704992 
L 350.799699 129.834602 
L 343.346657 129.834602 
z
" clip-path="url(#p54e2785e04)" style="fill: #008000; fill-opacity: 0.29629; stroke: #008000; stroke-opacity: 0.70371; stroke-linejoin: miter"/>
   </g>
   <g id="patch_31">
    <path d="M 352.66296 165.704992 
L 360.116003 165.704992 
L 360.116003 53.233693 
L 352.66296 53.233693 
z
" clip-path="url(#p54e2785e04)" style="fill: #008000; fill-opacity: 0.929016; stroke: #008000; stroke-opacity: 0.070984; stroke-linejoin: miter"/>
   </g>
   <g id="patch_32">
    <path d="M 361.979264 165.704992 
L 369.432307 165.704992 
L 369.432307 207.963667 
L 361.979264 207.963667 
z
" clip-path="url(#p54e2785e04)" style="fill: #ff0000; fill-opacity: 0.349058; stroke: #ff0000; stroke-opacity: 0.650942; stroke-linejoin: miter"/>
   </g>
   <g id="patch_33">
    <path d="M 371.295567 165.704992 
L 378.74861 165.704992 
L 378.74861 196.842751 
L 371.295567 196.842751 
z
" clip-path="url(#p54e2785e04)" style="fill: #ff0000; fill-opacity: 0.257199; stroke: #ff0000; stroke-opacity: 0.742801; stroke-linejoin: miter"/>
   </g>
   <g id="patch_34">
    <path d="M 380.611871 165.704992 
L 388.064914 165.704992 
L 388.064914 95.551241 
L 380.611871 95.551241 
z
" clip-path="url(#p54e2785e04)" style="fill: #008000; fill-opacity: 0.579472; stroke: #008000; stroke-opacity: 0.420528; stroke-linejoin: miter"/>
   </g>
   <g id="patch_35">
    <path d="M 389.928174 165.704992 
L 397.381217 165.704992 
L 397.381217 102.650332 
L 389.928174 102.650332 
z
" clip-path="url(#p54e2785e04)" style="fill: #008000; fill-opacity: 0.520833; stroke: #008000; stroke-opacity: 0.479167; stroke-linejoin: miter"/>
   </g>
   <g id="patch_36">
    <path d="M 399.244478 165.704992 
L 406.697521 165.704992 
L 406.697521 218.380896 
L 399.244478 218.380896 
z
" clip-path="url(#p54e2785e04)" style="fill: #ff0000; fill-opacity: 0.435104; stroke: #ff0000; stroke-opacity: 0.564896; stroke-linejoin: miter"/>
   </g>
   <g id="patch_37">
    <path d="M 408.560781 165.704992 
L 416.013824 165.704992 
L 416.013824 246.24 
L 408.560781 246.24 
z
" clip-path="url(#p54e2785e04)" style="fill: #ff0000; fill-opacity: 0.665221; stroke: #ff0000; stroke-opacity: 0.334779; stroke-linejoin: miter"/>
   </g>
   <g id="patch_38">
    <path d="M 417.877085 165.704992 
L 425.330128 165.704992 
L 425.330128 44.64 
L 417.877085 44.64 
z
" clip-path="url(#p54e2785e04)" style="fill: #008000"/>
   </g>
   <g id="patch_39">
    <path d="M 427.193388 165.704992 
L 434.646431 165.704992 
L 434.646431 185.771834 
L 427.193388 185.771834 
z
" clip-path="url(#p54e2785e04)" style="fill: #ff0000; fill-opacity: 0.165753; stroke: #ff0000; stroke-opacity: 0.834247; stroke-linejoin: miter"/>
   </g>
   <g id="patch_40">
    <path d="M 436.509692 165.704992 
L 443.962735 165.704992 
L 443.962735 114.745645 
L 436.509692 114.745645 
z
" clip-path="url(#p54e2785e04)" style="fill: #008000; fill-opacity: 0.420926; stroke: #008000; stroke-opacity: 0.579074; stroke-linejoin: miter"/>
   </g>
   <g id="patch_41">
    <path d="M 445.825995 165.704992 
L 453.279038 165.704992 
L 453.279038 164.304146 
L 445.825995 164.304146 
z
" clip-path="url(#p54e2785e04)" style="fill: #008000; fill-opacity: 0.011571; stroke: #008000; stroke-opacity: 0.988429; stroke-linejoin: miter"/>
   </g>
   <g id="patch_42">
    <path d="M 455.142299 165.704992 
L 462.595342 165.704992 
L 462.595342 119.126281 
L 455.142299 119.126281 
z
" clip-path="url(#p54e2785e04)" style="fill: #008000; fill-opacity: 0.384741; stroke: #008000; stroke-opacity: 0.615259; stroke-linejoin: miter"/>
   </g>
   <g id="patch_43">
    <path d="M 464.458603 165.704992 
L 471.911645 165.704992 
L 471.911645 74.491067 
L 464.458603 74.491067 
z
" clip-path="url(#p54e2785e04)" style="fill: #008000; fill-opacity: 0.753429; stroke: #008000; stroke-opacity: 0.246571; stroke-linejoin: miter"/>
   </g>
   <g id="patch_44">
    <path d="M 473.774906 165.704992 
L 481.227949 165.704992 
L 481.227949 239.088046 
L 473.774906 239.088046 
z
" clip-path="url(#p54e2785e04)" style="fill: #ff0000; fill-opacity: 0.606146; stroke: #ff0000; stroke-opacity: 0.393854; stroke-linejoin: miter"/>
   </g>
   <g id="patch_45">
    <path d="M 483.09121 165.704992 
L 490.544252 165.704992 
L 490.544252 57.93668 
L 483.09121 57.93668 
z
" clip-path="url(#p54e2785e04)" style="fill: #008000; fill-opacity: 0.890169; stroke: #008000; stroke-opacity: 0.109831; stroke-linejoin: miter"/>
   </g>
   <g id="patch_46">
    <path d="M 492.407513 165.704992 
L 499.860556 165.704992 
L 499.860556 74.523936 
L 492.407513 74.523936 
z
" clip-path="url(#p54e2785e04)" style="fill: #008000; fill-opacity: 0.753158; stroke: #008000; stroke-opacity: 0.246842; stroke-linejoin: miter"/>
   </g>
   <g id="patch_47">
    <path d="M 501.723817 165.704992 
L 509.17686 165.704992 
L 509.17686 152.558543 
L 501.723817 152.558543 
z
" clip-path="url(#p54e2785e04)" style="fill: #008000; fill-opacity: 0.10859; stroke: #008000; stroke-opacity: 0.89141; stroke-linejoin: miter"/>
   </g>
   <g id="matplotlib.axis_3">
    <g id="xtick_6">
     <g id="line2d_13">
      <g>
       <use xlink:href="#md55153d960" x="328.440571" y="256.32" style="stroke: #000000; stroke-width: 0.8"/>
      </g>
     </g>
     <g id="text_14">
      <!-- 0 -->
      <g transform="translate(325.259321 270.918437) scale(0.1 -0.1)">
       <use xlink:href="#DejaVuSans-30"/>
      </g>
     </g>
    </g>
    <g id="xtick_7">
     <g id="line2d_14">
      <g>
       <use xlink:href="#md55153d960" x="375.022089" y="256.32" style="stroke: #000000; stroke-width: 0.8"/>
      </g>
     </g>
     <g id="text_15">
      <!-- 5 -->
      <g transform="translate(371.840839 270.918437) scale(0.1 -0.1)">
       <use xlink:href="#DejaVuSans-35"/>
      </g>
     </g>
    </g>
    <g id="xtick_8">
     <g id="line2d_15">
      <g>
       <use xlink:href="#md55153d960" x="421.603606" y="256.32" style="stroke: #000000; stroke-width: 0.8"/>
      </g>
     </g>
     <g id="text_16">
      <!-- 10 -->
      <g transform="translate(415.241106 270.918437) scale(0.1 -0.1)">
       <use xlink:href="#DejaVuSans-31"/>
       <use xlink:href="#DejaVuSans-30" transform="translate(63.623047 0)"/>
      </g>
     </g>
    </g>
    <g id="xtick_9">
     <g id="line2d_16">
      <g>
       <use xlink:href="#md55153d960" x="468.185124" y="256.32" style="stroke: #000000; stroke-width: 0.8"/>
      </g>
     </g>
     <g id="text_17">
      <!-- 15 -->
      <g transform="translate(461.822624 270.918437) scale(0.1 -0.1)">
       <use xlink:href="#DejaVuSans-31"/>
       <use xlink:href="#DejaVuSans-35" transform="translate(63.623047 0)"/>
      </g>
     </g>
    </g>
    <g id="xtick_10">
     <g id="line2d_17">
      <g>
       <use xlink:href="#md55153d960" x="514.766642" y="256.32" style="stroke: #000000; stroke-width: 0.8"/>
      </g>
     </g>
     <g id="text_18">
      <!-- 20 -->
      <g transform="translate(508.404142 270.918437) scale(0.1 -0.1)">
       <use xlink:href="#DejaVuSans-32"/>
       <use xlink:href="#DejaVuSans-30" transform="translate(63.623047 0)"/>
      </g>
     </g>
    </g>
   </g>
   <g id="matplotlib.axis_4">
    <g id="ytick_8">
     <g id="line2d_18">
      <g>
       <use xlink:href="#me166700bbb" x="315.490909" y="230.789619" style="stroke: #000000; stroke-width: 0.8"/>
      </g>
     </g>
     <g id="text_19">
      <!-- −1.0 -->
      <g transform="translate(284.208097 234.588837) scale(0.1 -0.1)">
       <use xlink:href="#DejaVuSans-2212"/>
       <use xlink:href="#DejaVuSans-31" transform="translate(83.789062 0)"/>
       <use xlink:href="#DejaVuSans-2e" transform="translate(147.412109 0)"/>
       <use xlink:href="#DejaVuSans-30" transform="translate(179.199219 0)"/>
      </g>
     </g>
    </g>
    <g id="ytick_9">
     <g id="line2d_19">
      <g>
       <use xlink:href="#me166700bbb" x="315.490909" y="198.247305" style="stroke: #000000; stroke-width: 0.8"/>
      </g>
     </g>
     <g id="text_20">
      <!-- −0.5 -->
      <g transform="translate(284.208097 202.046524) scale(0.1 -0.1)">
       <use xlink:href="#DejaVuSans-2212"/>
       <use xlink:href="#DejaVuSans-30" transform="translate(83.789062 0)"/>
       <use xlink:href="#DejaVuSans-2e" transform="translate(147.412109 0)"/>
       <use xlink:href="#DejaVuSans-35" transform="translate(179.199219 0)"/>
      </g>
     </g>
    </g>
    <g id="ytick_10">
     <g id="line2d_20">
      <g>
       <use xlink:href="#me166700bbb" x="315.490909" y="165.704992" style="stroke: #000000; stroke-width: 0.8"/>
      </g>
     </g>
     <g id="text_21">
      <!-- 0.0 -->
      <g transform="translate(292.587784 169.50421) scale(0.1 -0.1)">
       <use xlink:href="#DejaVuSans-30"/>
       <use xlink:href="#DejaVuSans-2e" transform="translate(63.623047 0)"/>
       <use xlink:href="#DejaVuSans-30" transform="translate(95.410156 0)"/>
      </g>
     </g>
    </g>
    <g id="ytick_11">
     <g id="line2d_21">
      <g>
       <use xlink:href="#me166700bbb" x="315.490909" y="133.162678" style="stroke: #000000; stroke-width: 0.8"/>
      </g>
     </g>
     <g id="text_22">
      <!-- 0.5 -->
      <g transform="translate(292.587784 136.961897) scale(0.1 -0.1)">
       <use xlink:href="#DejaVuSans-30"/>
       <use xlink:href="#DejaVuSans-2e" transform="translate(63.623047 0)"/>
       <use xlink:href="#DejaVuSans-35" transform="translate(95.410156 0)"/>
      </g>
     </g>
    </g>
    <g id="ytick_12">
     <g id="line2d_22">
      <g>
       <use xlink:href="#me166700bbb" x="315.490909" y="100.620364" style="stroke: #000000; stroke-width: 0.8"/>
      </g>
     </g>
     <g id="text_23">
      <!-- 1.0 -->
      <g transform="translate(292.587784 104.419583) scale(0.1 -0.1)">
       <use xlink:href="#DejaVuSans-31"/>
       <use xlink:href="#DejaVuSans-2e" transform="translate(63.623047 0)"/>
       <use xlink:href="#DejaVuSans-30" transform="translate(95.410156 0)"/>
      </g>
     </g>
    </g>
    <g id="ytick_13">
     <g id="line2d_23">
      <g>
       <use xlink:href="#me166700bbb" x="315.490909" y="68.078051" style="stroke: #000000; stroke-width: 0.8"/>
      </g>
     </g>
     <g id="text_24">
      <!-- 1.5 -->
      <g transform="translate(292.587784 71.87727) scale(0.1 -0.1)">
       <use xlink:href="#DejaVuSans-31"/>
       <use xlink:href="#DejaVuSans-2e" transform="translate(63.623047 0)"/>
       <use xlink:href="#DejaVuSans-35" transform="translate(95.410156 0)"/>
      </g>
     </g>
    </g>
    <g id="ytick_14">
     <g id="line2d_24">
      <g>
       <use xlink:href="#me166700bbb" x="315.490909" y="35.535737" style="stroke: #000000; stroke-width: 0.8"/>
      </g>
     </g>
     <g id="text_25">
      <!-- 2.0 -->
      <g transform="translate(292.587784 39.334956) scale(0.1 -0.1)">
       <use xlink:href="#DejaVuSans-32"/>
       <use xlink:href="#DejaVuSans-2e" transform="translate(63.623047 0)"/>
       <use xlink:href="#DejaVuSans-30" transform="translate(95.410156 0)"/>
      </g>
     </g>
    </g>
   </g>
   <g id="patch_48">
    <path d="M 315.490909 256.32 
L 315.490909 34.56 
" style="fill: none; stroke: #000000; stroke-width: 0.8; stroke-linejoin: miter; stroke-linecap: square"/>
   </g>
   <g id="patch_49">
    <path d="M 518.4 256.32 
L 518.4 34.56 
" style="fill: none; stroke: #000000; stroke-width: 0.8; stroke-linejoin: miter; stroke-linecap: square"/>
   </g>
   <g id="patch_50">
    <path d="M 315.490909 256.32 
L 518.4 256.32 
" style="fill: none; stroke: #000000; stroke-width: 0.8; stroke-linejoin: miter; stroke-linecap: square"/>
   </g>
   <g id="patch_51">
    <path d="M 315.490909 34.56 
L 518.4 34.56 
" style="fill: none; stroke: #000000; stroke-width: 0.8; stroke-linejoin: miter; stroke-linecap: square"/>
   </g>
   <g id="text_26">
    <!-- Normalized alphas for -->
    <g transform="translate(351.09733 15.122625) scale(0.12 -0.12)">
     <defs>
      <path id="DejaVuSans-4e" d="M 628 4666 
L 1478 4666 
L 3547 763 
L 3547 4666 
L 4159 4666 
L 4159 0 
L 3309 0 
L 1241 3903 
L 1241 0 
L 628 0 
L 628 4666 
z
" transform="scale(0.015625)"/>
      <path id="DejaVuSans-6d" d="M 3328 2828 
Q 3544 3216 3844 3400 
Q 4144 3584 4550 3584 
Q 5097 3584 5394 3201 
Q 5691 2819 5691 2113 
L 5691 0 
L 5113 0 
L 5113 2094 
Q 5113 2597 4934 2840 
Q 4756 3084 4391 3084 
Q 3944 3084 3684 2787 
Q 3425 2491 3425 1978 
L 3425 0 
L 2847 0 
L 2847 2094 
Q 2847 2600 2669 2842 
Q 2491 3084 2119 3084 
Q 1678 3084 1418 2786 
Q 1159 2488 1159 1978 
L 1159 0 
L 581 0 
L 581 3500 
L 1159 3500 
L 1159 2956 
Q 1356 3278 1631 3431 
Q 1906 3584 2284 3584 
Q 2666 3584 2933 3390 
Q 3200 3197 3328 2828 
z
" transform="scale(0.015625)"/>
      <path id="DejaVuSans-7a" d="M 353 3500 
L 3084 3500 
L 3084 2975 
L 922 459 
L 3084 459 
L 3084 0 
L 275 0 
L 275 525 
L 2438 3041 
L 353 3041 
L 353 3500 
z
" transform="scale(0.015625)"/>
      <path id="DejaVuSans-66" d="M 2375 4863 
L 2375 4384 
L 1825 4384 
Q 1516 4384 1395 4259 
Q 1275 4134 1275 3809 
L 1275 3500 
L 2222 3500 
L 2222 3053 
L 1275 3053 
L 1275 0 
L 697 0 
L 697 3053 
L 147 3053 
L 147 3500 
L 697 3500 
L 697 3744 
Q 697 4328 969 4595 
Q 1241 4863 1831 4863 
L 2375 4863 
z
" transform="scale(0.015625)"/>
     </defs>
     <use xlink:href="#DejaVuSans-4e"/>
     <use xlink:href="#DejaVuSans-6f" transform="translate(74.804688 0)"/>
     <use xlink:href="#DejaVuSans-72" transform="translate(135.986328 0)"/>
     <use xlink:href="#DejaVuSans-6d" transform="translate(175.349609 0)"/>
     <use xlink:href="#DejaVuSans-61" transform="translate(272.761719 0)"/>
     <use xlink:href="#DejaVuSans-6c" transform="translate(334.041016 0)"/>
     <use xlink:href="#DejaVuSans-69" transform="translate(361.824219 0)"/>
     <use xlink:href="#DejaVuSans-7a" transform="translate(389.607422 0)"/>
     <use xlink:href="#DejaVuSans-65" transform="translate(442.097656 0)"/>
     <use xlink:href="#DejaVuSans-64" transform="translate(503.621094 0)"/>
     <use xlink:href="#DejaVuSans-20" transform="translate(567.097656 0)"/>
     <use xlink:href="#DejaVuSans-61" transform="translate(598.884766 0)"/>
     <use xlink:href="#DejaVuSans-6c" transform="translate(660.164062 0)"/>
     <use xlink:href="#DejaVuSans-70" transform="translate(687.947266 0)"/>
     <use xlink:href="#DejaVuSans-68" transform="translate(751.423828 0)"/>
     <use xlink:href="#DejaVuSans-61" transform="translate(814.802734 0)"/>
     <use xlink:href="#DejaVuSans-73" transform="translate(876.082031 0)"/>
     <use xlink:href="#DejaVuSans-20" transform="translate(928.181641 0)"/>
     <use xlink:href="#DejaVuSans-66" transform="translate(959.96875 0)"/>
     <use xlink:href="#DejaVuSans-6f" transform="translate(995.173828 0)"/>
     <use xlink:href="#DejaVuSans-72" transform="translate(1056.355469 0)"/>
    </g>
    <!-- each bar and each edge -->
    <g transform="translate(344.134517 28.56) scale(0.12 -0.12)">
     <use xlink:href="#DejaVuSans-65"/>
     <use xlink:href="#DejaVuSans-61" transform="translate(61.523438 0)"/>
     <use xlink:href="#DejaVuSans-63" transform="translate(122.802734 0)"/>
     <use xlink:href="#DejaVuSans-68" transform="translate(177.783203 0)"/>
     <use xlink:href="#DejaVuSans-20" transform="translate(241.162109 0)"/>
     <use xlink:href="#DejaVuSans-62" transform="translate(272.949219 0)"/>
     <use xlink:href="#DejaVuSans-61" transform="translate(336.425781 0)"/>
     <use xlink:href="#DejaVuSans-72" transform="translate(397.705078 0)"/>
     <use xlink:href="#DejaVuSans-20" transform="translate(438.818359 0)"/>
     <use xlink:href="#DejaVuSans-61" transform="translate(470.605469 0)"/>
     <use xlink:href="#DejaVuSans-6e" transform="translate(531.884766 0)"/>
     <use xlink:href="#DejaVuSans-64" transform="translate(595.263672 0)"/>
     <use xlink:href="#DejaVuSans-20" transform="translate(658.740234 0)"/>
     <use xlink:href="#DejaVuSans-65" transform="translate(690.527344 0)"/>
     <use xlink:href="#DejaVuSans-61" transform="translate(752.050781 0)"/>
     <use xlink:href="#DejaVuSans-63" transform="translate(813.330078 0)"/>
     <use xlink:href="#DejaVuSans-68" transform="translate(868.310547 0)"/>
     <use xlink:href="#DejaVuSans-20" transform="translate(931.689453 0)"/>
     <use xlink:href="#DejaVuSans-65" transform="translate(963.476562 0)"/>
     <use xlink:href="#DejaVuSans-64" transform="translate(1025 0)"/>
     <use xlink:href="#DejaVuSans-67" transform="translate(1088.476562 0)"/>
     <use xlink:href="#DejaVuSans-65" transform="translate(1151.953125 0)"/>
    </g>
   </g>
  </g>
 </g>
 <defs>
  <clipPath id="p0be340734d">
   <rect x="72" y="34.56" width="202.909091" height="221.76"/>
  </clipPath>
  <clipPath id="p54e2785e04">
   <rect x="315.490909" y="34.56" width="202.909091" height="221.76"/>
  </clipPath>
 </defs>
</svg>
