<?xml version="1.0" encoding="utf-8" standalone="no"?>
<!DOCTYPE svg PUBLIC "-//W3C//DTD SVG 1.1//EN"
  "http://www.w3.org/Graphics/SVG/1.1/DTD/svg11.dtd">
<svg xmlns:xlink="http://www.w3.org/1999/xlink" width="460.8pt" height="345.6pt" viewBox="0 0 460.8 345.6" xmlns="http://www.w3.org/2000/svg" version="1.1">
 <metadata>
  <rdf:RDF xmlns:dc="http://purl.org/dc/elements/1.1/" xmlns:cc="http://creativecommons.org/ns#" xmlns:rdf="http://www.w3.org/1999/02/22-rdf-syntax-ns#">
   <cc:Work>
    <dc:type rdf:resource="http://purl.org/dc/dcmitype/StillImage"/>
    <dc:date>2026-06-01T16:39:04.799312</dc:date>
    <dc:format>image/svg+xml</dc:format>
    <dc:creator>
     <cc:Agent>
      <dc:title>Matplotlib v3.10.3, https://matplotlib.org/</dc:title>
     </cc:Agent>
    </dc:creator>
   </cc:Work>
  </rdf:RDF>
 </metadata>
 <defs>
  <style type="text/css">*{stroke-linejoin: round; stroke-linecap: butt}</style>
 </defs>
 <g id="figure_1">
  <g id="patch_1">
   <path d="M 0 345.6 
L 460.8 345.6 
L 460.8 0 
L 0 0 
z
" style="fill: #ffffff"/>
  </g>
  <g id="axes_1">
   <g id="patch_2">
    <path d="M 57.6 174.528 
L 236.16 174.528 
L 236.16 41.472 
L 57.6 41.472 
z
" style="fill: #ffffff"/>
   </g>
   <g id="matplotlib.axis_1">
    <g id="xtick_1">
     <g id="line2d_1">
      <defs>
       <path id="mc4db76cc95" d="M 0 0 
L 0 3.5 
" style="stroke: #000000; stroke-width: 0.8"/>
      </defs>
      <g>
       <use xlink:href="#mc4db76cc95" x="65.716364" y="174.528" style="stroke: #000000; stroke-width: 0.8"/>
      </g>
     </g>
    </g>
    <g id="xtick_2">
     <g id="line2d_2">
      <g>
       <use xlink:href="#mc4db76cc95" x="104.910772" y="174.528" style="stroke: #000000; stroke-width: 0.8"/>
      </g>
     </g>
    </g>
    <g id="xtick_3">
     <g id="line2d_3">
      <g>
       <use xlink:href="#mc4db76cc95" x="144.10518" y="174.528" style="stroke: #000000; stroke-width: 0.8"/>
      </g>
     </g>
    </g>
    <g id="xtick_4">
     <g id="line2d_4">
      <g>
       <use xlink:href="#mc4db76cc95" x="183.299588" y="174.528" style="stroke: #000000; stroke-width: 0.8"/>
      </g>
     </g>
    </g>
    <g id="xtick_5">
     <g id="line2d_5">
      <g>
       <use xlink:href="#mc4db76cc95" x="222.493996" y="174.528" style="stroke: #000000; stroke-width: 0.8"/>
      </g>
     </g>
    </g>
   </g>
   <g id="matplotlib.axis_2">
    <g id="ytick_1">
     <g id="line2d_6">
      <defs>
       <path id="m4593e33eb7" d="M 0 0 
L -3.5 0 
" style="stroke: #000000; stroke-width: 0.8"/>
      </defs>
      <g>
       <use xlink:href="#m4593e33eb7" x="57.6" y="168.480266" style="stroke: #000000; stroke-width: 0.8"/>
      </g>
     </g>
     <g id="text_1">
      <!-- −1.0 -->
      <g transform="translate(26.317187 172.279485) scale(0.1 -0.1)">
       <defs>
        <path id="DejaVuSans-2212" d="M 678 2272 
L 4684 2272 
L 4684 1741 
L 678 1741 
L 678 2272 
z
" transform="scale(0.015625)"/>
        <path id="DejaVuSans-31" d="M 794 531 
L 1825 531 
L 1825 4091 
L 703 3866 
L 703 4441 
L 1819 4666 
L 2450 4666 
L 2450 531 
L 3481 531 
L 3481 0 
L 794 0 
L 794 531 
z
" transform="scale(0.015625)"/>
        <path id="DejaVuSans-2e" d="M 684 794 
L 1344 794 
L 1344 0 
L 684 0 
L 684 794 
z
" transform="scale(0.015625)"/>
        <path id="DejaVuSans-30" d="M 2034 4250 
Q 1547 4250 1301 3770 
Q 1056 3291 1056 2328 
Q 1056 1369 1301 889 
Q 1547 409 2034 409 
Q 2525 409 2770 889 
Q 3016 1369 3016 2328 
Q 3016 3291 2770 3770 
Q 2525 4250 2034 4250 
z
M 2034 4750 
Q 2819 4750 3233 4129 
Q 3647 3509 3647 2328 
Q 3647 1150 3233 529 
Q 2819 -91 2034 -91 
Q 1250 -91 836 529 
Q 422 1150 422 2328 
Q 422 3509 836 4129 
Q 1250 4750 2034 4750 
z
" transform="scale(0.015625)"/>
       </defs>
       <use xlink:href="#DejaVuSans-2212"/>
       <use xlink:href="#DejaVuSans-31" transform="translate(83.789062 0)"/>
       <use xlink:href="#DejaVuSans-2e" transform="translate(147.412109 0)"/>
       <use xlink:href="#DejaVuSans-30" transform="translate(179.199219 0)"/>
      </g>
     </g>
    </g>
    <g id="ytick_2">
     <g id="line2d_7">
      <g>
       <use xlink:href="#m4593e33eb7" x="57.6" y="138.240133" style="stroke: #000000; stroke-width: 0.8"/>
      </g>
     </g>
     <g id="text_2">
      <!-- −0.5 -->
      <g transform="translate(26.317187 142.039352) scale(0.1 -0.1)">
       <defs>
        <path id="DejaVuSans-35" d="M 691 4666 
L 3169 4666 
L 3169 4134 
L 1269 4134 
L 1269 2991 
Q 1406 3038 1543 3061 
Q 1681 3084 1819 3084 
Q 2600 3084 3056 2656 
Q 3513 2228 3513 1497 
Q 3513 744 3044 326 
Q 2575 -91 1722 -91 
Q 1428 -91 1123 -41 
Q 819 9 494 109 
L 494 744 
Q 775 591 1075 516 
Q 1375 441 1709 441 
Q 2250 441 2565 725 
Q 2881 1009 2881 1497 
Q 2881 1984 2565 2268 
Q 2250 2553 1709 2553 
Q 1456 2553 1204 2497 
Q 953 2441 691 2322 
L 691 4666 
z
" transform="scale(0.015625)"/>
       </defs>
       <use xlink:href="#DejaVuSans-2212"/>
       <use xlink:href="#DejaVuSans-30" transform="translate(83.789062 0)"/>
       <use xlink:href="#DejaVuSans-2e" transform="translate(147.412109 0)"/>
       <use xlink:href="#DejaVuSans-35" transform="translate(179.199219 0)"/>
      </g>
     </g>
    </g>
    <g id="ytick_3">
     <g id="line2d_8">
      <g>
       <use xlink:href="#m4593e33eb7" x="57.6" y="108" style="stroke: #000000; stroke-width: 0.8"/>
      </g>
     </g>
     <g id="text_3">
      <!-- 0.0 -->
      <g transform="translate(34.696875 111.799219) scale(0.1 -0.1)">
       <use xlink:href="#DejaVuSans-30"/>
       <use xlink:href="#DejaVuSans-2e" transform="translate(63.623047 0)"/>
       <use xlink:href="#DejaVuSans-30" transform="translate(95.410156 0)"/>
      </g>
     </g>
    </g>
    <g id="ytick_4">
     <g id="line2d_9">
      <g>
       <use xlink:href="#m4593e33eb7" x="57.6" y="77.759867" style="stroke: #000000; stroke-width: 0.8"/>
      </g>
     </g>
     <g id="text_4">
      <!-- 0.5 -->
      <g transform="translate(34.696875 81.559086) scale(0.1 -0.1)">
       <use xlink:href="#DejaVuSans-30"/>
       <use xlink:href="#DejaVuSans-2e" transform="translate(63.623047 0)"/>
       <use xlink:href="#DejaVuSans-35" transform="translate(95.410156 0)"/>
      </g>
     </g>
    </g>
    <g id="ytick_5">
     <g id="line2d_10">
      <g>
       <use xlink:href="#m4593e33eb7" x="57.6" y="47.519734" style="stroke: #000000; stroke-width: 0.8"/>
      </g>
     </g>
     <g id="text_5">
      <!-- 1.0 -->
      <g transform="translate(34.696875 51.318952) scale(0.1 -0.1)">
       <use xlink:href="#DejaVuSans-31"/>
       <use xlink:href="#DejaVuSans-2e" transform="translate(63.623047 0)"/>
       <use xlink:href="#DejaVuSans-30" transform="translate(95.410156 0)"/>
      </g>
     </g>
    </g>
   </g>
   <g id="line2d_11">
    <path d="M 65.716364 108 
L 66.642175 107.86502 
L 67.567986 107.460086 
L 68.493797 106.78526 
L 69.419608 105.840775 
L 70.345419 104.627245 
L 71.579833 102.593022 
L 72.814248 100.088897 
L 74.048663 97.126055 
L 75.591681 92.806764 
L 77.443303 86.803028 
L 79.603529 78.889831 
L 85.466999 56.600236 
L 86.701413 52.878808 
L 87.627224 50.604025 
L 88.553035 48.88481 
L 89.170243 48.098654 
L 89.78745 47.636297 
L 90.404657 47.527734 
L 91.021865 47.801765 
L 91.639072 48.485424 
L 92.256279 49.603354 
L 92.873487 51.177137 
L 93.799298 54.430285 
L 94.725109 58.78841 
L 95.65092 64.263226 
L 96.885334 73.255507 
L 98.119749 84.023516 
L 99.662767 99.497315 
L 104.600426 151.187926 
L 105.526237 158.397079 
L 106.452048 163.901598 
L 107.069256 166.452373 
L 107.686463 168.002483 
L 107.995067 168.378281 
L 108.30367 168.477174 
L 108.612274 168.292576 
L 108.920878 167.819196 
L 109.538085 165.991919 
L 110.155292 162.982248 
L 110.7725 158.803207 
L 111.698311 150.440508 
L 112.624122 139.812654 
L 113.858536 122.868205 
L 117.870384 64.642469 
L 118.796195 55.447693 
L 119.413402 51.107805 
L 120.03061 48.418387 
L 120.339213 47.738419 
L 120.647817 47.52 
L 120.956421 47.772713 
L 121.265024 48.502512 
L 121.573628 49.711532 
L 122.190835 53.555691 
L 122.808043 59.24029 
L 123.733854 70.907659 
L 124.659665 85.663492 
L 126.511287 119.957349 
L 128.054305 146.67188 
L 128.980116 158.778248 
L 129.597323 164.388596 
L 130.214531 167.672423 
L 130.523134 168.372431 
L 130.831738 168.419923 
L 131.140342 167.805025 
L 131.448945 166.525142 
L 132.066153 161.997962 
L 132.68336 154.971353 
L 133.609171 140.341907 
L 134.843586 115.468573 
L 137.003812 70.632164 
L 137.929623 56.721156 
L 138.54683 50.700507 
L 138.855434 48.82915 
L 139.164037 47.768199 
L 139.472641 47.542785 
L 139.781245 48.166641 
L 140.089848 49.641568 
L 140.707056 55.090082 
L 141.324263 63.654192 
L 142.250074 81.350788 
L 143.793092 117.927432 
L 145.027507 145.593678 
L 145.644714 156.361853 
L 146.261922 164.025276 
L 146.570525 166.501174 
L 146.879129 167.998236 
L 147.187733 168.479695 
L 147.496336 167.925676 
L 147.80494 166.334001 
L 148.113544 163.720693 
L 148.730751 155.585128 
L 149.347958 144.010289 
L 150.273769 121.925055 
L 152.433995 67.619317 
L 153.051202 56.757977 
L 153.66841 49.846822 
L 153.977013 48.084004 
L 154.285617 47.520611 
L 154.594221 48.18066 
L 154.902824 50.063452 
L 155.211428 53.142975 
L 155.828635 62.66174 
L 156.445843 76.033592 
L 157.680258 109.83408 
L 158.914672 143.410289 
L 159.53188 156.338192 
L 160.149087 164.972842 
L 160.457691 167.389321 
L 160.766294 168.437253 
L 161.074898 168.078796 
L 161.383502 166.308688 
L 161.692105 163.155115 
L 162.309313 152.977237 
L 162.92652 138.42225 
L 164.160935 101.854094 
L 165.395349 67.281333 
L 166.012557 55.240216 
L 166.32116 51.173632 
L 166.629764 48.579184 
L 166.938368 47.538669 
L 167.246971 48.093866 
L 167.555575 50.244564 
L 167.864179 53.947664 
L 168.481386 65.626953 
L 169.407197 91.36974 
L 171.258819 148.342269 
L 171.876026 161.066215 
L 172.18463 165.226784 
L 172.493234 167.725571 
L 172.801837 168.474585 
L 173.110441 167.436506 
L 173.419045 164.626834 
L 174.036252 154.020777 
L 174.653459 137.819139 
L 177.122289 60.591364 
L 177.739496 50.418318 
L 178.0481 48.03455 
L 178.356703 47.595944 
L 178.665307 49.13285 
L 178.973911 52.610857 
L 179.591118 64.93029 
L 180.208325 83.034245 
L 182.368551 154.407044 
L 182.985759 165.405691 
L 183.294362 167.957977 
L 183.602966 168.379643 
L 183.91157 166.638851 
L 184.220173 162.781414 
L 184.837381 149.283822 
L 185.763192 118.516077 
L 186.997606 73.804755 
L 187.614814 57.379718 
L 187.923417 51.899842 
L 188.232021 48.565956 
L 188.540625 47.523307 
L 188.849228 48.829703 
L 188.849228 48.829703 
" clip-path="url(#p6eb91ee2a1)" style="fill: none; stroke: #1f77b4; stroke-width: 1.5; stroke-linecap: square"/>
   </g>
   <g id="patch_3">
    <path d="M 57.6 174.528 
L 57.6 41.472 
" style="fill: none; stroke: #000000; stroke-width: 0.8; stroke-linejoin: miter; stroke-linecap: square"/>
   </g>
   <g id="patch_4">
    <path d="M 236.16 174.528 
L 236.16 41.472 
" style="fill: none; stroke: #000000; stroke-width: 0.8; stroke-linejoin: miter; stroke-linecap: square"/>
   </g>
   <g id="patch_5">
    <path d="M 57.6 174.528 
L 236.16 174.528 
" style="fill: none; stroke: #000000; stroke-width: 0.8; stroke-linejoin: miter; stroke-linecap: square"/>
   </g>
   <g id="patch_6">
    <path d="M 57.6 41.472 
L 236.16 41.472 
" style="fill: none; stroke: #000000; stroke-width: 0.8; stroke-linejoin: miter; stroke-linecap: square"/>
   </g>
  </g>
  <g id="axes_2">
   <g id="patch_7">
    <path d="M 236.16 174.528 
L 414.72 174.528 
L 414.72 41.472 
L 236.16 41.472 
z
" style="fill: #ffffff"/>
   </g>
   <g id="matplotlib.axis_3">
    <g id="xtick_6">
     <g id="line2d_12">
      <g>
       <use xlink:href="#mc4db76cc95" x="244.276364" y="174.528" style="stroke: #000000; stroke-width: 0.8"/>
      </g>
     </g>
    </g>
    <g id="xtick_7">
     <g id="line2d_13">
      <g>
       <use xlink:href="#mc4db76cc95" x="283.470772" y="174.528" style="stroke: #000000; stroke-width: 0.8"/>
      </g>
     </g>
    </g>
    <g id="xtick_8">
     <g id="line2d_14">
      <g>
       <use xlink:href="#mc4db76cc95" x="322.66518" y="174.528" style="stroke: #000000; stroke-width: 0.8"/>
      </g>
     </g>
    </g>
    <g id="xtick_9">
     <g id="line2d_15">
      <g>
       <use xlink:href="#mc4db76cc95" x="361.859588" y="174.528" style="stroke: #000000; stroke-width: 0.8"/>
      </g>
     </g>
    </g>
    <g id="xtick_10">
     <g id="line2d_16">
      <g>
       <use xlink:href="#mc4db76cc95" x="401.053996" y="174.528" style="stroke: #000000; stroke-width: 0.8"/>
      </g>
     </g>
    </g>
   </g>
   <g id="matplotlib.axis_4">
    <g id="ytick_6">
     <g id="line2d_17">
      <g>
       <use xlink:href="#m4593e33eb7" x="236.16" y="168.480266" style="stroke: #000000; stroke-width: 0.8"/>
      </g>
     </g>
    </g>
    <g id="ytick_7">
     <g id="line2d_18">
      <g>
       <use xlink:href="#m4593e33eb7" x="236.16" y="138.240133" style="stroke: #000000; stroke-width: 0.8"/>
      </g>
     </g>
    </g>
    <g id="ytick_8">
     <g id="line2d_19">
      <g>
       <use xlink:href="#m4593e33eb7" x="236.16" y="108" style="stroke: #000000; stroke-width: 0.8"/>
      </g>
     </g>
    </g>
    <g id="ytick_9">
     <g id="line2d_20">
      <g>
       <use xlink:href="#m4593e33eb7" x="236.16" y="77.759867" style="stroke: #000000; stroke-width: 0.8"/>
      </g>
     </g>
    </g>
    <g id="ytick_10">
     <g id="line2d_21">
      <g>
       <use xlink:href="#m4593e33eb7" x="236.16" y="47.519734" style="stroke: #000000; stroke-width: 0.8"/>
      </g>
     </g>
    </g>
   </g>
   <g id="line2d_22">
    <path d="M 244.276364 108 
L 248.288211 107.89384 
L 249.83123 107.61042 
L 251.065644 107.132946 
L 251.991455 106.558809 
L 252.917266 105.74267 
L 253.843077 104.629832 
L 254.768888 103.164645 
L 255.694699 101.293437 
L 256.62051 98.968259 
L 257.546321 96.15146 
L 258.780736 91.595961 
L 260.015151 86.140507 
L 261.558169 78.227829 
L 265.878621 54.854597 
L 266.804432 51.201936 
L 267.421639 49.372187 
L 268.038846 48.128933 
L 268.34745 47.752636 
L 268.656054 47.552176 
L 268.964657 47.535734 
L 269.273261 47.71049 
L 269.581865 48.082481 
L 270.199072 49.435694 
L 270.816279 51.61519 
L 271.433487 54.613367 
L 272.359298 60.551228 
L 273.593712 70.678148 
L 276.988353 100.680733 
L 277.60556 104.322053 
L 278.222767 106.804641 
L 278.531371 107.551197 
L 278.839975 107.942081 
L 279.148578 107.962677 
L 279.457182 107.602735 
L 279.765786 106.856786 
L 280.382993 104.211074 
L 281.0002 100.090022 
L 281.926011 91.513387 
L 283.160426 77.160239 
L 284.703444 59.287655 
L 285.320652 53.719099 
L 285.937859 49.744313 
L 286.246463 48.471526 
L 286.555067 47.723531 
L 286.86367 47.525919 
L 287.172274 47.894531 
L 287.480878 48.83465 
L 288.098085 52.39405 
L 288.715292 58.015967 
L 289.641103 69.448138 
L 291.801329 98.73584 
L 292.418536 104.344865 
L 293.035744 107.482306 
L 293.344347 107.988075 
L 293.652951 107.744336 
L 293.961555 106.743091 
L 294.270158 104.995786 
L 294.887366 99.408731 
L 295.504573 91.470802 
L 298.282006 51.506133 
L 298.59061 49.303688 
L 298.899213 47.956314 
L 299.207817 47.520266 
L 299.516421 48.024634 
L 299.825024 49.469321 
L 300.442232 55.02742 
L 301.059439 63.591016 
L 303.528268 103.274391 
L 303.836872 105.891256 
L 304.145476 107.491075 
L 304.454079 107.998719 
L 304.762683 107.378294 
L 305.071287 105.635953 
L 305.688494 99.026332 
L 306.305701 89.066284 
L 308.157323 55.42626 
L 308.774531 49.12463 
L 309.083134 47.735212 
L 309.391738 47.64036 
L 309.700342 48.862677 
L 310.008945 51.366779 
L 310.626153 59.789567 
L 311.551964 77.999095 
L 312.477775 96.326542 
L 313.094982 104.730587 
L 313.403586 107.077723 
L 313.71219 107.990609 
L 314.020793 107.404675 
L 314.329397 105.329439 
L 314.946604 97.126636 
L 315.872415 78.036654 
L 316.798226 58.611772 
L 317.415434 50.110217 
L 317.724037 48.015644 
L 318.032641 47.565828 
L 318.341245 48.806629 
L 318.649848 51.688961 
L 319.267056 61.712846 
L 321.118678 101.535749 
L 321.427281 105.388788 
L 321.735885 107.563336 
L 322.044489 107.904918 
L 322.353092 106.370478 
L 322.661696 103.03422 
L 323.278903 91.823042 
L 324.821922 56.101558 
L 325.130525 51.413156 
L 325.439129 48.479952 
L 325.747733 47.520876 
L 326.056336 48.623828 
L 326.36494 51.7361 
L 326.982147 63.084316 
L 328.525166 100.173862 
L 328.833769 104.793877 
L 329.142373 107.442182 
L 329.450977 107.901093 
L 329.75958 106.112681 
L 330.068184 102.187213 
L 330.685391 89.169686 
L 331.919806 57.548793 
L 332.22841 52.084371 
L 332.537013 48.64301 
L 332.845617 47.521487 
L 333.154221 48.834364 
L 333.462824 52.500185 
L 334.080032 65.612358 
L 335.314446 98.353873 
L 335.62305 103.873605 
L 335.931654 107.172807 
L 336.240258 107.944381 
L 336.548861 106.096025 
L 336.857465 101.763383 
L 337.474672 87.267807 
L 338.709087 54.331177 
L 339.017691 49.681947 
L 339.326294 47.60573 
L 339.634898 48.32001 
L 339.943502 51.784919 
L 340.560709 65.532569 
L 341.795124 100.06657 
L 342.103727 105.281437 
L 342.412331 107.809393 
L 342.720935 107.375463 
L 343.029538 103.995249 
L 343.646746 89.910391 
L 344.88116 54.606781 
L 345.189764 49.620076 
L 345.498368 47.557598 
L 345.806971 48.662548 
L 346.115575 52.846632 
L 346.732782 68.49116 
L 347.658593 96.795623 
L 347.967197 103.427177 
L 348.275801 107.248943 
L 348.584404 107.812444 
L 348.893008 105.026286 
L 349.201612 99.173804 
L 349.818819 81.090418 
L 350.74463 53.851679 
L 351.053234 49.019707 
L 351.361837 47.531097 
L 351.670441 49.58924 
L 351.979045 54.981081 
L 352.596252 72.98177 
L 353.522063 101.263925 
L 353.830667 106.37923 
L 354.13927 107.991478 
L 354.447874 105.87234 
L 354.756478 100.254316 
L 355.373685 81.579085 
L 356.299496 53.177985 
L 356.6081 48.544984 
L 356.916703 47.672058 
L 357.225307 50.702942 
L 357.533911 57.273419 
L 359.076929 104.547183 
L 359.385533 107.806966 
L 359.694136 107.003514 
L 360.00274 102.214285 
L 360.619947 83.648338 
L 361.545759 53.512585 
L 361.854362 48.559801 
L 362.162966 47.720812 
L 362.47157 51.1465 
L 362.780173 58.380454 
L 364.323192 106.171505 
L 364.631795 107.979502 
L 364.940399 105.320215 
L 365.249003 98.555611 
L 366.792021 49.59408 
L 367.100625 47.52688 
L 367.409228 50.111299 
L 367.409228 50.111299 
" clip-path="url(#pc7f00179c2)" style="fill: none; stroke: #ff7f0e; stroke-width: 1.5; stroke-linecap: square"/>
   </g>
   <g id="patch_8">
    <path d="M 236.16 174.528 
L 236.16 41.472 
" style="fill: none; stroke: #000000; stroke-width: 0.8; stroke-linejoin: miter; stroke-linecap: square"/>
   </g>
   <g id="patch_9">
    <path d="M 414.72 174.528 
L 414.72 41.472 
" style="fill: none; stroke: #000000; stroke-width: 0.8; stroke-linejoin: miter; stroke-linecap: square"/>
   </g>
   <g id="patch_10">
    <path d="M 236.16 174.528 
L 414.72 174.528 
" style="fill: none; stroke: #000000; stroke-width: 0.8; stroke-linejoin: miter; stroke-linecap: square"/>
   </g>
   <g id="patch_11">
    <path d="M 236.16 41.472 
L 414.72 41.472 
" style="fill: none; stroke: #000000; stroke-width: 0.8; stroke-linejoin: miter; stroke-linecap: square"/>
   </g>
  </g>
  <g id="axes_3">
   <g id="patch_12">
    <path d="M 57.6 307.584 
L 236.16 307.584 
L 236.16 174.528 
L 57.6 174.528 
z
" style="fill: #ffffff"/>
   </g>
   <g id="matplotlib.axis_5">
    <g id="xtick_11">
     <g id="line2d_23">
      <g>
       <use xlink:href="#mc4db76cc95" x="65.716364" y="307.584" style="stroke: #000000; stroke-width: 0.8"/>
      </g>
     </g>
     <g id="text_6">
      <!-- 0 -->
      <g transform="translate(62.535114 322.182437) scale(0.1 -0.1)">
       <use xlink:href="#DejaVuSans-30"/>
      </g>
     </g>
    </g>
    <g id="xtick_12">
     <g id="line2d_24">
      <g>
       <use xlink:href="#mc4db76cc95" x="104.910772" y="307.584" style="stroke: #000000; stroke-width: 0.8"/>
      </g>
     </g>
     <g id="text_7">
      <!-- 2 -->
      <g transform="translate(101.729522 322.182437) scale(0.1 -0.1)">
       <defs>
        <path id="DejaVuSans-32" d="M 1228 531 
L 3431 531 
L 3431 0 
L 469 0 
L 469 531 
Q 828 903 1448 1529 
Q 2069 2156 2228 2338 
Q 2531 2678 2651 2914 
Q 2772 3150 2772 3378 
Q 2772 3750 2511 3984 
Q 2250 4219 1831 4219 
Q 1534 4219 1204 4116 
Q 875 4013 500 3803 
L 500 4441 
Q 881 4594 1212 4672 
Q 1544 4750 1819 4750 
Q 2544 4750 2975 4387 
Q 3406 4025 3406 3419 
Q 3406 3131 3298 2873 
Q 3191 2616 2906 2266 
Q 2828 2175 2409 1742 
Q 1991 1309 1228 531 
z
" transform="scale(0.015625)"/>
       </defs>
       <use xlink:href="#DejaVuSans-32"/>
      </g>
     </g>
    </g>
    <g id="xtick_13">
     <g id="line2d_25">
      <g>
       <use xlink:href="#mc4db76cc95" x="144.10518" y="307.584" style="stroke: #000000; stroke-width: 0.8"/>
      </g>
     </g>
     <g id="text_8">
      <!-- 4 -->
      <g transform="translate(140.92393 322.182437) scale(0.1 -0.1)">
       <defs>
        <path id="DejaVuSans-34" d="M 2419 4116 
L 825 1625 
L 2419 1625 
L 2419 4116 
z
M 2253 4666 
L 3047 4666 
L 3047 1625 
L 3713 1625 
L 3713 1100 
L 3047 1100 
L 3047 0 
L 2419 0 
L 2419 1100 
L 313 1100 
L 313 1709 
L 2253 4666 
z
" transform="scale(0.015625)"/>
       </defs>
       <use xlink:href="#DejaVuSans-34"/>
      </g>
     </g>
    </g>
    <g id="xtick_14">
     <g id="line2d_26">
      <g>
       <use xlink:href="#mc4db76cc95" x="183.299588" y="307.584" style="stroke: #000000; stroke-width: 0.8"/>
      </g>
     </g>
     <g id="text_9">
      <!-- 6 -->
      <g transform="translate(180.118338 322.182437) scale(0.1 -0.1)">
       <defs>
        <path id="DejaVuSans-36" d="M 2113 2584 
Q 1688 2584 1439 2293 
Q 1191 2003 1191 1497 
Q 1191 994 1439 701 
Q 1688 409 2113 409 
Q 2538 409 2786 701 
Q 3034 994 3034 1497 
Q 3034 2003 2786 2293 
Q 2538 2584 2113 2584 
z
M 3366 4563 
L 3366 3988 
Q 3128 4100 2886 4159 
Q 2644 4219 2406 4219 
Q 1781 4219 1451 3797 
Q 1122 3375 1075 2522 
Q 1259 2794 1537 2939 
Q 1816 3084 2150 3084 
Q 2853 3084 3261 2657 
Q 3669 2231 3669 1497 
Q 3669 778 3244 343 
Q 2819 -91 2113 -91 
Q 1303 -91 875 529 
Q 447 1150 447 2328 
Q 447 3434 972 4092 
Q 1497 4750 2381 4750 
Q 2619 4750 2861 4703 
Q 3103 4656 3366 4563 
z
" transform="scale(0.015625)"/>
       </defs>
       <use xlink:href="#DejaVuSans-36"/>
      </g>
     </g>
    </g>
    <g id="xtick_15">
     <g id="line2d_27">
      <g>
       <use xlink:href="#mc4db76cc95" x="222.493996" y="307.584" style="stroke: #000000; stroke-width: 0.8"/>
      </g>
     </g>
     <g id="text_10">
      <!-- 8 -->
      <g transform="translate(219.312746 322.182437) scale(0.1 -0.1)">
       <defs>
        <path id="DejaVuSans-38" d="M 2034 2216 
Q 1584 2216 1326 1975 
Q 1069 1734 1069 1313 
Q 1069 891 1326 650 
Q 1584 409 2034 409 
Q 2484 409 2743 651 
Q 3003 894 3003 1313 
Q 3003 1734 2745 1975 
Q 2488 2216 2034 2216 
z
M 1403 2484 
Q 997 2584 770 2862 
Q 544 3141 544 3541 
Q 544 4100 942 4425 
Q 1341 4750 2034 4750 
Q 2731 4750 3128 4425 
Q 3525 4100 3525 3541 
Q 3525 3141 3298 2862 
Q 3072 2584 2669 2484 
Q 3125 2378 3379 2068 
Q 3634 1759 3634 1313 
Q 3634 634 3220 271 
Q 2806 -91 2034 -91 
Q 1263 -91 848 271 
Q 434 634 434 1313 
Q 434 1759 690 2068 
Q 947 2378 1403 2484 
z
M 1172 3481 
Q 1172 3119 1398 2916 
Q 1625 2713 2034 2713 
Q 2441 2713 2670 2916 
Q 2900 3119 2900 3481 
Q 2900 3844 2670 4047 
Q 2441 4250 2034 4250 
Q 1625 4250 1398 4047 
Q 1172 3844 1172 3481 
z
" transform="scale(0.015625)"/>
       </defs>
       <use xlink:href="#DejaVuSans-38"/>
      </g>
     </g>
    </g>
   </g>
   <g id="matplotlib.axis_6">
    <g id="ytick_11">
     <g id="line2d_28">
      <g>
       <use xlink:href="#m4593e33eb7" x="57.6" y="301.536266" style="stroke: #000000; stroke-width: 0.8"/>
      </g>
     </g>
     <g id="text_11">
      <!-- −1.0 -->
      <g transform="translate(26.317187 305.335485) scale(0.1 -0.1)">
       <use xlink:href="#DejaVuSans-2212"/>
       <use xlink:href="#DejaVuSans-31" transform="translate(83.789062 0)"/>
       <use xlink:href="#DejaVuSans-2e" transform="translate(147.412109 0)"/>
       <use xlink:href="#DejaVuSans-30" transform="translate(179.199219 0)"/>
      </g>
     </g>
    </g>
    <g id="ytick_12">
     <g id="line2d_29">
      <g>
       <use xlink:href="#m4593e33eb7" x="57.6" y="271.296133" style="stroke: #000000; stroke-width: 0.8"/>
      </g>
     </g>
     <g id="text_12">
      <!-- −0.5 -->
      <g transform="translate(26.317187 275.095352) scale(0.1 -0.1)">
       <use xlink:href="#DejaVuSans-2212"/>
       <use xlink:href="#DejaVuSans-30" transform="translate(83.789062 0)"/>
       <use xlink:href="#DejaVuSans-2e" transform="translate(147.412109 0)"/>
       <use xlink:href="#DejaVuSans-35" transform="translate(179.199219 0)"/>
      </g>
     </g>
    </g>
    <g id="ytick_13">
     <g id="line2d_30">
      <g>
       <use xlink:href="#m4593e33eb7" x="57.6" y="241.056" style="stroke: #000000; stroke-width: 0.8"/>
      </g>
     </g>
     <g id="text_13">
      <!-- 0.0 -->
      <g transform="translate(34.696875 244.855219) scale(0.1 -0.1)">
       <use xlink:href="#DejaVuSans-30"/>
       <use xlink:href="#DejaVuSans-2e" transform="translate(63.623047 0)"/>
       <use xlink:href="#DejaVuSans-30" transform="translate(95.410156 0)"/>
      </g>
     </g>
    </g>
    <g id="ytick_14">
     <g id="line2d_31">
      <g>
       <use xlink:href="#m4593e33eb7" x="57.6" y="210.815867" style="stroke: #000000; stroke-width: 0.8"/>
      </g>
     </g>
     <g id="text_14">
      <!-- 0.5 -->
      <g transform="translate(34.696875 214.615086) scale(0.1 -0.1)">
       <use xlink:href="#DejaVuSans-30"/>
       <use xlink:href="#DejaVuSans-2e" transform="translate(63.623047 0)"/>
       <use xlink:href="#DejaVuSans-35" transform="translate(95.410156 0)"/>
      </g>
     </g>
    </g>
    <g id="ytick_15">
     <g id="line2d_32">
      <g>
       <use xlink:href="#m4593e33eb7" x="57.6" y="180.575734" style="stroke: #000000; stroke-width: 0.8"/>
      </g>
     </g>
     <g id="text_15">
      <!-- 1.0 -->
      <g transform="translate(34.696875 184.374952) scale(0.1 -0.1)">
       <use xlink:href="#DejaVuSans-31"/>
       <use xlink:href="#DejaVuSans-2e" transform="translate(63.623047 0)"/>
       <use xlink:href="#DejaVuSans-30" transform="translate(95.410156 0)"/>
      </g>
     </g>
    </g>
   </g>
   <g id="line2d_33">
    <path d="M 85.313568 241.056 
L 86.239379 241.19098 
L 87.16519 241.595914 
L 88.091001 242.27074 
L 89.016812 243.215225 
L 89.942623 244.428755 
L 91.177037 246.462978 
L 92.411452 248.967103 
L 93.645867 251.929945 
L 95.188885 256.249236 
L 97.040507 262.252972 
L 99.200733 270.166169 
L 105.064203 292.455764 
L 106.298617 296.177192 
L 107.224428 298.451975 
L 108.150239 300.17119 
L 108.767447 300.957346 
L 109.384654 301.419703 
L 110.001861 301.528266 
L 110.619069 301.254235 
L 111.236276 300.570576 
L 111.853483 299.452646 
L 112.470691 297.878863 
L 113.396502 294.625715 
L 114.322313 290.26759 
L 115.248124 284.792774 
L 116.482538 275.800493 
L 117.716953 265.032484 
L 119.259971 249.558685 
L 124.19763 197.868074 
L 125.123441 190.658921 
L 126.049252 185.154402 
L 126.66646 182.603627 
L 127.283667 181.053517 
L 127.592271 180.677719 
L 127.900874 180.578826 
L 128.209478 180.763424 
L 128.518082 181.236804 
L 129.135289 183.064081 
L 129.752496 186.073752 
L 130.369704 190.252793 
L 131.295515 198.615492 
L 132.221326 209.243346 
L 133.45574 226.187795 
L 137.467588 284.413531 
L 138.393399 293.608307 
L 139.010606 297.948195 
L 139.627814 300.637613 
L 139.936417 301.317581 
L 140.245021 301.536 
L 140.553625 301.283287 
L 140.862228 300.553488 
L 141.170832 299.344468 
L 141.788039 295.500309 
L 142.405247 289.81571 
L 143.331058 278.148341 
L 144.256869 263.392508 
L 146.108491 229.098651 
L 147.651509 202.38412 
L 148.57732 190.277752 
L 149.194528 184.667404 
L 149.811735 181.383577 
L 150.120339 180.683569 
L 150.428942 180.636077 
L 150.737546 181.250975 
L 151.04615 182.530858 
L 151.663357 187.058038 
L 152.280564 194.084647 
L 153.206375 208.714093 
L 154.44079 233.587427 
L 156.601016 278.423836 
L 157.526827 292.334844 
L 158.144034 298.355493 
L 158.452638 300.22685 
L 158.761241 301.287801 
L 159.069845 301.513215 
L 159.378449 300.889359 
L 159.687052 299.414432 
L 160.30426 293.965918 
L 160.921467 285.401808 
L 161.847278 267.705212 
L 163.390296 231.128568 
L 164.624711 203.462322 
L 165.241918 192.694147 
L 165.859126 185.030724 
L 166.167729 182.554826 
L 166.476333 181.057764 
L 166.784937 180.576305 
L 167.09354 181.130324 
L 167.402144 182.721999 
L 167.710748 185.335307 
L 168.327955 193.470872 
L 168.945162 205.045711 
L 169.870973 227.130945 
L 172.031199 281.436683 
L 172.648407 292.298023 
L 173.265614 299.209178 
L 173.574218 300.971996 
L 173.882821 301.535389 
L 174.191425 300.87534 
L 174.500029 298.992548 
L 174.808632 295.913025 
L 175.42584 286.39426 
L 176.043047 273.022408 
L 177.277462 239.22192 
L 178.511876 205.645711 
L 179.129084 192.717808 
L 179.746291 184.083158 
L 180.054895 181.666679 
L 180.363498 180.618747 
L 180.672102 180.977204 
L 180.980706 182.747312 
L 181.289309 185.900885 
L 181.906517 196.078763 
L 182.523724 210.63375 
L 183.758139 247.201906 
L 184.992553 281.774667 
L 185.609761 293.815784 
L 185.918364 297.882368 
L 186.226968 300.476816 
L 186.535572 301.517331 
L 186.844175 300.962134 
L 187.152779 298.811436 
L 187.461383 295.108336 
L 188.07859 283.429047 
L 189.004401 257.68626 
L 190.856023 200.713731 
L 191.47323 187.989785 
L 191.781834 183.829216 
L 192.090438 181.330429 
L 192.399041 180.581415 
L 192.707645 181.619494 
L 193.016249 184.429166 
L 193.633456 195.035223 
L 194.250663 211.236861 
L 196.719493 288.464636 
L 197.3367 298.637682 
L 197.645304 301.02145 
L 197.953908 301.460056 
L 198.262511 299.92315 
L 198.571115 296.445143 
L 199.188322 284.12571 
L 199.80553 266.021755 
L 201.965755 194.648956 
L 202.582963 183.650309 
L 202.891566 181.098023 
L 203.20017 180.676357 
L 203.508774 182.417149 
L 203.817377 186.274586 
L 204.434585 199.772178 
L 205.360396 230.539923 
L 206.59481 275.251245 
L 207.212018 291.676282 
L 207.520621 297.156158 
L 207.829225 300.490044 
L 208.137829 301.532693 
L 208.446432 300.226297 
L 208.446432 300.226297 
" clip-path="url(#pb3c0885c14)" style="fill: none; stroke: #2ca02c; stroke-width: 1.5; stroke-linecap: square"/>
   </g>
   <g id="patch_13">
    <path d="M 57.6 307.584 
L 57.6 174.528 
" style="fill: none; stroke: #000000; stroke-width: 0.8; stroke-linejoin: miter; stroke-linecap: square"/>
   </g>
   <g id="patch_14">
    <path d="M 236.16 307.584 
L 236.16 174.528 
" style="fill: none; stroke: #000000; stroke-width: 0.8; stroke-linejoin: miter; stroke-linecap: square"/>
   </g>
   <g id="patch_15">
    <path d="M 57.6 307.584 
L 236.16 307.584 
" style="fill: none; stroke: #000000; stroke-width: 0.8; stroke-linejoin: miter; stroke-linecap: square"/>
   </g>
   <g id="patch_16">
    <path d="M 57.6 174.528 
L 236.16 174.528 
" style="fill: none; stroke: #000000; stroke-width: 0.8; stroke-linejoin: miter; stroke-linecap: square"/>
   </g>
  </g>
  <g id="axes_4">
   <g id="patch_17">
    <path d="M 236.16 307.584 
L 414.72 307.584 
L 414.72 174.528 
L 236.16 174.528 
z
" style="fill: #ffffff"/>
   </g>
   <g id="matplotlib.axis_7">
    <g id="xtick_16">
     <g id="line2d_34">
      <g>
       <use xlink:href="#mc4db76cc95" x="244.276364" y="307.584" style="stroke: #000000; stroke-width: 0.8"/>
      </g>
     </g>
     <g id="text_16">
      <!-- 0 -->
      <g transform="translate(241.095114 322.182437) scale(0.1 -0.1)">
       <use xlink:href="#DejaVuSans-30"/>
      </g>
     </g>
    </g>
    <g id="xtick_17">
     <g id="line2d_35">
      <g>
       <use xlink:href="#mc4db76cc95" x="283.470772" y="307.584" style="stroke: #000000; stroke-width: 0.8"/>
      </g>
     </g>
     <g id="text_17">
      <!-- 2 -->
      <g transform="translate(280.289522 322.182437) scale(0.1 -0.1)">
       <use xlink:href="#DejaVuSans-32"/>
      </g>
     </g>
    </g>
    <g id="xtick_18">
     <g id="line2d_36">
      <g>
       <use xlink:href="#mc4db76cc95" x="322.66518" y="307.584" style="stroke: #000000; stroke-width: 0.8"/>
      </g>
     </g>
     <g id="text_18">
      <!-- 4 -->
      <g transform="translate(319.48393 322.182437) scale(0.1 -0.1)">
       <use xlink:href="#DejaVuSans-34"/>
      </g>
     </g>
    </g>
    <g id="xtick_19">
     <g id="line2d_37">
      <g>
       <use xlink:href="#mc4db76cc95" x="361.859588" y="307.584" style="stroke: #000000; stroke-width: 0.8"/>
      </g>
     </g>
     <g id="text_19">
      <!-- 6 -->
      <g transform="translate(358.678338 322.182437) scale(0.1 -0.1)">
       <use xlink:href="#DejaVuSans-36"/>
      </g>
     </g>
    </g>
    <g id="xtick_20">
     <g id="line2d_38">
      <g>
       <use xlink:href="#mc4db76cc95" x="401.053996" y="307.584" style="stroke: #000000; stroke-width: 0.8"/>
      </g>
     </g>
     <g id="text_20">
      <!-- 8 -->
      <g transform="translate(397.872746 322.182437) scale(0.1 -0.1)">
       <use xlink:href="#DejaVuSans-38"/>
      </g>
     </g>
    </g>
   </g>
   <g id="matplotlib.axis_8">
    <g id="ytick_16">
     <g id="line2d_39">
      <g>
       <use xlink:href="#m4593e33eb7" x="236.16" y="301.536266" style="stroke: #000000; stroke-width: 0.8"/>
      </g>
     </g>
    </g>
    <g id="ytick_17">
     <g id="line2d_40">
      <g>
       <use xlink:href="#m4593e33eb7" x="236.16" y="271.296133" style="stroke: #000000; stroke-width: 0.8"/>
      </g>
     </g>
    </g>
    <g id="ytick_18">
     <g id="line2d_41">
      <g>
       <use xlink:href="#m4593e33eb7" x="236.16" y="241.056" style="stroke: #000000; stroke-width: 0.8"/>
      </g>
     </g>
    </g>
    <g id="ytick_19">
     <g id="line2d_42">
      <g>
       <use xlink:href="#m4593e33eb7" x="236.16" y="210.815867" style="stroke: #000000; stroke-width: 0.8"/>
      </g>
     </g>
    </g>
    <g id="ytick_20">
     <g id="line2d_43">
      <g>
       <use xlink:href="#m4593e33eb7" x="236.16" y="180.575734" style="stroke: #000000; stroke-width: 0.8"/>
      </g>
     </g>
    </g>
   </g>
   <g id="line2d_44">
    <path d="M 283.470772 241.056 
L 287.482619 241.16216 
L 289.025638 241.44558 
L 290.260053 241.923054 
L 291.185864 242.497191 
L 292.111675 243.31333 
L 293.037486 244.426168 
L 293.963297 245.891355 
L 294.889108 247.762563 
L 295.814919 250.087741 
L 296.74073 252.90454 
L 297.975144 257.460039 
L 299.209559 262.915493 
L 300.752577 270.828171 
L 305.073029 294.201403 
L 305.99884 297.854064 
L 306.616047 299.683813 
L 307.233254 300.927067 
L 307.541858 301.303364 
L 307.850462 301.503824 
L 308.159065 301.520266 
L 308.467669 301.34551 
L 308.776273 300.973519 
L 309.39348 299.620306 
L 310.010687 297.44081 
L 310.627895 294.442633 
L 311.553706 288.504772 
L 312.78812 278.377852 
L 316.182761 248.375267 
L 316.799968 244.733947 
L 317.417176 242.251359 
L 317.725779 241.504803 
L 318.034383 241.113919 
L 318.342987 241.093323 
L 318.65159 241.453265 
L 318.960194 242.199214 
L 319.577401 244.844926 
L 320.194609 248.965978 
L 321.12042 257.542613 
L 322.354834 271.895761 
L 323.897853 289.768345 
L 324.51506 295.336901 
L 325.132267 299.311687 
L 325.440871 300.584474 
L 325.749475 301.332469 
L 326.058078 301.530081 
L 326.366682 301.161469 
L 326.675286 300.22135 
L 327.292493 296.66195 
L 327.9097 291.040033 
L 328.835511 279.607862 
L 330.995737 250.32016 
L 331.612944 244.711135 
L 332.230152 241.573694 
L 332.538755 241.067925 
L 332.847359 241.311664 
L 333.155963 242.312909 
L 333.464566 244.060214 
L 334.081774 249.647269 
L 334.698981 257.585198 
L 337.476414 297.549867 
L 337.785018 299.752312 
L 338.093621 301.099686 
L 338.402225 301.535734 
L 338.710829 301.031366 
L 339.019432 299.586679 
L 339.63664 294.02858 
L 340.253847 285.464984 
L 342.722677 245.781609 
L 343.03128 243.164744 
L 343.339884 241.564925 
L 343.648488 241.057281 
L 343.957091 241.677706 
L 344.265695 243.420047 
L 344.882902 250.029668 
L 345.50011 259.989716 
L 347.351732 293.62974 
L 347.968939 299.93137 
L 348.277543 301.320788 
L 348.586146 301.41564 
L 348.89475 300.193323 
L 349.203354 297.689221 
L 349.820561 289.266433 
L 350.746372 271.056905 
L 351.672183 252.729458 
L 352.28939 244.325413 
L 352.597994 241.978277 
L 352.906598 241.065391 
L 353.215201 241.651325 
L 353.523805 243.726561 
L 354.141012 251.929364 
L 355.066823 271.019346 
L 355.992634 290.444228 
L 356.609842 298.945783 
L 356.918445 301.040356 
L 357.227049 301.490172 
L 357.535653 300.249371 
L 357.844256 297.367039 
L 358.461464 287.343154 
L 360.313086 247.520251 
L 360.621689 243.667212 
L 360.930293 241.492664 
L 361.238897 241.151082 
L 361.5475 242.685522 
L 361.856104 246.02178 
L 362.473311 257.232958 
L 364.01633 292.954442 
L 364.324933 297.642844 
L 364.633537 300.576048 
L 364.942141 301.535124 
L 365.250744 300.432172 
L 365.559348 297.3199 
L 366.176556 285.971684 
L 367.719574 248.882138 
L 368.028178 244.262123 
L 368.336781 241.613818 
L 368.645385 241.154907 
L 368.953989 242.943319 
L 369.262592 246.868787 
L 369.8798 259.886314 
L 371.114214 291.507207 
L 371.422818 296.971629 
L 371.731422 300.41299 
L 372.040025 301.534513 
L 372.348629 300.221636 
L 372.657233 296.555815 
L 373.27444 283.443642 
L 374.508855 250.702127 
L 374.817458 245.182395 
L 375.126062 241.883193 
L 375.434666 241.111619 
L 375.743269 242.959975 
L 376.051873 247.292617 
L 376.66908 261.788193 
L 377.903495 294.724823 
L 378.212099 299.374053 
L 378.520702 301.45027 
L 378.829306 300.73599 
L 379.13791 297.271081 
L 379.755117 283.523431 
L 380.989532 248.98943 
L 381.298135 243.774563 
L 381.606739 241.246607 
L 381.915343 241.680537 
L 382.223946 245.060751 
L 382.841154 259.145609 
L 384.075568 294.449219 
L 384.384172 299.435924 
L 384.692776 301.498402 
L 385.001379 300.393452 
L 385.309983 296.209368 
L 385.92719 280.56484 
L 386.853001 252.260377 
L 387.161605 245.628823 
L 387.470209 241.807057 
L 387.778812 241.243556 
L 388.087416 244.029714 
L 388.39602 249.882196 
L 389.013227 267.965582 
L 389.939038 295.204321 
L 390.247642 300.036293 
L 390.556245 301.524903 
L 390.864849 299.46676 
L 391.173453 294.074919 
L 391.79066 276.07423 
L 392.716471 247.792075 
L 393.025075 242.67677 
L 393.333679 241.064522 
L 393.642282 243.18366 
L 393.950886 248.801684 
L 394.568093 267.476915 
L 395.493904 295.878015 
L 395.802508 300.511016 
L 396.111112 301.383942 
L 396.419715 298.353058 
L 396.728319 291.782581 
L 398.271337 244.508817 
L 398.579941 241.249034 
L 398.888545 242.052486 
L 399.197148 246.841715 
L 399.814356 265.407662 
L 400.740167 295.543415 
L 401.04877 300.496199 
L 401.357374 301.335188 
L 401.665978 297.9095 
L 401.974581 290.675546 
L 403.5176 242.884495 
L 403.826203 241.076498 
L 404.134807 243.735785 
L 404.443411 250.500389 
L 405.986429 299.46192 
L 406.295033 301.52912 
L 406.603636 298.944701 
L 406.603636 298.944701 
" clip-path="url(#pea7f82848a)" style="fill: none; stroke: #d62728; stroke-width: 1.5; stroke-linecap: square"/>
   </g>
   <g id="patch_18">
    <path d="M 236.16 307.584 
L 236.16 174.528 
" style="fill: none; stroke: #000000; stroke-width: 0.8; stroke-linejoin: miter; stroke-linecap: square"/>
   </g>
   <g id="patch_19">
    <path d="M 414.72 307.584 
L 414.72 174.528 
" style="fill: none; stroke: #000000; stroke-width: 0.8; stroke-linejoin: miter; stroke-linecap: square"/>
   </g>
   <g id="patch_20">
    <path d="M 236.16 307.584 
L 414.72 307.584 
" style="fill: none; stroke: #000000; stroke-width: 0.8; stroke-linejoin: miter; stroke-linecap: square"/>
   </g>
   <g id="patch_21">
    <path d="M 236.16 174.528 
L 414.72 174.528 
" style="fill: none; stroke: #000000; stroke-width: 0.8; stroke-linejoin: miter; stroke-linecap: square"/>
   </g>
  </g>
  <g id="text_21">
   <!-- Sharing x per column, y per row -->
   <g transform="translate(133.984688 16.030125) scale(0.12 -0.12)">
    <defs>
     <path id="DejaVuSans-53" d="M 3425 4513 
L 3425 3897 
Q 3066 4069 2747 4153 
Q 2428 4238 2131 4238 
Q 1616 4238 1336 4038 
Q 1056 3838 1056 3469 
Q 1056 3159 1242 3001 
Q 1428 2844 1947 2747 
L 2328 2669 
Q 3034 2534 3370 2195 
Q 3706 1856 3706 1288 
Q 3706 609 3251 259 
Q 2797 -91 1919 -91 
Q 1588 -91 1214 -16 
Q 841 59 441 206 
L 441 856 
Q 825 641 1194 531 
Q 1563 422 1919 422 
Q 2459 422 2753 634 
Q 3047 847 3047 1241 
Q 3047 1584 2836 1778 
Q 2625 1972 2144 2069 
L 1759 2144 
Q 1053 2284 737 2584 
Q 422 2884 422 3419 
Q 422 4038 858 4394 
Q 1294 4750 2059 4750 
Q 2388 4750 2728 4690 
Q 3069 4631 3425 4513 
z
" transform="scale(0.015625)"/>
     <path id="DejaVuSans-68" d="M 3513 2113 
L 3513 0 
L 2938 0 
L 2938 2094 
Q 2938 2591 2744 2837 
Q 2550 3084 2163 3084 
Q 1697 3084 1428 2787 
Q 1159 2491 1159 1978 
L 1159 0 
L 581 0 
L 581 4863 
L 1159 4863 
L 1159 2956 
Q 1366 3272 1645 3428 
Q 1925 3584 2291 3584 
Q 2894 3584 3203 3211 
Q 3513 2838 3513 2113 
z
" transform="scale(0.015625)"/>
     <path id="DejaVuSans-61" d="M 2194 1759 
Q 1497 1759 1228 1600 
Q 959 1441 959 1056 
Q 959 750 1161 570 
Q 1363 391 1709 391 
Q 2188 391 2477 730 
Q 2766 1069 2766 1631 
L 2766 1759 
L 2194 1759 
z
M 3341 1997 
L 3341 0 
L 2766 0 
L 2766 531 
Q 2569 213 2275 61 
Q 1981 -91 1556 -91 
Q 1019 -91 701 211 
Q 384 513 384 1019 
Q 384 1609 779 1909 
Q 1175 2209 1959 2209 
L 2766 2209 
L 2766 2266 
Q 2766 2663 2505 2880 
Q 2244 3097 1772 3097 
Q 1472 3097 1187 3025 
Q 903 2953 641 2809 
L 641 3341 
Q 956 3463 1253 3523 
Q 1550 3584 1831 3584 
Q 2591 3584 2966 3190 
Q 3341 2797 3341 1997 
z
" transform="scale(0.015625)"/>
     <path id="DejaVuSans-72" d="M 2631 2963 
Q 2534 3019 2420 3045 
Q 2306 3072 2169 3072 
Q 1681 3072 1420 2755 
Q 1159 2438 1159 1844 
L 1159 0 
L 581 0 
L 581 3500 
L 1159 3500 
L 1159 2956 
Q 1341 3275 1631 3429 
Q 1922 3584 2338 3584 
Q 2397 3584 2469 3576 
Q 2541 3569 2628 3553 
L 2631 2963 
z
" transform="scale(0.015625)"/>
     <path id="DejaVuSans-69" d="M 603 3500 
L 1178 3500 
L 1178 0 
L 603 0 
L 603 3500 
z
M 603 4863 
L 1178 4863 
L 1178 4134 
L 603 4134 
L 603 4863 
z
" transform="scale(0.015625)"/>
     <path id="DejaVuSans-6e" d="M 3513 2113 
L 3513 0 
L 2938 0 
L 2938 2094 
Q 2938 2591 2744 2837 
Q 2550 3084 2163 3084 
Q 1697 3084 1428 2787 
Q 1159 2491 1159 1978 
L 1159 0 
L 581 0 
L 581 3500 
L 1159 3500 
L 1159 2956 
Q 1366 3272 1645 3428 
Q 1925 3584 2291 3584 
Q 2894 3584 3203 3211 
Q 3513 2838 3513 2113 
z
" transform="scale(0.015625)"/>
     <path id="DejaVuSans-67" d="M 2906 1791 
Q 2906 2416 2648 2759 
Q 2391 3103 1925 3103 
Q 1463 3103 1205 2759 
Q 947 2416 947 1791 
Q 947 1169 1205 825 
Q 1463 481 1925 481 
Q 2391 481 2648 825 
Q 2906 1169 2906 1791 
z
M 3481 434 
Q 3481 -459 3084 -895 
Q 2688 -1331 1869 -1331 
Q 1566 -1331 1297 -1286 
Q 1028 -1241 775 -1147 
L 775 -588 
Q 1028 -725 1275 -790 
Q 1522 -856 1778 -856 
Q 2344 -856 2625 -561 
Q 2906 -266 2906 331 
L 2906 616 
Q 2728 306 2450 153 
Q 2172 0 1784 0 
Q 1141 0 747 490 
Q 353 981 353 1791 
Q 353 2603 747 3093 
Q 1141 3584 1784 3584 
Q 2172 3584 2450 3431 
Q 2728 3278 2906 2969 
L 2906 3500 
L 3481 3500 
L 3481 434 
z
" transform="scale(0.015625)"/>
     <path id="DejaVuSans-20" transform="scale(0.015625)"/>
     <path id="DejaVuSans-78" d="M 3513 3500 
L 2247 1797 
L 3578 0 
L 2900 0 
L 1881 1375 
L 863 0 
L 184 0 
L 1544 1831 
L 300 3500 
L 978 3500 
L 1906 2253 
L 2834 3500 
L 3513 3500 
z
" transform="scale(0.015625)"/>
     <path id="DejaVuSans-70" d="M 1159 525 
L 1159 -1331 
L 581 -1331 
L 581 3500 
L 1159 3500 
L 1159 2969 
Q 1341 3281 1617 3432 
Q 1894 3584 2278 3584 
Q 2916 3584 3314 3078 
Q 3713 2572 3713 1747 
Q 3713 922 3314 415 
Q 2916 -91 2278 -91 
Q 1894 -91 1617 61 
Q 1341 213 1159 525 
z
M 3116 1747 
Q 3116 2381 2855 2742 
Q 2594 3103 2138 3103 
Q 1681 3103 1420 2742 
Q 1159 2381 1159 1747 
Q 1159 1113 1420 752 
Q 1681 391 2138 391 
Q 2594 391 2855 752 
Q 3116 1113 3116 1747 
z
" transform="scale(0.015625)"/>
     <path id="DejaVuSans-65" d="M 3597 1894 
L 3597 1613 
L 953 1613 
Q 991 1019 1311 708 
Q 1631 397 2203 397 
Q 2534 397 2845 478 
Q 3156 559 3463 722 
L 3463 178 
Q 3153 47 2828 -22 
Q 2503 -91 2169 -91 
Q 1331 -91 842 396 
Q 353 884 353 1716 
Q 353 2575 817 3079 
Q 1281 3584 2069 3584 
Q 2775 3584 3186 3129 
Q 3597 2675 3597 1894 
z
M 3022 2063 
Q 3016 2534 2758 2815 
Q 2500 3097 2075 3097 
Q 1594 3097 1305 2825 
Q 1016 2553 972 2059 
L 3022 2063 
z
" transform="scale(0.015625)"/>
     <path id="DejaVuSans-63" d="M 3122 3366 
L 3122 2828 
Q 2878 2963 2633 3030 
Q 2388 3097 2138 3097 
Q 1578 3097 1268 2742 
Q 959 2388 959 1747 
Q 959 1106 1268 751 
Q 1578 397 2138 397 
Q 2388 397 2633 464 
Q 2878 531 3122 666 
L 3122 134 
Q 2881 22 2623 -34 
Q 2366 -91 2075 -91 
Q 1284 -91 818 406 
Q 353 903 353 1747 
Q 353 2603 823 3093 
Q 1294 3584 2113 3584 
Q 2378 3584 2631 3529 
Q 2884 3475 3122 3366 
z
" transform="scale(0.015625)"/>
     <path id="DejaVuSans-6f" d="M 1959 3097 
Q 1497 3097 1228 2736 
Q 959 2375 959 1747 
Q 959 1119 1226 758 
Q 1494 397 1959 397 
Q 2419 397 2687 759 
Q 2956 1122 2956 1747 
Q 2956 2369 2687 2733 
Q 2419 3097 1959 3097 
z
M 1959 3584 
Q 2709 3584 3137 3096 
Q 3566 2609 3566 1747 
Q 3566 888 3137 398 
Q 2709 -91 1959 -91 
Q 1206 -91 779 398 
Q 353 888 353 1747 
Q 353 2609 779 3096 
Q 1206 3584 1959 3584 
z
" transform="scale(0.015625)"/>
     <path id="DejaVuSans-6c" d="M 603 4863 
L 1178 4863 
L 1178 0 
L 603 0 
L 603 4863 
z
" transform="scale(0.015625)"/>
     <path id="DejaVuSans-75" d="M 544 1381 
L 544 3500 
L 1119 3500 
L 1119 1403 
Q 1119 906 1312 657 
Q 1506 409 1894 409 
Q 2359 409 2629 706 
Q 2900 1003 2900 1516 
L 2900 3500 
L 3475 3500 
L 3475 0 
L 2900 0 
L 2900 538 
Q 2691 219 2414 64 
Q 2138 -91 1772 -91 
Q 1169 -91 856 284 
Q 544 659 544 1381 
z
M 1991 3584 
L 1991 3584 
z
" transform="scale(0.015625)"/>
     <path id="DejaVuSans-6d" d="M 3328 2828 
Q 3544 3216 3844 3400 
Q 4144 3584 4550 3584 
Q 5097 3584 5394 3201 
Q 5691 2819 5691 2113 
L 5691 0 
L 5113 0 
L 5113 2094 
Q 5113 2597 4934 2840 
Q 4756 3084 4391 3084 
Q 3944 3084 3684 2787 
Q 3425 2491 3425 1978 
L 3425 0 
L 2847 0 
L 2847 2094 
Q 2847 2600 2669 2842 
Q 2491 3084 2119 3084 
Q 1678 3084 1418 2786 
Q 1159 2488 1159 1978 
L 1159 0 
L 581 0 
L 581 3500 
L 1159 3500 
L 1159 2956 
Q 1356 3278 1631 3431 
Q 1906 3584 2284 3584 
Q 2666 3584 2933 3390 
Q 3200 3197 3328 2828 
z
" transform="scale(0.015625)"/>
     <path id="DejaVuSans-2c" d="M 750 794 
L 1409 794 
L 1409 256 
L 897 -744 
L 494 -744 
L 750 256 
L 750 794 
z
" transform="scale(0.015625)"/>
     <path id="DejaVuSans-79" d="M 2059 -325 
Q 1816 -950 1584 -1140 
Q 1353 -1331 966 -1331 
L 506 -1331 
L 506 -850 
L 844 -850 
Q 1081 -850 1212 -737 
Q 1344 -625 1503 -206 
L 1606 56 
L 191 3500 
L 800 3500 
L 1894 763 
L 2988 3500 
L 3597 3500 
L 2059 -325 
z
" transform="scale(0.015625)"/>
     <path id="DejaVuSans-77" d="M 269 3500 
L 844 3500 
L 1563 769 
L 2278 3500 
L 2956 3500 
L 3675 769 
L 4391 3500 
L 4966 3500 
L 4050 0 
L 3372 0 
L 2619 2869 
L 1863 0 
L 1184 0 
L 269 3500 
z
" transform="scale(0.015625)"/>
    </defs>
    <use xlink:href="#DejaVuSans-53"/>
    <use xlink:href="#DejaVuSans-68" transform="translate(63.476562 0)"/>
    <use xlink:href="#DejaVuSans-61" transform="translate(126.855469 0)"/>
    <use xlink:href="#DejaVuSans-72" transform="translate(188.134766 0)"/>
    <use xlink:href="#DejaVuSans-69" transform="translate(229.248047 0)"/>
    <use xlink:href="#DejaVuSans-6e" transform="translate(257.03125 0)"/>
    <use xlink:href="#DejaVuSans-67" transform="translate(320.410156 0)"/>
    <use xlink:href="#DejaVuSans-20" transform="translate(383.886719 0)"/>
    <use xlink:href="#DejaVuSans-78" transform="translate(415.673828 0)"/>
    <use xlink:href="#DejaVuSans-20" transform="translate(474.853516 0)"/>
    <use xlink:href="#DejaVuSans-70" transform="translate(506.640625 0)"/>
    <use xlink:href="#DejaVuSans-65" transform="translate(570.117188 0)"/>
    <use xlink:href="#DejaVuSans-72" transform="translate(631.640625 0)"/>
    <use xlink:href="#DejaVuSans-20" transform="translate(672.753906 0)"/>
    <use xlink:href="#DejaVuSans-63" transform="translate(704.541016 0)"/>
    <use xlink:href="#DejaVuSans-6f" transform="translate(759.521484 0)"/>
    <use xlink:href="#DejaVuSans-6c" transform="translate(820.703125 0)"/>
    <use xlink:href="#DejaVuSans-75" transform="translate(848.486328 0)"/>
    <use xlink:href="#DejaVuSans-6d" transform="translate(911.865234 0)"/>
    <use xlink:href="#DejaVuSans-6e" transform="translate(1009.277344 0)"/>
    <use xlink:href="#DejaVuSans-2c" transform="translate(1072.65625 0)"/>
    <use xlink:href="#DejaVuSans-20" transform="translate(1104.443359 0)"/>
    <use xlink:href="#DejaVuSans-79" transform="translate(1136.230469 0)"/>
    <use xlink:href="#DejaVuSans-20" transform="translate(1195.410156 0)"/>
    <use xlink:href="#DejaVuSans-70" transform="translate(1227.197266 0)"/>
    <use xlink:href="#DejaVuSans-65" transform="translate(1290.673828 0)"/>
    <use xlink:href="#DejaVuSans-72" transform="translate(1352.197266 0)"/>
    <use xlink:href="#DejaVuSans-20" transform="translate(1393.310547 0)"/>
    <use xlink:href="#DejaVuSans-72" transform="translate(1425.097656 0)"/>
    <use xlink:href="#DejaVuSans-6f" transform="translate(1463.960938 0)"/>
    <use xlink:href="#DejaVuSans-77" transform="translate(1525.142578 0)"/>
   </g>
  </g>
 </g>
 <defs>
  <clipPath id="p6eb91ee2a1">
   <rect x="57.6" y="41.472" width="178.56" height="133.056"/>
  </clipPath>
  <clipPath id="pc7f00179c2">
   <rect x="236.16" y="41.472" width="178.56" height="133.056"/>
  </clipPath>
  <clipPath id="pb3c0885c14">
   <rect x="57.6" y="174.528" width="178.56" height="133.056"/>
  </clipPath>
  <clipPath id="pea7f82848a">
   <rect x="236.16" y="174.528" width="178.56" height="133.056"/>
  </clipPath>
 </defs>
</svg>
