<?xml version="1.0" encoding="utf-8" standalone="no"?>
<!DOCTYPE svg PUBLIC "-//W3C//DTD SVG 1.1//EN"
  "http://www.w3.org/Graphics/SVG/1.1/DTD/svg11.dtd">
<svg xmlns:xlink="http://www.w3.org/1999/xlink" width="576pt" height="432pt" viewBox="0 0 576 432" xmlns="http://www.w3.org/2000/svg" version="1.1">
 <metadata>
  <rdf:RDF xmlns:dc="http://purl.org/dc/elements/1.1/" xmlns:cc="http://creativecommons.org/ns#" xmlns:rdf="http://www.w3.org/1999/02/22-rdf-syntax-ns#">
   <cc:Work>
    <dc:type rdf:resource="http://purl.org/dc/dcmitype/StillImage"/>
    <dc:date>2026-07-08T14:50:23.057767</dc:date>
    <dc:format>image/svg+xml</dc:format>
    <dc:creator>
     <cc:Agent>
      <dc:title>Matplotlib v3.10.3, https://matplotlib.org/</dc:title>
     </cc:Agent>
    </dc:creator>
   </cc:Work>
  </rdf:RDF>
 </metadata>
 <defs>
  <style type="text/css">*{stroke-linejoin: round; stroke-linecap: butt}</style>
 </defs>
 <g id="figure_1">
  <g id="patch_1">
   <path d="M 0 432 
L 576 432 
L 576 0 
L 0 0 
z
" style="fill: #ffffff"/>
  </g>
  <g id="axes_1">
   <g id="patch_2">
    <path d="M 72 203.04 
L 518.4 203.04 
L 518.4 51.84 
L 72 51.84 
z
" style="fill: #ffffff"/>
   </g>
   <g id="patch_3">
    <path d="M 217.08 203.04 
L 439.56 203.04 
L 439.56 51.84 
L 217.08 51.84 
z
" clip-path="url(#p79e8474f0d)" style="fill: #1f77b4; opacity: 0.5"/>
   </g>
   <g id="matplotlib.axis_1">
    <g id="xtick_1">
     <g id="line2d_1">
      <defs>
       <path id="m5f168091d1" d="M 0 0 
L 0 3.5 
" style="stroke: #000000; stroke-width: 0.8"/>
      </defs>
      <g>
       <use xlink:href="#m5f168091d1" x="92.290909" y="203.04" style="stroke: #000000; stroke-width: 0.8"/>
      </g>
     </g>
     <g id="text_1">
      <!-- 0 -->
      <g transform="translate(89.109659 217.638437) scale(0.1 -0.1)">
       <defs>
        <path id="DejaVuSans-30" d="M 2034 4250 
Q 1547 4250 1301 3770 
Q 1056 3291 1056 2328 
Q 1056 1369 1301 889 
Q 1547 409 2034 409 
Q 2525 409 2770 889 
Q 3016 1369 3016 2328 
Q 3016 3291 2770 3770 
Q 2525 4250 2034 4250 
z
M 2034 4750 
Q 2819 4750 3233 4129 
Q 3647 3509 3647 2328 
Q 3647 1150 3233 529 
Q 2819 -91 2034 -91 
Q 1250 -91 836 529 
Q 422 1150 422 2328 
Q 422 3509 836 4129 
Q 1250 4750 2034 4750 
z
" transform="scale(0.015625)"/>
       </defs>
       <use xlink:href="#DejaVuSans-30"/>
      </g>
     </g>
    </g>
    <g id="xtick_2">
     <g id="line2d_2">
      <g>
       <use xlink:href="#m5f168091d1" x="173.617198" y="203.04" style="stroke: #000000; stroke-width: 0.8"/>
      </g>
     </g>
     <g id="text_2">
      <!-- 1 -->
      <g transform="translate(170.435948 217.638437) scale(0.1 -0.1)">
       <defs>
        <path id="DejaVuSans-31" d="M 794 531 
L 1825 531 
L 1825 4091 
L 703 3866 
L 703 4441 
L 1819 4666 
L 2450 4666 
L 2450 531 
L 3481 531 
L 3481 0 
L 794 0 
L 794 531 
z
" transform="scale(0.015625)"/>
       </defs>
       <use xlink:href="#DejaVuSans-31"/>
      </g>
     </g>
    </g>
    <g id="xtick_3">
     <g id="line2d_3">
      <g>
       <use xlink:href="#m5f168091d1" x="254.943487" y="203.04" style="stroke: #000000; stroke-width: 0.8"/>
      </g>
     </g>
     <g id="text_3">
      <!-- 2 -->
      <g transform="translate(251.762237 217.638437) scale(0.1 -0.1)">
       <defs>
        <path id="DejaVuSans-32" d="M 1228 531 
L 3431 531 
L 3431 0 
L 469 0 
L 469 531 
Q 828 903 1448 1529 
Q 2069 2156 2228 2338 
Q 2531 2678 2651 2914 
Q 2772 3150 2772 3378 
Q 2772 3750 2511 3984 
Q 2250 4219 1831 4219 
Q 1534 4219 1204 4116 
Q 875 4013 500 3803 
L 500 4441 
Q 881 4594 1212 4672 
Q 1544 4750 1819 4750 
Q 2544 4750 2975 4387 
Q 3406 4025 3406 3419 
Q 3406 3131 3298 2873 
Q 3191 2616 2906 2266 
Q 2828 2175 2409 1742 
Q 1991 1309 1228 531 
z
" transform="scale(0.015625)"/>
       </defs>
       <use xlink:href="#DejaVuSans-32"/>
      </g>
     </g>
    </g>
    <g id="xtick_4">
     <g id="line2d_4">
      <g>
       <use xlink:href="#m5f168091d1" x="336.269776" y="203.04" style="stroke: #000000; stroke-width: 0.8"/>
      </g>
     </g>
     <g id="text_4">
      <!-- 3 -->
      <g transform="translate(333.088526 217.638437) scale(0.1 -0.1)">
       <defs>
        <path id="DejaVuSans-33" d="M 2597 2516 
Q 3050 2419 3304 2112 
Q 3559 1806 3559 1356 
Q 3559 666 3084 287 
Q 2609 -91 1734 -91 
Q 1441 -91 1130 -33 
Q 819 25 488 141 
L 488 750 
Q 750 597 1062 519 
Q 1375 441 1716 441 
Q 2309 441 2620 675 
Q 2931 909 2931 1356 
Q 2931 1769 2642 2001 
Q 2353 2234 1838 2234 
L 1294 2234 
L 1294 2753 
L 1863 2753 
Q 2328 2753 2575 2939 
Q 2822 3125 2822 3475 
Q 2822 3834 2567 4026 
Q 2313 4219 1838 4219 
Q 1578 4219 1281 4162 
Q 984 4106 628 3988 
L 628 4550 
Q 988 4650 1302 4700 
Q 1616 4750 1894 4750 
Q 2613 4750 3031 4423 
Q 3450 4097 3450 3541 
Q 3450 3153 3228 2886 
Q 3006 2619 2597 2516 
z
" transform="scale(0.015625)"/>
       </defs>
       <use xlink:href="#DejaVuSans-33"/>
      </g>
     </g>
    </g>
    <g id="xtick_5">
     <g id="line2d_5">
      <g>
       <use xlink:href="#m5f168091d1" x="417.596065" y="203.04" style="stroke: #000000; stroke-width: 0.8"/>
      </g>
     </g>
     <g id="text_5">
      <!-- 4 -->
      <g transform="translate(414.414815 217.638437) scale(0.1 -0.1)">
       <defs>
        <path id="DejaVuSans-34" d="M 2419 4116 
L 825 1625 
L 2419 1625 
L 2419 4116 
z
M 2253 4666 
L 3047 4666 
L 3047 1625 
L 3713 1625 
L 3713 1100 
L 3047 1100 
L 3047 0 
L 2419 0 
L 2419 1100 
L 313 1100 
L 313 1709 
L 2253 4666 
z
" transform="scale(0.015625)"/>
       </defs>
       <use xlink:href="#DejaVuSans-34"/>
      </g>
     </g>
    </g>
    <g id="xtick_6">
     <g id="line2d_6">
      <g>
       <use xlink:href="#m5f168091d1" x="498.922354" y="203.04" style="stroke: #000000; stroke-width: 0.8"/>
      </g>
     </g>
     <g id="text_6">
      <!-- 5 -->
      <g transform="translate(495.741104 217.638437) scale(0.1 -0.1)">
       <defs>
        <path id="DejaVuSans-35" d="M 691 4666 
L 3169 4666 
L 3169 4134 
L 1269 4134 
L 1269 2991 
Q 1406 3038 1543 3061 
Q 1681 3084 1819 3084 
Q 2600 3084 3056 2656 
Q 3513 2228 3513 1497 
Q 3513 744 3044 326 
Q 2575 -91 1722 -91 
Q 1428 -91 1123 -41 
Q 819 9 494 109 
L 494 744 
Q 775 591 1075 516 
Q 1375 441 1709 441 
Q 2250 441 2565 725 
Q 2881 1009 2881 1497 
Q 2881 1984 2565 2268 
Q 2250 2553 1709 2553 
Q 1456 2553 1204 2497 
Q 953 2441 691 2322 
L 691 4666 
z
" transform="scale(0.015625)"/>
       </defs>
       <use xlink:href="#DejaVuSans-35"/>
      </g>
     </g>
    </g>
   </g>
   <g id="matplotlib.axis_2">
    <g id="ytick_1">
     <g id="line2d_7">
      <defs>
       <path id="ma40a4bdc7d" d="M 0 0 
L -3.5 0 
" style="stroke: #000000; stroke-width: 0.8"/>
      </defs>
      <g>
       <use xlink:href="#ma40a4bdc7d" x="72" y="203.04" style="stroke: #000000; stroke-width: 0.8"/>
      </g>
     </g>
     <g id="text_7">
      <!-- −2 -->
      <g transform="translate(50.257812 206.839219) scale(0.1 -0.1)">
       <defs>
        <path id="DejaVuSans-2212" d="M 678 2272 
L 4684 2272 
L 4684 1741 
L 678 1741 
L 678 2272 
z
" transform="scale(0.015625)"/>
       </defs>
       <use xlink:href="#DejaVuSans-2212"/>
       <use xlink:href="#DejaVuSans-32" transform="translate(83.789062 0)"/>
      </g>
     </g>
    </g>
    <g id="ytick_2">
     <g id="line2d_8">
      <g>
       <use xlink:href="#ma40a4bdc7d" x="72" y="165.24" style="stroke: #000000; stroke-width: 0.8"/>
      </g>
     </g>
     <g id="text_8">
      <!-- −1 -->
      <g transform="translate(50.257812 169.039219) scale(0.1 -0.1)">
       <use xlink:href="#DejaVuSans-2212"/>
       <use xlink:href="#DejaVuSans-31" transform="translate(83.789062 0)"/>
      </g>
     </g>
    </g>
    <g id="ytick_3">
     <g id="line2d_9">
      <g>
       <use xlink:href="#ma40a4bdc7d" x="72" y="127.44" style="stroke: #000000; stroke-width: 0.8"/>
      </g>
     </g>
     <g id="text_9">
      <!-- 0 -->
      <g transform="translate(58.6375 131.239219) scale(0.1 -0.1)">
       <use xlink:href="#DejaVuSans-30"/>
      </g>
     </g>
    </g>
    <g id="ytick_4">
     <g id="line2d_10">
      <g>
       <use xlink:href="#ma40a4bdc7d" x="72" y="89.64" style="stroke: #000000; stroke-width: 0.8"/>
      </g>
     </g>
     <g id="text_10">
      <!-- 1 -->
      <g transform="translate(58.6375 93.439219) scale(0.1 -0.1)">
       <use xlink:href="#DejaVuSans-31"/>
      </g>
     </g>
    </g>
    <g id="ytick_5">
     <g id="line2d_11">
      <g>
       <use xlink:href="#ma40a4bdc7d" x="72" y="51.84" style="stroke: #000000; stroke-width: 0.8"/>
      </g>
     </g>
     <g id="text_11">
      <!-- 2 -->
      <g transform="translate(58.6375 55.639219) scale(0.1 -0.1)">
       <use xlink:href="#DejaVuSans-32"/>
      </g>
     </g>
    </g>
   </g>
   <g id="line2d_12">
    <path d="M 92.290909 107.608149 
L 93.104172 108.697244 
L 93.917435 112.28596 
L 94.730698 87.696316 
L 95.543961 130.311068 
L 96.357224 124.801288 
L 97.170486 93.152863 
L 97.983749 93.035027 
L 98.797012 124.526328 
L 99.610275 130.572401 
L 100.423538 70.065515 
L 101.236801 109.172607 
L 102.050064 86.765976 
L 102.863327 99.478193 
L 104.489852 70.371441 
L 105.303115 116.834194 
L 106.116378 63.020643 
L 106.929641 66.759365 
L 108.556167 109.725985 
L 109.36943 71.084834 
L 110.182693 98.4564 
L 110.995956 99.337403 
L 111.809218 90.831909 
L 112.622481 110.706028 
L 113.435744 112.904848 
L 114.249007 116.588731 
L 115.06227 65.534278 
L 115.875533 100.607212 
L 117.502059 83.427093 
L 118.315322 78.556431 
L 119.128584 129.936394 
L 119.941847 97.935805 
L 120.75511 106.674257 
L 121.568373 84.420393 
L 122.381636 74.429496 
L 124.008162 107.67444 
L 124.821425 92.72444 
L 125.634688 117.323111 
L 126.44795 118.33846 
L 127.261213 105.435067 
L 128.074476 172.52764 
L 128.887739 141.434373 
L 129.701002 120.735384 
L 130.514265 124.458228 
L 131.327528 123.323609 
L 132.140791 90.438984 
L 132.954054 120.780399 
L 133.767316 125.340889 
L 134.580579 104.233038 
L 135.393842 105.14662 
L 136.207105 157.830987 
L 137.020368 123.551239 
L 137.833631 128.781416 
L 138.646894 130.025372 
L 139.460157 168.912164 
L 140.27342 108.091153 
L 141.086682 161.059131 
L 141.899945 121.038474 
L 142.713208 158.116179 
L 143.526471 183.645123 
L 144.339734 158.780982 
L 145.152997 148.657246 
L 145.96626 172.634563 
L 146.779523 153.097578 
L 147.592786 182.872436 
L 148.406048 195.009537 
L 149.219311 168.513824 
L 150.032574 162.422494 
L 150.845837 185.180363 
L 151.6591 162.814873 
L 152.472363 183.189291 
L 153.285626 164.290782 
L 154.098889 174.297146 
L 154.912152 139.731163 
L 155.725414 155.494903 
L 156.538677 178.222277 
L 157.35194 188.352613 
L 158.165203 156.306374 
L 158.978466 166.68136 
L 159.791729 148.540174 
L 160.604992 180.491752 
L 161.418255 153.020939 
L 162.231518 154.806578 
L 163.04478 177.603158 
L 163.858043 170.305616 
L 164.671306 152.392625 
L 165.484569 160.94475 
L 166.297832 147.399051 
L 167.111095 157.126065 
L 167.924358 129.899982 
L 168.737621 132.58026 
L 169.550884 123.498869 
L 170.364146 135.08255 
L 171.177409 177.280164 
L 171.990672 113.452919 
L 172.803935 153.888599 
L 173.617198 153.668228 
L 174.430461 122.132846 
L 175.243724 121.309994 
L 176.056987 100.906088 
L 176.87025 130.520734 
L 177.683512 127.455812 
L 178.496775 117.107142 
L 179.310038 121.665606 
L 180.123301 78.501997 
L 180.936564 109.123862 
L 181.749827 132.248792 
L 182.56309 86.800634 
L 183.376353 104.431991 
L 184.189616 106.877402 
L 185.002878 98.050309 
L 185.816141 98.402683 
L 186.629404 74.876583 
L 187.442667 84.340518 
L 188.25593 60.319833 
L 189.069193 102.619981 
L 189.882456 60.165809 
L 190.695719 78.09595 
L 191.508982 91.913169 
L 192.322244 121.168506 
L 193.135507 77.551235 
L 193.94877 106.920819 
L 194.762033 83.101889 
L 195.575296 88.084208 
L 196.388559 72.919027 
L 197.201822 82.960468 
L 198.015085 78.481219 
L 198.828348 92.912653 
L 199.64161 82.983446 
L 200.454873 94.426887 
L 201.268136 121.261387 
L 202.081399 102.858987 
L 202.894662 142.290448 
L 203.707925 83.261409 
L 204.521188 114.52874 
L 205.334451 125.916366 
L 206.147714 128.283361 
L 206.960976 123.271223 
L 207.774239 96.496024 
L 208.587502 99.328248 
L 209.400765 97.738196 
L 210.214028 112.319491 
L 211.027291 94.749227 
L 211.840554 139.197297 
L 212.653817 137.902499 
L 213.46708 90.418474 
L 214.280343 125.851527 
L 215.093605 138.625159 
L 215.906868 140.848754 
L 216.720131 146.310843 
L 217.533394 124.647466 
L 218.346657 174.115716 
L 219.15992 125.415938 
L 219.973183 122.860375 
L 220.786446 137.021007 
L 221.599709 142.53208 
L 222.412971 185.88619 
L 223.226234 148.453944 
L 224.039497 135.91962 
L 224.85276 167.60652 
L 225.666023 157.447311 
L 226.479286 169.621114 
L 227.292549 166.441847 
L 228.105812 150.794211 
L 228.919075 151.456979 
L 229.732337 162.556729 
L 230.5456 165.427097 
L 232.172126 136.583717 
L 232.985389 147.828816 
L 233.798652 134.355774 
L 235.425178 196.877092 
L 236.238441 170.726213 
L 237.051703 167.623393 
L 237.864966 142.743002 
L 238.678229 163.91552 
L 239.491492 162.037248 
L 240.304755 177.497358 
L 241.118018 179.419207 
L 241.931281 155.635067 
L 242.744544 187.637576 
L 243.557807 155.113637 
L 244.371069 150.657581 
L 245.184332 131.307348 
L 246.810858 171.047416 
L 247.624121 160.896279 
L 248.437384 169.905177 
L 249.250647 163.083713 
L 250.06391 125.125268 
L 250.877173 160.451485 
L 251.690435 128.80615 
L 252.503698 115.317942 
L 253.316961 191.497612 
L 254.130224 139.11286 
L 254.943487 97.008118 
L 255.75675 116.108341 
L 256.570013 166.390341 
L 257.383276 128.92211 
L 258.196539 133.758074 
L 259.009801 120.732306 
L 259.823064 118.313669 
L 260.636327 109.367828 
L 261.44959 115.62618 
L 262.262853 128.883468 
L 263.076116 115.195661 
L 263.889379 105.628695 
L 264.702642 98.270116 
L 265.515905 111.960128 
L 266.329167 99.922582 
L 267.14243 66.110814 
L 267.955693 81.736699 
L 268.768956 86.994345 
L 269.582219 90.665728 
L 270.395482 89.297033 
L 271.208745 93.141255 
L 272.022008 104.646693 
L 272.835271 66.746695 
L 273.648533 76.474781 
L 274.461796 111.876036 
L 275.275059 81.343815 
L 276.088322 99.650285 
L 276.901585 81.392489 
L 277.714848 74.632983 
L 278.528111 51.082323 
L 279.341374 81.831404 
L 280.154637 51.828988 
L 280.967899 104.827632 
L 281.781162 55.456174 
L 282.594425 95.98668 
L 283.407688 65.052787 
L 284.220951 77.35711 
L 285.034214 81.82967 
L 285.847477 109.904784 
L 286.66074 112.094079 
L 287.474003 84.562397 
L 288.287265 133.205562 
L 289.100528 105.106271 
L 289.913791 152.764812 
L 290.727054 96.486094 
L 291.540317 79.558313 
L 293.166843 116.710299 
L 293.980106 130.092358 
L 294.793369 139.738622 
L 295.606631 133.431622 
L 296.419894 129.372983 
L 297.233157 121.752858 
L 298.04642 106.888834 
L 298.859683 111.389949 
L 299.672946 146.230076 
L 300.486209 143.880971 
L 301.299472 119.423015 
L 302.112735 138.315198 
L 302.925997 177.230129 
L 303.73926 140.150202 
L 304.552523 177.143433 
L 305.365786 130.06593 
L 306.179049 174.173651 
L 306.992312 152.32037 
L 307.805575 160.933475 
L 308.618838 197.392857 
L 309.432101 129.14913 
L 310.245363 143.739303 
L 311.058626 211.256233 
L 311.871889 155.925933 
L 312.685152 168.642644 
L 313.498415 150.526554 
L 314.311678 164.533495 
L 315.124941 130.742444 
L 315.938204 196.197118 
L 316.751467 163.371908 
L 317.564729 168.218277 
L 318.377992 154.077793 
L 319.191255 156.053393 
L 320.004518 178.69652 
L 320.817781 186.29381 
L 321.631044 146.871984 
L 322.444307 181.696409 
L 323.25757 175.425259 
L 324.070833 153.534928 
L 324.884095 152.652732 
L 325.697358 154.315231 
L 327.323884 162.526114 
L 328.137147 149.050161 
L 328.95041 152.462037 
L 329.763673 153.781412 
L 330.576936 133.007493 
L 331.390199 129.957409 
L 332.203461 147.030381 
L 333.016724 105.838984 
L 333.829987 118.336508 
L 334.64325 122.629322 
L 335.456513 128.233519 
L 336.269776 122.176073 
L 337.083039 126.391602 
L 337.896302 123.387753 
L 338.709565 163.001935 
L 339.522827 145.5803 
L 340.33609 124.056117 
L 341.149353 113.929375 
L 341.962616 128.620298 
L 342.775879 89.443059 
L 343.589142 101.575137 
L 344.402405 124.845011 
L 345.215668 107.644306 
L 346.028931 84.472615 
L 346.842193 127.852132 
L 347.655456 106.632442 
L 348.468719 66.493712 
L 349.281982 114.953839 
L 350.095245 112.583083 
L 350.908508 79.20351 
L 351.721771 60.918564 
L 352.535034 126.985086 
L 353.348297 88.311743 
L 354.161559 87.49176 
L 354.974822 73.738934 
L 355.788085 77.117569 
L 357.414611 95.156549 
L 358.227874 67.114847 
L 359.041137 95.494441 
L 359.8544 67.926789 
L 360.667663 64.615187 
L 361.480925 105.551779 
L 362.294188 95.075746 
L 363.107451 96.692177 
L 363.920714 78.422115 
L 364.733977 82.765269 
L 365.54724 134.47808 
L 366.360503 122.628985 
L 367.173766 93.736682 
L 367.987029 130.332175 
L 368.800291 83.929264 
L 369.613554 86.899285 
L 370.426817 124.43729 
L 371.24008 84.780412 
L 372.053343 131.240335 
L 372.866606 108.31602 
L 373.679869 72.731245 
L 374.493132 148.800609 
L 375.306395 148.629435 
L 376.119657 118.249731 
L 376.93292 141.620534 
L 377.746183 122.944693 
L 378.559446 184.09792 
L 379.372709 124.644554 
L 380.185972 117.063051 
L 380.999235 119.400083 
L 381.812498 148.797614 
L 382.625761 130.764196 
L 383.439024 142.473691 
L 384.252286 130.766408 
L 385.065549 152.8146 
L 385.878812 135.521509 
L 386.692075 157.202279 
L 387.505338 133.629325 
L 388.318601 166.898386 
L 389.131864 161.390871 
L 389.945127 160.139821 
L 390.75839 172.321918 
L 391.571652 163.204312 
L 392.384915 161.367541 
L 393.198178 153.481634 
L 394.011441 134.835602 
L 394.824704 177.674449 
L 395.637967 166.370173 
L 396.45123 133.009911 
L 397.264493 180.78605 
L 398.077756 182.281108 
L 398.891018 163.652742 
L 399.704281 174.148722 
L 400.517544 116.323957 
L 401.330807 169.893985 
L 402.14407 157.792393 
L 402.957333 141.066907 
L 403.770596 171.668003 
L 404.583859 136.70081 
L 405.397122 175.863343 
L 406.210384 186.353582 
L 407.023647 141.150978 
L 407.83691 170.058742 
L 408.650173 180.943673 
L 409.463436 152.594472 
L 410.276699 133.275037 
L 411.089962 178.487182 
L 411.903225 162.713424 
L 412.716488 135.571909 
L 413.52975 124.573932 
L 414.343013 100.679714 
L 415.156276 134.039672 
L 415.969539 134.006508 
L 416.782802 144.577274 
L 418.409328 105.419352 
L 419.222591 120.281778 
L 420.035854 98.352933 
L 420.849116 112.231904 
L 421.662379 137.217031 
L 422.475642 115.062821 
L 423.288905 117.064626 
L 424.102168 123.84669 
L 424.915431 109.785031 
L 425.728694 116.935488 
L 426.541957 102.40442 
L 427.35522 122.757954 
L 428.168482 84.77708 
L 428.981745 91.704229 
L 429.795008 86.147431 
L 430.608271 76.978556 
L 431.421534 109.519974 
L 432.234797 84.982365 
L 433.04806 90.807515 
L 433.861323 111.995865 
L 434.674586 37.887163 
L 435.487848 108.249301 
L 436.301111 100.133728 
L 437.114374 53.598195 
L 437.927637 78.603531 
L 438.7409 93.512244 
L 439.554163 99.036987 
L 440.367426 87.427205 
L 441.180689 81.935685 
L 441.993952 95.062372 
L 442.807214 99.034847 
L 443.620477 123.983048 
L 444.43374 101.837292 
L 445.247003 71.296925 
L 446.873529 119.949079 
L 447.686792 116.239029 
L 448.500055 137.965623 
L 449.313318 100.500993 
L 450.12658 96.793983 
L 450.939843 117.345783 
L 451.753106 75.183976 
L 452.566369 114.02451 
L 453.379632 142.043669 
L 454.192895 149.772716 
L 455.006158 131.156088 
L 455.819421 123.849248 
L 456.632684 96.080105 
L 457.445946 177.24203 
L 458.259209 129.349216 
L 459.072472 119.239603 
L 459.885735 130.28156 
L 460.698998 146.686775 
L 461.512261 155.595641 
L 462.325524 133.332472 
L 463.138787 167.025901 
L 463.95205 128.012378 
L 464.765312 164.866042 
L 465.578575 118.628301 
L 466.391838 139.183131 
L 467.205101 164.668219 
L 468.018364 135.192398 
L 468.831627 145.949541 
L 469.64489 168.978751 
L 470.458153 170.379146 
L 471.271416 126.725513 
L 472.084678 188.44729 
L 472.897941 156.029221 
L 473.711204 185.866388 
L 474.524467 169.052776 
L 475.33773 173.70835 
L 476.150993 180.742279 
L 476.964256 164.008966 
L 477.777519 126.803075 
L 478.590782 156.649959 
L 479.404044 153.009043 
L 480.217307 131.802629 
L 481.03057 176.123506 
L 481.843833 149.349602 
L 482.657096 132.93302 
L 483.470359 173.949774 
L 484.283622 153.328644 
L 485.096885 151.316593 
L 485.910148 175.816854 
L 486.72341 155.377965 
L 487.536673 161.81196 
L 488.349936 119.172665 
L 489.163199 172.396457 
L 489.976462 125.049474 
L 490.789725 146.084934 
L 491.602988 123.774298 
L 492.416251 155.05889 
L 493.229514 150.70865 
L 494.042776 154.556804 
L 494.856039 128.008532 
L 496.482565 140.153036 
L 497.295828 118.050549 
L 498.109091 123.030821 
L 498.109091 123.030821 
" clip-path="url(#p79e8474f0d)" style="fill: none; stroke: #1f77b4; stroke-width: 1.5; stroke-linecap: square"/>
   </g>
   <g id="line2d_13">
    <path d="M 217.08 203.04 
L 217.08 51.84 
" clip-path="url(#p79e8474f0d)" style="fill: none; stroke: #1f77b4; stroke-width: 1.5; stroke-linecap: square"/>
   </g>
   <g id="line2d_14">
    <path d="M 439.56 203.04 
L 439.56 51.84 
" clip-path="url(#p79e8474f0d)" style="fill: none; stroke: #1f77b4; stroke-width: 1.5; stroke-linecap: square"/>
   </g>
   <g id="patch_4">
    <path d="M 72 203.04 
L 72 51.84 
" style="fill: none; stroke: #000000; stroke-width: 0.8; stroke-linejoin: miter; stroke-linecap: square"/>
   </g>
   <g id="patch_5">
    <path d="M 518.4 203.04 
L 518.4 51.84 
" style="fill: none; stroke: #000000; stroke-width: 0.8; stroke-linejoin: miter; stroke-linecap: square"/>
   </g>
   <g id="patch_6">
    <path d="M 72 203.04 
L 518.4 203.04 
" style="fill: none; stroke: #000000; stroke-width: 0.8; stroke-linejoin: miter; stroke-linecap: square"/>
   </g>
   <g id="patch_7">
    <path d="M 72 51.84 
L 518.4 51.84 
" style="fill: none; stroke: #000000; stroke-width: 0.8; stroke-linejoin: miter; stroke-linecap: square"/>
   </g>
   <g id="text_12">
    <!-- Press left mouse button and drag to select a region in the top graph -->
    <g transform="translate(90.71625 45.84) scale(0.12 -0.12)">
     <defs>
      <path id="DejaVuSans-50" d="M 1259 4147 
L 1259 2394 
L 2053 2394 
Q 2494 2394 2734 2622 
Q 2975 2850 2975 3272 
Q 2975 3691 2734 3919 
Q 2494 4147 2053 4147 
L 1259 4147 
z
M 628 4666 
L 2053 4666 
Q 2838 4666 3239 4311 
Q 3641 3956 3641 3272 
Q 3641 2581 3239 2228 
Q 2838 1875 2053 1875 
L 1259 1875 
L 1259 0 
L 628 0 
L 628 4666 
z
" transform="scale(0.015625)"/>
      <path id="DejaVuSans-72" d="M 2631 2963 
Q 2534 3019 2420 3045 
Q 2306 3072 2169 3072 
Q 1681 3072 1420 2755 
Q 1159 2438 1159 1844 
L 1159 0 
L 581 0 
L 581 3500 
L 1159 3500 
L 1159 2956 
Q 1341 3275 1631 3429 
Q 1922 3584 2338 3584 
Q 2397 3584 2469 3576 
Q 2541 3569 2628 3553 
L 2631 2963 
z
" transform="scale(0.015625)"/>
      <path id="DejaVuSans-65" d="M 3597 1894 
L 3597 1613 
L 953 1613 
Q 991 1019 1311 708 
Q 1631 397 2203 397 
Q 2534 397 2845 478 
Q 3156 559 3463 722 
L 3463 178 
Q 3153 47 2828 -22 
Q 2503 -91 2169 -91 
Q 1331 -91 842 396 
Q 353 884 353 1716 
Q 353 2575 817 3079 
Q 1281 3584 2069 3584 
Q 2775 3584 3186 3129 
Q 3597 2675 3597 1894 
z
M 3022 2063 
Q 3016 2534 2758 2815 
Q 2500 3097 2075 3097 
Q 1594 3097 1305 2825 
Q 1016 2553 972 2059 
L 3022 2063 
z
" transform="scale(0.015625)"/>
      <path id="DejaVuSans-73" d="M 2834 3397 
L 2834 2853 
Q 2591 2978 2328 3040 
Q 2066 3103 1784 3103 
Q 1356 3103 1142 2972 
Q 928 2841 928 2578 
Q 928 2378 1081 2264 
Q 1234 2150 1697 2047 
L 1894 2003 
Q 2506 1872 2764 1633 
Q 3022 1394 3022 966 
Q 3022 478 2636 193 
Q 2250 -91 1575 -91 
Q 1294 -91 989 -36 
Q 684 19 347 128 
L 347 722 
Q 666 556 975 473 
Q 1284 391 1588 391 
Q 1994 391 2212 530 
Q 2431 669 2431 922 
Q 2431 1156 2273 1281 
Q 2116 1406 1581 1522 
L 1381 1569 
Q 847 1681 609 1914 
Q 372 2147 372 2553 
Q 372 3047 722 3315 
Q 1072 3584 1716 3584 
Q 2034 3584 2315 3537 
Q 2597 3491 2834 3397 
z
" transform="scale(0.015625)"/>
      <path id="DejaVuSans-20" transform="scale(0.015625)"/>
      <path id="DejaVuSans-6c" d="M 603 4863 
L 1178 4863 
L 1178 0 
L 603 0 
L 603 4863 
z
" transform="scale(0.015625)"/>
      <path id="DejaVuSans-66" d="M 2375 4863 
L 2375 4384 
L 1825 4384 
Q 1516 4384 1395 4259 
Q 1275 4134 1275 3809 
L 1275 3500 
L 2222 3500 
L 2222 3053 
L 1275 3053 
L 1275 0 
L 697 0 
L 697 3053 
L 147 3053 
L 147 3500 
L 697 3500 
L 697 3744 
Q 697 4328 969 4595 
Q 1241 4863 1831 4863 
L 2375 4863 
z
" transform="scale(0.015625)"/>
      <path id="DejaVuSans-74" d="M 1172 4494 
L 1172 3500 
L 2356 3500 
L 2356 3053 
L 1172 3053 
L 1172 1153 
Q 1172 725 1289 603 
Q 1406 481 1766 481 
L 2356 481 
L 2356 0 
L 1766 0 
Q 1100 0 847 248 
Q 594 497 594 1153 
L 594 3053 
L 172 3053 
L 172 3500 
L 594 3500 
L 594 4494 
L 1172 4494 
z
" transform="scale(0.015625)"/>
      <path id="DejaVuSans-6d" d="M 3328 2828 
Q 3544 3216 3844 3400 
Q 4144 3584 4550 3584 
Q 5097 3584 5394 3201 
Q 5691 2819 5691 2113 
L 5691 0 
L 5113 0 
L 5113 2094 
Q 5113 2597 4934 2840 
Q 4756 3084 4391 3084 
Q 3944 3084 3684 2787 
Q 3425 2491 3425 1978 
L 3425 0 
L 2847 0 
L 2847 2094 
Q 2847 2600 2669 2842 
Q 2491 3084 2119 3084 
Q 1678 3084 1418 2786 
Q 1159 2488 1159 1978 
L 1159 0 
L 581 0 
L 581 3500 
L 1159 3500 
L 1159 2956 
Q 1356 3278 1631 3431 
Q 1906 3584 2284 3584 
Q 2666 3584 2933 3390 
Q 3200 3197 3328 2828 
z
" transform="scale(0.015625)"/>
      <path id="DejaVuSans-6f" d="M 1959 3097 
Q 1497 3097 1228 2736 
Q 959 2375 959 1747 
Q 959 1119 1226 758 
Q 1494 397 1959 397 
Q 2419 397 2687 759 
Q 2956 1122 2956 1747 
Q 2956 2369 2687 2733 
Q 2419 3097 1959 3097 
z
M 1959 3584 
Q 2709 3584 3137 3096 
Q 3566 2609 3566 1747 
Q 3566 888 3137 398 
Q 2709 -91 1959 -91 
Q 1206 -91 779 398 
Q 353 888 353 1747 
Q 353 2609 779 3096 
Q 1206 3584 1959 3584 
z
" transform="scale(0.015625)"/>
      <path id="DejaVuSans-75" d="M 544 1381 
L 544 3500 
L 1119 3500 
L 1119 1403 
Q 1119 906 1312 657 
Q 1506 409 1894 409 
Q 2359 409 2629 706 
Q 2900 1003 2900 1516 
L 2900 3500 
L 3475 3500 
L 3475 0 
L 2900 0 
L 2900 538 
Q 2691 219 2414 64 
Q 2138 -91 1772 -91 
Q 1169 -91 856 284 
Q 544 659 544 1381 
z
M 1991 3584 
L 1991 3584 
z
" transform="scale(0.015625)"/>
      <path id="DejaVuSans-62" d="M 3116 1747 
Q 3116 2381 2855 2742 
Q 2594 3103 2138 3103 
Q 1681 3103 1420 2742 
Q 1159 2381 1159 1747 
Q 1159 1113 1420 752 
Q 1681 391 2138 391 
Q 2594 391 2855 752 
Q 3116 1113 3116 1747 
z
M 1159 2969 
Q 1341 3281 1617 3432 
Q 1894 3584 2278 3584 
Q 2916 3584 3314 3078 
Q 3713 2572 3713 1747 
Q 3713 922 3314 415 
Q 2916 -91 2278 -91 
Q 1894 -91 1617 61 
Q 1341 213 1159 525 
L 1159 0 
L 581 0 
L 581 4863 
L 1159 4863 
L 1159 2969 
z
" transform="scale(0.015625)"/>
      <path id="DejaVuSans-6e" d="M 3513 2113 
L 3513 0 
L 2938 0 
L 2938 2094 
Q 2938 2591 2744 2837 
Q 2550 3084 2163 3084 
Q 1697 3084 1428 2787 
Q 1159 2491 1159 1978 
L 1159 0 
L 581 0 
L 581 3500 
L 1159 3500 
L 1159 2956 
Q 1366 3272 1645 3428 
Q 1925 3584 2291 3584 
Q 2894 3584 3203 3211 
Q 3513 2838 3513 2113 
z
" transform="scale(0.015625)"/>
      <path id="DejaVuSans-61" d="M 2194 1759 
Q 1497 1759 1228 1600 
Q 959 1441 959 1056 
Q 959 750 1161 570 
Q 1363 391 1709 391 
Q 2188 391 2477 730 
Q 2766 1069 2766 1631 
L 2766 1759 
L 2194 1759 
z
M 3341 1997 
L 3341 0 
L 2766 0 
L 2766 531 
Q 2569 213 2275 61 
Q 1981 -91 1556 -91 
Q 1019 -91 701 211 
Q 384 513 384 1019 
Q 384 1609 779 1909 
Q 1175 2209 1959 2209 
L 2766 2209 
L 2766 2266 
Q 2766 2663 2505 2880 
Q 2244 3097 1772 3097 
Q 1472 3097 1187 3025 
Q 903 2953 641 2809 
L 641 3341 
Q 956 3463 1253 3523 
Q 1550 3584 1831 3584 
Q 2591 3584 2966 3190 
Q 3341 2797 3341 1997 
z
" transform="scale(0.015625)"/>
      <path id="DejaVuSans-64" d="M 2906 2969 
L 2906 4863 
L 3481 4863 
L 3481 0 
L 2906 0 
L 2906 525 
Q 2725 213 2448 61 
Q 2172 -91 1784 -91 
Q 1150 -91 751 415 
Q 353 922 353 1747 
Q 353 2572 751 3078 
Q 1150 3584 1784 3584 
Q 2172 3584 2448 3432 
Q 2725 3281 2906 2969 
z
M 947 1747 
Q 947 1113 1208 752 
Q 1469 391 1925 391 
Q 2381 391 2643 752 
Q 2906 1113 2906 1747 
Q 2906 2381 2643 2742 
Q 2381 3103 1925 3103 
Q 1469 3103 1208 2742 
Q 947 2381 947 1747 
z
" transform="scale(0.015625)"/>
      <path id="DejaVuSans-67" d="M 2906 1791 
Q 2906 2416 2648 2759 
Q 2391 3103 1925 3103 
Q 1463 3103 1205 2759 
Q 947 2416 947 1791 
Q 947 1169 1205 825 
Q 1463 481 1925 481 
Q 2391 481 2648 825 
Q 2906 1169 2906 1791 
z
M 3481 434 
Q 3481 -459 3084 -895 
Q 2688 -1331 1869 -1331 
Q 1566 -1331 1297 -1286 
Q 1028 -1241 775 -1147 
L 775 -588 
Q 1028 -725 1275 -790 
Q 1522 -856 1778 -856 
Q 2344 -856 2625 -561 
Q 2906 -266 2906 331 
L 2906 616 
Q 2728 306 2450 153 
Q 2172 0 1784 0 
Q 1141 0 747 490 
Q 353 981 353 1791 
Q 353 2603 747 3093 
Q 1141 3584 1784 3584 
Q 2172 3584 2450 3431 
Q 2728 3278 2906 2969 
L 2906 3500 
L 3481 3500 
L 3481 434 
z
" transform="scale(0.015625)"/>
      <path id="DejaVuSans-63" d="M 3122 3366 
L 3122 2828 
Q 2878 2963 2633 3030 
Q 2388 3097 2138 3097 
Q 1578 3097 1268 2742 
Q 959 2388 959 1747 
Q 959 1106 1268 751 
Q 1578 397 2138 397 
Q 2388 397 2633 464 
Q 2878 531 3122 666 
L 3122 134 
Q 2881 22 2623 -34 
Q 2366 -91 2075 -91 
Q 1284 -91 818 406 
Q 353 903 353 1747 
Q 353 2603 823 3093 
Q 1294 3584 2113 3584 
Q 2378 3584 2631 3529 
Q 2884 3475 3122 3366 
z
" transform="scale(0.015625)"/>
      <path id="DejaVuSans-69" d="M 603 3500 
L 1178 3500 
L 1178 0 
L 603 0 
L 603 3500 
z
M 603 4863 
L 1178 4863 
L 1178 4134 
L 603 4134 
L 603 4863 
z
" transform="scale(0.015625)"/>
      <path id="DejaVuSans-68" d="M 3513 2113 
L 3513 0 
L 2938 0 
L 2938 2094 
Q 2938 2591 2744 2837 
Q 2550 3084 2163 3084 
Q 1697 3084 1428 2787 
Q 1159 2491 1159 1978 
L 1159 0 
L 581 0 
L 581 4863 
L 1159 4863 
L 1159 2956 
Q 1366 3272 1645 3428 
Q 1925 3584 2291 3584 
Q 2894 3584 3203 3211 
Q 3513 2838 3513 2113 
z
" transform="scale(0.015625)"/>
      <path id="DejaVuSans-70" d="M 1159 525 
L 1159 -1331 
L 581 -1331 
L 581 3500 
L 1159 3500 
L 1159 2969 
Q 1341 3281 1617 3432 
Q 1894 3584 2278 3584 
Q 2916 3584 3314 3078 
Q 3713 2572 3713 1747 
Q 3713 922 3314 415 
Q 2916 -91 2278 -91 
Q 1894 -91 1617 61 
Q 1341 213 1159 525 
z
M 3116 1747 
Q 3116 2381 2855 2742 
Q 2594 3103 2138 3103 
Q 1681 3103 1420 2742 
Q 1159 2381 1159 1747 
Q 1159 1113 1420 752 
Q 1681 391 2138 391 
Q 2594 391 2855 752 
Q 3116 1113 3116 1747 
z
" transform="scale(0.015625)"/>
     </defs>
     <use xlink:href="#DejaVuSans-50"/>
     <use xlink:href="#DejaVuSans-72" transform="translate(58.552734 0)"/>
     <use xlink:href="#DejaVuSans-65" transform="translate(97.416016 0)"/>
     <use xlink:href="#DejaVuSans-73" transform="translate(158.939453 0)"/>
     <use xlink:href="#DejaVuSans-73" transform="translate(211.039062 0)"/>
     <use xlink:href="#DejaVuSans-20" transform="translate(263.138672 0)"/>
     <use xlink:href="#DejaVuSans-6c" transform="translate(294.925781 0)"/>
     <use xlink:href="#DejaVuSans-65" transform="translate(322.708984 0)"/>
     <use xlink:href="#DejaVuSans-66" transform="translate(384.232422 0)"/>
     <use xlink:href="#DejaVuSans-74" transform="translate(417.6875 0)"/>
     <use xlink:href="#DejaVuSans-20" transform="translate(456.896484 0)"/>
     <use xlink:href="#DejaVuSans-6d" transform="translate(488.683594 0)"/>
     <use xlink:href="#DejaVuSans-6f" transform="translate(586.095703 0)"/>
     <use xlink:href="#DejaVuSans-75" transform="translate(647.277344 0)"/>
     <use xlink:href="#DejaVuSans-73" transform="translate(710.65625 0)"/>
     <use xlink:href="#DejaVuSans-65" transform="translate(762.755859 0)"/>
     <use xlink:href="#DejaVuSans-20" transform="translate(824.279297 0)"/>
     <use xlink:href="#DejaVuSans-62" transform="translate(856.066406 0)"/>
     <use xlink:href="#DejaVuSans-75" transform="translate(919.542969 0)"/>
     <use xlink:href="#DejaVuSans-74" transform="translate(982.921875 0)"/>
     <use xlink:href="#DejaVuSans-74" transform="translate(1022.130859 0)"/>
     <use xlink:href="#DejaVuSans-6f" transform="translate(1061.339844 0)"/>
     <use xlink:href="#DejaVuSans-6e" transform="translate(1122.521484 0)"/>
     <use xlink:href="#DejaVuSans-20" transform="translate(1185.900391 0)"/>
     <use xlink:href="#DejaVuSans-61" transform="translate(1217.6875 0)"/>
     <use xlink:href="#DejaVuSans-6e" transform="translate(1278.966797 0)"/>
     <use xlink:href="#DejaVuSans-64" transform="translate(1342.345703 0)"/>
     <use xlink:href="#DejaVuSans-20" transform="translate(1405.822266 0)"/>
     <use xlink:href="#DejaVuSans-64" transform="translate(1437.609375 0)"/>
     <use xlink:href="#DejaVuSans-72" transform="translate(1501.085938 0)"/>
     <use xlink:href="#DejaVuSans-61" transform="translate(1542.199219 0)"/>
     <use xlink:href="#DejaVuSans-67" transform="translate(1603.478516 0)"/>
     <use xlink:href="#DejaVuSans-20" transform="translate(1666.955078 0)"/>
     <use xlink:href="#DejaVuSans-74" transform="translate(1698.742188 0)"/>
     <use xlink:href="#DejaVuSans-6f" transform="translate(1737.951172 0)"/>
     <use xlink:href="#DejaVuSans-20" transform="translate(1799.132812 0)"/>
     <use xlink:href="#DejaVuSans-73" transform="translate(1830.919922 0)"/>
     <use xlink:href="#DejaVuSans-65" transform="translate(1883.019531 0)"/>
     <use xlink:href="#DejaVuSans-6c" transform="translate(1944.542969 0)"/>
     <use xlink:href="#DejaVuSans-65" transform="translate(1972.326172 0)"/>
     <use xlink:href="#DejaVuSans-63" transform="translate(2033.849609 0)"/>
     <use xlink:href="#DejaVuSans-74" transform="translate(2088.830078 0)"/>
     <use xlink:href="#DejaVuSans-20" transform="translate(2128.039062 0)"/>
     <use xlink:href="#DejaVuSans-61" transform="translate(2159.826172 0)"/>
     <use xlink:href="#DejaVuSans-20" transform="translate(2221.105469 0)"/>
     <use xlink:href="#DejaVuSans-72" transform="translate(2252.892578 0)"/>
     <use xlink:href="#DejaVuSans-65" transform="translate(2291.755859 0)"/>
     <use xlink:href="#DejaVuSans-67" transform="translate(2353.279297 0)"/>
     <use xlink:href="#DejaVuSans-69" transform="translate(2416.755859 0)"/>
     <use xlink:href="#DejaVuSans-6f" transform="translate(2444.539062 0)"/>
     <use xlink:href="#DejaVuSans-6e" transform="translate(2505.720703 0)"/>
     <use xlink:href="#DejaVuSans-20" transform="translate(2569.099609 0)"/>
     <use xlink:href="#DejaVuSans-69" transform="translate(2600.886719 0)"/>
     <use xlink:href="#DejaVuSans-6e" transform="translate(2628.669922 0)"/>
     <use xlink:href="#DejaVuSans-20" transform="translate(2692.048828 0)"/>
     <use xlink:href="#DejaVuSans-74" transform="translate(2723.835938 0)"/>
     <use xlink:href="#DejaVuSans-68" transform="translate(2763.044922 0)"/>
     <use xlink:href="#DejaVuSans-65" transform="translate(2826.423828 0)"/>
     <use xlink:href="#DejaVuSans-20" transform="translate(2887.947266 0)"/>
     <use xlink:href="#DejaVuSans-74" transform="translate(2919.734375 0)"/>
     <use xlink:href="#DejaVuSans-6f" transform="translate(2958.943359 0)"/>
     <use xlink:href="#DejaVuSans-70" transform="translate(3020.125 0)"/>
     <use xlink:href="#DejaVuSans-20" transform="translate(3083.601562 0)"/>
     <use xlink:href="#DejaVuSans-67" transform="translate(3115.388672 0)"/>
     <use xlink:href="#DejaVuSans-72" transform="translate(3178.865234 0)"/>
     <use xlink:href="#DejaVuSans-61" transform="translate(3219.978516 0)"/>
     <use xlink:href="#DejaVuSans-70" transform="translate(3281.257812 0)"/>
     <use xlink:href="#DejaVuSans-68" transform="translate(3344.734375 0)"/>
    </g>
   </g>
  </g>
  <g id="axes_2">
   <g id="patch_8">
    <path d="M 72 384.48 
L 518.4 384.48 
L 518.4 233.28 
L 72 233.28 
z
" style="fill: #ffffff"/>
   </g>
   <g id="matplotlib.axis_3">
    <g id="xtick_7">
     <g id="line2d_15">
      <g>
       <use xlink:href="#m5f168091d1" x="147.217582" y="384.48" style="stroke: #000000; stroke-width: 0.8"/>
      </g>
     </g>
     <g id="text_13">
      <!-- 2.0 -->
      <g transform="translate(139.26602 399.078438) scale(0.1 -0.1)">
       <defs>
        <path id="DejaVuSans-2e" d="M 684 794 
L 1344 794 
L 1344 0 
L 684 0 
L 684 794 
z
" transform="scale(0.015625)"/>
       </defs>
       <use xlink:href="#DejaVuSans-32"/>
       <use xlink:href="#DejaVuSans-2e" transform="translate(63.623047 0)"/>
       <use xlink:href="#DejaVuSans-30" transform="translate(95.410156 0)"/>
      </g>
     </g>
    </g>
    <g id="xtick_8">
     <g id="line2d_16">
      <g>
       <use xlink:href="#m5f168091d1" x="228.975824" y="384.48" style="stroke: #000000; stroke-width: 0.8"/>
      </g>
     </g>
     <g id="text_14">
      <!-- 2.5 -->
      <g transform="translate(221.024262 399.078438) scale(0.1 -0.1)">
       <use xlink:href="#DejaVuSans-32"/>
       <use xlink:href="#DejaVuSans-2e" transform="translate(63.623047 0)"/>
       <use xlink:href="#DejaVuSans-35" transform="translate(95.410156 0)"/>
      </g>
     </g>
    </g>
    <g id="xtick_9">
     <g id="line2d_17">
      <g>
       <use xlink:href="#m5f168091d1" x="310.734066" y="384.48" style="stroke: #000000; stroke-width: 0.8"/>
      </g>
     </g>
     <g id="text_15">
      <!-- 3.0 -->
      <g transform="translate(302.782503 399.078438) scale(0.1 -0.1)">
       <use xlink:href="#DejaVuSans-33"/>
       <use xlink:href="#DejaVuSans-2e" transform="translate(63.623047 0)"/>
       <use xlink:href="#DejaVuSans-30" transform="translate(95.410156 0)"/>
      </g>
     </g>
    </g>
    <g id="xtick_10">
     <g id="line2d_18">
      <g>
       <use xlink:href="#m5f168091d1" x="392.492308" y="384.48" style="stroke: #000000; stroke-width: 0.8"/>
      </g>
     </g>
     <g id="text_16">
      <!-- 3.5 -->
      <g transform="translate(384.540745 399.078438) scale(0.1 -0.1)">
       <use xlink:href="#DejaVuSans-33"/>
       <use xlink:href="#DejaVuSans-2e" transform="translate(63.623047 0)"/>
       <use xlink:href="#DejaVuSans-35" transform="translate(95.410156 0)"/>
      </g>
     </g>
    </g>
    <g id="xtick_11">
     <g id="line2d_19">
      <g>
       <use xlink:href="#m5f168091d1" x="474.250549" y="384.48" style="stroke: #000000; stroke-width: 0.8"/>
      </g>
     </g>
     <g id="text_17">
      <!-- 4.0 -->
      <g transform="translate(466.298987 399.078438) scale(0.1 -0.1)">
       <use xlink:href="#DejaVuSans-34"/>
       <use xlink:href="#DejaVuSans-2e" transform="translate(63.623047 0)"/>
       <use xlink:href="#DejaVuSans-30" transform="translate(95.410156 0)"/>
      </g>
     </g>
    </g>
   </g>
   <g id="matplotlib.axis_4">
    <g id="ytick_6">
     <g id="line2d_20">
      <g>
       <use xlink:href="#ma40a4bdc7d" x="72" y="377.314394" style="stroke: #000000; stroke-width: 0.8"/>
      </g>
     </g>
     <g id="text_18">
      <!-- −2 -->
      <g transform="translate(50.257812 381.113612) scale(0.1 -0.1)">
       <use xlink:href="#DejaVuSans-2212"/>
       <use xlink:href="#DejaVuSans-32" transform="translate(83.789062 0)"/>
      </g>
     </g>
    </g>
    <g id="ytick_7">
     <g id="line2d_21">
      <g>
       <use xlink:href="#ma40a4bdc7d" x="72" y="344.34796" style="stroke: #000000; stroke-width: 0.8"/>
      </g>
     </g>
     <g id="text_19">
      <!-- −1 -->
      <g transform="translate(50.257812 348.147179) scale(0.1 -0.1)">
       <use xlink:href="#DejaVuSans-2212"/>
       <use xlink:href="#DejaVuSans-31" transform="translate(83.789062 0)"/>
      </g>
     </g>
    </g>
    <g id="ytick_8">
     <g id="line2d_22">
      <g>
       <use xlink:href="#ma40a4bdc7d" x="72" y="311.381526" style="stroke: #000000; stroke-width: 0.8"/>
      </g>
     </g>
     <g id="text_20">
      <!-- 0 -->
      <g transform="translate(58.6375 315.180745) scale(0.1 -0.1)">
       <use xlink:href="#DejaVuSans-30"/>
      </g>
     </g>
    </g>
    <g id="ytick_9">
     <g id="line2d_23">
      <g>
       <use xlink:href="#ma40a4bdc7d" x="72" y="278.415092" style="stroke: #000000; stroke-width: 0.8"/>
      </g>
     </g>
     <g id="text_21">
      <!-- 1 -->
      <g transform="translate(58.6375 282.214311) scale(0.1 -0.1)">
       <use xlink:href="#DejaVuSans-31"/>
      </g>
     </g>
    </g>
    <g id="ytick_10">
     <g id="line2d_24">
      <g>
       <use xlink:href="#ma40a4bdc7d" x="72" y="245.448658" style="stroke: #000000; stroke-width: 0.8"/>
      </g>
     </g>
     <g id="text_22">
      <!-- 2 -->
      <g transform="translate(58.6375 249.247877) scale(0.1 -0.1)">
       <use xlink:href="#DejaVuSans-32"/>
      </g>
     </g>
    </g>
   </g>
   <g id="line2d_25">
    <path d="M 72 308.946079 
L 73.635165 352.088719 
L 75.27033 309.616285 
L 76.905495 307.387508 
L 78.540659 319.737389 
L 80.175824 324.54375 
L 81.810989 362.354078 
L 83.446154 329.708372 
L 85.081319 318.776839 
L 86.716484 346.411868 
L 88.351648 337.551738 
L 89.986813 348.168852 
L 91.621978 345.396124 
L 93.257143 331.749384 
L 94.892308 332.327403 
L 96.527473 342.007805 
L 98.162637 344.511132 
L 101.432967 319.356017 
L 103.068132 329.163181 
L 104.703297 317.412965 
L 106.338462 343.474026 
L 107.973626 371.93955 
L 109.608791 349.132639 
L 111.243956 346.426583 
L 112.879121 324.727701 
L 114.514286 343.192844 
L 116.149451 341.554751 
L 117.784615 355.037943 
L 119.41978 356.714042 
L 121.054945 335.97123 
L 122.69011 363.88151 
L 124.325275 335.516476 
L 125.96044 331.630226 
L 127.595604 314.754348 
L 130.865934 349.412769 
L 132.501099 340.559679 
L 134.136264 348.416591 
L 135.771429 342.467401 
L 137.406593 309.362784 
L 139.041758 340.171762 
L 140.676923 312.572983 
L 142.312088 300.809541 
L 143.947253 367.247955 
L 145.582418 321.561753 
L 147.217582 284.841033 
L 148.852747 301.49887 
L 150.487912 345.351204 
L 152.123077 312.674115 
L 153.758242 316.891695 
L 155.393407 305.531559 
L 157.028571 303.422198 
L 158.663736 295.620281 
L 160.298901 301.078364 
L 161.934066 312.640415 
L 163.569231 300.702896 
L 165.204396 292.359278 
L 166.83956 285.941657 
L 168.474725 297.881098 
L 170.10989 287.382818 
L 171.745055 257.894632 
L 173.38022 271.522403 
L 175.015385 276.107743 
L 176.650549 279.309657 
L 178.285714 278.11598 
L 179.920879 281.468634 
L 181.556044 291.502847 
L 183.191209 258.449202 
L 184.826374 266.933337 
L 186.461538 297.807758 
L 188.096703 271.179758 
L 189.731868 287.14534 
L 191.367033 271.222208 
L 193.002198 265.327054 
L 194.637363 244.787867 
L 196.272527 271.604998 
L 197.907692 245.439054 
L 199.542857 291.660649 
L 201.178022 248.602424 
L 202.813187 283.950208 
L 204.448352 256.971898 
L 206.083516 267.702841 
L 207.718681 271.603485 
L 209.353846 296.088575 
L 210.989011 297.99792 
L 212.624176 273.986773 
L 214.259341 316.409833 
L 215.894505 291.903658 
L 217.52967 333.468001 
L 219.164835 284.385761 
L 220.8 269.622571 
L 222.435165 286.938536 
L 224.07033 302.023855 
L 225.705495 313.694721 
L 227.340659 322.107497 
L 228.975824 316.606986 
L 230.610989 313.067334 
L 232.246154 306.421611 
L 233.881319 293.458281 
L 235.516484 297.383829 
L 237.151648 327.768875 
L 238.786813 325.720155 
L 240.421978 304.38969 
L 242.057143 320.866089 
L 243.692308 354.804885 
L 245.327473 322.466448 
L 246.962637 354.729275 
L 248.597802 313.671673 
L 250.232967 352.139246 
L 251.868132 333.080391 
L 253.503297 340.592119 
L 255.138462 372.389363 
L 256.773626 312.872105 
L 258.408791 325.596602 
L 260.043956 384.48 
L 261.679121 336.224902 
L 263.314286 347.3155 
L 264.949451 331.515954 
L 266.584615 343.731797 
L 268.21978 314.26168 
L 269.854945 371.346525 
L 271.49011 342.718745 
L 273.125275 346.945398 
L 274.76044 334.613088 
L 276.395604 336.336064 
L 278.030769 356.083766 
L 279.665934 362.709574 
L 281.301099 328.328701 
L 282.936264 358.700053 
L 284.571429 353.230808 
L 286.206593 334.13964 
L 287.841758 333.370253 
L 289.476923 334.820164 
L 291.112088 338.171244 
L 292.747253 341.981104 
L 294.382418 330.22835 
L 296.017582 333.203942 
L 297.652747 334.354606 
L 299.287912 316.237091 
L 300.923077 313.577029 
L 302.558242 328.466843 
L 304.193407 292.542677 
L 305.828571 303.442116 
L 307.463736 307.185999 
L 309.098901 312.073576 
L 310.734066 306.790708 
L 312.369231 310.467189 
L 314.004396 307.847448 
L 315.63956 342.396081 
L 317.274725 327.202187 
L 318.90989 308.430347 
L 320.545055 299.598533 
L 322.18022 312.410897 
L 323.815385 278.243334 
L 325.450549 288.824057 
L 327.085714 309.118363 
L 328.720879 294.117149 
L 330.356044 273.908471 
L 331.991209 311.740957 
L 333.626374 293.234675 
L 335.261538 258.228569 
L 336.896703 300.491997 
L 338.531868 298.424395 
L 340.167033 269.313138 
L 341.802198 253.366327 
L 343.437363 310.984782 
L 345.072527 277.256682 
L 346.707692 276.541552 
L 348.342857 264.547329 
L 349.978022 267.493931 
L 351.613187 275.068561 
L 353.248352 283.226228 
L 354.883516 258.770278 
L 356.518681 283.520913 
L 358.153846 259.478395 
L 359.789011 256.590255 
L 361.424176 292.292198 
L 363.059341 283.155757 
L 364.694505 284.565492 
L 366.32967 268.631661 
L 367.964835 272.419447 
L 369.6 317.519632 
L 371.235165 307.185706 
L 372.87033 281.987923 
L 374.505495 313.903872 
L 376.140659 273.434599 
L 377.775824 276.024838 
L 379.410989 308.762779 
L 381.046154 274.17691 
L 382.681319 314.695904 
L 384.316484 294.702969 
L 385.951648 263.668495 
L 387.586813 330.010709 
L 389.221978 329.861423 
L 390.857143 303.366436 
L 392.492308 323.748765 
L 394.127473 307.461043 
L 395.762637 360.794477 
L 397.397802 308.943539 
L 399.032967 302.331499 
L 400.668132 304.36969 
L 402.303297 330.008097 
L 403.938462 314.28065 
L 405.573626 324.492827 
L 407.208791 314.282579 
L 408.843956 333.511422 
L 410.479121 318.429635 
L 412.114286 337.338039 
L 413.749451 316.779409 
L 415.384615 345.794284 
L 417.01978 340.991027 
L 418.654945 339.899951 
L 420.29011 350.524298 
L 421.925275 342.572579 
L 423.56044 340.97068 
L 425.195604 334.093161 
L 426.830769 317.831437 
L 428.465934 355.192389 
L 430.101099 345.333615 
L 431.736264 316.2392 
L 433.371429 357.906103 
L 435.006593 359.209985 
L 436.641758 342.963668 
L 438.276923 352.117505 
L 439.912088 301.686914 
L 441.547253 348.40683 
L 443.182418 337.852694 
L 444.817582 323.265932 
L 446.452747 349.954 
L 448.087912 319.458136 
L 449.723077 353.612873 
L 451.358242 362.761704 
L 452.993407 323.339252 
L 454.628571 348.550519 
L 456.263736 358.04357 
L 457.898901 333.319442 
L 459.534066 316.470425 
L 461.169231 355.901197 
L 462.804396 342.144463 
L 464.43956 318.47359 
L 466.074725 308.881948 
L 467.70989 288.043134 
L 469.345055 317.137284 
L 470.98022 317.108361 
L 472.615385 326.32742 
L 475.885714 292.176704 
L 477.520879 305.138641 
L 479.156044 286.013884 
L 480.791209 298.118122 
L 482.426374 319.908347 
L 484.061538 300.587043 
L 485.696703 302.332872 
L 487.331868 308.2477 
L 488.967033 295.984135 
L 490.602198 302.220248 
L 492.237363 289.547299 
L 493.872527 307.298183 
L 495.507692 274.174004 
L 497.142857 280.215363 
L 498.778022 275.369125 
L 500.413187 267.372694 
L 502.048352 295.752972 
L 503.683516 274.353038 
L 505.318681 279.433314 
L 506.953846 297.912265 
L 508.589011 233.28 
L 510.224176 294.644782 
L 511.859341 287.566965 
L 513.494505 246.982029 
L 515.12967 268.789879 
L 516.764835 281.792184 
L 518.4 286.610466 
L 518.4 286.610466 
" clip-path="url(#p4a66c6cd43)" style="fill: none; stroke: #1f77b4; stroke-width: 1.5; stroke-linecap: square"/>
   </g>
   <g id="patch_9">
    <path d="M 72 384.48 
L 72 233.28 
" style="fill: none; stroke: #000000; stroke-width: 0.8; stroke-linejoin: miter; stroke-linecap: square"/>
   </g>
   <g id="patch_10">
    <path d="M 518.4 384.48 
L 518.4 233.28 
" style="fill: none; stroke: #000000; stroke-width: 0.8; stroke-linejoin: miter; stroke-linecap: square"/>
   </g>
   <g id="patch_11">
    <path d="M 72 384.48 
L 518.4 384.48 
" style="fill: none; stroke: #000000; stroke-width: 0.8; stroke-linejoin: miter; stroke-linecap: square"/>
   </g>
   <g id="patch_12">
    <path d="M 72 233.28 
L 518.4 233.28 
" style="fill: none; stroke: #000000; stroke-width: 0.8; stroke-linejoin: miter; stroke-linecap: square"/>
   </g>
  </g>
 </g>
 <defs>
  <clipPath id="p79e8474f0d">
   <rect x="72" y="51.84" width="446.4" height="151.2"/>
  </clipPath>
  <clipPath id="p4a66c6cd43">
   <rect x="72" y="233.28" width="446.4" height="151.2"/>
  </clipPath>
 </defs>
</svg>
