<?xml version="1.0" standalone="no"?>
<svg width="567.429" height="427.404" viewBox="0 0 567.429 427.404" xmlns="http://www.w3.org/2000/svg" shape-rendering="crispEdges">
<title>
/Users/zhangzh/twoscale.svg
</title>
<desc>
Creator: ROOT Version 6.30/04
CreationDate: Thu May 22 18:09:32 2025</desc>
<defs>
</defs>
<rect x="0.5" y="0" width="566.929" height="426.904" fill="white"/>
<rect x="57.1929" y="42.6904" width="453.543" height="341.524" fill="white"/>
<rect x="57.1929" y="42.6904" width="453.543" height="341.524" fill="none" stroke="black"/>
<rect x="57.1929" y="42.6904" width="453.543" height="341.524" fill="white"/>
<rect x="57.1929" y="42.6904" width="453.543" height="341.524" fill="none" stroke="black"/>
<path d="M57.1929,381.741h 4.53543v -1.23673h 4.53543v 2.47346h 4.53543v -4.94693h 9.07087v -2.47346h 4.53543v -6.18366h 4.53543v 9.89386h 4.53543v -7.42039h 4.53543v -6.18366h 4.53543v 4.94693h 4.53543v 2.47346h 4.53543v -7.42039h 4.53543v -18.551h
 4.53543v 4.94693h 4.53543v -7.42039h 4.53543v -2.47346h 4.53543v -8.65712h 4.53543v 18.551h 4.53543v -17.3142h 4.53543v -13.6041h 4.53543v -6.18366h 4.53543v -6.18366h 4.53543v -13.6041h 4.53543v -13.6041h 4.53543v 12.3673h 4.53543v -32.155h
 4.53543v 19.7877h 4.53543v -39.5754h 4.53543v 18.551h 4.53543v -14.8408h 4.53543v -19.7877h 4.53543v -7.42039h 4.53543v -6.18366h 4.53543v -19.7877h 4.53543v -6.18366h 4.53543v -38.3387h 4.53543v 3.7102h 4.53543v 11.1306h 4.53543v -17.3142h 4.53543v
 -1.23673h 4.53543v -12.3673h 4.53543v -29.6816h 4.53543v -11.1306h 4.53543v -8.65712h 4.53543v 51.9427h 4.53543v -35.8652h 4.53543v 7.42039h 4.53543v -25.9714h 4.53543v 2.47346h 4.53543v -11.1306h 4.53543v -12.3673h 4.53543v 61.8366h 4.53543v
 -23.4979h 4.53543v -7.42039h 4.53543v 9.89386h 4.53543v 27.2081h 4.53543v -11.1306h 4.53543v 4.94693h 4.53543v 17.3142h 4.53543v 9.89386h 9.07087v 13.6041h 9.07087v -7.42039h 4.53543v 21.0244h 4.53543v 33.3918h 4.53543v 1.23673h 4.53543v 9.89386h
 4.53543v 33.3918h 4.53543v -49.4693h 4.53543v 49.4693h 4.53543v 18.551h 4.53543v 8.65712h 4.53543v 6.18366h 4.53543v 22.2612h 4.53543v -3.7102h 4.53543v 14.8408h 4.53543v 2.47346h 4.53543v 22.2612h 4.53543v -27.2081h 4.53543v 21.0244h 4.53543v
 8.65712h 4.53543v -12.3673h 4.53543v 16.0775h 4.53543v -2.47346h 4.53543v 14.8408h 4.53543v -8.65712h 9.07087v 8.65712h 4.53543v 9.89386h 4.53543v -1.23673h 4.53543v -2.47346h 4.53543v -1.23673h 4.53543v 11.1306h 4.53543v 2.47346h 4.53543v -3.7102h
 4.53543v 1.23673h 4.53543v 1.23673h 4.53543v -1.23673h 4.53543" fill="none" stroke="#000099"/>
<path d="M57.1929,384.214h 453.543" fill="none" stroke="black"/>
<path d="M57.1929,373.968v 10.2457" fill="none" stroke="black"/>
<path d="M72.311,379.091v 5.12285" fill="none" stroke="black"/>
<path d="M87.4291,379.091v 5.12285" fill="none" stroke="black"/>
<path d="M102.547,379.091v 5.12285" fill="none" stroke="black"/>
<path d="M117.665,379.091v 5.12285" fill="none" stroke="black"/>
<path d="M132.783,373.968v 10.2457" fill="none" stroke="black"/>
<path d="M147.902,379.091v 5.12285" fill="none" stroke="black"/>
<path d="M163.02,379.091v 5.12285" fill="none" stroke="black"/>
<path d="M178.138,379.091v 5.12285" fill="none" stroke="black"/>
<path d="M193.256,379.091v 5.12285" fill="none" stroke="black"/>
<path d="M208.374,373.968v 10.2457" fill="none" stroke="black"/>
<path d="M223.492,379.091v 5.12285" fill="none" stroke="black"/>
<path d="M238.61,379.091v 5.12285" fill="none" stroke="black"/>
<path d="M253.728,379.091v 5.12285" fill="none" stroke="black"/>
<path d="M268.846,379.091v 5.12285" fill="none" stroke="black"/>
<path d="M283.965,373.968v 10.2457" fill="none" stroke="black"/>
<path d="M299.083,379.091v 5.12285" fill="none" stroke="black"/>
<path d="M314.201,379.091v 5.12285" fill="none" stroke="black"/>
<path d="M329.319,379.091v 5.12285" fill="none" stroke="black"/>
<path d="M344.437,379.091v 5.12285" fill="none" stroke="black"/>
<path d="M359.555,373.968v 10.2457" fill="none" stroke="black"/>
<path d="M374.673,379.091v 5.12285" fill="none" stroke="black"/>
<path d="M389.791,379.091v 5.12285" fill="none" stroke="black"/>
<path d="M404.909,379.091v 5.12285" fill="none" stroke="black"/>
<path d="M420.028,379.091v 5.12285" fill="none" stroke="black"/>
<path d="M435.146,373.968v 10.2457" fill="none" stroke="black"/>
<path d="M450.264,379.091v 5.12285" fill="none" stroke="black"/>
<path d="M465.382,379.091v 5.12285" fill="none" stroke="black"/>
<path d="M480.5,379.091v 5.12285" fill="none" stroke="black"/>
<path d="M495.618,379.091v 5.12285" fill="none" stroke="black"/>
<path d="M510.736,373.968v 10.2457" fill="none" stroke="black"/>
<text xml:space="preserve" x="55.1438" y="397.306" fill="black" font-size="14.2079" font-family="Helvetica">3</text>
<text xml:space="preserve" x="48.3133" y="397.306" fill="black" font-size="14.2079" font-family="Times">&#8722;</text>
<text xml:space="preserve" x="131.417" y="397.306" fill="black" font-size="14.2079" font-family="Helvetica">2</text>
<text xml:space="preserve" x="124.587" y="397.306" fill="black" font-size="14.2079" font-family="Times">&#8722;</text>
<text xml:space="preserve" x="207.691" y="397.306" fill="black" font-size="14.2079" font-family="Helvetica">1</text>
<text xml:space="preserve" x="200.861" y="397.306" fill="black" font-size="14.2079" font-family="Times">&#8722;</text>
<text xml:space="preserve" x="279.411" y="397.306" fill="black" font-size="14.2079" font-family="Helvetica">0</text>
<text xml:space="preserve" x="355.685" y="397.306" fill="black" font-size="14.2079" font-family="Helvetica">1</text>
<text xml:space="preserve" x="429.681" y="397.306" fill="black" font-size="14.2079" font-family="Helvetica">2</text>
<text xml:space="preserve" x="505.955" y="397.306" fill="black" font-size="14.2079" font-family="Helvetica">3</text>
<path d="M57.1929,384.214v -341.524" fill="none" stroke="black"/>
<path d="M70.7992,384.214h -13.6063" fill="none" stroke="black"/>
<path d="M63.9961,371.847h -6.80315" fill="none" stroke="black"/>
<path d="M63.9961,359.479h -6.80315" fill="none" stroke="black"/>
<path d="M63.9961,347.112h -6.80315" fill="none" stroke="black"/>
<path d="M63.9961,334.745h -6.80315" fill="none" stroke="black"/>
<path d="M70.7992,322.377h -13.6063" fill="none" stroke="black"/>
<path d="M63.9961,310.01h -6.80315" fill="none" stroke="black"/>
<path d="M63.9961,297.643h -6.80315" fill="none" stroke="black"/>
<path d="M63.9961,285.275h -6.80315" fill="none" stroke="black"/>
<path d="M63.9961,272.908h -6.80315" fill="none" stroke="black"/>
<path d="M70.7992,260.541h -13.6063" fill="none" stroke="black"/>
<path d="M63.9961,248.173h -6.80315" fill="none" stroke="black"/>
<path d="M63.9961,235.806h -6.80315" fill="none" stroke="black"/>
<path d="M63.9961,223.439h -6.80315" fill="none" stroke="black"/>
<path d="M63.9961,211.072h -6.80315" fill="none" stroke="black"/>
<path d="M70.7992,198.704h -13.6063" fill="none" stroke="black"/>
<path d="M63.9961,186.337h -6.80315" fill="none" stroke="black"/>
<path d="M63.9961,173.97h -6.80315" fill="none" stroke="black"/>
<path d="M63.9961,161.602h -6.80315" fill="none" stroke="black"/>
<path d="M63.9961,149.235h -6.80315" fill="none" stroke="black"/>
<path d="M70.7992,136.868h -13.6063" fill="none" stroke="black"/>
<path d="M63.9961,124.5h -6.80315" fill="none" stroke="black"/>
<path d="M63.9961,112.133h -6.80315" fill="none" stroke="black"/>
<path d="M63.9961,99.7656h -6.80315" fill="none" stroke="black"/>
<path d="M63.9961,87.3983h -6.80315" fill="none" stroke="black"/>
<path d="M70.7992,75.031h -13.6063" fill="none" stroke="black"/>
<path d="M70.7992,75.031h -13.6063" fill="none" stroke="black"/>
<path d="M63.9961,62.6637h -6.80315" fill="none" stroke="black"/>
<path d="M63.9961,50.2964h -6.80315" fill="none" stroke="black"/>
<text xml:space="preserve" x="46.0365" y="389.337" fill="black" font-size="14.2079" font-family="Helvetica">0</text>
<text xml:space="preserve" x="39.206" y="327.863" fill="black" font-size="14.2079" font-family="Helvetica">50</text>
<text xml:space="preserve" x="31.2371" y="265.25" fill="black" font-size="14.2079" font-family="Helvetica">100</text>
<text xml:space="preserve" x="31.2371" y="203.776" fill="black" font-size="14.2079" font-family="Helvetica">150</text>
<text xml:space="preserve" x="31.2371" y="142.301" fill="black" font-size="14.2079" font-family="Helvetica">200</text>
<text xml:space="preserve" x="31.2371" y="79.6888" fill="black" font-size="14.2079" font-family="Helvetica">250</text>
<path d="M57.1929,384.152h 4.53543v -0.0934231h 4.53543v -0.031141h 4.53543v -0.155705h 4.53543v -0.155705h 4.53543v -0.217987h 4.53543v -0.373692h 4.53543v -0.124564h 4.53543v -0.31141h 4.53543v -0.467115h 4.53543v -0.342551h 4.53543v -0.280269h
 4.53543v -0.467115h 4.53543v -0.934231h 4.53543v -0.809666h 4.53543v -0.996513h 4.53543v -1.05879h 4.53543v -1.27678h 4.53543v -0.809666h 4.53543v -1.24564h 4.53543v -1.58819h 4.53543v -1.7439h 4.53543v -1.8996h 4.53543v -2.24215h 4.53543v -2.58471h
 4.53543v -2.27329h 4.53543v -3.08296h 4.53543v -2.5847h 4.53543v -3.58122h 4.53543v -3.1141h 4.53543v -3.48779h 4.53543v -3.98605h 4.53543v -4.1729h 4.53543v -4.3286h 4.53543v -4.82686h 4.53543v -4.98256h 4.53543v -5.94793h 4.53543v -5.85451h
 4.53543v -5.57424h 4.53543v -6.01022h 4.53543v -6.04135h 4.53543v -6.35277h 4.53543v -7.10015h 4.53543v -7.38042h 4.53543v -7.5984h 4.53543v -6.29049h 4.53543v -7.19357h 4.53543v -7.00673h 4.53543v -7.6607h 4.53543v -7.5984h 4.53543v -7.87868h
 4.53543v -8.19009h 4.53543v -6.63304h 4.53543v -7.22472h 4.53543v -7.41156h 4.53543v -7.16244h 4.53543v -6.47733h 4.53543v -6.75759h 4.53543v -6.63304h 4.53543v -6.19708h 4.53543v -5.94792h 4.53543v -5.94794h 4.53543v -5.60538h 4.53543v -5.6054h
 4.53543v -5.79222h 4.53543v -5.26283h 4.53543v -4.42203h 4.53543v -4.39089h 4.53543v -4.14176h 4.53543v -3.30094h 4.53543v -4.5466h 4.53543v -3.30094h 4.53543v -2.83383h 4.53543v -2.61585h 4.53543v -2.46014h 4.53543v -1.89961h 4.53543v -1.99303h
 4.53543v -1.61932h 4.53543v -1.55705h 4.53543v -0.996523h 4.53543v -1.68162h 4.53543v -1.15221h 4.53543v -0.934229h 4.53543v -1.24564h 4.53543v -0.840818h 4.53543v -0.903092h 4.53543v -0.529389h 4.53543v -0.747387h 4.53543v -0.747387h 4.53543v
 -0.529389h 4.53543v -0.280273h 4.53543v -0.31141h 4.53543v -0.373684h 4.53543v -0.40484h 4.53543v -0.124568h 4.53543v -0.0622744h 4.53543v -0.155705h 4.53543v -0.124568h 4.53543v -0.0934305h 4.53543v -0.124549h 4.53543" fill="none"
 stroke="#ff0000"/>
<path d="M510.736,384.214v -341.524" fill="none" stroke="#ff0000"/>
<path d="M497.13,384.214h 13.6063" fill="none" stroke="#ff0000"/>
<path d="M503.933,368.643h 6.80315" fill="none" stroke="#ff0000"/>
<path d="M503.933,353.073h 6.80315" fill="none" stroke="#ff0000"/>
<path d="M503.933,337.502h 6.80315" fill="none" stroke="#ff0000"/>
<path d="M497.13,321.932h 13.6063" fill="none" stroke="#ff0000"/>
<path d="M503.933,306.361h 6.80315" fill="none" stroke="#ff0000"/>
<path d="M503.933,290.791h 6.80315" fill="none" stroke="#ff0000"/>
<path d="M503.933,275.22h 6.80315" fill="none" stroke="#ff0000"/>
<path d="M497.13,259.65h 13.6063" fill="none" stroke="#ff0000"/>
<path d="M503.933,244.079h 6.80315" fill="none" stroke="#ff0000"/>
<path d="M503.933,228.509h 6.80315" fill="none" stroke="#ff0000"/>
<path d="M503.933,212.938h 6.80315" fill="none" stroke="#ff0000"/>
<path d="M497.13,197.368h 13.6063" fill="none" stroke="#ff0000"/>
<path d="M503.933,181.797h 6.80315" fill="none" stroke="#ff0000"/>
<path d="M503.933,166.227h 6.80315" fill="none" stroke="#ff0000"/>
<path d="M503.933,150.656h 6.80315" fill="none" stroke="#ff0000"/>
<path d="M497.13,135.086h 13.6063" fill="none" stroke="#ff0000"/>
<path d="M503.933,119.515h 6.80315" fill="none" stroke="#ff0000"/>
<path d="M503.933,103.945h 6.80315" fill="none" stroke="#ff0000"/>
<path d="M503.933,88.3743h 6.80315" fill="none" stroke="#ff0000"/>
<path d="M497.13,72.8038h 13.6063" fill="none" stroke="#ff0000"/>
<path d="M497.13,72.8038h 13.6063" fill="none" stroke="#ff0000"/>
<path d="M503.933,57.2333h 6.80315" fill="none" stroke="#ff0000"/>
<text xml:space="preserve" x="512.785" y="390.475" fill="#ff0000" font-size="16.1662" font-family="Helvetica" font-weight="bold">0</text>
<text xml:space="preserve" x="512.785" y="327.863" fill="#ff0000" font-size="16.1662" font-family="Helvetica" font-weight="bold">2000</text>
<text xml:space="preserve" x="512.785" y="266.388" fill="#ff0000" font-size="16.1662" font-family="Helvetica" font-weight="bold">4000</text>
<text xml:space="preserve" x="512.785" y="203.776" fill="#ff0000" font-size="16.1662" font-family="Helvetica" font-weight="bold">6000</text>
<text xml:space="preserve" x="512.785" y="141.163" fill="#ff0000" font-size="16.1662" font-family="Helvetica" font-weight="bold">8000</text>
<text xml:space="preserve" x="512.785" y="78.5504" fill="#ff0000" font-size="16.1662" font-family="Helvetica" font-weight="bold">10000</text></svg>
